<svg id="Layer_1" data-name="Layer 1" xmlns="http://www.w3.org/2000/svg" viewBox="0 0 285 375"><defs><style>.cls-1{fill:#fff;}</style></defs><title>tutorial-4</title><polygon class="cls-1" points="173.39 170.76 171.45 165.11 170.22 165 168.83 173.34 170.19 173.46 171.09 168.05 172.63 172.3 173.65 172.39 176.54 168.46 175.63 173.94 176.99 174.06 178.39 165.71 177.19 165.61 173.39 170.76"/><path class="cls-1" d="M187.21,166.86a4.4,4.4,0,0,0-2.05-.66,4,4,0,0,0-2.2.38,3.91,3.91,0,0,0-1.56,1.49,5.5,5.5,0,0,0-.72,2.38,4.49,4.49,0,0,0,.29,2.18,3.32,3.32,0,0,0,1.24,1.5,4.3,4.3,0,0,0,2,.67,4.09,4.09,0,0,0,2.2-.38,3.91,3.91,0,0,0,1.56-1.49,5.51,5.51,0,0,0,.72-2.39,4.51,4.51,0,0,0-.29-2.18A3.36,3.36,0,0,0,187.21,166.86Zm0,3.55a4,4,0,0,1-.9,2.42,2.2,2.2,0,0,1-1.93.74,2.24,2.24,0,0,1-1.7-.87,3,3,0,0,1-.44-2.1,4.08,4.08,0,0,1,.89-2.43,2.21,2.21,0,0,1,1.95-.74,2.15,2.15,0,0,1,1.69.87A3.07,3.07,0,0,1,187.19,170.41Z"/><path class="cls-1" d="M191.91,172.9a1.41,1.41,0,0,1-.42.89,1.38,1.38,0,0,1-.93.26l-.77,0,0,1.25.87,0a3,3,0,0,0,1.95-.53,2.66,2.66,0,0,0,.89-1.75l1-5.9L192.9,167Z"/><polygon class="cls-1" points="196.27 175.74 197.81 175.88 199.2 167.53 197.66 167.4 196.27 175.74"/><polygon class="cls-1" points="203.04 176.33 204.58 176.47 205.76 169.38 208.5 169.62 208.71 168.37 201.69 167.75 201.48 169.01 204.22 169.25 203.04 176.33"/><path class="cls-1" d="M211.22,176.67a4.3,4.3,0,0,0,2.05.67,4,4,0,0,0,2.2-.39,3.84,3.84,0,0,0,1.56-1.49,5.46,5.46,0,0,0,.72-2.38,4.51,4.51,0,0,0-.29-2.18,3.26,3.26,0,0,0-1.24-1.5,4.4,4.4,0,0,0-2.05-.66,3.91,3.91,0,0,0-2.2.38,3.84,3.84,0,0,0-1.56,1.49,5.46,5.46,0,0,0-.72,2.38,4.49,4.49,0,0,0,.29,2.18A3.26,3.26,0,0,0,211.22,176.67Zm0-3.53a4.08,4.08,0,0,1,.89-2.43,2.22,2.22,0,0,1,1.95-.75,2.19,2.19,0,0,1,1.69.88,3.06,3.06,0,0,1,.44,2.11,4,4,0,0,1-.9,2.42,2.44,2.44,0,0,1-3.63-.13A3,3,0,0,1,211.23,173.14Z"/><polygon class="cls-1" points="56.64 230.39 55.95 223.24 54.44 223.5 55.25 231.92 60.64 230.97 60.51 229.71 56.64 230.39"/><path class="cls-1" d="M69,222.73a3.34,3.34,0,0,0-1.59-1.13,4.38,4.38,0,0,0-2.15-.11,4,4,0,0,0-2,.94,3.86,3.86,0,0,0-1.12,1.84,5.58,5.58,0,0,0-.08,2.49,4.57,4.57,0,0,0,.84,2,3.34,3.34,0,0,0,1.59,1.13,4.38,4.38,0,0,0,2.15.11,4,4,0,0,0,2-.94,3.86,3.86,0,0,0,1.12-1.84,5.58,5.58,0,0,0,.08-2.49A4.62,4.62,0,0,0,69,222.73Zm-.93,4.88a2.21,2.21,0,0,1-1.68,1.21,2.23,2.23,0,0,1-1.87-.4,3.09,3.09,0,0,1-1-1.92,4.13,4.13,0,0,1,.24-2.58,2.44,2.44,0,0,1,3.55-.81,3.09,3.09,0,0,1,1,1.92A4.12,4.12,0,0,1,68.05,227.61Z"/><polygon class="cls-1" points="78.97 227.74 80.1 227.54 79.29 219.12 77.87 219.37 78.44 225.21 73.43 220.15 72.3 220.35 73.1 228.77 74.51 228.53 73.97 222.69 78.97 227.74"/><path class="cls-1" d="M88.79,226a5.74,5.74,0,0,0,1.29-.7l-.4-4-3.14.56.09,1.1,1.81-.32.2,2.1a5.37,5.37,0,0,1-1.49.51,2.49,2.49,0,0,1-2.05-.37,3.05,3.05,0,0,1-1-1.91,3.83,3.83,0,0,1,.3-2.58,2.57,2.57,0,0,1,1.9-1.26,3.48,3.48,0,0,1,1.28,0,4,4,0,0,1,1.23.47l.39-1.21a4.38,4.38,0,0,0-3.13-.45,4.53,4.53,0,0,0-2.18,1,4,4,0,0,0-1.22,1.86,5.4,5.4,0,0,0-.1,2.52,4.38,4.38,0,0,0,.84,2A3.18,3.18,0,0,0,85,226.3a4.5,4.5,0,0,0,2.18.1A8.51,8.51,0,0,0,88.79,226Z"/><polygon class="cls-1" points="97.61 224.45 99.13 224.18 98.31 215.77 96.79 216.03 97.61 224.45"/><path class="cls-1" d="M107.52,219.07a2.6,2.6,0,0,0-1-.53,13.57,13.57,0,0,0-1.47-.23,10.07,10.07,0,0,1-1.1-.16,1.76,1.76,0,0,1-.69-.28.87.87,0,0,1-.36-.56,1,1,0,0,1,.32-.95,2.38,2.38,0,0,1,1.25-.54,3.61,3.61,0,0,1,1.31,0,4.07,4.07,0,0,1,1.27.47l.4-1.22a3.83,3.83,0,0,0-1.44-.49,5.18,5.18,0,0,0-1.71,0,4.74,4.74,0,0,0-1.7.61,2.6,2.6,0,0,0-1,1.08,2.25,2.25,0,0,0-.17,1.39,1.94,1.94,0,0,0,.6,1.17,2.63,2.63,0,0,0,1.06.55,14.85,14.85,0,0,0,1.5.24,8,8,0,0,1,1,.15,1.73,1.73,0,0,1,.68.27.75.75,0,0,1,.34.52.93.93,0,0,1-.31.9A2.46,2.46,0,0,1,105,222a4.7,4.7,0,0,1-1.49,0,4.82,4.82,0,0,1-1.41-.45l-.4,1.21a4.77,4.77,0,0,0,1.62.48,6.06,6.06,0,0,0,1.84-.07,4.07,4.07,0,0,0,2.34-1.08,2.16,2.16,0,0,0,.56-2A1.81,1.81,0,0,0,107.52,219.07Z"/><polygon class="cls-1" points="112.42 220.55 111.73 213.4 110.22 213.67 111.03 222.09 116.42 221.14 116.29 219.87 112.42 220.55"/><polygon class="cls-1" points="72.13 234.96 72.95 243.37 74.47 243.11 73.65 234.69 72.13 234.96"/><path class="cls-1" d="M81.29,240.74a2.19,2.19,0,0,1-1.85-.4,3,3,0,0,1-1-1.9,3.82,3.82,0,0,1,.29-2.57,2.45,2.45,0,0,1,1.84-1.24,3.4,3.4,0,0,1,1.23,0,3.73,3.73,0,0,1,1.18.46l.4-1.2a3.71,3.71,0,0,0-1.42-.51,5.1,5.1,0,0,0-1.65,0,4.44,4.44,0,0,0-2.13.95A3.73,3.73,0,0,0,77,236.21a5.29,5.29,0,0,0-.1,2.49,4.67,4.67,0,0,0,.84,2,3.3,3.3,0,0,0,1.55,1.14,4.15,4.15,0,0,0,2.09.12,4.91,4.91,0,0,0,1.55-.54,3.55,3.55,0,0,0,1.1-.95l-.61-1A3.88,3.88,0,0,1,81.29,240.74Z"/><polygon class="cls-1" points="88.2 239.45 87.96 236.99 91.8 236.31 91.69 235.1 87.86 235.78 87.63 233.46 91.7 232.75 91.58 231.53 86.03 232.51 86.84 240.93 92.39 239.95 92.28 238.73 88.2 239.45"/><path class="cls-1" d="M101.12,231.69a3.25,3.25,0,0,0-1.6-1.09,4.72,4.72,0,0,0-2.23-.08l-3,.54.82,8.41,3.25-.57a5.07,5.07,0,0,0,2.3-1,3.64,3.64,0,0,0,1.25-1.79,5.15,5.15,0,0,0,.09-2.49A4.26,4.26,0,0,0,101.12,231.69Zm-3.14,6-1.52.27L95.89,232l1.44-.25a2.75,2.75,0,0,1,2.1.31,2.7,2.7,0,0,1,1,1.82Q101,237.16,98,237.68Z"/><polygon class="cls-1" points="115.1 227.38 108.16 228.6 108.29 229.87 111 229.39 111.69 236.54 113.21 236.28 112.52 229.12 115.23 228.64 115.1 227.38"/><path class="cls-1" d="M68.2,132c.86,1.65,3.24,7.21,6.3,14.58l-10.72,1.89L87,207.43,108,203.72l.47-18.64.07-2.46.06-2.47.61-23.9a12.28,12.28,0,0,0-4.49-24,9.23,9.23,0,0,0-1,.13,12,12,0,0,0-1.49.36,12.51,12.51,0,0,0-2.58,1.15,12.36,12.36,0,0,0-6,9.38L77.79,146c-4.4-10.59-6.91-16.17-7.49-16.67s-2-1.75-14.41,2.62L57,135.05C61.27,133.54,66.51,132.05,68.2,132ZM76,150.14c.86,2.08,1.75,4.26,2.67,6.5a42.09,42.09,0,0,0-6.35,3.23l-3.34-8.49Zm28.42,50.42-15,2.66L73.67,163.41a39.67,39.67,0,0,1,6.37-3.3c3.61,8.85,7.44,18.36,10.61,26.29l3-1.22q-6-15-10.49-26a13,13,0,0,1,3.09-.32,31.25,31.25,0,0,1,4.82.6,25.15,25.15,0,0,0,6.26.56,17.07,17.07,0,0,0,2.51-.34,16.5,16.5,0,0,0,1.87-.47l.66-.2,3-.92-.54,21-.06,2.73-.07,2.61Zm-5.13-62.11a9.16,9.16,0,0,1,5.06-2.82l.15,0a8.94,8.94,0,0,1,8.76,13.93,8.78,8.78,0,0,1-3.88,3.13l.31-12.26-5.7,1-2.52.45-2.51.44-1.78.31A8.87,8.87,0,0,1,99.25,138.45Zm-.67,7.7,2.52-.44,2.51-.45,2.18-.38-.23,9.24-2.79.84-2.11.64-.44.12a14.46,14.46,0,0,1-2.52.49,20.1,20.1,0,0,1-5.93-.46,34,34,0,0,0-5.38-.66,17.78,17.78,0,0,0-4.64.53c-.87-2.15-1.71-4.17-2.48-6.06Z"/><polygon class="cls-1" points="99.25 166.76 98.25 161.07 97.26 161.24 91.73 162.22 92.88 168.75 96.66 168.08 99.18 167.64 99.4 167.6 99.25 166.77 99.25 166.76"/><rect class="cls-1" x="90.01" y="193.25" width="6.63" height="6.62" transform="translate(-103.52 289.3) rotate(-89.83)"/><polygon class="cls-1" points="95.34 172.88 91.53 174.87 93.51 178.68 97.06 176.84 97.32 176.7 96.62 175.35 95.34 172.88"/><path class="cls-1" d="M261.25,191.46l-24-4.23a12.33,12.33,0,0,0,.76-3.33L248.23,67.09A12.48,12.48,0,0,0,236.9,53.58L120.09,43.36a12.47,12.47,0,0,0-13.51,11.33l-4.55,52-78.28,13.8A12.48,12.48,0,0,0,13.64,134.9L34,250.38a12.47,12.47,0,0,0,12.25,10.31,13.5,13.5,0,0,0,2.19-.19L119.56,248,111,296.69a12.45,12.45,0,0,0,10.11,14.44L236.56,331.5a13.5,13.5,0,0,0,2.19.19A12.47,12.47,0,0,0,251,321.38L271.36,205.9A12.48,12.48,0,0,0,261.25,191.46Zm5.25,13.59L246.14,320.53a7.54,7.54,0,0,1-8.72,6.11L121.94,306.27a7.52,7.52,0,0,1-6.11-8.72l8.9-50.51.46-2.58.46-2.59,1.5-8.54,1.47-8.33,1.1-6.21.34-2,.54-3,.3-1.7,4.35-24.67.43-2.43.43-2.44.08-.48a7.55,7.55,0,0,1,7.41-6.23,7.37,7.37,0,0,1,1.32.12l15.82,2.79,2.59.46,2.58.45,60.41,10.65,4.78.85,3.22.56,26.07,4.6A7.53,7.53,0,0,1,266.5,205.05ZM42,254.39a7.49,7.49,0,0,1-3.1-4.86L18.5,134.05a7.54,7.54,0,0,1,6.11-8.73l77-13.57,2.52-.45,2.51-.44,33.46-5.9a7.54,7.54,0,0,1,8.73,6.11l.75,4.26.68,3.87.7,4,3.52,20,.73,4.11,3.58,20.29.22,1.27.54,3.05-.11.66.23,0,.18,1-11.07-2-2.33-.41h0l-.65-.11a12.48,12.48,0,0,0-14.44,10.11l-.16.91-.43,2.44-.43,2.43-5.23,29.69-3-5.1-1.24.22-2.94,9.08,1.56-.28.63-2.11,4-.72.58,1-1.91,10.82-3.53.63-.23-2.32,4.07-.71L123,226l-5.55,1,.81,8.42,3.64-.64-1.42,8L47.58,255.64A7.53,7.53,0,0,1,42,254.39ZM154.54,105.82l15.62,1.37,5.24,16.56A19.55,19.55,0,0,1,172,122a58.75,58.75,0,0,0-5.63-3.08c-3.31-1.58-7.57-1.47-11.32-.82h0l-1.38-7.86a12.27,12.27,0,0,0-1.24-3.63A5,5,0,0,1,154.54,105.82Zm36.81-11.29-.28,3.2-34-3,.28-3.2Zm-4.89-17.66c2.87-2.26,5.88-4.4,9-6.38.72,2.71,1.24,5.38,1.06,6.18-.76,3.36-3.56,10.49-7.31,11.06l-3.81.58C184.56,84.9,183.83,79,186.46,76.87Zm-64.34,156.6-2.51.44-.23-2.46,3.19-.57ZM155.75,122c3.18-.54,6.53-.64,8.9.5a52.45,52.45,0,0,1,5.28,2.89,18.29,18.29,0,0,0,8.18,3.11,10.15,10.15,0,0,0,1.39.09c4.52,0,11.29-2.41,15.26-4L193.3,141.3a5.23,5.23,0,0,1-5.66,4.75l-28.09-2.46Zm39.4-1.92c-3.73,1.59-11.1,4.35-15.26,4.49l-5.39-17,17.44,1.52a5.23,5.23,0,0,1,3.7,5.45Zm-4.43-18.36-.27,3.07-34-3,.27-3.07Zm-67.2,114.93-3,.53,1.16-3.85Zm-12-161.55A7.53,7.53,0,0,1,119,48.25l.67,0L236.47,58.5a7.54,7.54,0,0,1,6.85,8.16L233.1,183.47a7.51,7.51,0,0,1-.85,2.88L165,174.49l-4.72-26.8,27,2.36a7.63,7.63,0,0,0,.82,0,9.23,9.23,0,0,0,9.19-8.44l2.34-26.76a9.25,9.25,0,0,0-5.24-9.15l.32-3.66,5,.44.35-4-5-.44.63-7.2-3-.26c5.45-3.31,7.63-12.6,7.73-13.06.6-2.62-1.29-8.93-1.88-10.8l-.77-2.45-2.2,1.34A122.81,122.81,0,0,0,184,73.71c-4.83,3.83-3.33,12.34-2.43,15.93l-11.31-1h0c-.67-4.08-2.8-16.34-4.29-18.89-1.74-3-9.25-2.81-15.24-2.14l.45,4c5-.55,10.25-.41,11.38.3.76,1.58,2.38,9.37,3.56,16.38l-12.37-1.08-.63,7.2-4.3-.38-.35,4,4.3.38-.33,3.79a8.55,8.55,0,0,0-2.4,1.15,12.46,12.46,0,0,0-10.77-3.26l-32.16,5.67Z"/><polygon class="cls-1" points="158.56 296.44 157.12 290.63 155.9 290.42 153.79 298.61 155.13 298.84 156.5 293.53 157.67 297.9 158.68 298.08 161.9 294.41 160.52 299.79 161.86 300.03 163.98 291.84 162.79 291.63 158.56 296.44"/><path class="cls-1" d="M170.05,292.91l-5.87,7.53,1.55.27,1.32-1.77,4,.71.35,2.07,1.48.26-1.65-8.85Zm-2.19,5,2.42-3.22.62,3.75Z"/><path class="cls-1" d="M181,294.85l-3.69-.66-2.12,8.19,1.5.27.85-3.29,1.14.2a1.57,1.57,0,0,1,.7.28,1.19,1.19,0,0,1,.36.61l.79,2.87,1.64.29-.78-2.76a2.18,2.18,0,0,0-.28-.67,1.4,1.4,0,0,0-.49-.41,2.34,2.34,0,0,0,2.66-2.13,2.16,2.16,0,0,0-.4-1.83A3,3,0,0,0,181,294.85Zm.84,2.62c-.16.94-.79,1.31-1.88,1.11l-2.12-.37.66-2.59,2.12.37a1.69,1.69,0,0,1,1,.49A1.19,1.19,0,0,1,181.86,297.47Z"/><polygon class="cls-1" points="185.61 296.94 188.32 297.42 186.52 304.38 188.04 304.64 189.84 297.69 192.55 298.17 192.86 296.93 185.92 295.71 185.61 296.94"/><polygon class="cls-1" points="193.19 305.55 194.71 305.82 196.82 297.63 195.3 297.36 193.19 305.55"/><polygon class="cls-1" points="204.13 304.86 201.15 298.4 200.02 298.2 197.9 306.38 199.31 306.63 200.8 300.97 203.76 307.42 204.9 307.62 207.02 299.43 205.59 299.18 204.13 304.86"/><polygon class="cls-1" points="208.1 308.18 209.62 308.45 211.73 300.26 210.21 299.99 208.1 308.18"/><path class="cls-1" d="M229.23,220.21l-52.84-9.32-2.9-5.1a1.39,1.39,0,1,0-2.42,1.38l1.76,3.09-1.57-.28-2.59-.45-2.58-.46H166a1.4,1.4,0,0,0-1.61,1.15,1.32,1.32,0,0,0,.17.93l2.67,4.6,1.4,2.4,2.21,3.84,3.35,5.83,12.58,21.87a5.88,5.88,0,0,0,.88,1.17l-3.46,19.6-7.53,2.89a2.58,2.58,0,0,0,.48,5l17.92,3.16a2.58,2.58,0,0,0,2.14-4.5l-6.09-5.29L194.61,252a5.92,5.92,0,0,0,1.15-.77v0l27.81-23.42,6.31-5.18a1.39,1.39,0,0,0-.64-2.44Zm-58.48-4L169.46,214l-1-1.64.69.12,2.59.46,2.83.5,2.19,3.85-4.39-.78ZM188.28,272a1.39,1.39,0,0,0,.41,1.28l6.16,5.34-16.49-2.91,7.62-2.91a1.36,1.36,0,0,0,.86-1l3.41-19.31a7,7,0,0,0,1.44.25ZM194,249.12a3.17,3.17,0,0,1-2.54.7,3.24,3.24,0,0,1-2.21-1.54l-16.14-28.05-.15-.83,5.66,1,6.84,12a5.85,5.85,0,0,0,5.61,9.88l2.68,4.79a1.44,1.44,0,0,0,1,.68,1.35,1.35,0,0,0,.92-.17,1.39,1.39,0,0,0,.57-1.88l0-.05-2.7-4.72a5.78,5.78,0,0,0,1.74-3.23,5.85,5.85,0,0,0-7.35-6.65l-5.69-10,37.35,6.59Zm-7.56-13a3.07,3.07,0,0,1,6,1.05,0,0,0,0,0,0,0,3.07,3.07,0,0,1-6-1.07Zm35.89-10.86-41.93-7.4L178.18,214l47.59,8.39Z"/><path class="cls-1" d="M201.54,237.88l.05,0a1.35,1.35,0,0,0,.82.47,1.37,1.37,0,0,0,1.14-.3l7.54-6.39a1.43,1.43,0,0,0,.71-1.23,1.37,1.37,0,0,0-.19-.7h0a1.41,1.41,0,0,0-1-.68,1.44,1.44,0,0,0-1.16.31l-7.74,6.57a1.38,1.38,0,0,0-.2,2Z"/><path class="cls-1" d="M197.41,241.87a1.4,1.4,0,0,0,1.6-.08,1.42,1.42,0,0,0,.46-1.57,1.39,1.39,0,0,0-2.59-.08A1.42,1.42,0,0,0,197.41,241.87Z"/></svg>