<svg id="Layer_1" data-name="Layer 1" xmlns="http://www.w3.org/2000/svg" viewBox="0 0 285 375"><defs><style>.cls-1{fill:#fff;}</style></defs><title>tutorial-3</title><path class="cls-1" d="M103.52,337.5a3.19,3.19,0,0,1-3.19-3.19V40.69a3.19,3.19,0,1,1,6.38,0V334.31A3.19,3.19,0,0,1,103.52,337.5Z"/><path class="cls-1" d="M140.75,43.88H103.52a3.19,3.19,0,1,1,0-6.38h37.23a3.19,3.19,0,0,1,0,6.38Z"/><path class="cls-1" d="M125.86,68.35H103.52a3.19,3.19,0,0,1,0-6.38h22.34a3.19,3.19,0,1,1,0,6.38Z"/><path class="cls-1" d="M140.75,92.82H103.52a3.19,3.19,0,1,1,0-6.38h37.23a3.19,3.19,0,0,1,0,6.38Z"/><path class="cls-1" d="M125.86,117.29H103.52a3.2,3.2,0,0,1,0-6.39h22.34a3.2,3.2,0,0,1,0,6.39Z"/><path class="cls-1" d="M140.75,141.76H103.52a3.2,3.2,0,0,1,0-6.39h37.23a3.2,3.2,0,0,1,0,6.39Z"/><path class="cls-1" d="M125.86,166.22H103.52a3.19,3.19,0,0,1,0-6.38h22.34a3.19,3.19,0,1,1,0,6.38Z"/><path class="cls-1" d="M140.75,190.69H103.52a3.19,3.19,0,1,1,0-6.38h37.23a3.19,3.19,0,0,1,0,6.38Z"/><path class="cls-1" d="M125.86,215.16H103.52a3.19,3.19,0,0,1,0-6.38h22.34a3.19,3.19,0,1,1,0,6.38Z"/><path class="cls-1" d="M140.75,239.63H103.52a3.2,3.2,0,0,1,0-6.39h37.23a3.2,3.2,0,0,1,0,6.39Z"/><path class="cls-1" d="M125.86,264.1H103.52a3.2,3.2,0,0,1,0-6.39h22.34a3.2,3.2,0,0,1,0,6.39Z"/><path class="cls-1" d="M140.75,288.56H103.52a3.19,3.19,0,0,1,0-6.38h37.23a3.19,3.19,0,0,1,0,6.38Z"/><path class="cls-1" d="M125.86,313H103.52a3.19,3.19,0,1,1,0-6.38h22.34a3.19,3.19,0,1,1,0,6.38Z"/><path class="cls-1" d="M140.75,337.5H103.52a3.19,3.19,0,1,1,0-6.38h37.23a3.19,3.19,0,1,1,0,6.38Z"/><path class="cls-1" d="M187.89,290.52V272.31h-4.55V294.5h12.08v-4Z"/><path class="cls-1" d="M217,278.11a9.8,9.8,0,0,0-1.78-3.57,6.77,6.77,0,0,0-2.77-2,11,11,0,0,0-7.24,0,6.7,6.7,0,0,0-2.77,2,10,10,0,0,0-1.78,3.57,22.18,22.18,0,0,0,0,10.58,9.88,9.88,0,0,0,1.78,3.57,6.53,6.53,0,0,0,2.77,2,10.88,10.88,0,0,0,7.24,0,6.59,6.59,0,0,0,2.77-2,9.72,9.72,0,0,0,1.78-3.57,22.18,22.18,0,0,0,0-10.58Zm-4.19,8.2a5.08,5.08,0,0,1-1,3.45,4.36,4.36,0,0,1-5.88,0,5,5,0,0,1-1-3.45V280.5a5.06,5.06,0,0,1,1-3.46,4.33,4.33,0,0,1,5.88,0,5.11,5.11,0,0,1,1,3.46Z"/><path class="cls-1" d="M244.77,272.31l-2.07,12.26-.57,4.94h-.51l-.57-4.81-2.58-12.39h-5l-2.54,12.39-.57,4.81h-.51l-.58-4.94-2.09-12.26H222.7l4.45,22.19h5.28L235,281.71l.57-4.41h.51l.58,4.41,2.6,12.79h5.15l4.64-22.19Z"/><path class="cls-1" d="M197.71,174.44l-3,6.6-1.65,4.75h-.32L191.13,181l-3-6.6h-4.77v22.19h4.26V185.05l-.25-3.72h.51l1.36,3.53,3.66,8,3.69-8,1.36-3.53h.51l-.25,3.72v11.58h4.26V174.44Z"/><path class="cls-1" d="M224,178.4v-4H210.3v22.19H224v-4h-9.19v-5.28h7.78v-4h-7.78v-5Z"/><path class="cls-1" d="M247.12,180.45A9.18,9.18,0,0,0,245.4,177a6.67,6.67,0,0,0-2.71-2,10.18,10.18,0,0,0-3.64-.61h-7.8v22.19h7.8a10.4,10.4,0,0,0,3.64-.62,6.58,6.58,0,0,0,2.71-2,9.36,9.36,0,0,0,1.72-3.43,18.38,18.38,0,0,0,.61-5.09A18.16,18.16,0,0,0,247.12,180.45Zm-4.23,7.75q0,4.45-3.84,4.45H235.8V178.4h3.25q3.84,0,3.84,4.46Z"/><path class="cls-1" d="M195.26,76.56v9h-7.37v-9h-4.55v22.2h4.55V89.5h7.37v9.26h4.55V76.56Z"/><path class="cls-1" d="M216.65,80.15V76.56H206.9v3.59h2.61v15H206.9v3.6h9.75v-3.6h-2.6v-15Z"/><path class="cls-1" d="M232.21,86.51v3.82h3.66v1.3a3.1,3.1,0,0,1-1.13,2.59,4.49,4.49,0,0,1-2.85.88,4,4,0,0,1-3-1.13,4.82,4.82,0,0,1-1.08-3.43v-5.8a4.89,4.89,0,0,1,1.07-3.44,3.7,3.7,0,0,1,2.87-1.15,4.34,4.34,0,0,1,2.86.88,4.83,4.83,0,0,1,1.5,2.38l3.72-2.12a8.39,8.39,0,0,0-3.09-3.82,8.88,8.88,0,0,0-5-1.29,9.81,9.81,0,0,0-3.63.64,6.64,6.64,0,0,0-2.76,2,10.09,10.09,0,0,0-1.78,3.58,19.54,19.54,0,0,0-.64,5.35,18.8,18.8,0,0,0,.66,5.31,10.21,10.21,0,0,0,1.73,3.53,6.47,6.47,0,0,0,2.52,1.93,7.53,7.53,0,0,0,3,.61,5.21,5.21,0,0,0,3.49-1.09,4.27,4.27,0,0,0,1.51-2.79h.51v3.5h3.81V86.51Z"/><path class="cls-1" d="M259.71,76.56v9h-7.37v-9h-4.55v22.2h4.55V89.5h7.37v9.26h4.55V76.56Z"/><path class="cls-1" d="M68.07,171.31a7.51,7.51,0,0,0-5.81-2.22,7.52,7.52,0,0,0-5.84,2.22q-2,2.24-2,7.26t2,7.26a7.52,7.52,0,0,0,5.84,2.22,7.51,7.51,0,0,0,5.81-2.22q2-2.24,2-7.26T68.07,171.31Zm-3.66,10c0,1.91-.72,2.87-2.15,2.87s-2.16-1-2.16-2.87v-5.56c0-1.91.72-2.87,2.16-2.87s2.15,1,2.15,2.87Zm-5.79-27.29L37.84,187.47h5.75l20.77-33.41Zm-12.86,1.65A7.47,7.47,0,0,0,40,153.49a7.48,7.48,0,0,0-5.84,2.22c-1.34,1.49-2,3.9-2,7.25s.67,5.77,2,7.26A7.48,7.48,0,0,0,40,172.44a7.47,7.47,0,0,0,5.81-2.22q2-2.24,2-7.26C47.8,159.61,47.12,157.2,45.76,155.71Zm-3.66,10c0,1.92-.71,2.87-2.15,2.87s-2.16-1-2.16-2.87v-5.55q0-2.88,2.16-2.88c1.44,0,2.15,1,2.15,2.88Z"/><path class="cls-1" d="M34.63,221.51l-1.36-5.43H26.46l-1.36,5.43H20.74L27,199.32h5.78l6.3,22.19ZM30.79,207.3l-.7-3.85h-.51l-.7,3.85-1.3,5.12h4.57Z"/><path class="cls-1" d="M43.5,199.32h9.86a4.84,4.84,0,0,1,4,1.56A6.28,6.28,0,0,1,58.61,205a6.59,6.59,0,0,1-.34,2.31,3.88,3.88,0,0,1-.85,1.43,3.18,3.18,0,0,1-1.2.76,4.56,4.56,0,0,1-1.36.27v.51a5.26,5.26,0,0,1,1.57.26,4.14,4.14,0,0,1,1.48.84A4.44,4.44,0,0,1,59,212.91a5.77,5.77,0,0,1,.41,2.28,8.22,8.22,0,0,1-.35,2.46,6.08,6.08,0,0,1-1,2A4.94,4.94,0,0,1,56.41,221a4.58,4.58,0,0,1-2.16.49H43.5Zm4.55,9.13h4.2a1.67,1.67,0,0,0,1.24-.45,2,2,0,0,0,.44-1.46v-1.46a2,2,0,0,0-.44-1.47,1.71,1.71,0,0,0-1.24-.44h-4.2Zm0,9.22H53a1.65,1.65,0,0,0,1.22-.45,2,2,0,0,0,.47-1.49v-1.59a2,2,0,0,0-.47-1.5A1.69,1.69,0,0,0,53,212.2H48.05Z"/><path class="cls-1" d="M68.4,221.51l-6.52-22.19h4.71l3.56,13.48.7,4.58h.51l.7-4.58,3.5-13.48h4.57l-6.39,22.19Z"/></svg>