<svg id="Layer_1" data-name="Layer 1" xmlns="http://www.w3.org/2000/svg" viewBox="0 0 285 375"><defs><style>.cls-1{fill:#fff;}</style></defs><title>tutorial-1b</title><path class="cls-1" d="M211,22.53H74A26.55,26.55,0,0,0,47.53,49V326A26.55,26.55,0,0,0,74,352.47H211A26.55,26.55,0,0,0,237.47,326V49A26.55,26.55,0,0,0,211,22.53ZM232.53,326A21.6,21.6,0,0,1,211,347.53H74A21.6,21.6,0,0,1,52.47,326V49A21.6,21.6,0,0,1,74,27.47H211A21.6,21.6,0,0,1,232.53,49Z"/><path class="cls-1" d="M64.53,61.53V305.47H220.47V61.53Zm151,239H69.47V66.47H215.53Z"/><path class="cls-1" d="M142,313a13,13,0,1,0,13,13A13,13,0,0,0,142,313Zm0,21a8,8,0,1,1,8-8A8,8,0,0,1,142,334Z"/><path class="cls-1" d="M187.32,152.36H97.68A11.16,11.16,0,0,0,86.53,163.5v27a11.16,11.16,0,0,0,11.15,11.14h89.64a11.16,11.16,0,0,0,11.15-11.14v-27A11.16,11.16,0,0,0,187.32,152.36Zm6.21,38.14a6.21,6.21,0,0,1-6.21,6.2H97.68a6.21,6.21,0,0,1-6.21-6.2v-27a6.21,6.21,0,0,1,6.21-6.2h89.64a6.21,6.21,0,0,1,6.21,6.2Z"/><path class="cls-1" d="M187.32,209.36H97.68A11.16,11.16,0,0,0,86.53,220.5v27a11.16,11.16,0,0,0,11.15,11.14h89.64a11.16,11.16,0,0,0,11.15-11.14v-27A11.16,11.16,0,0,0,187.32,209.36Zm6.21,38.14a6.21,6.21,0,0,1-6.21,6.2H97.68a6.21,6.21,0,0,1-6.21-6.2v-27a6.21,6.21,0,0,1,6.21-6.2h89.64a6.21,6.21,0,0,1,6.21,6.2Z"/><rect class="cls-1" x="89" y="103" width="107" height="10" rx="2.54" ry="2.54"/><rect class="cls-1" x="110" y="119" width="65" height="10" rx="1.98" ry="1.98"/></svg>