<svg id="Layer_1" data-name="Layer 1" xmlns="http://www.w3.org/2000/svg" viewBox="0 0 285 375"><defs><style>.cls-1{fill:#fff;}</style></defs><title>tutorial-3b</title><path class="cls-1" d="M211,22.53H74A26.55,26.55,0,0,0,47.53,49V326A26.55,26.55,0,0,0,74,352.47H211A26.55,26.55,0,0,0,237.47,326V49A26.55,26.55,0,0,0,211,22.53ZM232.53,326A21.6,21.6,0,0,1,211,347.53H74A21.6,21.6,0,0,1,52.47,326V49A21.6,21.6,0,0,1,74,27.47H211A21.6,21.6,0,0,1,232.53,49Z"/><path class="cls-1" d="M64.53,61.53V305.47H220.47V61.53Zm151,239H69.47V66.47H215.53Z"/><path class="cls-1" d="M142,313a13,13,0,1,0,13,13A13,13,0,0,0,142,313Zm0,21a8,8,0,1,1,8-8A8,8,0,0,1,142,334Z"/><path class="cls-1" d="M189.5,148h-93A9.48,9.48,0,0,0,87,157.5v16A9.48,9.48,0,0,0,96.5,183h93A9.48,9.48,0,0,0,199,173.5v-16A9.48,9.48,0,0,0,189.5,148ZM194,173.5A4.53,4.53,0,0,1,189.5,178h-93A4.53,4.53,0,0,1,92,173.5v-16A4.53,4.53,0,0,1,96.5,153h93A4.53,4.53,0,0,1,194,157.5Z"/><path class="cls-1" d="M189.5,189h-93A9.48,9.48,0,0,0,87,198.5v16A9.48,9.48,0,0,0,96.5,224h93A9.48,9.48,0,0,0,199,214.5v-16A9.48,9.48,0,0,0,189.5,189ZM194,214.5A4.53,4.53,0,0,1,189.5,219h-93A4.53,4.53,0,0,1,92,214.5v-16A4.53,4.53,0,0,1,96.5,194h93A4.53,4.53,0,0,1,194,198.5Z"/><path class="cls-1" d="M189.5,230h-93A9.48,9.48,0,0,0,87,239.5v16A9.48,9.48,0,0,0,96.5,265h93A9.48,9.48,0,0,0,199,255.5v-16A9.48,9.48,0,0,0,189.5,230ZM194,255.5A4.53,4.53,0,0,1,189.5,260h-93A4.53,4.53,0,0,1,92,255.5v-16A4.53,4.53,0,0,1,96.5,235h93A4.53,4.53,0,0,1,194,239.5Z"/><rect class="cls-1" x="89" y="103" width="107" height="10" rx="2.54" ry="2.54"/><rect class="cls-1" x="110" y="119" width="65" height="10" rx="1.98" ry="1.98"/></svg>