<svg id="Layer_1" data-name="Layer 1" xmlns="http://www.w3.org/2000/svg" viewBox="0 0 285 375"><defs><style>.cls-1{fill:#fff;}</style></defs><title>tutorial-1</title><g id="Multiplayer_Img" data-name="Multiplayer Img"><path class="cls-1" d="M239.53,110.5a8.21,8.21,0,1,0-11.43-2,8.34,8.34,0,0,0,2,2,14.13,14.13,0,0,0-4.85,2.84,18.36,18.36,0,0,0-6.65-3.62,10.4,10.4,0,1,0-10.75,0,18.42,18.42,0,0,0-6.59,3.55,14.62,14.62,0,0,0-4.79-2.8,8.21,8.21,0,1,0-11.43-2,8,8,0,0,0,2,2,14.44,14.44,0,0,0-9.7,13.65v.94a.06.06,0,0,0,.06.06h17.39a19.33,19.33,0,0,0-.15,2.4v1a7.56,7.56,0,0,0,7.55,7.56h22.06a7.55,7.55,0,0,0,7.56-7.55v-1a19.33,19.33,0,0,0-.15-2.4h17.51s.05,0,.06-.06v-.94A14.47,14.47,0,0,0,239.53,110.5Zm7.35,12.3H231.23a18.72,18.72,0,0,0-4.31-7.87,12.05,12.05,0,0,1,7.81-2.94h.18A12.14,12.14,0,0,1,246.88,122.8ZM235,109.7h-.23a5.9,5.9,0,1,1,.23,0Zm-13.65-8.91a8.12,8.12,0,0,1-7.66,8.11h-.94a8.12,8.12,0,1,1,8.6-8.11Zm8.2,27.7a5.29,5.29,0,0,1-5.29,5.29H202.19a5.28,5.28,0,0,1-5.28-5.29v-1a16.32,16.32,0,0,1,15.8-16.31h1a16.34,16.34,0,0,1,15.8,16.31Zm-31.88-24.72a5.92,5.92,0,0,1-5.81,5.93h-.22a5.93,5.93,0,1,1,6-5.93Zm-6,8.25h.18a12,12,0,0,1,7.75,2.89,18.51,18.51,0,0,0-4.36,7.92H179.67A12.15,12.15,0,0,1,191.64,112Z"/><path class="cls-1" d="M219.3,94.69a8.63,8.63,0,0,0-14.72,6.1,8.65,8.65,0,0,0,8.15,8.61h1a8.62,8.62,0,0,0,5.6-14.71Zm-5.63,13.71h-.91a7.62,7.62,0,0,1,.44-15.23,7.62,7.62,0,0,1,.47,15.23ZM191.73,97.34h0a6.44,6.44,0,0,0-6.42,6.43,6.45,6.45,0,0,0,6.32,6.43h.23a6.43,6.43,0,0,0-.12-12.86Zm.11,11.86h-.21a5.45,5.45,0,0,1-5.33-5.41v0a5.43,5.43,0,0,1,5.42-5.43h0a5.43,5.43,0,0,1,.11,10.86Zm47.53-10a6.43,6.43,0,1,0-4.62,11H235a6.44,6.44,0,0,0,4.38-11Zm-4.39,10h-.22a5.44,5.44,0,0,1,.06-10.87h0A5.44,5.44,0,0,1,235,109.2Zm12.4,13.54a12.64,12.64,0,0,0-12.47-11.25h-.18a12.6,12.6,0,0,0-8.14,3.06l-.39.34.35.38a18.23,18.23,0,0,1,4.19,7.66l.1.37h16.6Zm-15.77-.44a19.43,19.43,0,0,0-4-7.32,11.54,11.54,0,0,1,7.09-2.49h.18a11.65,11.65,0,0,1,11.4,9.81Zm-31.72-7.77a12.44,12.44,0,0,0-8.07-3h-.18a12.66,12.66,0,0,0-12.47,11.26l-.06.55h16.48l.1-.37a18.28,18.28,0,0,1,4.24-7.71l.36-.38Zm-19.65,7.8a11.66,11.66,0,0,1,11.4-9.81h.17a11.51,11.51,0,0,1,7,2.44,19.16,19.16,0,0,0-4,7.37ZM230,127.52a16.78,16.78,0,0,0-16.33-16.81h-1a16.76,16.76,0,0,0-16.28,16.81v1a5.79,5.79,0,0,0,5.78,5.79h22.05a5.8,5.8,0,0,0,5.79-5.79Zm-5.74,5.76h-22a4.79,4.79,0,0,1-4.79-4.79v-1a15.76,15.76,0,0,1,15.27-15.81h1A15.78,15.78,0,0,1,229,127.55l.05,1A4.8,4.8,0,0,1,224.24,133.28Zm23.14-10.54a12.64,12.64,0,0,0-12.47-11.25h-.18a12.6,12.6,0,0,0-8.14,3.06l-.39.34.35.38a18.23,18.23,0,0,1,4.19,7.66l.1.37h16.6Zm-15.77-.44a19.43,19.43,0,0,0-4-7.32,11.54,11.54,0,0,1,7.09-2.49h.18a11.65,11.65,0,0,1,11.4,9.81Zm7.76-23.09a6.43,6.43,0,1,0-4.62,11H235a6.44,6.44,0,0,0,4.38-11Zm-4.39,10h-.22a5.44,5.44,0,0,1,.06-10.87h0A5.44,5.44,0,0,1,235,109.2Zm-5,18.32a16.78,16.78,0,0,0-16.33-16.81h-1a16.76,16.76,0,0,0-16.28,16.81v1a5.79,5.79,0,0,0,5.78,5.79h22.05a5.8,5.8,0,0,0,5.79-5.79Zm-5.74,5.76h-22a4.79,4.79,0,0,1-4.79-4.79v-1a15.76,15.76,0,0,1,15.27-15.81h1A15.78,15.78,0,0,1,229,127.55l.05,1A4.8,4.8,0,0,1,224.24,133.28ZM219.3,94.69a8.63,8.63,0,0,0-14.72,6.1,8.65,8.65,0,0,0,8.15,8.61h1a8.62,8.62,0,0,0,5.6-14.71Zm-5.63,13.71h-.91a7.62,7.62,0,0,1,.44-15.23,7.62,7.62,0,0,1,.47,15.23Zm-13.78,6.13a12.44,12.44,0,0,0-8.07-3h-.18a12.66,12.66,0,0,0-12.47,11.26l-.06.55h16.48l.1-.37a18.28,18.28,0,0,1,4.24-7.71l.36-.38Zm-19.65,7.8a11.66,11.66,0,0,1,11.4-9.81h.17a11.51,11.51,0,0,1,7,2.44,19.16,19.16,0,0,0-4,7.37Zm11.49-25h0a6.44,6.44,0,0,0-6.42,6.43,6.45,6.45,0,0,0,6.32,6.43h.23a6.43,6.43,0,0,0-.12-12.86Zm.11,11.86h-.21a5.45,5.45,0,0,1-5.33-5.41v0a5.43,5.43,0,0,1,5.42-5.43h0a5.43,5.43,0,0,1,.11,10.86Zm-.11-11.86h0a6.44,6.44,0,0,0-6.42,6.43,6.45,6.45,0,0,0,6.32,6.43h.23a6.43,6.43,0,0,0-.12-12.86Zm.11,11.86h-.21a5.45,5.45,0,0,1-5.33-5.41v0a5.43,5.43,0,0,1,5.42-5.43h0a5.43,5.43,0,0,1,.11,10.86Zm8,5.33a12.44,12.44,0,0,0-8.07-3h-.18a12.66,12.66,0,0,0-12.47,11.26l-.06.55h16.48l.1-.37a18.28,18.28,0,0,1,4.24-7.71l.36-.38Zm-19.65,7.8a11.66,11.66,0,0,1,11.4-9.81h.17a11.51,11.51,0,0,1,7,2.44,19.16,19.16,0,0,0-4,7.37ZM219.3,94.69a8.63,8.63,0,0,0-14.72,6.1,8.65,8.65,0,0,0,8.15,8.61h1a8.62,8.62,0,0,0,5.6-14.71Zm-5.63,13.71h-.91a7.62,7.62,0,0,1,.44-15.23,7.62,7.62,0,0,1,.47,15.23ZM230,127.52a16.78,16.78,0,0,0-16.33-16.81h-1a16.76,16.76,0,0,0-16.28,16.81v1a5.79,5.79,0,0,0,5.78,5.79h22.05a5.8,5.8,0,0,0,5.79-5.79Zm-5.74,5.76h-22a4.79,4.79,0,0,1-4.79-4.79v-1a15.76,15.76,0,0,1,15.27-15.81h1A15.78,15.78,0,0,1,229,127.55l.05,1A4.8,4.8,0,0,1,224.24,133.28Zm15.13-34.07a6.43,6.43,0,1,0-4.62,11H235a6.44,6.44,0,0,0,4.38-11Zm-4.39,10h-.22a5.44,5.44,0,0,1,.06-10.87h0A5.44,5.44,0,0,1,235,109.2Zm12.4,13.54a12.64,12.64,0,0,0-12.47-11.25h-.18a12.6,12.6,0,0,0-8.14,3.06l-.39.34.35.38a18.23,18.23,0,0,1,4.19,7.66l.1.37h16.6Zm-15.77-.44a19.43,19.43,0,0,0-4-7.32,11.54,11.54,0,0,1,7.09-2.49h.18a11.65,11.65,0,0,1,11.4,9.81Zm15.77.44a12.64,12.64,0,0,0-12.47-11.25h-.18a12.6,12.6,0,0,0-8.14,3.06l-.39.34.35.38a18.23,18.23,0,0,1,4.19,7.66l.1.37h16.6Zm-15.77-.44a19.43,19.43,0,0,0-4-7.32,11.54,11.54,0,0,1,7.09-2.49h.18a11.65,11.65,0,0,1,11.4,9.81Zm7.76-23.09a6.43,6.43,0,1,0-4.62,11H235a6.44,6.44,0,0,0,4.38-11Zm-4.39,10h-.22a5.44,5.44,0,0,1,.06-10.87h0A5.44,5.44,0,0,1,235,109.2Zm-5,18.32a16.78,16.78,0,0,0-16.33-16.81h-1a16.76,16.76,0,0,0-16.28,16.81v1a5.79,5.79,0,0,0,5.78,5.79h22.05a5.8,5.8,0,0,0,5.79-5.79Zm-5.74,5.76h-22a4.79,4.79,0,0,1-4.79-4.79v-1a15.76,15.76,0,0,1,15.27-15.81h1A15.78,15.78,0,0,1,229,127.55l.05,1A4.8,4.8,0,0,1,224.24,133.28ZM219.3,94.69a8.63,8.63,0,0,0-14.72,6.1,8.65,8.65,0,0,0,8.15,8.61h1a8.62,8.62,0,0,0,5.6-14.71Zm-5.63,13.71h-.91a7.62,7.62,0,0,1,.44-15.23,7.62,7.62,0,0,1,.47,15.23Zm-13.78,6.13a12.44,12.44,0,0,0-8.07-3h-.18a12.66,12.66,0,0,0-12.47,11.26l-.06.55h16.48l.1-.37a18.28,18.28,0,0,1,4.24-7.71l.36-.38Zm-19.65,7.8a11.66,11.66,0,0,1,11.4-9.81h.17a11.51,11.51,0,0,1,7,2.44,19.16,19.16,0,0,0-4,7.37Zm11.49-25h0a6.44,6.44,0,0,0-6.42,6.43,6.45,6.45,0,0,0,6.32,6.43h.23a6.43,6.43,0,0,0-.12-12.86Zm.11,11.86h-.21a5.45,5.45,0,0,1-5.33-5.41v0a5.43,5.43,0,0,1,5.42-5.43h0a5.43,5.43,0,0,1,.11,10.86Zm-.11-11.86h0a6.44,6.44,0,0,0-6.42,6.43,6.45,6.45,0,0,0,6.32,6.43h.23a6.43,6.43,0,0,0-.12-12.86Zm.11,11.86h-.21a5.45,5.45,0,0,1-5.33-5.41v0a5.43,5.43,0,0,1,5.42-5.43h0a5.43,5.43,0,0,1,.11,10.86Zm8,5.33a12.44,12.44,0,0,0-8.07-3h-.18a12.66,12.66,0,0,0-12.47,11.26l-.06.55h16.48l.1-.37a18.28,18.28,0,0,1,4.24-7.71l.36-.38Zm-19.65,7.8a11.66,11.66,0,0,1,11.4-9.81h.17a11.51,11.51,0,0,1,7,2.44,19.16,19.16,0,0,0-4,7.37ZM219.3,94.69a8.63,8.63,0,0,0-14.72,6.1,8.65,8.65,0,0,0,8.15,8.61h1a8.62,8.62,0,0,0,5.6-14.71Zm-5.63,13.71h-.91a7.62,7.62,0,0,1,.44-15.23,7.62,7.62,0,0,1,.47,15.23ZM230,127.52a16.78,16.78,0,0,0-16.33-16.81h-1a16.76,16.76,0,0,0-16.28,16.81v1a5.79,5.79,0,0,0,5.78,5.79h22.05a5.8,5.8,0,0,0,5.79-5.79Zm-5.74,5.76h-22a4.79,4.79,0,0,1-4.79-4.79v-1a15.76,15.76,0,0,1,15.27-15.81h1A15.78,15.78,0,0,1,229,127.55l.05,1A4.8,4.8,0,0,1,224.24,133.28Zm15.13-34.07a6.43,6.43,0,1,0-4.62,11H235a6.44,6.44,0,0,0,4.38-11Zm-4.39,10h-.22a5.44,5.44,0,0,1,.06-10.87h0A5.44,5.44,0,0,1,235,109.2Zm12.4,13.54a12.64,12.64,0,0,0-12.47-11.25h-.18a12.6,12.6,0,0,0-8.14,3.06l-.39.34.35.38a18.23,18.23,0,0,1,4.19,7.66l.1.37h16.6Zm-15.77-.44a19.43,19.43,0,0,0-4-7.32,11.54,11.54,0,0,1,7.09-2.49h.18a11.65,11.65,0,0,1,11.4,9.81Zm15.77.44a12.64,12.64,0,0,0-12.47-11.25h-.18a12.6,12.6,0,0,0-8.14,3.06l-.39.34.35.38a18.23,18.23,0,0,1,4.19,7.66l.1.37h16.6Zm-15.77-.44a19.43,19.43,0,0,0-4-7.32,11.54,11.54,0,0,1,7.09-2.49h.18a11.65,11.65,0,0,1,11.4,9.81Zm7.76-23.09a6.43,6.43,0,1,0-4.62,11H235a6.44,6.44,0,0,0,4.38-11Zm-4.39,10h-.22a5.44,5.44,0,0,1,.06-10.87h0A5.44,5.44,0,0,1,235,109.2Zm-5,18.32a16.78,16.78,0,0,0-16.33-16.81h-1a16.76,16.76,0,0,0-16.28,16.81v1a5.79,5.79,0,0,0,5.78,5.79h22.05a5.8,5.8,0,0,0,5.79-5.79Zm-5.74,5.76h-22a4.79,4.79,0,0,1-4.79-4.79v-1a15.76,15.76,0,0,1,15.27-15.81h1A15.78,15.78,0,0,1,229,127.55l.05,1A4.8,4.8,0,0,1,224.24,133.28ZM219.3,94.69a8.63,8.63,0,0,0-14.72,6.1,8.65,8.65,0,0,0,8.15,8.61h1a8.62,8.62,0,0,0,5.6-14.71Zm-5.63,13.71h-.91a7.62,7.62,0,0,1,.44-15.23,7.62,7.62,0,0,1,.47,15.23Zm-13.78,6.13a12.44,12.44,0,0,0-8.07-3h-.18a12.66,12.66,0,0,0-12.47,11.26l-.06.55h16.48l.1-.37a18.28,18.28,0,0,1,4.24-7.71l.36-.38Zm-19.65,7.8a11.66,11.66,0,0,1,11.4-9.81h.17a11.51,11.51,0,0,1,7,2.44,19.16,19.16,0,0,0-4,7.37Zm11.49-25h0a6.44,6.44,0,0,0-6.42,6.43,6.45,6.45,0,0,0,6.32,6.43h.23a6.43,6.43,0,0,0-.12-12.86Zm.11,11.86h-.21a5.45,5.45,0,0,1-5.33-5.41v0a5.43,5.43,0,0,1,5.42-5.43h0a5.43,5.43,0,0,1,.11,10.86Zm-.11-11.86h0a6.44,6.44,0,0,0-6.42,6.43,6.45,6.45,0,0,0,6.32,6.43h.23a6.43,6.43,0,0,0-.12-12.86Zm.11,11.86h-.21a5.45,5.45,0,0,1-5.33-5.41v0a5.43,5.43,0,0,1,5.42-5.43h0a5.43,5.43,0,0,1,.11,10.86Zm8,5.33a12.44,12.44,0,0,0-8.07-3h-.18a12.66,12.66,0,0,0-12.47,11.26l-.06.55h16.48l.1-.37a18.28,18.28,0,0,1,4.24-7.71l.36-.38Zm-19.65,7.8a11.66,11.66,0,0,1,11.4-9.81h.17a11.51,11.51,0,0,1,7,2.44,19.16,19.16,0,0,0-4,7.37ZM219.3,94.69a8.63,8.63,0,0,0-14.72,6.1,8.65,8.65,0,0,0,8.15,8.61h1a8.62,8.62,0,0,0,5.6-14.71Zm-5.63,13.71h-.91a7.62,7.62,0,0,1,.44-15.23,7.62,7.62,0,0,1,.47,15.23ZM230,127.52a16.78,16.78,0,0,0-16.33-16.81h-1a16.76,16.76,0,0,0-16.28,16.81v1a5.79,5.79,0,0,0,5.78,5.79h22.05a5.8,5.8,0,0,0,5.79-5.79Zm-5.74,5.76h-22a4.79,4.79,0,0,1-4.79-4.79v-1a15.76,15.76,0,0,1,15.27-15.81h1A15.78,15.78,0,0,1,229,127.55l.05,1A4.8,4.8,0,0,1,224.24,133.28Zm15.13-34.07a6.43,6.43,0,1,0-4.62,11H235a6.44,6.44,0,0,0,4.38-11Zm-4.39,10h-.22a5.44,5.44,0,0,1,.06-10.87h0A5.44,5.44,0,0,1,235,109.2Zm12.4,13.54a12.64,12.64,0,0,0-12.47-11.25h-.18a12.6,12.6,0,0,0-8.14,3.06l-.39.34.35.38a18.23,18.23,0,0,1,4.19,7.66l.1.37h16.6Zm-15.77-.44a19.43,19.43,0,0,0-4-7.32,11.54,11.54,0,0,1,7.09-2.49h.18a11.65,11.65,0,0,1,11.4,9.81Zm15.77.44a12.64,12.64,0,0,0-12.47-11.25h-.18a12.6,12.6,0,0,0-8.14,3.06l-.39.34.35.38a18.23,18.23,0,0,1,4.19,7.66l.1.37h16.6Zm-15.77-.44a19.43,19.43,0,0,0-4-7.32,11.54,11.54,0,0,1,7.09-2.49h.18a11.65,11.65,0,0,1,11.4,9.81Zm7.76-23.09a6.43,6.43,0,1,0-4.62,11H235a6.44,6.44,0,0,0,4.38-11Zm-4.39,10h-.22a5.44,5.44,0,0,1,.06-10.87h0A5.44,5.44,0,0,1,235,109.2Zm-5,18.32a16.78,16.78,0,0,0-16.33-16.81h-1a16.76,16.76,0,0,0-16.28,16.81v1a5.79,5.79,0,0,0,5.78,5.79h22.05a5.8,5.8,0,0,0,5.79-5.79Zm-5.74,5.76h-22a4.79,4.79,0,0,1-4.79-4.79v-1a15.76,15.76,0,0,1,15.27-15.81h1A15.78,15.78,0,0,1,229,127.55l.05,1A4.8,4.8,0,0,1,224.24,133.28ZM219.3,94.69a8.63,8.63,0,0,0-14.72,6.1,8.65,8.65,0,0,0,8.15,8.61h1a8.62,8.62,0,0,0,5.6-14.71Zm-5.63,13.71h-.91a7.62,7.62,0,0,1,.44-15.23,7.62,7.62,0,0,1,.47,15.23Zm-13.78,6.13a12.44,12.44,0,0,0-8.07-3h-.18a12.66,12.66,0,0,0-12.47,11.26l-.06.55h16.48l.1-.37a18.28,18.28,0,0,1,4.24-7.71l.36-.38Zm-19.65,7.8a11.66,11.66,0,0,1,11.4-9.81h.17a11.51,11.51,0,0,1,7,2.44,19.16,19.16,0,0,0-4,7.37Zm11.49-25h0a6.44,6.44,0,0,0-6.42,6.43,6.45,6.45,0,0,0,6.32,6.43h.23a6.43,6.43,0,0,0-.12-12.86Zm.11,11.86h-.21a5.45,5.45,0,0,1-5.33-5.41v0a5.43,5.43,0,0,1,5.42-5.43h0a5.43,5.43,0,0,1,.11,10.86Zm-.11-11.86h0a6.44,6.44,0,0,0-6.42,6.43,6.45,6.45,0,0,0,6.32,6.43h.23a6.43,6.43,0,0,0-.12-12.86Zm.11,11.86h-.21a5.45,5.45,0,0,1-5.33-5.41v0a5.43,5.43,0,0,1,5.42-5.43h0a5.43,5.43,0,0,1,.11,10.86Zm8,5.33a12.44,12.44,0,0,0-8.07-3h-.18a12.66,12.66,0,0,0-12.47,11.26l-.06.55h16.48l.1-.37a18.28,18.28,0,0,1,4.24-7.71l.36-.38Zm-19.65,7.8a11.66,11.66,0,0,1,11.4-9.81h.17a11.51,11.51,0,0,1,7,2.44,19.16,19.16,0,0,0-4,7.37ZM219.3,94.69a8.63,8.63,0,0,0-14.72,6.1,8.65,8.65,0,0,0,8.15,8.61h1a8.62,8.62,0,0,0,5.6-14.71Zm-5.63,13.71h-.91a7.62,7.62,0,0,1,.44-15.23,7.62,7.62,0,0,1,.47,15.23ZM230,127.52a16.78,16.78,0,0,0-16.33-16.81h-1a16.76,16.76,0,0,0-16.28,16.81v1a5.79,5.79,0,0,0,5.78,5.79h22.05a5.8,5.8,0,0,0,5.79-5.79Zm-5.74,5.76h-22a4.79,4.79,0,0,1-4.79-4.79v-1a15.76,15.76,0,0,1,15.27-15.81h1A15.78,15.78,0,0,1,229,127.55l.05,1A4.8,4.8,0,0,1,224.24,133.28Zm15.13-34.07a6.43,6.43,0,1,0-4.62,11H235a6.44,6.44,0,0,0,4.38-11Zm-4.39,10h-.22a5.44,5.44,0,0,1,.06-10.87h0A5.44,5.44,0,0,1,235,109.2Zm12.4,13.54a12.64,12.64,0,0,0-12.47-11.25h-.18a12.6,12.6,0,0,0-8.14,3.06l-.39.34.35.38a18.23,18.23,0,0,1,4.19,7.66l.1.37h16.6Zm-15.77-.44a19.43,19.43,0,0,0-4-7.32,11.54,11.54,0,0,1,7.09-2.49h.18a11.65,11.65,0,0,1,11.4,9.81Zm15.77.44a12.64,12.64,0,0,0-12.47-11.25h-.18a12.6,12.6,0,0,0-8.14,3.06l-.39.34.35.38a18.23,18.23,0,0,1,4.19,7.66l.1.37h16.6Zm-15.77-.44a19.43,19.43,0,0,0-4-7.32,11.54,11.54,0,0,1,7.09-2.49h.18a11.65,11.65,0,0,1,11.4,9.81Zm7.76-23.09a6.43,6.43,0,1,0-4.62,11H235a6.44,6.44,0,0,0,4.38-11Zm-4.39,10h-.22a5.44,5.44,0,0,1,.06-10.87h0A5.44,5.44,0,0,1,235,109.2Zm-5,18.32a16.78,16.78,0,0,0-16.33-16.81h-1a16.76,16.76,0,0,0-16.28,16.81v1a5.79,5.79,0,0,0,5.78,5.79h22.05a5.8,5.8,0,0,0,5.79-5.79Zm-5.74,5.76h-22a4.79,4.79,0,0,1-4.79-4.79v-1a15.76,15.76,0,0,1,15.27-15.81h1A15.78,15.78,0,0,1,229,127.55l.05,1A4.8,4.8,0,0,1,224.24,133.28ZM219.3,94.69a8.63,8.63,0,0,0-14.72,6.1,8.65,8.65,0,0,0,8.15,8.61h1a8.62,8.62,0,0,0,5.6-14.71Zm-5.63,13.71h-.91a7.62,7.62,0,0,1,.44-15.23,7.62,7.62,0,0,1,.47,15.23Zm-13.78,6.13a12.44,12.44,0,0,0-8.07-3h-.18a12.66,12.66,0,0,0-12.47,11.26l-.06.55h16.48l.1-.37a18.28,18.28,0,0,1,4.24-7.71l.36-.38Zm-19.65,7.8a11.66,11.66,0,0,1,11.4-9.81h.17a11.51,11.51,0,0,1,7,2.44,19.16,19.16,0,0,0-4,7.37Zm11.49-25h0a6.44,6.44,0,0,0-6.42,6.43,6.45,6.45,0,0,0,6.32,6.43h.23a6.43,6.43,0,0,0-.12-12.86Zm.11,11.86h-.21a5.45,5.45,0,0,1-5.33-5.41v0a5.43,5.43,0,0,1,5.42-5.43h0a5.43,5.43,0,0,1,.11,10.86Zm-.11-11.86h0a6.44,6.44,0,0,0-6.42,6.43,6.45,6.45,0,0,0,6.32,6.43h.23a6.43,6.43,0,0,0-.12-12.86Zm.11,11.86h-.21a5.45,5.45,0,0,1-5.33-5.41v0a5.43,5.43,0,0,1,5.42-5.43h0a5.43,5.43,0,0,1,.11,10.86Zm8,5.33a12.44,12.44,0,0,0-8.07-3h-.18a12.66,12.66,0,0,0-12.47,11.26l-.06.55h16.48l.1-.37a18.28,18.28,0,0,1,4.24-7.71l.36-.38Zm-19.65,7.8a11.66,11.66,0,0,1,11.4-9.81h.17a11.51,11.51,0,0,1,7,2.44,19.16,19.16,0,0,0-4,7.37ZM219.3,94.69a8.63,8.63,0,0,0-14.72,6.1,8.65,8.65,0,0,0,8.15,8.61h1a8.62,8.62,0,0,0,5.6-14.71Zm-5.63,13.71h-.91a7.62,7.62,0,0,1,.44-15.23,7.62,7.62,0,0,1,.47,15.23ZM230,127.52a16.78,16.78,0,0,0-16.33-16.81h-1a16.76,16.76,0,0,0-16.28,16.81v1a5.79,5.79,0,0,0,5.78,5.79h22.05a5.8,5.8,0,0,0,5.79-5.79Zm-5.74,5.76h-22a4.79,4.79,0,0,1-4.79-4.79v-1a15.76,15.76,0,0,1,15.27-15.81h1A15.78,15.78,0,0,1,229,127.55l.05,1A4.8,4.8,0,0,1,224.24,133.28Zm15.13-34.07a6.43,6.43,0,1,0-4.62,11H235a6.44,6.44,0,0,0,4.38-11Zm-4.39,10h-.22a5.44,5.44,0,0,1,.06-10.87h0A5.44,5.44,0,0,1,235,109.2Zm12.4,13.54a12.64,12.64,0,0,0-12.47-11.25h-.18a12.6,12.6,0,0,0-8.14,3.06l-.39.34.35.38a18.23,18.23,0,0,1,4.19,7.66l.1.37h16.6Zm-15.77-.44a19.43,19.43,0,0,0-4-7.32,11.54,11.54,0,0,1,7.09-2.49h.18a11.65,11.65,0,0,1,11.4,9.81Zm15.77.44a12.64,12.64,0,0,0-12.47-11.25h-.18a12.6,12.6,0,0,0-8.14,3.06l-.39.34.35.38a18.23,18.23,0,0,1,4.19,7.66l.1.37h16.6Zm-15.77-.44a19.43,19.43,0,0,0-4-7.32,11.54,11.54,0,0,1,7.09-2.49h.18a11.65,11.65,0,0,1,11.4,9.81Zm3.14-12.1H235a6.48,6.48,0,1,0-.24,0Zm.07-11.87h0A5.44,5.44,0,0,1,235,109.2h-.22a5.44,5.44,0,0,1,.06-10.87Zm-21.17,12.38h-1a16.76,16.76,0,0,0-16.28,16.81v1a5.79,5.79,0,0,0,5.78,5.79h22.05a5.8,5.8,0,0,0,5.79-5.79l-.05-1A16.78,16.78,0,0,0,213.65,110.71Zm10.59,22.57h-22a4.79,4.79,0,0,1-4.79-4.79v-1a15.76,15.76,0,0,1,15.27-15.81h1A15.78,15.78,0,0,1,229,127.55l.05,1A4.8,4.8,0,0,1,224.24,133.28ZM212.73,109.4h1a8.62,8.62,0,0,0,2.8-16.58,8.64,8.64,0,0,0-11.92,8A8.65,8.65,0,0,0,212.73,109.4Zm.47-16.23a7.62,7.62,0,0,1,.47,15.23h-.91a7.62,7.62,0,0,1,.44-15.23Zm-12.91,21.7-.4-.34a12.44,12.44,0,0,0-8.07-3h-.18a12.66,12.66,0,0,0-12.47,11.26l-.06.55h16.48l.1-.37a18.28,18.28,0,0,1,4.24-7.71Zm-20,7.46a11.66,11.66,0,0,1,11.4-9.81h.17a11.51,11.51,0,0,1,7,2.44,19.16,19.16,0,0,0-4,7.37Zm11.38-12.13h.23a6.43,6.43,0,0,0-.12-12.86h0a6.44,6.44,0,0,0-6.42,6.43A6.45,6.45,0,0,0,191.62,110.2Zm-5.32-6.43a5.43,5.43,0,0,1,5.42-5.43h0a5.43,5.43,0,0,1,.11,10.86h-.21a5.45,5.45,0,0,1-5.33-5.41Zm54.24,6.58a8.71,8.71,0,1,0-12.85-1.57,9.15,9.15,0,0,0,1.41,1.57,14.44,14.44,0,0,0-3.84,2.34,18.76,18.76,0,0,0-5.52-3.13,10.91,10.91,0,1,0-13,0,18.78,18.78,0,0,0-5.45,3.06,15,15,0,0,0-3.79-2.3,8.71,8.71,0,1,0-14.3-8.07,8.63,8.63,0,0,0,1.45,6.5,8.79,8.79,0,0,0,1.41,1.57,14.93,14.93,0,0,0-9.19,13.8v.94l.06.56h17.33c-.06.63-.09,1.27-.09,1.9v1a8.07,8.07,0,0,0,8.06,8.06h22.05a8.07,8.07,0,0,0,8.06-8.06v-1c0-.63,0-1.27-.09-1.9h17l.51-.11v-1.39A15,15,0,0,0,240.54,110.35Zm8.21,14.27H231.12l.07.56a20.27,20.27,0,0,1,.14,2.34v1a7.06,7.06,0,0,1-7.06,7.05H202.21a7.06,7.06,0,0,1-7.05-7.06v-1a18.27,18.27,0,0,1,.15-2.34l.07-.56H177.86v-.5A13.91,13.91,0,0,1,187.22,111l.93-.32-.8-.57a7.7,7.7,0,1,1,8.84,0l-.79.56.92.33a13.85,13.85,0,0,1,4.62,2.69l.32.29.33-.28A17.89,17.89,0,0,1,208,110.2l1.08-.33-1-.58a9.9,9.9,0,1,1,10.23,0l-1,.58,1.08.33a17.84,17.84,0,0,1,6.47,3.52l.33.29.33-.29a13.54,13.54,0,0,1,4.67-2.75l.93-.32-.8-.56a7.7,7.7,0,0,1,0-12.62,7.71,7.71,0,0,1,8.85,12.62l-.8.56.92.32a14,14,0,0,1,9.38,13.15Zm-13.84-13.13h-.18a12.6,12.6,0,0,0-8.14,3.06l-.39.34.35.38a18.23,18.23,0,0,1,4.19,7.66l.1.37h16.6l-.06-.56A12.64,12.64,0,0,0,234.91,111.49Zm-3.3,10.81a19.43,19.43,0,0,0-4-7.32,11.54,11.54,0,0,1,7.09-2.49h.18a11.65,11.65,0,0,1,11.4,9.81ZM235,110.2a6.48,6.48,0,1,0-.24,0Zm-.17-11.87h0A5.44,5.44,0,0,1,235,109.2h-.22a5.44,5.44,0,0,1,.06-10.87Zm-21.17,12.38h-1a16.76,16.76,0,0,0-16.28,16.81v1a5.79,5.79,0,0,0,5.78,5.79h22.05a5.8,5.8,0,0,0,5.79-5.79l-.05-1A16.78,16.78,0,0,0,213.65,110.71Zm10.59,22.57h-22a4.79,4.79,0,0,1-4.79-4.79v-1a15.76,15.76,0,0,1,15.27-15.81h1A15.78,15.78,0,0,1,229,127.55l.05,1A4.8,4.8,0,0,1,224.24,133.28ZM213.7,109.4a8.62,8.62,0,0,0,2.8-16.58,8.64,8.64,0,0,0-11.92,8,8.65,8.65,0,0,0,8.15,8.61Zm-.5-16.23a7.62,7.62,0,0,1,.47,15.23h-.91a7.62,7.62,0,0,1,.44-15.23Zm-12.91,21.7-.4-.34a12.44,12.44,0,0,0-8.07-3h-.18a12.66,12.66,0,0,0-12.47,11.26l-.06.55h16.48l.1-.37a18.28,18.28,0,0,1,4.24-7.71Zm-20,7.46a11.66,11.66,0,0,1,11.4-9.81h.17a11.51,11.51,0,0,1,7,2.44,19.16,19.16,0,0,0-4,7.37Zm11.61-12.13a6.43,6.43,0,0,0-.12-12.86h0a6.44,6.44,0,0,0-6.42,6.43,6.45,6.45,0,0,0,6.32,6.43Zm-5.55-6.43a5.43,5.43,0,0,1,5.42-5.43h0a5.43,5.43,0,0,1,.11,10.86h-.21a5.45,5.45,0,0,1-5.33-5.41Zm5.43-6.43h0a6.44,6.44,0,0,0-6.42,6.43,6.45,6.45,0,0,0,6.32,6.43h.23a6.43,6.43,0,0,0-.12-12.86Zm.11,11.86h-.21a5.45,5.45,0,0,1-5.33-5.41v0a5.43,5.43,0,0,1,5.42-5.43h0a5.43,5.43,0,0,1,.11,10.86Zm8,5.33a12.44,12.44,0,0,0-8.07-3h-.18a12.66,12.66,0,0,0-12.47,11.26l-.06.55h16.48l.1-.37a18.28,18.28,0,0,1,4.24-7.71l.36-.38Zm-19.65,7.8a11.66,11.66,0,0,1,11.4-9.81h.17a11.51,11.51,0,0,1,7,2.44,19.16,19.16,0,0,0-4,7.37ZM219.3,94.69a8.63,8.63,0,0,0-14.72,6.1,8.65,8.65,0,0,0,8.15,8.61h1a8.62,8.62,0,0,0,5.6-14.71Zm-5.63,13.71h-.91a7.62,7.62,0,0,1,.44-15.23,7.62,7.62,0,0,1,.47,15.23ZM230,127.52a16.78,16.78,0,0,0-16.33-16.81h-1a16.76,16.76,0,0,0-16.28,16.81v1a5.79,5.79,0,0,0,5.78,5.79h22.05a5.8,5.8,0,0,0,5.79-5.79Zm-5.74,5.76h-22a4.79,4.79,0,0,1-4.79-4.79v-1a15.76,15.76,0,0,1,15.27-15.81h1A15.78,15.78,0,0,1,229,127.55l.05,1A4.8,4.8,0,0,1,224.24,133.28Zm15.13-34.07a6.43,6.43,0,1,0-4.62,11H235a6.44,6.44,0,0,0,4.38-11Zm-4.39,10h-.22a5.44,5.44,0,0,1,.06-10.87h0A5.44,5.44,0,0,1,235,109.2Zm12.4,13.54a12.64,12.64,0,0,0-12.47-11.25h-.18a12.6,12.6,0,0,0-8.14,3.06l-.39.34.35.38a18.23,18.23,0,0,1,4.19,7.66l.1.37h16.6Zm-15.77-.44a19.43,19.43,0,0,0-4-7.32,11.54,11.54,0,0,1,7.09-2.49h.18a11.65,11.65,0,0,1,11.4,9.81Zm15.77.44a12.64,12.64,0,0,0-12.47-11.25h-.18a12.6,12.6,0,0,0-8.14,3.06l-.39.34.35.38a18.23,18.23,0,0,1,4.19,7.66l.1.37h16.6Zm-15.77-.44a19.43,19.43,0,0,0-4-7.32,11.54,11.54,0,0,1,7.09-2.49h.18a11.65,11.65,0,0,1,11.4,9.81Zm7.76-23.09a6.43,6.43,0,1,0-4.62,11H235a6.44,6.44,0,0,0,4.38-11Zm-4.39,10h-.22a5.44,5.44,0,0,1,.06-10.87h0A5.44,5.44,0,0,1,235,109.2Zm-5,18.32a16.78,16.78,0,0,0-16.33-16.81h-1a16.76,16.76,0,0,0-16.28,16.81v1a5.79,5.79,0,0,0,5.78,5.79h22.05a5.8,5.8,0,0,0,5.79-5.79Zm-5.74,5.76h-22a4.79,4.79,0,0,1-4.79-4.79v-1a15.76,15.76,0,0,1,15.27-15.81h1A15.78,15.78,0,0,1,229,127.55l.05,1A4.8,4.8,0,0,1,224.24,133.28ZM219.3,94.69a8.63,8.63,0,0,0-14.72,6.1,8.65,8.65,0,0,0,8.15,8.61h1a8.62,8.62,0,0,0,5.6-14.71Zm-5.63,13.71h-.91a7.62,7.62,0,0,1,.44-15.23,7.62,7.62,0,0,1,.47,15.23Zm-13.78,6.13a12.44,12.44,0,0,0-8.07-3h-.18a12.66,12.66,0,0,0-12.47,11.26l-.06.55h16.48l.1-.37a18.28,18.28,0,0,1,4.24-7.71l.36-.38Zm-19.65,7.8a11.66,11.66,0,0,1,11.4-9.81h.17a11.51,11.51,0,0,1,7,2.44,19.16,19.16,0,0,0-4,7.37Zm11.49-25h0a6.44,6.44,0,0,0-6.42,6.43,6.45,6.45,0,0,0,6.32,6.43h.23a6.43,6.43,0,0,0-.12-12.86Zm.11,11.86h-.21a5.45,5.45,0,0,1-5.33-5.41v0a5.43,5.43,0,0,1,5.42-5.43h0a5.43,5.43,0,0,1,.11,10.86Zm-.11-11.86h0a6.44,6.44,0,0,0-6.42,6.43,6.45,6.45,0,0,0,6.32,6.43h.23a6.43,6.43,0,0,0-.12-12.86Zm.11,11.86h-.21a5.45,5.45,0,0,1-5.33-5.41v0a5.43,5.43,0,0,1,5.42-5.43h0a5.43,5.43,0,0,1,.11,10.86Zm8,5.33a12.44,12.44,0,0,0-8.07-3h-.18a12.66,12.66,0,0,0-12.47,11.26l-.06.55h16.48l.1-.37a18.28,18.28,0,0,1,4.24-7.71l.36-.38Zm-19.65,7.8a11.66,11.66,0,0,1,11.4-9.81h.17a11.51,11.51,0,0,1,7,2.44,19.16,19.16,0,0,0-4,7.37ZM219.3,94.69a8.63,8.63,0,0,0-14.72,6.1,8.65,8.65,0,0,0,8.15,8.61h1a8.62,8.62,0,0,0,5.6-14.71Zm-5.63,13.71h-.91a7.62,7.62,0,0,1,.44-15.23,7.62,7.62,0,0,1,.47,15.23ZM230,127.52a16.78,16.78,0,0,0-16.33-16.81h-1a16.76,16.76,0,0,0-16.28,16.81v1a5.79,5.79,0,0,0,5.78,5.79h22.05a5.8,5.8,0,0,0,5.79-5.79Zm-5.74,5.76h-22a4.79,4.79,0,0,1-4.79-4.79v-1a15.76,15.76,0,0,1,15.27-15.81h1A15.78,15.78,0,0,1,229,127.55l.05,1A4.8,4.8,0,0,1,224.24,133.28Zm15.13-34.07a6.43,6.43,0,1,0-4.62,11H235a6.44,6.44,0,0,0,4.38-11Zm-4.39,10h-.22a5.44,5.44,0,0,1,.06-10.87h0A5.44,5.44,0,0,1,235,109.2Zm12.4,13.54a12.64,12.64,0,0,0-12.47-11.25h-.18a12.6,12.6,0,0,0-8.14,3.06l-.39.34.35.38a18.23,18.23,0,0,1,4.19,7.66l.1.37h16.6Zm-15.77-.44a19.43,19.43,0,0,0-4-7.32,11.54,11.54,0,0,1,7.09-2.49h.18a11.65,11.65,0,0,1,11.4,9.81Zm15.77.44a12.64,12.64,0,0,0-12.47-11.25h-.18a12.6,12.6,0,0,0-8.14,3.06l-.39.34.35.38a18.23,18.23,0,0,1,4.19,7.66l.1.37h16.6Zm-15.77-.44a19.43,19.43,0,0,0-4-7.32,11.54,11.54,0,0,1,7.09-2.49h.18a11.65,11.65,0,0,1,11.4,9.81Zm7.76-23.09a6.43,6.43,0,1,0-4.62,11H235a6.44,6.44,0,0,0,4.38-11Zm-4.39,10h-.22a5.44,5.44,0,0,1,.06-10.87h0A5.44,5.44,0,0,1,235,109.2Zm-5,18.32a16.78,16.78,0,0,0-16.33-16.81h-1a16.76,16.76,0,0,0-16.28,16.81v1a5.79,5.79,0,0,0,5.78,5.79h22.05a5.8,5.8,0,0,0,5.79-5.79Zm-5.74,5.76h-22a4.79,4.79,0,0,1-4.79-4.79v-1a15.76,15.76,0,0,1,15.27-15.81h1A15.78,15.78,0,0,1,229,127.55l.05,1A4.8,4.8,0,0,1,224.24,133.28ZM219.3,94.69a8.63,8.63,0,0,0-14.72,6.1,8.65,8.65,0,0,0,8.15,8.61h1a8.62,8.62,0,0,0,5.6-14.71Zm-5.63,13.71h-.91a7.62,7.62,0,0,1,.44-15.23,7.62,7.62,0,0,1,.47,15.23Zm-13.78,6.13a12.44,12.44,0,0,0-8.07-3h-.18a12.66,12.66,0,0,0-12.47,11.26l-.06.55h16.48l.1-.37a18.28,18.28,0,0,1,4.24-7.71l.36-.38Zm-19.65,7.8a11.66,11.66,0,0,1,11.4-9.81h.17a11.51,11.51,0,0,1,7,2.44,19.16,19.16,0,0,0-4,7.37Zm11.49-25h0a6.44,6.44,0,0,0-6.42,6.43,6.45,6.45,0,0,0,6.32,6.43h.23a6.43,6.43,0,0,0-.12-12.86Zm.11,11.86h-.21a5.45,5.45,0,0,1-5.33-5.41v0a5.43,5.43,0,0,1,5.42-5.43h0a5.43,5.43,0,0,1,.11,10.86Zm-.11-11.86h0a6.44,6.44,0,0,0-6.42,6.43,6.45,6.45,0,0,0,6.32,6.43h.23a6.43,6.43,0,0,0-.12-12.86Zm.11,11.86h-.21a5.45,5.45,0,0,1-5.33-5.41v0a5.43,5.43,0,0,1,5.42-5.43h0a5.43,5.43,0,0,1,.11,10.86Zm8,5.33a12.44,12.44,0,0,0-8.07-3h-.18a12.66,12.66,0,0,0-12.47,11.26l-.06.55h16.48l.1-.37a18.28,18.28,0,0,1,4.24-7.71l.36-.38Zm-19.65,7.8a11.66,11.66,0,0,1,11.4-9.81h.17a11.51,11.51,0,0,1,7,2.44,19.16,19.16,0,0,0-4,7.37ZM219.3,94.69a8.63,8.63,0,0,0-14.72,6.1,8.65,8.65,0,0,0,8.15,8.61h1a8.62,8.62,0,0,0,5.6-14.71Zm-5.63,13.71h-.91a7.62,7.62,0,0,1,.44-15.23,7.62,7.62,0,0,1,.47,15.23ZM230,127.52a16.78,16.78,0,0,0-16.33-16.81h-1a16.76,16.76,0,0,0-16.28,16.81v1a5.79,5.79,0,0,0,5.78,5.79h22.05a5.8,5.8,0,0,0,5.79-5.79Zm-5.74,5.76h-22a4.79,4.79,0,0,1-4.79-4.79v-1a15.76,15.76,0,0,1,15.27-15.81h1A15.78,15.78,0,0,1,229,127.55l.05,1A4.8,4.8,0,0,1,224.24,133.28Zm15.13-34.07a6.43,6.43,0,1,0-4.62,11H235a6.44,6.44,0,0,0,4.38-11Zm-4.39,10h-.22a5.44,5.44,0,0,1,.06-10.87h0A5.44,5.44,0,0,1,235,109.2Zm12.4,13.54a12.64,12.64,0,0,0-12.47-11.25h-.18a12.6,12.6,0,0,0-8.14,3.06l-.39.34.35.38a18.23,18.23,0,0,1,4.19,7.66l.1.37h16.6Zm-15.77-.44a19.43,19.43,0,0,0-4-7.32,11.54,11.54,0,0,1,7.09-2.49h.18a11.65,11.65,0,0,1,11.4,9.81Zm15.77.44a12.64,12.64,0,0,0-12.47-11.25h-.18a12.6,12.6,0,0,0-8.14,3.06l-.39.34.35.38a18.23,18.23,0,0,1,4.19,7.66l.1.37h16.6Zm-15.77-.44a19.43,19.43,0,0,0-4-7.32,11.54,11.54,0,0,1,7.09-2.49h.18a11.65,11.65,0,0,1,11.4,9.81Zm7.76-23.09a6.43,6.43,0,1,0-4.62,11H235a6.44,6.44,0,0,0,4.38-11Zm-4.39,10h-.22a5.44,5.44,0,0,1,.06-10.87h0A5.44,5.44,0,0,1,235,109.2Zm-5,18.32a16.78,16.78,0,0,0-16.33-16.81h-1a16.76,16.76,0,0,0-16.28,16.81v1a5.79,5.79,0,0,0,5.78,5.79h22.05a5.8,5.8,0,0,0,5.79-5.79Zm-5.74,5.76h-22a4.79,4.79,0,0,1-4.79-4.79v-1a15.76,15.76,0,0,1,15.27-15.81h1A15.78,15.78,0,0,1,229,127.55l.05,1A4.8,4.8,0,0,1,224.24,133.28ZM219.3,94.69a8.63,8.63,0,0,0-14.72,6.1,8.65,8.65,0,0,0,8.15,8.61h1a8.62,8.62,0,0,0,5.6-14.71Zm-5.63,13.71h-.91a7.62,7.62,0,0,1,.44-15.23,7.62,7.62,0,0,1,.47,15.23Zm-13.78,6.13a12.44,12.44,0,0,0-8.07-3h-.18a12.66,12.66,0,0,0-12.47,11.26l-.06.55h16.48l.1-.37a18.28,18.28,0,0,1,4.24-7.71l.36-.38Zm-19.65,7.8a11.66,11.66,0,0,1,11.4-9.81h.17a11.51,11.51,0,0,1,7,2.44,19.16,19.16,0,0,0-4,7.37Zm11.49-25h0a6.44,6.44,0,0,0-6.42,6.43,6.45,6.45,0,0,0,6.32,6.43h.23a6.43,6.43,0,0,0-.12-12.86Zm.11,11.86h-.21a5.45,5.45,0,0,1-5.33-5.41v0a5.43,5.43,0,0,1,5.42-5.43h0a5.43,5.43,0,0,1,.11,10.86Zm-.11-11.86h0a6.44,6.44,0,0,0-6.42,6.43,6.45,6.45,0,0,0,6.32,6.43h.23a6.43,6.43,0,0,0-.12-12.86Zm.11,11.86h-.21a5.45,5.45,0,0,1-5.33-5.41v0a5.43,5.43,0,0,1,5.42-5.43h0a5.43,5.43,0,0,1,.11,10.86Zm8,5.33a12.44,12.44,0,0,0-8.07-3h-.18a12.66,12.66,0,0,0-12.47,11.26l-.06.55h16.48l.1-.37a18.28,18.28,0,0,1,4.24-7.71l.36-.38Zm-19.65,7.8a11.66,11.66,0,0,1,11.4-9.81h.17a11.51,11.51,0,0,1,7,2.44,19.16,19.16,0,0,0-4,7.37ZM219.3,94.69a8.63,8.63,0,0,0-14.72,6.1,8.65,8.65,0,0,0,8.15,8.61h1a8.62,8.62,0,0,0,5.6-14.71Zm-5.63,13.71h-.91a7.62,7.62,0,0,1,.44-15.23,7.62,7.62,0,0,1,.47,15.23ZM230,127.52a16.78,16.78,0,0,0-16.33-16.81h-1a16.76,16.76,0,0,0-16.28,16.81v1a5.79,5.79,0,0,0,5.78,5.79h22.05a5.8,5.8,0,0,0,5.79-5.79Zm-5.74,5.76h-22a4.79,4.79,0,0,1-4.79-4.79v-1a15.76,15.76,0,0,1,15.27-15.81h1A15.78,15.78,0,0,1,229,127.55l.05,1A4.8,4.8,0,0,1,224.24,133.28Zm15.13-34.07a6.43,6.43,0,1,0-4.62,11H235a6.44,6.44,0,0,0,4.38-11Zm-4.39,10h-.22a5.44,5.44,0,0,1,.06-10.87h0A5.44,5.44,0,0,1,235,109.2Zm12.4,13.54a12.64,12.64,0,0,0-12.47-11.25h-.18a12.6,12.6,0,0,0-8.14,3.06l-.39.34.35.38a18.23,18.23,0,0,1,4.19,7.66l.1.37h16.6Zm-15.77-.44a19.43,19.43,0,0,0-4-7.32,11.54,11.54,0,0,1,7.09-2.49h.18a11.65,11.65,0,0,1,11.4,9.81Zm15.77.44a12.64,12.64,0,0,0-12.47-11.25h-.18a12.6,12.6,0,0,0-8.14,3.06l-.39.34.35.38a18.23,18.23,0,0,1,4.19,7.66l.1.37h16.6Zm-15.77-.44a19.43,19.43,0,0,0-4-7.32,11.54,11.54,0,0,1,7.09-2.49h.18a11.65,11.65,0,0,1,11.4,9.81Zm7.76-23.09a6.43,6.43,0,1,0-4.62,11H235a6.44,6.44,0,0,0,4.38-11Zm-4.39,10h-.22a5.44,5.44,0,0,1,.06-10.87h0A5.44,5.44,0,0,1,235,109.2Zm-5,18.32a16.78,16.78,0,0,0-16.33-16.81h-1a16.76,16.76,0,0,0-16.28,16.81v1a5.79,5.79,0,0,0,5.78,5.79h22.05a5.8,5.8,0,0,0,5.79-5.79Zm-5.74,5.76h-22a4.79,4.79,0,0,1-4.79-4.79v-1a15.76,15.76,0,0,1,15.27-15.81h1A15.78,15.78,0,0,1,229,127.55l.05,1A4.8,4.8,0,0,1,224.24,133.28ZM219.3,94.69a8.63,8.63,0,0,0-14.72,6.1,8.65,8.65,0,0,0,8.15,8.61h1a8.62,8.62,0,0,0,5.6-14.71Zm-5.63,13.71h-.91a7.62,7.62,0,0,1,.44-15.23,7.62,7.62,0,0,1,.47,15.23Zm-13.78,6.13a12.44,12.44,0,0,0-8.07-3h-.18a12.66,12.66,0,0,0-12.47,11.26l-.06.55h16.48l.1-.37a18.28,18.28,0,0,1,4.24-7.71l.36-.38Zm-19.65,7.8a11.66,11.66,0,0,1,11.4-9.81h.17a11.51,11.51,0,0,1,7,2.44,19.16,19.16,0,0,0-4,7.37Zm11.49-25h0a6.44,6.44,0,0,0-6.42,6.43,6.45,6.45,0,0,0,6.32,6.43h.23a6.43,6.43,0,0,0-.12-12.86Zm.11,11.86h-.21a5.45,5.45,0,0,1-5.33-5.41v0a5.43,5.43,0,0,1,5.42-5.43h0a5.43,5.43,0,0,1,.11,10.86Zm-.11-11.86h0a6.44,6.44,0,0,0-6.42,6.43,6.45,6.45,0,0,0,6.32,6.43h.23a6.43,6.43,0,0,0-.12-12.86Zm.11,11.86h-.21a5.45,5.45,0,0,1-5.33-5.41v0a5.43,5.43,0,0,1,5.42-5.43h0a5.43,5.43,0,0,1,.11,10.86Zm8,5.33a12.44,12.44,0,0,0-8.07-3h-.18a12.66,12.66,0,0,0-12.47,11.26l-.06.55h16.48l.1-.37a18.28,18.28,0,0,1,4.24-7.71l.36-.38Zm-19.65,7.8a11.66,11.66,0,0,1,11.4-9.81h.17a11.51,11.51,0,0,1,7,2.44,19.16,19.16,0,0,0-4,7.37ZM219.3,94.69a8.63,8.63,0,0,0-14.72,6.1,8.65,8.65,0,0,0,8.15,8.61h1a8.62,8.62,0,0,0,5.6-14.71Zm-5.63,13.71h-.91a7.62,7.62,0,0,1,.44-15.23,7.62,7.62,0,0,1,.47,15.23ZM230,127.52a16.78,16.78,0,0,0-16.33-16.81h-1a16.76,16.76,0,0,0-16.28,16.81v1a5.79,5.79,0,0,0,5.78,5.79h22.05a5.8,5.8,0,0,0,5.79-5.79Zm-5.74,5.76h-22a4.79,4.79,0,0,1-4.79-4.79v-1a15.76,15.76,0,0,1,15.27-15.81h1A15.78,15.78,0,0,1,229,127.55l.05,1A4.8,4.8,0,0,1,224.24,133.28Zm15.13-34.07a6.43,6.43,0,1,0-4.62,11H235a6.44,6.44,0,0,0,4.38-11Zm-4.39,10h-.22a5.44,5.44,0,0,1,.06-10.87h0A5.44,5.44,0,0,1,235,109.2Zm12.4,13.54a12.64,12.64,0,0,0-12.47-11.25h-.18a12.6,12.6,0,0,0-8.14,3.06l-.39.34.35.38a18.23,18.23,0,0,1,4.19,7.66l.1.37h16.6Zm-15.77-.44a19.43,19.43,0,0,0-4-7.32,11.54,11.54,0,0,1,7.09-2.49h.18a11.65,11.65,0,0,1,11.4,9.81Zm15.77.44a12.64,12.64,0,0,0-12.47-11.25h-.18a12.6,12.6,0,0,0-8.14,3.06l-.39.34.35.38a18.23,18.23,0,0,1,4.19,7.66l.1.37h16.6Zm-15.77-.44a19.43,19.43,0,0,0-4-7.32,11.54,11.54,0,0,1,7.09-2.49h.18a11.65,11.65,0,0,1,11.4,9.81Zm7.76-23.09a6.43,6.43,0,1,0-4.62,11H235a6.44,6.44,0,0,0,4.38-11Zm-4.39,10h-.22a5.44,5.44,0,0,1,.06-10.87h0A5.44,5.44,0,0,1,235,109.2Zm-5,18.32a16.78,16.78,0,0,0-16.33-16.81h-1a16.76,16.76,0,0,0-16.28,16.81v1a5.79,5.79,0,0,0,5.78,5.79h22.05a5.8,5.8,0,0,0,5.79-5.79Zm-5.74,5.76h-22a4.79,4.79,0,0,1-4.79-4.79v-1a15.76,15.76,0,0,1,15.27-15.81h1A15.78,15.78,0,0,1,229,127.55l.05,1A4.8,4.8,0,0,1,224.24,133.28ZM219.3,94.69a8.63,8.63,0,0,0-14.72,6.1,8.65,8.65,0,0,0,8.15,8.61h1a8.62,8.62,0,0,0,5.6-14.71Zm-5.63,13.71h-.91a7.62,7.62,0,0,1,.44-15.23,7.62,7.62,0,0,1,.47,15.23Zm-13.78,6.13a12.44,12.44,0,0,0-8.07-3h-.18a12.66,12.66,0,0,0-12.47,11.26l-.06.55h16.48l.1-.37a18.28,18.28,0,0,1,4.24-7.71l.36-.38Zm-19.65,7.8a11.66,11.66,0,0,1,11.4-9.81h.17a11.51,11.51,0,0,1,7,2.44,19.16,19.16,0,0,0-4,7.37Zm11.49-25h0a6.44,6.44,0,0,0-6.42,6.43,6.45,6.45,0,0,0,6.32,6.43h.23a6.43,6.43,0,0,0-.12-12.86Zm.11,11.86h-.21a5.45,5.45,0,0,1-5.33-5.41v0a5.43,5.43,0,0,1,5.42-5.43h0a5.43,5.43,0,0,1,.11,10.86Z"/></g><g id="Single-Player_Img" data-name="Single-Player Img"><path class="cls-1" d="M85.16,90.52c.31.29.84.84,1.26,1.2C86.06,91.32,85.47,90.81,85.16,90.52Z"/><path class="cls-1" d="M86.16,92c-.27-.23-.6-.55-.88-.82l-.4-.39.55-.6.24.21c.32.29.76.69,1,1Z"/><path class="cls-1" d="M86.56,91.85l-.14-.13Z"/><rect class="cls-1" x="86.08" y="91.69" width="0.81" height="0.19" transform="translate(-39.56 87.81) rotate(-44.9)"/><path class="cls-1" d="M92,103.32c-.06-.55-.47-2.4-.5-2.53a20.45,20.45,0,0,0-4.72-8.68l-.25-.24-.14-.14-.15-.15-1-.94-.13-.12-.22-.21a20.36,20.36,0,0,0-7.32-4,11.49,11.49,0,1,0-11.88,0,20.08,20.08,0,0,0-7.27,4A15.12,15.12,0,0,0,56.58,92l-.06.08a20.5,20.5,0,0,0-4.74,8.73c-.18.61-.45,2.53-.45,2.53a21.47,21.47,0,0,0-.17,2.66v1.09a8.36,8.36,0,0,0,8.36,8.36H83.87a8.35,8.35,0,0,0,8.36-8.35h0V106A19.86,19.86,0,0,0,92,103.32ZM72.13,85.43h-1a9,9,0,1,1,1,0Zm0,2.53a18,18,0,0,1,17.49,18v1.07a5.86,5.86,0,0,1-5.84,5.85H59.46a5.86,5.86,0,0,1-5.85-5.85V106A18,18,0,0,1,71.1,88Z"/><path class="cls-1" d="M78.31,69.77A9.47,9.47,0,0,0,71.61,67a9.47,9.47,0,0,0-.51,18.93h1.06a9.48,9.48,0,0,0,6.15-16.16ZM72.13,84.93h-1a8.45,8.45,0,1,1,1,0Zm0,2.53H71.08a18.46,18.46,0,0,0-18,18.52v1.08a6.38,6.38,0,0,0,6.35,6.34H83.81a6.38,6.38,0,0,0,6.34-6.34V106A18.47,18.47,0,0,0,72.16,87.46Zm17,19.59a5.38,5.38,0,0,1-5.34,5.35H59.46a5.38,5.38,0,0,1-5.35-5.35V106a17.47,17.47,0,0,1,17-17.52h1a17.48,17.48,0,0,1,17,17.52Zm-17-19.59H71.08a18.46,18.46,0,0,0-18,18.52v1.08a6.38,6.38,0,0,0,6.35,6.34H83.81a6.38,6.38,0,0,0,6.34-6.34V106A18.47,18.47,0,0,0,72.16,87.46Zm17,19.59a5.38,5.38,0,0,1-5.34,5.35H59.46a5.38,5.38,0,0,1-5.35-5.35V106a17.47,17.47,0,0,1,17-17.52h1a17.48,17.48,0,0,1,17,17.52ZM78.31,69.77A9.47,9.47,0,0,0,71.61,67a9.47,9.47,0,0,0-.51,18.93h1.06a9.48,9.48,0,0,0,6.15-16.16ZM72.13,84.93h-1a8.45,8.45,0,1,1,1,0Zm6.18-15.16A9.47,9.47,0,0,0,71.61,67a9.47,9.47,0,0,0-.51,18.93h1.06a9.48,9.48,0,0,0,6.15-16.16ZM72.13,84.93h-1a8.45,8.45,0,1,1,1,0Zm0,2.53H71.08a18.46,18.46,0,0,0-18,18.52v1.08a6.38,6.38,0,0,0,6.35,6.34H83.81a6.38,6.38,0,0,0,6.34-6.34V106A18.47,18.47,0,0,0,72.16,87.46Zm17,19.59a5.38,5.38,0,0,1-5.34,5.35H59.46a5.38,5.38,0,0,1-5.35-5.35V106a17.47,17.47,0,0,1,17-17.52h1a17.48,17.48,0,0,1,17,17.52Zm-17-19.59H71.08a18.46,18.46,0,0,0-18,18.52v1.08a6.38,6.38,0,0,0,6.35,6.34H83.81a6.38,6.38,0,0,0,6.34-6.34V106A18.47,18.47,0,0,0,72.16,87.46Zm17,19.59a5.38,5.38,0,0,1-5.34,5.35H59.46a5.38,5.38,0,0,1-5.35-5.35V106a17.47,17.47,0,0,1,17-17.52h1a17.48,17.48,0,0,1,17,17.52ZM78.31,69.77A9.47,9.47,0,0,0,71.61,67a9.47,9.47,0,0,0-.51,18.93h1.06a9.48,9.48,0,0,0,6.15-16.16ZM72.13,84.93h-1a8.45,8.45,0,1,1,1,0Zm6.18-15.16A9.47,9.47,0,0,0,71.61,67a9.47,9.47,0,0,0-.51,18.93h1.06a9.48,9.48,0,0,0,6.15-16.16ZM72.13,84.93h-1a8.45,8.45,0,1,1,1,0Zm0,2.53H71.08a18.46,18.46,0,0,0-18,18.52v1.08a6.38,6.38,0,0,0,6.35,6.34H83.81a6.38,6.38,0,0,0,6.34-6.34V106A18.47,18.47,0,0,0,72.16,87.46Zm17,19.59a5.38,5.38,0,0,1-5.34,5.35H59.46a5.38,5.38,0,0,1-5.35-5.35V106a17.47,17.47,0,0,1,17-17.52h1a17.48,17.48,0,0,1,17,17.52Zm-17-19.59H71.08a18.46,18.46,0,0,0-18,18.52v1.08a6.38,6.38,0,0,0,6.35,6.34H83.81a6.38,6.38,0,0,0,6.34-6.34V106A18.47,18.47,0,0,0,72.16,87.46Zm17,19.59a5.38,5.38,0,0,1-5.34,5.35H59.46a5.38,5.38,0,0,1-5.35-5.35V106a17.47,17.47,0,0,1,17-17.52h1a17.48,17.48,0,0,1,17,17.52ZM78.31,69.77A9.47,9.47,0,0,0,71.61,67a9.47,9.47,0,0,0-.51,18.93h1.06a9.48,9.48,0,0,0,6.15-16.16ZM72.13,84.93h-1a8.45,8.45,0,1,1,1,0Zm6.18-15.16A9.47,9.47,0,0,0,71.61,67a9.47,9.47,0,0,0-.51,18.93h1.06a9.48,9.48,0,0,0,6.15-16.16ZM72.13,84.93h-1a8.45,8.45,0,1,1,1,0Zm0,2.53H71.08a18.46,18.46,0,0,0-18,18.52v1.08a6.38,6.38,0,0,0,6.35,6.34H83.81a6.38,6.38,0,0,0,6.34-6.34V106A18.47,18.47,0,0,0,72.16,87.46Zm17,19.59a5.38,5.38,0,0,1-5.34,5.35H59.46a5.38,5.38,0,0,1-5.35-5.35V106a17.47,17.47,0,0,1,17-17.52h1a17.48,17.48,0,0,1,17,17.52Zm-17-19.59H71.08a18.46,18.46,0,0,0-18,18.52v1.08a6.38,6.38,0,0,0,6.35,6.34H83.81a6.38,6.38,0,0,0,6.34-6.34V106A18.47,18.47,0,0,0,72.16,87.46Zm17,19.59a5.38,5.38,0,0,1-5.34,5.35H59.46a5.38,5.38,0,0,1-5.35-5.35V106a17.47,17.47,0,0,1,17-17.52h1a17.48,17.48,0,0,1,17,17.52ZM78.31,69.77A9.47,9.47,0,0,0,71.61,67a9.47,9.47,0,0,0-.51,18.93h1.06a9.48,9.48,0,0,0,6.15-16.16ZM72.13,84.93h-1a8.45,8.45,0,1,1,1,0Zm6.18-15.16A9.47,9.47,0,0,0,71.61,67a9.47,9.47,0,0,0-.51,18.93h1.06a9.48,9.48,0,0,0,6.15-16.16ZM72.13,84.93h-1a8.45,8.45,0,1,1,1,0Zm0,2.53H71.08a18.46,18.46,0,0,0-18,18.52v1.08a6.38,6.38,0,0,0,6.35,6.34H83.81a6.38,6.38,0,0,0,6.34-6.34V106A18.47,18.47,0,0,0,72.16,87.46Zm17,19.59a5.38,5.38,0,0,1-5.34,5.35H59.46a5.38,5.38,0,0,1-5.35-5.35V106a17.47,17.47,0,0,1,17-17.52h1a17.48,17.48,0,0,1,17,17.52Zm-17-19.59H71.08a18.46,18.46,0,0,0-18,18.52v1.08a6.38,6.38,0,0,0,6.35,6.34H83.81a6.38,6.38,0,0,0,6.34-6.34V106A18.47,18.47,0,0,0,72.16,87.46Zm17,19.59a5.38,5.38,0,0,1-5.34,5.35H59.46a5.38,5.38,0,0,1-5.35-5.35V106a17.47,17.47,0,0,1,17-17.52h1a17.48,17.48,0,0,1,17,17.52ZM78.31,69.77A9.47,9.47,0,0,0,71.61,67a9.47,9.47,0,0,0-.51,18.93h1.06a9.48,9.48,0,0,0,6.15-16.16ZM72.13,84.93h-1a8.45,8.45,0,1,1,1,0Zm6.18-15.16A9.47,9.47,0,0,0,71.61,67a9.47,9.47,0,0,0-.51,18.93h1.06a9.48,9.48,0,0,0,6.15-16.16ZM72.13,84.93h-1a8.45,8.45,0,1,1,1,0Zm0,2.53H71.08a18.46,18.46,0,0,0-18,18.52v1.08a6.38,6.38,0,0,0,6.35,6.34H83.81a6.38,6.38,0,0,0,6.34-6.34V106A18.47,18.47,0,0,0,72.16,87.46Zm17,19.59a5.38,5.38,0,0,1-5.34,5.35H59.46a5.38,5.38,0,0,1-5.35-5.35V106a17.47,17.47,0,0,1,17-17.52h1a17.48,17.48,0,0,1,17,17.52Zm-17-19.59H71.08a18.46,18.46,0,0,0-18,18.52v1.08a6.38,6.38,0,0,0,6.35,6.34H83.81a6.38,6.38,0,0,0,6.34-6.34V106A18.47,18.47,0,0,0,72.16,87.46Zm17,19.59a5.38,5.38,0,0,1-5.34,5.35H59.46a5.38,5.38,0,0,1-5.35-5.35V106a17.47,17.47,0,0,1,17-17.52h1a17.48,17.48,0,0,1,17,17.52ZM71.1,85.93h1.06a9.49,9.49,0,1,0-1.06,0ZM71.61,68a8.47,8.47,0,0,1,.52,16.93h-1A8.47,8.47,0,0,1,71.61,68Zm20.91,35.26c0-.45-.29-1.58-.47-2.4l0-.19a21.15,21.15,0,0,0-4.86-8.92l-1.66-1.6h0l-.22-.2h0a20.73,20.73,0,0,0-6.51-3.77,12,12,0,0,0,3.19-15.87,12,12,0,0,0-16.46-4.06,12,12,0,0,0-.88,19.93,20.68,20.68,0,0,0-6.43,3.72,15.34,15.34,0,0,0-2,1.74l-.07.08a21,21,0,0,0-4.85,8.93c-.19.64-.45,2.52-.47,2.61a22.44,22.44,0,0,0-.17,2.72v1.09a8.86,8.86,0,0,0,8.86,8.86H83.88a8.86,8.86,0,0,0,8.85-8.86V106A22.48,22.48,0,0,0,92.52,103.26Zm-8.65,11.65H59.52a7.86,7.86,0,0,1-7.86-7.86V106a22.23,22.23,0,0,1,.16-2.59c.08-.52.3-2,.44-2.48a20.32,20.32,0,0,1,4.68-8.58,15.43,15.43,0,0,1,1.85-1.65,19.71,19.71,0,0,1,7.09-3.86L67,86.47l-1-.58a11,11,0,0,1,0-18.81A11,11,0,0,1,81.08,70.8a11,11,0,0,1-3.72,15.09l-1,.58,1.08.33a19.56,19.56,0,0,1,7.12,3.88l1.83,1.76a20,20,0,0,1,4.6,8.45l0,.18c.1.46.41,1.86.45,2.31v0a18.57,18.57,0,0,1,.21,2.58v1.08a7.85,7.85,0,0,1-7.86,7.85ZM72.16,87.46H71.08a18.46,18.46,0,0,0-18,18.52v1.08a6.38,6.38,0,0,0,6.35,6.34H83.81a6.38,6.38,0,0,0,6.34-6.34V106A18.47,18.47,0,0,0,72.16,87.46Zm17,19.59a5.38,5.38,0,0,1-5.34,5.35H59.46a5.38,5.38,0,0,1-5.35-5.35V106a17.47,17.47,0,0,1,17-17.52h1a17.48,17.48,0,0,1,17,17.52Zm-17-21.12a9.49,9.49,0,1,0-1.06,0ZM71.61,68a8.47,8.47,0,0,1,.52,16.93h-1A8.47,8.47,0,0,1,71.61,68Zm6.7,1.77A9.47,9.47,0,0,0,71.61,67a9.47,9.47,0,0,0-.51,18.93h1.06a9.48,9.48,0,0,0,6.15-16.16ZM72.13,84.93h-1a8.45,8.45,0,1,1,1,0Zm0,2.53H71.08a18.46,18.46,0,0,0-18,18.52v1.08a6.38,6.38,0,0,0,6.35,6.34H83.81a6.38,6.38,0,0,0,6.34-6.34V106A18.47,18.47,0,0,0,72.16,87.46Zm17,19.59a5.38,5.38,0,0,1-5.34,5.35H59.46a5.38,5.38,0,0,1-5.35-5.35V106a17.47,17.47,0,0,1,17-17.52h1a17.48,17.48,0,0,1,17,17.52Zm-17-19.59H71.08a18.46,18.46,0,0,0-18,18.52v1.08a6.38,6.38,0,0,0,6.35,6.34H83.81a6.38,6.38,0,0,0,6.34-6.34V106A18.47,18.47,0,0,0,72.16,87.46Zm17,19.59a5.38,5.38,0,0,1-5.34,5.35H59.46a5.38,5.38,0,0,1-5.35-5.35V106a17.47,17.47,0,0,1,17-17.52h1a17.48,17.48,0,0,1,17,17.52ZM78.31,69.77A9.47,9.47,0,0,0,71.61,67a9.47,9.47,0,0,0-.51,18.93h1.06a9.48,9.48,0,0,0,6.15-16.16ZM72.13,84.93h-1a8.45,8.45,0,1,1,1,0Zm6.18-15.16A9.47,9.47,0,0,0,71.61,67a9.47,9.47,0,0,0-.51,18.93h1.06a9.48,9.48,0,0,0,6.15-16.16ZM72.13,84.93h-1a8.45,8.45,0,1,1,1,0Zm0,2.53H71.08a18.46,18.46,0,0,0-18,18.52v1.08a6.38,6.38,0,0,0,6.35,6.34H83.81a6.38,6.38,0,0,0,6.34-6.34V106A18.47,18.47,0,0,0,72.16,87.46Zm17,19.59a5.38,5.38,0,0,1-5.34,5.35H59.46a5.38,5.38,0,0,1-5.35-5.35V106a17.47,17.47,0,0,1,17-17.52h1a17.48,17.48,0,0,1,17,17.52Zm-17-19.59H71.08a18.46,18.46,0,0,0-18,18.52v1.08a6.38,6.38,0,0,0,6.35,6.34H83.81a6.38,6.38,0,0,0,6.34-6.34V106A18.47,18.47,0,0,0,72.16,87.46Zm17,19.59a5.38,5.38,0,0,1-5.34,5.35H59.46a5.38,5.38,0,0,1-5.35-5.35V106a17.47,17.47,0,0,1,17-17.52h1a17.48,17.48,0,0,1,17,17.52ZM78.31,69.77A9.47,9.47,0,0,0,71.61,67a9.47,9.47,0,0,0-.51,18.93h1.06a9.48,9.48,0,0,0,6.15-16.16ZM72.13,84.93h-1a8.45,8.45,0,1,1,1,0Zm6.18-15.16A9.47,9.47,0,0,0,71.61,67a9.47,9.47,0,0,0-.51,18.93h1.06a9.48,9.48,0,0,0,6.15-16.16ZM72.13,84.93h-1a8.45,8.45,0,1,1,1,0Zm0,2.53H71.08a18.46,18.46,0,0,0-18,18.52v1.08a6.38,6.38,0,0,0,6.35,6.34H83.81a6.38,6.38,0,0,0,6.34-6.34V106A18.47,18.47,0,0,0,72.16,87.46Zm17,19.59a5.38,5.38,0,0,1-5.34,5.35H59.46a5.38,5.38,0,0,1-5.35-5.35V106a17.47,17.47,0,0,1,17-17.52h1a17.48,17.48,0,0,1,17,17.52Zm-17-19.59H71.08a18.46,18.46,0,0,0-18,18.52v1.08a6.38,6.38,0,0,0,6.35,6.34H83.81a6.38,6.38,0,0,0,6.34-6.34V106A18.47,18.47,0,0,0,72.16,87.46Zm17,19.59a5.38,5.38,0,0,1-5.34,5.35H59.46a5.38,5.38,0,0,1-5.35-5.35V106a17.47,17.47,0,0,1,17-17.52h1a17.48,17.48,0,0,1,17,17.52ZM78.31,69.77A9.47,9.47,0,0,0,71.61,67a9.47,9.47,0,0,0-.51,18.93h1.06a9.48,9.48,0,0,0,6.15-16.16ZM72.13,84.93h-1a8.45,8.45,0,1,1,1,0Zm6.18-15.16A9.47,9.47,0,0,0,71.61,67a9.47,9.47,0,0,0-.51,18.93h1.06a9.48,9.48,0,0,0,6.15-16.16ZM72.13,84.93h-1a8.45,8.45,0,1,1,1,0Zm0,2.53H71.08a18.46,18.46,0,0,0-18,18.52v1.08a6.38,6.38,0,0,0,6.35,6.34H83.81a6.38,6.38,0,0,0,6.34-6.34V106A18.47,18.47,0,0,0,72.16,87.46Zm17,19.59a5.38,5.38,0,0,1-5.34,5.35H59.46a5.38,5.38,0,0,1-5.35-5.35V106a17.47,17.47,0,0,1,17-17.52h1a17.48,17.48,0,0,1,17,17.52Zm-17-19.59H71.08a18.46,18.46,0,0,0-18,18.52v1.08a6.38,6.38,0,0,0,6.35,6.34H83.81a6.38,6.38,0,0,0,6.34-6.34V106A18.47,18.47,0,0,0,72.16,87.46Zm17,19.59a5.38,5.38,0,0,1-5.34,5.35H59.46a5.38,5.38,0,0,1-5.35-5.35V106a17.47,17.47,0,0,1,17-17.52h1a17.48,17.48,0,0,1,17,17.52ZM78.31,69.77A9.47,9.47,0,0,0,71.61,67a9.47,9.47,0,0,0-.51,18.93h1.06a9.48,9.48,0,0,0,6.15-16.16ZM72.13,84.93h-1a8.45,8.45,0,1,1,1,0Zm6.18-15.16A9.47,9.47,0,0,0,71.61,67a9.47,9.47,0,0,0-.51,18.93h1.06a9.48,9.48,0,0,0,6.15-16.16ZM72.13,84.93h-1a8.45,8.45,0,1,1,1,0Zm0,2.53H71.08a18.46,18.46,0,0,0-18,18.52v1.08a6.38,6.38,0,0,0,6.35,6.34H83.81a6.38,6.38,0,0,0,6.34-6.34V106A18.47,18.47,0,0,0,72.16,87.46Zm17,19.59a5.38,5.38,0,0,1-5.34,5.35H59.46a5.38,5.38,0,0,1-5.35-5.35V106a17.47,17.47,0,0,1,17-17.52h1a17.48,17.48,0,0,1,17,17.52Zm-17-19.59H71.08a18.46,18.46,0,0,0-18,18.52v1.08a6.38,6.38,0,0,0,6.35,6.34H83.81a6.38,6.38,0,0,0,6.34-6.34V106A18.47,18.47,0,0,0,72.16,87.46Zm17,19.59a5.38,5.38,0,0,1-5.34,5.35H59.46a5.38,5.38,0,0,1-5.35-5.35V106a17.47,17.47,0,0,1,17-17.52h1a17.48,17.48,0,0,1,17,17.52ZM78.31,69.77A9.47,9.47,0,0,0,71.61,67a9.47,9.47,0,0,0-.51,18.93h1.06a9.48,9.48,0,0,0,6.15-16.16ZM72.13,84.93h-1a8.45,8.45,0,1,1,1,0Z"/></g><path class="cls-1" d="M108.48,45.16H34.91A18.93,18.93,0,0,0,16,64.06v55.11a18.93,18.93,0,0,0,18.91,18.91H98.34l24.34,16.85a3,3,0,0,0,1.71.53,3,3,0,0,0,1.39-.34,3,3,0,0,0,1.61-2.66V64.06A18.93,18.93,0,0,0,108.48,45.16Zm12.91,101.57L101,132.61a3,3,0,0,0-1.71-.53H34.91A12.92,12.92,0,0,1,22,119.17V64.06a12.92,12.92,0,0,1,12.91-12.9h73.57a12.92,12.92,0,0,1,12.91,12.9Z"/><path class="cls-1" d="M250.09,65.8H176.52a18.93,18.93,0,0,0-18.91,18.91V173.1a3,3,0,0,0,1.61,2.66,3,3,0,0,0,1.39.34,3,3,0,0,0,1.71-.53l24.34-16.85h63.43A18.93,18.93,0,0,0,269,139.81V84.71A18.93,18.93,0,0,0,250.09,65.8Zm12.91,74a12.92,12.92,0,0,1-12.91,12.91H185.72a3.06,3.06,0,0,0-1.71.53l-20.4,14.13V84.71A12.92,12.92,0,0,1,176.52,71.8h73.57A12.92,12.92,0,0,1,263,84.71Z"/><path class="cls-1" d="M142.5,182.06A34.5,34.5,0,1,0,177,216.56,34.55,34.55,0,0,0,142.5,182.06Zm0,63A28.51,28.51,0,1,1,171,216.56,28.54,28.54,0,0,1,142.5,245.07Z"/><path class="cls-1" d="M158.79,247A58.08,58.08,0,0,0,144,245.07H141A58.08,58.08,0,0,0,126.21,247a58.68,58.68,0,0,0-43.75,56.67v7a19.19,19.19,0,0,0,19.17,19.17h81.74a19.19,19.19,0,0,0,19.17-19.17v-7A58.68,58.68,0,0,0,158.79,247Zm37.75,63.69a13.18,13.18,0,0,1-13.17,13.17H101.63a13.18,13.18,0,0,1-13.17-13.17v-7A52.64,52.64,0,0,1,141,251.07H144a52.64,52.64,0,0,1,52.58,52.58Z"/></svg>