<svg id="Layer_1" data-name="Layer 1" xmlns="http://www.w3.org/2000/svg" viewBox="0 0 285 375"><defs><style>.cls-1{fill:#fff;}</style></defs><title>tutorial-2b</title><path class="cls-1" d="M211,23.53H74A26.55,26.55,0,0,0,47.53,50V327A26.55,26.55,0,0,0,74,353.47H211A26.55,26.55,0,0,0,237.47,327V50A26.55,26.55,0,0,0,211,23.53ZM232.53,327A21.6,21.6,0,0,1,211,348.53H74A21.6,21.6,0,0,1,52.47,327V50A21.6,21.6,0,0,1,74,28.47H211A21.6,21.6,0,0,1,232.53,50Z"/><path class="cls-1" d="M64.53,62.53V306.47H220.47V62.53Zm151,239H69.47V67.47H215.53Z"/><path class="cls-1" d="M142,314a13,13,0,1,0,13,13A13,13,0,0,0,142,314Zm0,21a8,8,0,1,1,8-8A8,8,0,0,1,142,335Z"/><path class="cls-1" d="M127.5,153h-27A11.49,11.49,0,0,0,89,164.5v27A11.49,11.49,0,0,0,100.5,203h27A11.49,11.49,0,0,0,139,191.5v-27A11.49,11.49,0,0,0,127.5,153ZM134,191.5A6.54,6.54,0,0,1,127.5,198h-27A6.54,6.54,0,0,1,94,191.5v-27A6.54,6.54,0,0,1,100.5,158h27A6.54,6.54,0,0,1,134,164.5Z"/><path class="cls-1" d="M184.5,153h-27A11.49,11.49,0,0,0,146,164.5v27A11.49,11.49,0,0,0,157.5,203h27A11.49,11.49,0,0,0,196,191.5v-27A11.49,11.49,0,0,0,184.5,153ZM191,191.5A6.54,6.54,0,0,1,184.5,198h-27A6.54,6.54,0,0,1,151,191.5v-27A6.54,6.54,0,0,1,157.5,158h27A6.54,6.54,0,0,1,191,164.5Z"/><path class="cls-1" d="M128,209.53H101A11.49,11.49,0,0,0,89.53,221v27A11.49,11.49,0,0,0,101,259.47h27A11.49,11.49,0,0,0,139.47,248V221A11.49,11.49,0,0,0,128,209.53ZM134.53,248a6.54,6.54,0,0,1-6.53,6.53H101A6.54,6.54,0,0,1,94.47,248V221a6.54,6.54,0,0,1,6.53-6.53h27a6.54,6.54,0,0,1,6.53,6.53Z"/><path class="cls-1" d="M185,209.53H158A11.49,11.49,0,0,0,146.53,221v27A11.49,11.49,0,0,0,158,259.47h27A11.49,11.49,0,0,0,196.47,248V221A11.49,11.49,0,0,0,185,209.53ZM191.53,248a6.54,6.54,0,0,1-6.53,6.53H158a6.54,6.54,0,0,1-6.53-6.53V221a6.54,6.54,0,0,1,6.53-6.53h27a6.54,6.54,0,0,1,6.53,6.53Z"/><rect class="cls-1" x="89" y="104" width="107" height="10" rx="2.54" ry="2.54"/><rect class="cls-1" x="110" y="120" width="65" height="10" rx="1.98" ry="1.98"/></svg>