<svg id="Layer_1" data-name="Layer 1" xmlns="http://www.w3.org/2000/svg" viewBox="0 0 285 375"><defs><style>.cls-1{fill:#fff;}</style></defs><title>tutorial-2</title><g id="Going-Out_Img" data-name="Going-Out Img"><path class="cls-1" d="M225.14,84.94h0a1,1,0,1,0-1,1A1,1,0,0,0,225.14,84.94Z"/><path class="cls-1" d="M231.94,69.26l-2.31-1.16-1.16-2.35a1,1,0,0,0-1.75,0l-1.16,2.35-2.31,1.16a.94.94,0,0,0-.43.43,1,1,0,0,0,.43,1.31l2.32,1.16,1.15,2.31a1,1,0,0,0,.88.54,1,1,0,0,0,.87-.54l1.16-2.31L231.94,71a1,1,0,0,0,0-1.74Zm-3.48,1.3A1,1,0,0,0,228,71l-.43.85-.43-.85a1,1,0,0,0-.44-.44l-.86-.43.86-.43a1,1,0,0,0,.44-.44l.43-.87.42.87a1,1,0,0,0,.44.44l.87.43Z"/><path class="cls-1" d="M201.35,71.05l-3.93-1.31-1.31-3.86a1,1,0,0,0-1.85,0L193,69.74,189,71.09a.94.94,0,0,0-.62.62,1,1,0,0,0,.62,1.23L193,74.25l1.33,3.89a1,1,0,0,0,.62.63,1,1,0,0,0,1.23-.63l1.29-3.89,3.93-1.35a1,1,0,0,0,.63-.62A1,1,0,0,0,201.35,71.05Zm-5,1.46a1,1,0,0,0-.62.62l-.54,1.62-.54-1.62a1,1,0,0,0-.61-.62L192.42,72l1.62-.54a1,1,0,0,0,.61-.62l.53-1.61.54,1.6a1,1,0,0,0,.62.62L198,72Z"/><path class="cls-1" d="M233.89,94.73a20.51,20.51,0,0,0-15.62-19.92V72.65a3,3,0,0,0-.87-2.09,3,3,0,0,0-2.09-.86h-.93V66.19a1,1,0,0,0-2,0v3.49h-.95a3,3,0,0,0-2.95,2.95v2.15a20.51,20.51,0,0,0,4.66,40.43h.22A20.52,20.52,0,0,0,233.9,94.7ZM221.76,81.86a1,1,0,0,0,1.67-1,18.61,18.61,0,0,0-2.21-3,18.5,18.5,0,0,1,7.3,6.08H228a1,1,0,0,0,0,2h1.69a18.64,18.64,0,0,1,2.22,7.82H227a30.57,30.57,0,0,0-.64-5.31.93.93,0,0,0-.07-.33,1,1,0,1,0-1.8.74,30,30,0,0,1,.59,4.92h-5.89a73.13,73.13,0,0,0-.5-7.82h1.47a1,1,0,0,0,.9-.89,1,1,0,0,0-.9-1.06h-1.77a26.67,26.67,0,0,0-2-7.17A12.34,12.34,0,0,1,221.76,81.86Zm3.34,13.79a26.68,26.68,0,0,1-1.39,7.82h-5a75.83,75.83,0,0,0,.5-7.82Zm-15.6-1.92a70.33,70.33,0,0,1,.52-7.82h6.77a68,68,0,0,1,.51,7.82Zm7.8,1.92a68.29,68.29,0,0,1-.51,7.82H210a70.65,70.65,0,0,1-.52-7.82Zm-7-11.69c1-5.87,2.48-7.81,3.09-7.81s2.1,1.94,3.09,7.81Zm.12-11.33a1,1,0,0,1,1-1h3.94a1,1,0,0,1,1,1l0,1.77a20.55,20.55,0,0,0-5.86,0Zm-.1,4.15a26.4,26.4,0,0,0-2,7.18h-4.45C205.16,81,207.33,78.06,210.33,76.78ZM207.54,93.7H201.7a27.05,27.05,0,0,1,1.42-7.82h4.93A73,73,0,0,0,207.54,93.7Zm.51,9.77h-4.88a27.8,27.8,0,0,1-1.47-7.82h5.84A73.15,73.15,0,0,0,208.05,103.47ZM205.51,77.9A19.48,19.48,0,0,0,201.76,84h-3.49A18.58,18.58,0,0,1,205.51,77.9Zm-8.45,8h4a29.65,29.65,0,0,0-1.32,7.82h-4.9A18.49,18.49,0,0,1,197.06,85.91Zm-2.19,9.74h4.87a29.88,29.88,0,0,0,1.38,7.84h-4.06l0,0A18.49,18.49,0,0,1,194.87,95.65Zm3.4,9.79h3.55a20.18,20.18,0,0,0,3.65,6A18.53,18.53,0,0,1,198.27,105.44Zm12.06,7.18c-3-1.24-5.1-4.26-6.42-7.21h4.42a26.88,26.88,0,0,0,2,7.21Zm3.07.63c-.61,0-2.1-1.91-3.09-7.81h6.18C215.5,111.31,214,113.25,213.4,113.25Zm3-.63a26.77,26.77,0,0,0,2-7.2h4.48v0C221.62,108.4,219.4,111.34,216.45,112.62Zm4.85-1.15a19.55,19.55,0,0,0,3.76-6h3.46A18.52,18.52,0,0,1,221.3,111.47Zm8.44-8h-4a29.28,29.28,0,0,0,1.29-7.82H232A18.62,18.62,0,0,1,229.74,103.47Z"/><path class="cls-1" d="M238.34,78.19a1,1,0,0,0-.89-1.07h-1v-1h0a1,1,0,1,0-1.95,0v1h-1a1,1,0,0,0,0,2h1v1a1,1,0,1,0,1.95,0v-1h1A1,1,0,0,0,238.34,78.19Z"/></g><path class="cls-1" d="M250.09,45.16H176.52a18.93,18.93,0,0,0-18.91,18.9v88.4a3,3,0,0,0,1.61,2.66,3,3,0,0,0,1.39.34,3,3,0,0,0,1.71-.53l24.34-16.85h63.43A18.93,18.93,0,0,0,269,119.17V64.06A18.93,18.93,0,0,0,250.09,45.16Zm12.91,74a12.92,12.92,0,0,1-12.91,12.91H185.72a3,3,0,0,0-1.71.53l-20.4,14.12V64.06a12.92,12.92,0,0,1,12.91-12.9h73.57A12.92,12.92,0,0,1,263,64.06Z"/><path class="cls-1" d="M142.5,182.06A34.5,34.5,0,1,0,177,216.56,34.55,34.55,0,0,0,142.5,182.06Zm0,63A28.51,28.51,0,1,1,171,216.56,28.54,28.54,0,0,1,142.5,245.07Z"/><path class="cls-1" d="M158.79,247A58.08,58.08,0,0,0,144,245.07H141A58.08,58.08,0,0,0,126.21,247a58.68,58.68,0,0,0-43.75,56.67v7a19.19,19.19,0,0,0,19.17,19.17h81.74a19.19,19.19,0,0,0,19.17-19.17v-7A58.68,58.68,0,0,0,158.79,247Zm37.75,63.69a13.18,13.18,0,0,1-13.17,13.17H101.63a13.18,13.18,0,0,1-13.17-13.17v-7A52.64,52.64,0,0,1,141,251.07H144a52.64,52.64,0,0,1,52.58,52.58Z"/><path class="cls-1" d="M108.09,65.8H34.52A18.93,18.93,0,0,0,15.61,84.71v55.1a18.93,18.93,0,0,0,18.91,18.91H98l24.34,16.85a3,3,0,0,0,1.71.53,3,3,0,0,0,1.39-.34A3,3,0,0,0,127,173.1V84.71A18.93,18.93,0,0,0,108.09,65.8ZM121,167.38l-20.4-14.13a3.06,3.06,0,0,0-1.71-.53H34.52a12.92,12.92,0,0,1-12.91-12.91V84.71A12.92,12.92,0,0,1,34.52,71.8h73.57A12.92,12.92,0,0,1,121,84.71Z"/><g id="Happy_Img" data-name="Happy Img"><path class="cls-1" d="M60,96.58a1.5,1.5,0,0,1-.37,0h0l-.06,0a1.37,1.37,0,0,1,.76-2.63h.05a1.38,1.38,0,0,1,1,1.33,1.36,1.36,0,0,1-1.37,1.36Z"/><path class="cls-1" d="M50.86,109.74a3.62,3.62,0,0,1-1-.13h0A3.73,3.73,0,0,1,47.23,105h0a1.36,1.36,0,0,1,1.67-1,1.38,1.38,0,0,1,1,1.68.94.94,0,0,0,.1.75,1,1,0,0,0,.62.48h0a1,1,0,0,0,1.24-.76h0a1.37,1.37,0,1,1,2.64.73,3.74,3.74,0,0,1-1.75,2.26,3.69,3.69,0,0,1-1.86.51Z"/><path class="cls-1" d="M62.68,112.87a3.62,3.62,0,0,1-1-.13A3.73,3.73,0,0,1,59.44,111a3.79,3.79,0,0,1-.38-2.85,1.37,1.37,0,1,1,2.64.7,1.06,1.06,0,0,0,.11.76,1,1,0,0,0,.62.46,1,1,0,0,0,.75-.09,1,1,0,0,0,.48-.62h0a1.36,1.36,0,0,1,1.67-1h0a1.38,1.38,0,0,1,1,1.69,3.77,3.77,0,0,1-3.62,2.78Z"/><path class="cls-1" d="M53,121.62a5.61,5.61,0,0,1-4-6.87h0a1.37,1.37,0,1,1,2.64.7,2.87,2.87,0,0,0,4.23,3.24,2.82,2.82,0,0,0,1.34-1.75,1.37,1.37,0,0,1,1.68-1,1.35,1.35,0,0,1,1,1.67,5.63,5.63,0,0,1-5.42,4.17A5.46,5.46,0,0,1,53,121.62Z"/><path class="cls-1" d="M98.13,97.08a19.4,19.4,0,0,0-27.14,4,19.6,19.6,0,0,0-5.21-4.86,1.38,1.38,0,0,0-1.76.4,1.37,1.37,0,0,0,.3,1.92,16.58,16.58,0,0,1,5.08,5,19.4,19.4,0,0,0,0,18.11,16.75,16.75,0,0,1-14,7.62,16.29,16.29,0,0,1-4.28-.57A16.67,16.67,0,0,1,54.4,96a1.37,1.37,0,0,0,1.28-1.45,1.35,1.35,0,0,0-1.45-1.28,19.4,19.4,0,0,0-3.85,38.11,19.15,19.15,0,0,0,12.43-.81A19.55,19.55,0,0,0,71,124.23a19.73,19.73,0,0,0,4,4A19.41,19.41,0,1,0,98.13,97.08ZM86.55,129.31a16.7,16.7,0,0,1-16.66-16.68h0a16.68,16.68,0,1,1,16.66,16.69Z"/><path class="cls-1" d="M90.33,111.1A1.37,1.37,0,0,1,89,109.73a3.77,3.77,0,0,1,7.5,0,1.37,1.37,0,1,1-2.73,0v-.17a1,1,0,1,0-2,.17,1.37,1.37,0,0,1-1.37,1.37Z"/><path class="cls-1" d="M78.06,111.1a1.37,1.37,0,0,1-1.37-1.37,3.78,3.78,0,0,1,7.51,0,1.37,1.37,0,1,1-2.74,0,.48.48,0,0,0,0-.17,1,1,0,0,0-1.1-.93,1,1,0,0,0-.93,1.1,1.37,1.37,0,0,1-1.37,1.37Z"/><path class="cls-1" d="M80.94,116.36h0a1.37,1.37,0,1,1,2.73,0,2.89,2.89,0,0,0,5.77,0h0a1.37,1.37,0,1,1,2.73,0,5.62,5.62,0,1,1-11.23,0Z"/></g></svg>