<svg xmlns="http://www.w3.org/2000/svg" xmlns:xlink="http://www.w3.org/1999/xlink" viewBox="0 0 252 74.28"><defs><style>.cls-1{fill:#fff;}.cls-2{fill:url(#linear-gradient);}</style><linearGradient id="linear-gradient" x1="255.54" y1="79.92" x2="168.5" y2="-16.01" gradientUnits="userSpaceOnUse"><stop offset="0" stop-color="#1ec4dc"/><stop offset="0.25" stop-color="#369acd"/><stop offset="0.66" stop-color="#4d6fbe"/><stop offset="1" stop-color="#6644af"/></linearGradient></defs><title>Alky-White</title><g id="Layer_2" data-name="Layer 2"><g id="Color_Version" data-name="Color Version"><path class="cls-1" d="M31.22,8.6H26.87L0,64.57H5.32l7.25-15.26H44.75l7,15.26H57ZM14.54,45.13,28.93,14.59l14,30.54Z"/><polygon class="cls-1" points="81.74 8.6 76.86 8.6 76.86 64.57 111.03 64.57 111.03 60.31 81.74 60.31 81.74 8.6"/><polygon class="cls-1" points="171.31 8.6 164.09 8.6 136.5 31.35 136.5 8.6 131.61 8.6 131.61 64.57 136.5 64.57 136.5 37.84 165.62 64.57 172.49 64.57 139.59 34.46 171.31 8.6"/><path class="cls-2" d="M181.44,0V74.28H252V0ZM217,22.52,230.25,4.07h2.86L217,26.16Zm13.25,42.05H203.15V61.28h27.13ZM219.16,40.28V57.8h-4.88V40.28L192.86,8.6h5.74l18.2,27,18.11-27h5.66Z"/><rect class="cls-1" x="203.15" y="61.28" width="27.13" height="3.29"/><polygon class="cls-1" points="233.11 4.07 217.03 26.16 217.03 22.52 230.25 4.07 233.11 4.07"/><polygon class="cls-1" points="240.57 8.6 219.16 40.28 219.16 57.8 214.28 57.8 214.28 40.28 192.86 8.6 198.6 8.6 216.8 35.58 234.91 8.6 240.57 8.6"/></g></g></svg>