<svg xmlns="http://www.w3.org/2000/svg" viewBox="0 0 252 74.28"><title>Alky-Mono-Black</title><g id="Layer_2" data-name="Layer 2"><g id="Mono_Version" data-name="Mono Version"><path d="M31.22,8.6H26.87L0,64.57H5.32l7.25-15.26H44.75l7,15.26H57ZM14.54,45.13,28.93,14.6l14,30.53Z"/><polygon points="81.74 8.6 76.86 8.6 76.86 64.57 111.03 64.57 111.03 60.31 81.74 60.31 81.74 8.6"/><polygon points="171.31 8.6 164.09 8.6 136.5 31.35 136.5 8.6 131.61 8.6 131.61 64.57 136.5 64.57 136.5 37.84 165.62 64.57 172.49 64.57 139.59 34.46 171.31 8.6"/><path d="M181.44,0V74.28H252V0ZM217,22.52,230.25,4.07h2.86L217,26.16Zm13.25,42.05H203.15V61.28h27.13ZM219.16,40.28V57.8h-4.88V40.28L192.86,8.6h5.74l18.2,27,18.11-27h5.66Z"/></g></g></svg>