<?xml version="1.0" encoding="utf-8"?>
<!-- Generator: Adobe Illustrator 22.1.0, SVG Export Plug-In . SVG Version: 6.00 Build 0)  -->
<svg version="1.1" id="Layer_1" xmlns="http://www.w3.org/2000/svg" xmlns:xlink="http://www.w3.org/1999/xlink" x="0px" y="0px"
	 viewBox="0 0 70.6 74.3" style="enable-background:new 0 0 70.6 74.3;" xml:space="preserve">
<style type="text/css">
	.st0{fill:url(#SVGID_1_);}
	.st1{fill:#FFFFFF;}
</style>
<title>Alky-Gray</title>
<g id="Layer_2_1_">
	<g id="Color_Version">
		
			<linearGradient id="SVGID_1_" gradientUnits="userSpaceOnUse" x1="74.0975" y1="-3.9222" x2="-12.9425" y2="92.0078" gradientTransform="matrix(1 0 0 -1 0 76)">
			<stop  offset="0" style="stop-color:#1EC4DC"/>
			<stop  offset="0.25" style="stop-color:#369ACD"/>
			<stop  offset="0.66" style="stop-color:#4D6FBE"/>
			<stop  offset="1" style="stop-color:#6644AF"/>
		</linearGradient>
		<path class="st0" d="M0,0v74.3h70.6V0H0z M35.6,22.5L48.8,4.1h2.9L35.6,26.2V22.5z M48.8,64.6H21.7v-3.3h27.1L48.8,64.6z
			 M37.7,40.3v17.5h-4.9V40.3L11.4,8.6h5.7l18.2,27l18.1-27h5.7L37.7,40.3z"/>
		<rect x="21.7" y="61.3" class="st1" width="27.1" height="3.3"/>
		<polygon class="st1" points="51.7,4.1 35.6,26.2 35.6,22.5 48.8,4.1 		"/>
		<polygon class="st1" points="59.1,8.6 37.7,40.3 37.7,57.8 32.8,57.8 32.8,40.3 11.4,8.6 17.2,8.6 35.4,35.6 53.5,8.6 		"/>
	</g>
</g>
</svg>
