<?xml version="1.0" encoding="utf-8"?>
<!-- Generator: Adobe Illustrator 22.1.0, SVG Export Plug-In . SVG Version: 6.00 Build 0)  -->
<svg version="1.1" id="Layer_1" xmlns="http://www.w3.org/2000/svg" xmlns:xlink="http://www.w3.org/1999/xlink" x="0px" y="0px"
	 viewBox="0 0 137.3 137.3" style="enable-background:new 0 0 137.3 137.3;" xml:space="preserve">
<style type="text/css">
	.st0{fill:url(#SVGID_1_);}
	.st1{fill:#FFFFFF;}
	.st2{fill:none;stroke:#FFFFFF;stroke-width:3.74;stroke-miterlimit:10;}
	.st3{fill:none;stroke:#FFFFFF;stroke-width:2.82;stroke-miterlimit:10;}
</style>
<g>
	
		<linearGradient id="SVGID_1_" gradientUnits="userSpaceOnUse" x1="0" y1="137.26" x2="1" y2="137.26" gradientTransform="matrix(-137.26 109.8063 109.8063 137.26 -14927.9414 -18832.0313)">
		<stop  offset="0" style="stop-color:#1EC4DC"/>
		<stop  offset="0.25" style="stop-color:#369ACD"/>
		<stop  offset="0.65" style="stop-color:#4D6FBE"/>
		<stop  offset="1" style="stop-color:#6644AF"/>
	</linearGradient>
	<path class="st0" d="M10,0h117.3c5.5,0,10,4.5,10,10v117.3c0,5.5-4.5,10-10,10H10c-5.5,0-10-4.5-10-10V10C0,4.5,4.5,0,10,0z"/>
	<path class="st1" d="M19.6,122.8l-0.7-2h-4.1l-1,2h-1.6l4.5-8.4h1.3l3.2,8.4H19.6z M15.4,119.6h3.1l-1.3-3.6L15.4,119.6z"/>
	<path class="st1" d="M29.7,115c0.5,0.4,0.7,1,0.7,1.8c0,0.9-0.3,1.6-0.8,2s-1.3,0.7-2.2,0.7h-2.2l-0.3,3.3h-1.5l0.7-8.4h3.6
		C28.5,114.3,29.2,114.6,29.7,115z M28.9,116.8c0-0.9-0.5-1.3-1.5-1.3h-1.9l-0.2,2.8h1.9C28.4,118.3,28.9,117.8,28.9,116.8z"/>
	<polygon class="st1" points="38.9,115.6 34.8,115.6 34.6,117.9 38.5,117.9 38.4,119.1 34.5,119.1 34.3,121.6 38.4,121.6 
		38.3,122.8 32.7,122.8 33.4,114.3 39,114.3 	"/>
	<path class="st1" d="M46.6,119.6c0.2,0.2,0.3,0.4,0.4,0.6l1.2,2.6h-1.7l-1.3-2.7c-0.1-0.3-0.3-0.4-0.5-0.5
		c-0.2-0.1-0.4-0.2-0.7-0.2H43l-0.3,3.4h-1.5l0.7-8.4h3.8c0.9,0,1.5,0.2,2,0.6c0.5,0.4,0.7,1,0.7,1.7c0,1.5-0.8,2.3-2.2,2.6
		C46.3,119.3,46.5,119.4,46.6,119.6z M45.2,118.2c1.1,0,1.7-0.5,1.7-1.4c0-0.4-0.1-0.7-0.4-0.9c-0.2-0.2-0.6-0.3-1.1-0.3h-2.2
		l-0.2,2.7H45.2z"/>
	<path class="st1" d="M52.8,122.4c-0.6-0.3-1.1-0.8-1.4-1.4s-0.5-1.3-0.5-2.1c0-0.9,0.2-1.7,0.5-2.4c0.3-0.7,0.8-1.2,1.4-1.6
		c0.6-0.4,1.3-0.6,2.2-0.6c0.8,0,1.5,0.2,2.1,0.5c0.6,0.3,1.1,0.8,1.4,1.4c0.3,0.6,0.5,1.3,0.5,2.1c0,0.9-0.2,1.7-0.5,2.4
		c-0.3,0.7-0.8,1.2-1.4,1.6c-0.6,0.4-1.3,0.6-2.2,0.6C54.1,122.9,53.4,122.7,52.8,122.4z M56.7,120.7c0.5-0.6,0.7-1.4,0.7-2.5
		c0-0.9-0.2-1.6-0.6-2.1c-0.4-0.5-1-0.7-1.8-0.7c-0.8,0-1.4,0.3-1.9,0.9c-0.5,0.6-0.7,1.4-0.7,2.5c0,0.9,0.2,1.6,0.6,2.1
		s1,0.7,1.8,0.7C55.7,121.6,56.3,121.3,56.7,120.7z"/>
	<polygon class="st1" points="61.6,122.8 62.3,114.3 63.8,114.3 63.3,121.5 67.2,121.5 67.1,122.8 	"/>
	<path class="st1" d="M75.5,122.6c-0.6-0.2-1.1-0.4-1.5-0.7l0.6-1.1c0.4,0.3,0.9,0.5,1.3,0.7c0.5,0.1,0.9,0.2,1.5,0.2
		c0.6,0,1-0.1,1.3-0.3s0.5-0.5,0.5-0.8c0-0.2-0.1-0.4-0.2-0.6c-0.2-0.2-0.4-0.3-0.6-0.4s-0.6-0.2-1-0.3c-0.6-0.2-1.1-0.3-1.4-0.5
		c-0.4-0.2-0.7-0.4-1-0.7c-0.3-0.3-0.4-0.7-0.4-1.3c0-0.5,0.1-1,0.4-1.3c0.3-0.4,0.7-0.7,1.2-0.9c0.5-0.2,1.1-0.3,1.8-0.3
		c0.6,0,1.2,0.1,1.7,0.3c0.5,0.2,1,0.4,1.3,0.7l-0.6,1.1c-0.4-0.3-0.7-0.5-1.2-0.7c-0.4-0.2-0.8-0.2-1.3-0.2c-0.6,0-1,0.1-1.3,0.3
		c-0.3,0.2-0.5,0.5-0.5,0.9c0,0.2,0.1,0.5,0.3,0.6c0.2,0.2,0.4,0.3,0.6,0.4c0.2,0.1,0.6,0.2,1.1,0.3c0.6,0.2,1.1,0.3,1.4,0.5
		c0.4,0.2,0.7,0.4,0.9,0.7c0.3,0.3,0.4,0.7,0.4,1.2c0,0.8-0.3,1.4-0.9,1.8c-0.6,0.4-1.4,0.7-2.5,0.7
		C76.7,122.9,76.1,122.8,75.5,122.6z"/>
	<path class="st1" d="M89.7,115c0.5,0.4,0.7,1,0.7,1.8c0,0.9-0.3,1.6-0.8,2s-1.3,0.7-2.2,0.7h-2.2l-0.3,3.3h-1.5l0.7-8.4h3.6
		C88.5,114.3,89.2,114.6,89.7,115z M89,116.8c0-0.9-0.5-1.3-1.5-1.3h-1.9l-0.2,2.8h2C88.4,118.3,89,117.8,89,116.8z"/>
	<path class="st1" d="M98.2,119.6c0.2,0.2,0.3,0.4,0.4,0.6l1.2,2.6h-1.7l-1.3-2.7c-0.1-0.3-0.3-0.4-0.5-0.5
		c-0.2-0.1-0.4-0.2-0.7-0.2h-1.2l-0.3,3.4h-1.5l0.7-8.4h3.8c0.9,0,1.5,0.2,2,0.6c0.5,0.4,0.7,1,0.7,1.7c0,1.5-0.8,2.3-2.2,2.6
		C97.8,119.3,98,119.4,98.2,119.6z M96.7,118.2c1.1,0,1.7-0.5,1.7-1.4c0-0.4-0.1-0.7-0.4-0.9c-0.2-0.2-0.6-0.3-1.1-0.3h-2.2
		l-0.2,2.7H96.7z"/>
	<polygon class="st1" points="102.5,122.8 103.1,114.3 104.7,114.3 104,122.8 	"/>
	<polygon class="st1" points="109.3,122.8 109.8,115.6 107.1,115.6 107.2,114.3 114.2,114.3 114.1,115.6 111.4,115.6 110.8,122.8 	
		"/>
	<polygon class="st1" points="122.4,114.3 122.4,115.5 117.6,121.5 122,121.5 121.9,122.8 115.7,122.8 115.8,121.6 120.6,115.6 
		116.3,115.6 116.4,114.3 	"/>
	<path class="st2" d="M86.7,28c1.3,3.4,2,7,1.9,10.7c0,13.7-9,24.8-20,24.8s-20-11.1-20-24.8c0-3.6,0.6-7.3,1.9-10.7H86.7z"/>
	<polygon class="st2" points="68.6,99 76.9,105.3 60.3,105.3 68.6,99 68.6,63.5 	"/>
	<path class="st2" d="M48.6,38.7c0,0,9.3-2,14-1.2c4.8,0.8,3.8,1.7,12.5,1.2s13.5-4,13.5-4"/>
	<line class="st2" x1="52.5" y1="10.6" x2="68.6" y2="59.6"/>
	<path class="st3" d="M97.6,28.3c-0.5-4.9-4.9-8.6-9.8-8.1c-4.3,0.4-7.7,3.8-8.1,8.1"/>
	<path class="st3" d="M88.6,37.3c5,0,9-4,9-9"/>
</g>
</svg>
