<svg xmlns="http://www.w3.org/2000/svg" xmlns:xlink="http://www.w3.org/1999/xlink" viewBox="0 0 137.26 137.26"><defs><style>.cls-1{fill:url(#linear-gradient);}.cls-2{font-size:11.96px;fill:#fff;font-family:NunitoSans-BoldItalic, Nunito Sans;font-weight:700;font-style:italic;letter-spacing:0.12em;}.cls-3{letter-spacing:0.11em;}.cls-4{letter-spacing:0.12em;}.cls-5{letter-spacing:0.12em;}.cls-6,.cls-7{fill:none;stroke:#fff;stroke-miterlimit:10;}.cls-6{stroke-width:3.74px;}.cls-7{stroke-width:2.82px;}</style><linearGradient id="linear-gradient" x1="-2612.55" y1="610.5" x2="-2613.55" y2="609.7" gradientTransform="matrix(137.26, 0, 0, -137.26, 358742.81, 83805.67)" gradientUnits="userSpaceOnUse"><stop offset="0" stop-color="#1ec4dc"/><stop offset="0.25" stop-color="#369acd"/><stop offset="0.65" stop-color="#4d6fbe"/><stop offset="1" stop-color="#6644af"/></linearGradient></defs><title>Asset 84</title><g id="Layer_2" data-name="Layer 2"><g id="aperol-spritz"><rect id="Box" class="cls-1" width="137.26" height="137.26" rx="10" ry="10"/><g id="Text"><text class="cls-2" transform="translate(12.4 122.77)">APE<tspan class="cls-3" x="28.11" y="0">R</tspan><tspan class="cls-4" x="37.8" y="0">OL SPRI</tspan><tspan class="cls-5" x="94.22" y="0">T</tspan><tspan x="102.96" y="0">Z</tspan></text></g><g id="Icon"><path class="cls-6" d="M86.74,28.05a29.86,29.86,0,0,1,1.94,10.68c0,13.71-9,24.81-20.05,24.81s-20-11.1-20-24.81a29.86,29.86,0,0,1,1.94-10.68Z"/><polygon class="cls-6" points="68.63 98.99 76.88 105.32 60.3 105.32 68.63 98.99 68.63 63.54 68.63 98.99"/><path class="cls-6" d="M48.58,38.73s9.3-2,14.05-1.24,3.75,1.74,12.5,1.24,13.55-4,13.55-4"/><line class="cls-6" x1="52.46" y1="10.65" x2="68.59" y2="59.65"/><path class="cls-7" d="M97.56,28.32a9,9,0,0,0-17.92,0"/><path class="cls-7" d="M88.6,37.27a9,9,0,0,0,9-9"/></g></g></g></svg>