<?xml version="1.0" encoding="utf-8"?>
<!-- Generator: Adobe Illustrator 22.1.0, SVG Export Plug-In . SVG Version: 6.00 Build 0)  -->
<svg version="1.1" id="Capa_1" xmlns="http://www.w3.org/2000/svg" xmlns:xlink="http://www.w3.org/1999/xlink" x="0px" y="0px"
	 viewBox="0 0 451.8 451.8" style="enable-background:new 0 0 451.8 451.8;" xml:space="preserve">
<style type="text/css">
	.st0{fill:#1EC4DC;}
	.st1{fill:#FFFFFF;}
</style>
<path class="st0" d="M225.9,14.8c-116.6,0-211.1,94.5-211.1,211.1S109.3,437,225.9,437S437,342.5,437,225.9S342.5,14.8,225.9,14.8z
	 M365,302.7c-7.9,7.9-20.8,7.9-28.7,0L225.9,192.3L115.5,302.7c-7.9,7.9-20.8,7.9-28.7,0c-7.9-7.9-7.9-20.8,0-28.7l124.8-124.8
	c4-4,9.2-6,14.4-6s10.4,2,14.4,6L365,273.9C373,281.9,373,294.7,365,302.7z"/>
<path class="st1" d="M365,302.7c-7.9,7.9-20.8,7.9-28.7,0L225.9,192.3L115.5,302.7c-7.9,7.9-20.8,7.9-28.7,0
	c-7.9-7.9-7.9-20.8,0-28.7l124.8-124.8c4-4,9.2-6,14.4-6s10.4,2,14.4,6L365,273.9C373,281.9,373,294.7,365,302.7z"/>
</svg>
