<svg xmlns="http://www.w3.org/2000/svg" viewBox="0 0 58.57 68"><defs><style>.cls-1{fill:#fff;}</style></defs><title>beer</title><g id="Layer_2" data-name="Layer 2"><g id="Graphics"><path class="cls-1" d="M33.27,59.94a1.33,1.33,0,1,0,1.33,1.33A1.33,1.33,0,0,0,33.27,59.94Z"/><path class="cls-1" d="M14.61,26.6a1.34,1.34,0,0,0-1.33,1.33V53.3a1.33,1.33,0,0,0,2.66,0V27.93A1.34,1.34,0,0,0,14.61,26.6Z"/><path class="cls-1" d="M25.23,26.6a1.33,1.33,0,0,0-1.32,1.33V53.3a1.33,1.33,0,0,0,2.65,0V27.93A1.33,1.33,0,0,0,25.23,26.6Z"/><path class="cls-1" d="M12.09,68H38.65a6.65,6.65,0,0,0,6.64-6.64v-4h6.64a6.64,6.64,0,0,0,6.64-6.64V28a6.65,6.65,0,0,0-6.64-6.64H45.29v-4A6.62,6.62,0,0,0,42.76,5.6,6.74,6.74,0,0,0,39,5.87a6.66,6.66,0,0,0-8.12-2.59A11.88,11.88,0,0,0,12.68,5.39,12,12,0,0,0,0,17.3V33.24a4,4,0,0,0,4.05,4A3.87,3.87,0,0,0,5.45,37V61.36A6.64,6.64,0,0,0,12.09,68Zm26.56-2.66H12.09a4,4,0,0,1-3.76-2.65H28A1.33,1.33,0,0,0,28,60H8.1V23.84A9.24,9.24,0,0,0,15,18.73a1,1,0,0,1,.7.27,8,8,0,0,0,11.32-.14.4.4,0,0,1,.31-.13c2.07,0,3.42.44,4,1.31a4.43,4.43,0,0,1,.5,2.52v5.37a4,4,0,0,0,2.65,3.76V53.3a1.33,1.33,0,0,0,2.66,0V31.69a4,4,0,0,0,2.65-3.76V18.57a6.9,6.9,0,0,0,2.79,0V60H38.58a1.34,1.34,0,0,0-1.33,1.33,1.32,1.32,0,0,0,1.33,1.31H42.4A4,4,0,0,1,38.65,65.34Zm6.64-36H50.6V49.41H45.29ZM51.93,24a4,4,0,0,1,4,4V50.73a4,4,0,0,1-4,4H45.29V52.06h6.64a1.33,1.33,0,0,0,1.33-1.33V28a1.33,1.33,0,0,0-1.33-1.32H45.29V24ZM4.05,34.57a1.38,1.38,0,0,1-1.39-1.33V17.3A9.31,9.31,0,0,1,12,8a9.66,9.66,0,0,1,1.2.07,1.32,1.32,0,0,0,1.33-.66,9.25,9.25,0,0,1,15-1.64,1.33,1.33,0,0,0,1.7.23,3.86,3.86,0,0,1,2.06-.58A4,4,0,0,1,37.1,8.11a1.3,1.3,0,0,0,.83.82,1.33,1.33,0,0,0,1.16-.16,4,4,0,0,1,6.09,2.37,4.08,4.08,0,0,1-6.06,4.39,1.32,1.32,0,0,0-1.93,1.19V27.93a1.33,1.33,0,0,1-2.66,0V22.56a6.8,6.8,0,0,0-1-4c-1.13-1.63-3.22-2.46-6.21-2.46a3.11,3.11,0,0,0-2.23.94,5.22,5.22,0,0,1-3.81,1.62,5.29,5.29,0,0,1-3.73-1.52,3.62,3.62,0,0,0-2.56-1,2.66,2.66,0,0,0-2.39,1.49,6.57,6.57,0,0,1-5.88,3.73,1.32,1.32,0,0,0-1.31,1.33V33.18A1.44,1.44,0,0,1,4.05,34.57Z"/></g></g></svg>