<svg xmlns="http://www.w3.org/2000/svg" viewBox="0 0 137.26 137.26"><defs><style>.cls-1{fill:#6644af;}.cls-2{font-size:11.96px;font-family:NunitoSans-BoldItalic, Nunito Sans;font-weight:700;font-style:italic;letter-spacing:0.12em;}.cls-2,.cls-3{fill:#fff;}</style></defs><title>Asset 40</title><g id="Layer_2" data-name="Layer 2"><g id="Beer_Icon"><rect id="Box" class="cls-1" width="137.26" height="137.26" rx="10" ry="10"/><g id="Text"><text class="cls-2" transform="translate(51.2 121.7)">BEER</text></g><g id="Beer_Img"><path class="cls-3" d="M77.08,90.34a1.49,1.49,0,1,0,1.49,1.48A1.48,1.48,0,0,0,77.08,90.34Z"/><path class="cls-3" d="M56.25,53.12a1.49,1.49,0,0,0-1.49,1.48V82.93a1.49,1.49,0,0,0,3,0V54.6A1.48,1.48,0,0,0,56.25,53.12Z"/><path class="cls-3" d="M68.11,53.12a1.48,1.48,0,0,0-1.48,1.48V82.93a1.48,1.48,0,1,0,3,0V54.6A1.48,1.48,0,0,0,68.11,53.12Z"/><path class="cls-3" d="M53.43,99.35H83.09a7.42,7.42,0,0,0,7.41-7.42V87.48h7.42a7.43,7.43,0,0,0,7.42-7.41V54.7a7.43,7.43,0,0,0-7.42-7.41H90.5V42.8A7.4,7.4,0,0,0,83.42,30a7.42,7.42,0,0,0-6.26-3.44,7.21,7.21,0,0,0-2.8.55,13.26,13.26,0,0,0-20.27,2.35,13.38,13.38,0,0,0-14.16,13.3v17.8A4.5,4.5,0,0,0,44.46,65,4.44,4.44,0,0,0,46,64.7V91.93A7.43,7.43,0,0,0,53.43,99.35Zm29.66-3H53.43a4.46,4.46,0,0,1-4.2-3H71.15a1.48,1.48,0,1,0,0-3H49V50a10.29,10.29,0,0,0,7.73-5.71,1.12,1.12,0,0,1,.79.31,8.9,8.9,0,0,0,12.63-.16.51.51,0,0,1,.35-.15c2.31,0,3.82.5,4.49,1.47a4.92,4.92,0,0,1,.56,2.81v6a4.45,4.45,0,0,0,3,4.19V82.93a1.49,1.49,0,0,0,3,0V58.79a4.45,4.45,0,0,0,3-4.19V44.15a7.8,7.8,0,0,0,3.12,0v46.3H83a1.48,1.48,0,1,0,0,3h4.27A4.47,4.47,0,0,1,83.09,96.38ZM90.5,56.19h5.94V78.58H90.5Zm7.42-5.93a4.45,4.45,0,0,1,4.45,4.44V80.07a4.45,4.45,0,0,1-4.45,4.44H90.5v-3h7.42a1.48,1.48,0,0,0,1.48-1.48V54.7a1.48,1.48,0,0,0-1.48-1.48H90.5v-3ZM44.46,62a1.53,1.53,0,0,1-1.56-1.48V42.73A10.41,10.41,0,0,1,53.34,32.37a10.2,10.2,0,0,1,1.35.09,1.49,1.49,0,0,0,1.48-.74A10.33,10.33,0,0,1,73,29.88a1.48,1.48,0,0,0,1.9.27,4.26,4.26,0,0,1,2.3-.66,4.46,4.46,0,0,1,4.2,3,1.45,1.45,0,0,0,.93.91,1.48,1.48,0,0,0,1.29-.17,4.46,4.46,0,0,1,6.81,2.65,4.56,4.56,0,0,1-6.78,4.9,1.45,1.45,0,0,0-1.44.05,1.49,1.49,0,0,0-.71,1.27V54.6a1.49,1.49,0,0,1-3,0v-6a7.56,7.56,0,0,0-1.08-4.5c-1.25-1.82-3.58-2.74-6.93-2.74a3.45,3.45,0,0,0-2.48,1,5.93,5.93,0,0,1-8.42.11,4.05,4.05,0,0,0-2.87-1.16A3,3,0,0,0,54.05,43a7.35,7.35,0,0,1-6.57,4.16A1.49,1.49,0,0,0,46,48.67V60.46A1.6,1.6,0,0,1,44.46,62Z"/></g></g></g></svg>