<?xml version="1.0" encoding="utf-8"?>
<!-- Generator: Adobe Illustrator 22.1.0, SVG Export Plug-In . SVG Version: 6.00 Build 0)  -->
<svg version="1.1" id="Layer_1" xmlns="http://www.w3.org/2000/svg" xmlns:xlink="http://www.w3.org/1999/xlink" x="0px" y="0px"
	 viewBox="0 0 137.3 137.3" style="enable-background:new 0 0 137.3 137.3;" xml:space="preserve">
<style type="text/css">
	.st0{fill:#6644AF;}
	.st1{fill:#FFFFFF;}
</style>
<g>
	<path class="st0" d="M10,0h117.3c5.5,0,10,4.5,10,10v117.3c0,5.5-4.5,10-10,10H10c-5.5,0-10-4.5-10-10V10C0,4.5,4.5,0,10,0z"/>
	<path class="st1" d="M58.4,118.1c0.2,0.3,0.4,0.7,0.4,1.2c0,0.8-0.3,1.4-0.8,1.8c-0.5,0.4-1.3,0.6-2.2,0.6h-3.9l0.7-8.4h3.6
		c0.9,0,1.6,0.2,2.1,0.6c0.5,0.4,0.7,0.9,0.7,1.5c0,0.5-0.1,0.9-0.4,1.2c-0.3,0.3-0.6,0.6-1.1,0.8C57.9,117.5,58.2,117.7,58.4,118.1
		z M56.9,120.2c0.3-0.2,0.4-0.5,0.4-1c0-0.4-0.1-0.7-0.4-0.9c-0.3-0.2-0.6-0.3-1.2-0.3h-2.1l-0.2,2.5h2.2
		C56.2,120.5,56.7,120.4,56.9,120.2z M54,114.5l-0.2,2.4h2c0.6,0,1-0.1,1.2-0.3c0.3-0.2,0.4-0.5,0.4-1c0-0.7-0.5-1.1-1.5-1.1H54z"/>
	<polygon class="st1" points="67.7,114.5 63.6,114.5 63.4,116.8 67.3,116.8 67.2,118 63.3,118 63.1,120.5 67.2,120.5 67.1,121.7 
		61.5,121.7 62.1,113.3 67.8,113.3 	"/>
	<polygon class="st1" points="76.1,114.5 72,114.5 71.8,116.8 75.7,116.8 75.6,118 71.7,118 71.5,120.5 75.7,120.5 75.6,121.7 
		69.9,121.7 70.6,113.3 76.2,113.3 	"/>
	<path class="st1" d="M83.9,118.5c0.2,0.2,0.3,0.4,0.4,0.6l1.2,2.6h-1.7l-1.3-2.7c-0.1-0.3-0.3-0.4-0.5-0.5
		c-0.2-0.1-0.4-0.2-0.7-0.2h-1.2l-0.3,3.4h-1.5l0.7-8.4h3.8c0.9,0,1.5,0.2,2,0.6c0.5,0.4,0.7,1,0.7,1.7c0,1.5-0.8,2.3-2.2,2.6
		C83.5,118.2,83.7,118.4,83.9,118.5z M82.4,117.1c1.1,0,1.7-0.5,1.7-1.4c0-0.4-0.1-0.7-0.4-0.9c-0.2-0.2-0.6-0.3-1.1-0.3h-2.2
		l-0.2,2.7H82.4z"/>
	<path class="st1" d="M77.1,90.3c-0.8,0-1.5,0.7-1.5,1.5s0.7,1.5,1.5,1.5s1.5-0.7,1.5-1.5v0C78.6,91,77.9,90.3,77.1,90.3L77.1,90.3z
		"/>
	<path class="st1" d="M56.3,53.1c-0.8,0-1.5,0.7-1.5,1.5v28.3c0,0.8,0.7,1.5,1.5,1.5c0.8,0,1.5-0.7,1.5-1.5V54.6
		C57.8,53.8,57.1,53.1,56.3,53.1L56.3,53.1z"/>
	<path class="st1" d="M68.1,53.1c-0.8,0-1.5,0.7-1.5,1.5v28.3c0,0.8,0.7,1.5,1.5,1.5c0.8,0,1.5-0.7,1.5-1.5V54.6
		C69.6,53.8,69,53.1,68.1,53.1L68.1,53.1z"/>
	<path class="st1" d="M53.4,99.3h29.7c4.1,0,7.4-3.3,7.4-7.4v-4.4h7.4c4.1,0,7.4-3.3,7.4-7.4V54.7c0-4.1-3.3-7.4-7.4-7.4h-7.4v-4.5
		c3.2-2.5,3.8-7.1,1.3-10.4c-2-2.6-5.4-3.5-8.4-2.4c-1.4-2.1-3.7-3.4-6.3-3.4c-1,0-1.9,0.2-2.8,0.5c-5.3-5.1-13.7-4.9-18.7,0.4
		c-0.6,0.6-1.1,1.2-1.5,1.9C46.7,29,40.4,34.7,40,42c0,0.2,0,0.5,0,0.7v17.8C40,63,42,65,44.5,65c0.5,0,1-0.1,1.5-0.3v27.2
		C46,96,49.3,99.3,53.4,99.3z M83.1,96.3H53.4c-1.9,0-3.6-1.2-4.2-3h21.9c0.8,0,1.5-0.7,1.5-1.5c0-0.8-0.7-1.5-1.5-1.5H49V50
		c3.4-0.5,6.3-2.6,7.7-5.7c0.3,0,0.6,0.1,0.8,0.3C61,48,66.7,48,70.1,44.5l0,0c0.1-0.1,0.2-0.1,0.3-0.1c2.3,0,3.8,0.5,4.5,1.5
		c0.5,0.9,0.7,1.8,0.6,2.8v6c0,1.9,1.2,3.6,3,4.2v24.2c0,0.8,0.7,1.5,1.5,1.5c0.8,0,1.5-0.7,1.5-1.5V58.8c1.8-0.6,3-2.3,3-4.2V44.1
		c1,0.2,2.1,0.2,3.1,0v46.3H83c-0.8,0-1.5,0.7-1.5,1.5c0,0.8,0.7,1.5,1.5,1.5h4.3C86.6,95.2,85,96.4,83.1,96.3L83.1,96.3z
		 M90.5,56.2h5.9v22.4h-5.9V56.2z M97.9,50.3c2.5,0,4.4,2,4.5,4.4v25.4c0,2.5-2,4.4-4.5,4.4h-7.4v-3h7.4c0.8,0,1.5-0.7,1.5-1.5V54.7
		c0-0.8-0.7-1.5-1.5-1.5h-7.4v-3L97.9,50.3z M44.5,62c-0.8,0-1.5-0.6-1.6-1.5V42.7c0-5.7,4.7-10.4,10.4-10.4c0.5,0,0.9,0,1.4,0.1
		c0.6,0.1,1.2-0.2,1.5-0.7c2.7-5,9-6.8,14-4.1c1.1,0.6,2,1.3,2.8,2.3c0.5,0.5,1.3,0.7,1.9,0.3c0.7-0.4,1.5-0.7,2.3-0.7
		c1.9,0,3.6,1.2,4.2,3c0.1,0.4,0.5,0.8,0.9,0.9c0.4,0.1,0.9,0.1,1.3-0.2c2-1.4,4.8-0.8,6.2,1.2c0.3,0.4,0.5,0.9,0.6,1.4
		c0.5,2.5-1,4.9-3.5,5.4c-1.1,0.2-2.3,0.1-3.3-0.5c-0.5-0.2-1-0.2-1.4,0.1c-0.4,0.3-0.7,0.8-0.7,1.3v12.5c0,0.8-0.7,1.5-1.5,1.5
		s-1.5-0.7-1.5-1.5v-6c0.1-1.6-0.3-3.1-1.1-4.5c-1.3-1.8-3.6-2.7-6.9-2.7c-0.9,0-1.8,0.3-2.5,1c-2.3,2.4-6,2.4-8.4,0.1l0,0
		c-0.8-0.8-1.8-1.2-2.9-1.2c-1.1,0-2.2,0.7-2.7,1.7c-1.2,2.5-3.8,4.1-6.6,4.2c-0.8,0-1.5,0.7-1.5,1.5v0v11.8
		C46,61.3,45.3,62,44.5,62z"/>
</g>
</svg>
