<?xml version="1.0" encoding="utf-8"?>
<!-- Generator: Adobe Illustrator 22.1.0, SVG Export Plug-In . SVG Version: 6.00 Build 0)  -->
<svg version="1.1" id="Layer_1" xmlns="http://www.w3.org/2000/svg" xmlns:xlink="http://www.w3.org/1999/xlink" x="0px" y="0px"
	 viewBox="0 0 137.3 137.3" style="enable-background:new 0 0 137.3 137.3;" xml:space="preserve">
<style type="text/css">
	.st0{fill:#451380;}
	.st1{fill:#FFFFFF;}
</style>
<g>
	<path class="st0" d="M10,0h117.3c5.5,0,10,4.5,10,10v117.3c0,5.5-4.5,10-10,10H10c-5.5,0-10-4.5-10-10V10C0,4.5,4.5,0,10,0z"/>
	<path class="st1" d="M40.7,117.8c0.2,0.3,0.4,0.7,0.4,1.2c0,0.8-0.3,1.4-0.8,1.8s-1.3,0.6-2.2,0.6h-3.9l0.7-8.4h3.6
		c0.9,0,1.6,0.2,2.1,0.6c0.5,0.4,0.7,0.9,0.7,1.5c0,0.5-0.1,0.9-0.4,1.2s-0.6,0.6-1.1,0.8C40.1,117.2,40.5,117.4,40.7,117.8z
		 M39.2,119.9c0.3-0.2,0.4-0.5,0.4-1c0-0.4-0.1-0.7-0.4-0.9s-0.6-0.3-1.2-0.3H36l-0.2,2.5H38C38.5,120.2,39,120.1,39.2,119.9z
		 M36.3,114.2l-0.2,2.4h2c0.6,0,1-0.1,1.2-0.3c0.3-0.2,0.4-0.5,0.4-1c0-0.7-0.5-1.1-1.5-1.1H36.3z"/>
	<polygon class="st1" points="43.8,121.4 44.4,113 46,113 45.3,121.4 	"/>
	<path class="st1" d="M54,118.2c0.2,0.2,0.3,0.4,0.4,0.6l1.2,2.6H54l-1.3-2.7c-0.1-0.3-0.3-0.4-0.5-0.5c-0.2-0.1-0.4-0.2-0.7-0.2
		h-1.2l-0.3,3.4h-1.5l0.7-8.4H53c0.9,0,1.5,0.2,2,0.6c0.5,0.4,0.7,1,0.7,1.7c0,1.5-0.7,2.3-2.2,2.6C53.7,117.9,53.9,118.1,54,118.2z
		 M52.6,116.8c1.1,0,1.7-0.5,1.7-1.4c0-0.4-0.1-0.7-0.4-0.9c-0.2-0.2-0.6-0.3-1.1-0.3h-2.2l-0.2,2.7H52.6z"/>
	<polygon class="st1" points="60.1,121.4 60.6,114.2 57.9,114.2 58,113 65,113 64.9,114.2 62.2,114.2 61.6,121.4 	"/>
	<polygon class="st1" points="73.3,113 74.8,113 74.2,121.4 72.7,121.4 72.9,117.7 68.6,117.7 68.3,121.4 66.8,121.4 67.5,113 
		69,113 68.7,116.5 73,116.5 	"/>
	<path class="st1" d="M78.1,113h3.1c0.8,0,1.6,0.2,2.2,0.5c0.6,0.3,1.1,0.8,1.4,1.4c0.3,0.6,0.5,1.3,0.5,2.1c0,0.9-0.2,1.8-0.5,2.4
		c-0.4,0.7-0.9,1.2-1.5,1.5c-0.7,0.4-1.5,0.5-2.4,0.5h-3.3L78.1,113z M80.6,120.1c2,0,3.1-1.1,3.1-3.3c0-0.9-0.2-1.5-0.7-2
		s-1.1-0.7-2-0.7h-1.5l-0.5,5.9H80.6z"/>
	<path class="st1" d="M94.1,121.4l-0.7-2h-4.1l-1,2h-1.6l4.5-8.4h1.3l3.2,8.4H94.1z M89.9,118.2H93l-1.3-3.6L89.9,118.2z"/>
	<polygon class="st1" points="104.7,113 100.9,117.5 100.6,121.4 99,121.4 99.3,117.5 96.3,113 98,113 100.2,116.3 102.9,113 	"/>
	<path class="st1" d="M103.9,72.7V62.1c0-3.3-2.7-5.9-5.9-5.9h0h-4.7v-6.1c0-0.6-0.5-1.2-1.2-1.2h0h-7c-0.6,0-1.2,0.5-1.2,1.2v6.1
		H73.3v-6.9c0-0.7-0.5-1.2-1.2-1.2h-7.1c-0.7,0-1.2,0.5-1.2,1.2v6.9H53.3v-6.1c0-0.6-0.5-1.2-1.2-1.2h0h-7.1c-0.6,0-1.2,0.5-1.2,1.2
		v0v6.1h-4.7c-3.2,0-5.9,2.6-5.9,5.9v10.6c0,2.5,1.3,4.9,3.5,6.1v12.7h-2.4c-0.6,0.1-1.1,0.6-1.1,1.3c0.1,0.6,0.5,1,1.1,1.1h68.2
		c0.6,0.1,1.2-0.4,1.3-1.1c0.1-0.6-0.4-1.2-1.1-1.3h-0.2h-2.3V78.8C102.6,77.5,103.9,75.2,103.9,72.7z M86.3,51.3H91v5h-4.7
		L86.3,51.3z M66.3,50.5H71v5.7h-4.7L66.3,50.5z M46.3,51.3H51v5h-4.7L46.3,51.3z M35.7,62.1c0-1.9,1.6-3.5,3.5-3.5h0H98
		c1.9,0,3.5,1.6,3.5,3.5v0v10.6c0,1.9-1.1,3.5-2.8,4.3c-1.8,0.7-3.8,0.3-5.2-1c-0.9-0.9-1.4-2.1-1.4-3.3V68c0-1.8-1-3.4-2.6-4.2
		h-0.1c-0.2-0.1-0.4-0.2-0.6-0.2l-0.3-0.1c-0.1,0-0.3-0.1-0.4-0.1l-0.3-0.1h-0.2h-0.2c-0.1,0-0.3,0-0.4,0c-0.1,0-0.3,0-0.4,0
		c-0.2,0-0.4,0.1-0.6,0.2l-0.3,0.1c-0.2,0.1-0.4,0.2-0.6,0.3L84.9,64c-0.3,0.2-0.5,0.4-0.8,0.6c-0.9,0.9-1.4,2.1-1.4,3.4v2.3
		c0.1,2.6-1.9,4.8-4.5,4.9c-2.6,0.1-4.8-1.9-4.9-4.5c0-0.1,0-0.3,0-0.4V68c0-1.8-1-3.4-2.6-4.2h-0.1c-0.2-0.1-0.4-0.2-0.6-0.2
		l-0.3-0.1c-0.2,0-0.3-0.1-0.5-0.1c-0.1,0-0.2-0.1-0.3-0.1h-0.2h-0.2c-0.1,0-0.3,0-0.4,0c-0.1,0-0.3,0-0.4,0c-0.2,0-0.4,0.1-0.6,0.2
		L67,63.5c-0.2,0.1-0.4,0.2-0.6,0.3L66.1,64c-0.3,0.2-0.5,0.4-0.8,0.6c-0.9,0.9-1.4,2.1-1.4,3.4v7.1c-0.1,2.6-2.3,4.6-4.9,4.5
		c-2.4-0.1-4.4-2.1-4.5-4.5V68c0-1.8-1-3.4-2.6-4.2h-0.1c-0.2-0.1-0.4-0.2-0.6-0.2l-0.3-0.1c-0.1,0-0.3-0.1-0.5-0.1
		c-0.1,0-0.2,0-0.3-0.1h-0.3c-2.6,0-4.7,2.1-4.7,4.7v4.7c0,1.2-0.5,2.4-1.4,3.3c-1.2,1.1-2.8,1.6-4.4,1.3c-0.3-0.1-0.6-0.1-0.8-0.3
		c-0.5-0.2-1-0.6-1.4-1c-0.9-0.9-1.4-2.1-1.4-3.3V62.1z M39.2,91.5V79.7h0.3h0.1c1,0.1,2.1,0,3-0.4c0.3-0.1,0.6-0.2,0.9-0.4l0.2-0.1
		c0.2-0.1,0.5-0.3,0.7-0.4l0.2-0.1c1.8-1.3,2.9-3.4,2.8-5.6V68c0-0.6,0.2-1.2,0.7-1.7c0.1-0.1,0.3-0.2,0.4-0.3h0.1
		c0.1-0.1,0.3-0.2,0.4-0.2h0.1c0.1,0,0.2-0.1,0.4-0.1h0.2h0.3h0.2h0.3h0.1c1,0.4,1.7,1.4,1.7,2.5V75c0,3.9,3.2,7.1,7.1,7.1
		s7.1-3.2,7.1-7.1v-7c0-0.8,0.4-1.6,1.1-2h0.1c0.1-0.1,0.2-0.1,0.4-0.2h0.1c0.1,0,0.2-0.1,0.3-0.1h0.2h0.3H69h0.3h0.1
		c1,0.4,1.7,1.4,1.7,2.5v2.1c0,3.9,3.2,7.1,7.1,7.1c3.9,0,7.1-3.2,7.1-7.1V68c0-0.6,0.2-1.2,0.7-1.7c0.1-0.1,0.3-0.2,0.4-0.3h0.1
		c0.1-0.1,0.2-0.1,0.4-0.2h0.1c0.1,0,0.2-0.1,0.3-0.1h0.2h0.3h0.2H88h0.1c1,0.4,1.7,1.4,1.7,2.5v4.5c0,1.9,0.7,3.7,2.1,5
		c0.2,0.2,0.5,0.4,0.7,0.6l0.2,0.2c0.2,0.1,0.4,0.3,0.6,0.4l0.3,0.1c0.2,0.1,0.5,0.2,0.7,0.3l0.2,0.1c0.6,0.2,1.3,0.3,2,0.4
		c0.3,0,0.7,0,1,0h0.1h0.4v11.8H39.2z"/>
	<path class="st1" d="M68.6,45.8c3.2,0,5.9-2.6,5.9-5.9c0-2.8-4.1-8.9-4.9-10.1c-0.4-0.5-1.2-0.6-1.7-0.2l-0.2,0.2
		c-0.8,1.2-4.9,7.3-4.9,10.1C62.8,43.2,65.4,45.8,68.6,45.8z M68.6,32.6c1.7,2.6,3.5,6,3.5,7.3c0,1.9-1.6,3.5-3.5,3.5
		c-1.9,0-3.5-1.6-3.5-3.5v0C65.1,38.6,66.9,35.3,68.6,32.6z"/>
	<path class="st1" d="M88.6,46.6c3.2,0,5.9-2.6,5.9-5.9c0-2.8-4.1-8.9-4.9-10.1c-0.4-0.5-1.2-0.6-1.7-0.2l-0.2,0.2
		c-0.8,1.2-4.9,7.3-4.9,10.1C82.8,43.9,85.4,46.6,88.6,46.6z M88.6,33.4c1.7,2.6,3.5,6,3.5,7.3c0,1.9-1.6,3.5-3.5,3.5
		s-3.5-1.6-3.5-3.5v0C85.1,39.4,86.9,36,88.6,33.4z"/>
	<path class="st1" d="M48.6,46.6c3.2,0,5.9-2.6,5.9-5.9c0-2.8-4.1-8.9-4.9-10.1c-0.4-0.5-1.2-0.6-1.7-0.2l-0.2,0.2
		c-0.8,1.2-4.9,7.3-4.9,10.1C42.8,43.9,45.4,46.6,48.6,46.6z M48.6,33.4c1.7,2.6,3.5,6,3.5,7.3c0,1.9-1.6,3.5-3.5,3.5
		c-1.9,0-3.5-1.6-3.5-3.5C45.1,39.4,46.9,36,48.6,33.4z"/>
</g>
</svg>
