<svg xmlns="http://www.w3.org/2000/svg" viewBox="0 0 137.26 137.26"><defs><style>.cls-1{fill:#451380;}.cls-2{font-size:11.96px;font-family:NunitoSans-BoldItalic, Nunito Sans;font-weight:700;font-style:italic;letter-spacing:0.12em;}.cls-2,.cls-6{fill:#fff;}.cls-3{letter-spacing:0.1em;}.cls-4{letter-spacing:0.1em;}.cls-5{letter-spacing:0.04em;}</style></defs><title>Asset 34</title><g id="Layer_2" data-name="Layer 2"><g id="Birthday_Icon"><rect id="Box" class="cls-1" width="137.26" height="137.26" rx="10" ry="10"/><g id="Text"><text class="cls-2" transform="translate(33.49 121.4)">BI<tspan class="cls-3" x="14.4" y="0">R</tspan><tspan x="23.9" y="0">TH</tspan><tspan class="cls-4" x="43.26" y="0">D</tspan><tspan class="cls-5" x="53.5" y="0">A</tspan><tspan x="62.82" y="0">Y</tspan></text></g><g id="Birthday_Img"><path class="cls-6" d="M103.93,72.7V62.11A5.9,5.9,0,0,0,98,56.23h-4.7V50.09a1.17,1.17,0,0,0-1.18-1.17H85.1a1.17,1.17,0,0,0-1.17,1.17v6.14H73.34V49.34a1.18,1.18,0,0,0-1.18-1.18H65.1a1.18,1.18,0,0,0-1.18,1.18v6.89H53.34V50.09a1.17,1.17,0,0,0-1.18-1.17H45.1a1.17,1.17,0,0,0-1.18,1.17v6.14h-4.7a5.89,5.89,0,0,0-5.88,5.88V72.7a6.81,6.81,0,0,0,3.53,6.09V91.53H34.51a1.18,1.18,0,0,0,0,2.35h68.24a1.18,1.18,0,1,0,0-2.35H100.4V78.81a7.12,7.12,0,0,0,3.53-6.11ZM86.28,51.27H91v5h-4.7Zm-20-.75H71v5.71h-4.7Zm-20,.75H51v5h-4.7ZM35.69,62.11a3.52,3.52,0,0,1,3.53-3.52H98a3.52,3.52,0,0,1,3.53,3.52V72.7A4.72,4.72,0,0,1,98.76,77a4.82,4.82,0,0,1-5.22-1,4.76,4.76,0,0,1-1.38-3.34V68a4.7,4.7,0,0,0-2.6-4.19l-.08,0a3.69,3.69,0,0,0-.58-.23l-.34-.1a3.54,3.54,0,0,0-.45-.08l-.31-.06h-.17l-.18,0c-.13,0-.25,0-.38,0a2.71,2.71,0,0,0-.4,0q-.3.06-.6.15l-.32.1a3.73,3.73,0,0,0-.63.32l-.23.11a5,5,0,0,0-.76.62A4.67,4.67,0,0,0,82.75,68v2.35a4.71,4.71,0,1,1-9.41,0V68a4.71,4.71,0,0,0-2.61-4.19l-.07,0a4.12,4.12,0,0,0-.58-.23l-.34-.1a3.4,3.4,0,0,0-.46-.08A2.84,2.84,0,0,0,69,63.3h-.16l-.18,0c-.13,0-.26,0-.38,0a2.71,2.71,0,0,0-.4,0,5.26,5.26,0,0,0-.6.15l-.32.1a4.6,4.6,0,0,0-.63.31l-.23.12a4.12,4.12,0,0,0-.76.62A4.68,4.68,0,0,0,63.92,68v7.06a4.71,4.71,0,0,1-9.41,0V68a4.68,4.68,0,0,0-2.6-4.19l-.07,0a4.66,4.66,0,0,0-.58-.23l-.35-.1a3.54,3.54,0,0,0-.45-.08c-.11,0-.2,0-.31-.06h-.34A4.71,4.71,0,0,0,45.1,68v4.7A4.71,4.71,0,0,1,43.73,76a4.86,4.86,0,0,1-4.39,1.25,4.71,4.71,0,0,1-.83-.26,4.84,4.84,0,0,1-1.44-1,4.71,4.71,0,0,1-1.38-3.34Zm3.53,29.42V79.66l.35,0h.09a7,7,0,0,0,3.05-.35,6.74,6.74,0,0,0,.87-.38l.18-.09a6.68,6.68,0,0,0,.67-.41l.2-.14a6.85,6.85,0,0,0,2.82-5.64V68a2.36,2.36,0,0,1,.69-1.67,3,3,0,0,1,.39-.31l.08,0A2,2,0,0,1,49,65.8l.11,0a2,2,0,0,1,.35-.09l.18,0h.29a1.46,1.46,0,0,1,.22,0l.27,0,.08,0a2.56,2.56,0,0,1,1.69,2.45v6.86a7.06,7.06,0,0,0,14.12,0V68a2.34,2.34,0,0,1,1.08-2l.06,0a2.69,2.69,0,0,1,.38-.19l.1,0a2,2,0,0,1,.35-.09l.17,0h.3l.22,0,.26,0,.09,0A2.56,2.56,0,0,1,71,68.2v2.15a7.06,7.06,0,0,0,14.12,0V68a2.36,2.36,0,0,1,.69-1.67,3,3,0,0,1,.39-.31l.08,0a2,2,0,0,1,.36-.18l.11,0a2.25,2.25,0,0,1,.35-.09l.17,0h.3a1.46,1.46,0,0,1,.22,0l.26,0,.09,0a2.58,2.58,0,0,1,1.69,2.45v4.5a7,7,0,0,0,2.07,5,7.55,7.55,0,0,0,.74.64l.23.15c.2.14.4.26.61.38l.25.13a6.66,6.66,0,0,0,.73.31l.15.06a7.07,7.07,0,0,0,2,.37h0a5.46,5.46,0,0,0,1,0h.11l.36,0V91.53Z"/><path class="cls-6" d="M68.63,45.81a5.88,5.88,0,0,0,5.88-5.88c0-2.83-4.09-8.9-4.91-10.08a1.22,1.22,0,0,0-1.94,0c-.82,1.18-4.91,7.25-4.91,10.08a5.88,5.88,0,0,0,5.88,5.88Zm0-13.17c1.69,2.65,3.53,6,3.53,7.29a3.53,3.53,0,1,1-7.06,0c0-1.29,1.84-4.64,3.53-7.29Z"/><path class="cls-6" d="M88.63,46.56a5.88,5.88,0,0,0,5.88-5.88c0-2.82-4.09-8.89-4.91-10.08a1.22,1.22,0,0,0-1.94,0c-.82,1.19-4.91,7.26-4.91,10.08a5.88,5.88,0,0,0,5.88,5.88Zm0-13.16c1.69,2.64,3.53,6,3.53,7.28a3.53,3.53,0,1,1-7.06,0c0-1.28,1.84-4.64,3.53-7.28Z"/><path class="cls-6" d="M48.63,46.56a5.88,5.88,0,0,0,5.88-5.88c0-2.82-4.09-8.89-4.91-10.08a1.22,1.22,0,0,0-1.94,0c-.82,1.19-4.91,7.26-4.91,10.08a5.88,5.88,0,0,0,5.88,5.88Zm0-13.16c1.69,2.64,3.53,6,3.53,7.28a3.53,3.53,0,1,1-7.06,0c0-1.28,1.84-4.64,3.53-7.28Z"/></g></g></g></svg>