<svg xmlns="http://www.w3.org/2000/svg" viewBox="0 0 70.59 64.51"><defs><style>.cls-1{fill:#fff;}</style></defs><title>birthday</title><g id="Layer_2" data-name="Layer 2"><g id="Mockup"><path class="cls-1" d="M70.59,43.33V32.74a5.89,5.89,0,0,0-5.88-5.88H60V20.72a1.17,1.17,0,0,0-1.17-1.17H51.77a1.17,1.17,0,0,0-1.18,1.17v6.14H40V20a1.18,1.18,0,0,0-1.18-1.18h-7A1.18,1.18,0,0,0,30.59,20v6.89H20V20.72a1.17,1.17,0,0,0-1.18-1.17h-7a1.17,1.17,0,0,0-1.18,1.17v6.14H5.88A5.89,5.89,0,0,0,0,32.74V43.33a6.83,6.83,0,0,0,3.53,6.09V62.16H1.18a1.18,1.18,0,1,0,0,2.35H69.41a1.18,1.18,0,1,0,0-2.35H67.06V49.43a7.07,7.07,0,0,0,3.53-6.1ZM52.94,21.9h4.71v5H52.94Zm-20-.75h4.71v5.71H32.94Zm-20,.75h4.71v5H12.94ZM2.35,32.74a3.53,3.53,0,0,1,3.53-3.53H64.71a3.53,3.53,0,0,1,3.53,3.53V43.33a4.75,4.75,0,0,1-2.82,4.32,4.82,4.82,0,0,1-5.22-1,4.7,4.7,0,0,1-1.37-3.34v-4.7a4.71,4.71,0,0,0-2.61-4.19l-.07,0a4.12,4.12,0,0,0-.58-.23,2.56,2.56,0,0,0-.34-.1,2.46,2.46,0,0,0-.46-.08,2.84,2.84,0,0,0-.31-.06H54.3l-.18,0c-.13,0-.26,0-.39,0a2.85,2.85,0,0,0-.4,0,4.39,4.39,0,0,0-.6.15l-.31.1a3.82,3.82,0,0,0-.64.32l-.22.11a5.1,5.1,0,0,0-.77.62,4.72,4.72,0,0,0-1.38,3.33V41A4.71,4.71,0,0,1,40,41V38.63a4.68,4.68,0,0,0-2.6-4.19l-.08,0a3.69,3.69,0,0,0-.58-.23,1.91,1.91,0,0,0-.34-.1A2.36,2.36,0,0,0,36,34l-.31-.06h-.17l-.17,0c-.14,0-.26,0-.39,0a2.71,2.71,0,0,0-.4,0,4.39,4.39,0,0,0-.6.15l-.32.1a4.6,4.6,0,0,0-.63.31,1.67,1.67,0,0,1-.23.12,4.48,4.48,0,0,0-.76.62,4.67,4.67,0,0,0-1.38,3.33v7a4.71,4.71,0,1,1-9.41,0v-7a4.71,4.71,0,0,0-2.61-4.19l-.07,0a4.12,4.12,0,0,0-.58-.23,2.19,2.19,0,0,0-.34-.1,2.33,2.33,0,0,0-.46-.08c-.1,0-.2-.05-.3-.06h-.35a4.7,4.7,0,0,0-4.7,4.71v4.7a4.71,4.71,0,0,1-1.37,3.33A4.88,4.88,0,0,1,6,47.91a4.6,4.6,0,0,1-.82-.26,5,5,0,0,1-1.45-1,4.76,4.76,0,0,1-1.38-3.34ZM5.88,62.16V50.29l.36,0h.09a7,7,0,0,0,3-.35,7.53,7.53,0,0,0,.88-.38l.18-.09a5.59,5.59,0,0,0,.66-.41L11.3,49a6.85,6.85,0,0,0,2.82-5.64v-4.7A2.36,2.36,0,0,1,14.81,37a3,3,0,0,1,.39-.31l.07,0a3,3,0,0,1,.36-.18l.11,0a2.37,2.37,0,0,1,.36-.09l.17,0h.3a1.66,1.66,0,0,1,.22,0l.26,0,.09,0a2.55,2.55,0,0,1,1.68,2.45v6.85a7.06,7.06,0,1,0,14.12,0v-7a2.36,2.36,0,0,1,1.08-2l.06,0a1.93,1.93,0,0,1,.38-.19l.1,0a2.25,2.25,0,0,1,.35-.09l.17,0h.3a1.46,1.46,0,0,1,.22,0l.27,0,.08,0a2.57,2.57,0,0,1,1.7,2.45V41a7.06,7.06,0,0,0,14.12,0V38.63a2.37,2.37,0,0,1,1.07-2l.08,0a3,3,0,0,1,.36-.18l.12,0a2,2,0,0,1,.35-.09l.17,0h.3l.22,0,.26,0,.08,0a2.55,2.55,0,0,1,1.69,2.45v4.5a7,7,0,0,0,2.07,5,7.55,7.55,0,0,0,.74.64l.24.15c.2.14.4.26.6.38l.25.13c.24.11.48.22.73.31l.15.06a7.21,7.21,0,0,0,2,.37h0a5.35,5.35,0,0,0,1,0h.12l.35,0V62.16Z"/><path class="cls-1" d="M35.3,16.44a5.9,5.9,0,0,0,5.88-5.88c0-2.83-4.1-8.9-4.92-10.08a1.21,1.21,0,0,0-1-.48,1.23,1.23,0,0,0-1,.48c-.82,1.18-4.92,7.25-4.92,10.08a5.9,5.9,0,0,0,5.89,5.88Zm0-13.17c1.69,2.65,3.52,6,3.52,7.29a3.53,3.53,0,1,1-7,0c0-1.29,1.83-4.64,3.53-7.29Z"/><path class="cls-1" d="M55.3,17.19a5.89,5.89,0,0,0,5.88-5.88c0-2.82-4.09-8.89-4.92-10.08a1.21,1.21,0,0,0-1-.48,1.23,1.23,0,0,0-1,.48c-.82,1.19-4.92,7.26-4.92,10.08a5.89,5.89,0,0,0,5.89,5.88ZM55.3,4c1.69,2.65,3.53,6,3.53,7.29a3.53,3.53,0,0,1-7.06,0C51.77,10,53.6,6.67,55.3,4Z"/><path class="cls-1" d="M15.3,17.19a5.89,5.89,0,0,0,5.88-5.88c0-2.82-4.1-8.89-4.92-10.08a1.21,1.21,0,0,0-1.93,0c-.82,1.19-4.92,7.26-4.92,10.08a5.89,5.89,0,0,0,5.89,5.88ZM15.3,4c1.69,2.65,3.52,6,3.52,7.29a3.53,3.53,0,1,1-7,0C11.77,10,13.6,6.67,15.3,4Z"/></g></g></svg>