<svg xmlns="http://www.w3.org/2000/svg" xmlns:xlink="http://www.w3.org/1999/xlink" viewBox="0 0 137.26 137.26"><defs><style>.cls-1{fill:url(#linear-gradient);}.cls-2{font-size:11.96px;font-family:NunitoSans-BoldItalic, Nunito Sans;font-weight:700;font-style:italic;letter-spacing:0.12em;}.cls-2,.cls-8{fill:#fff;}.cls-3{letter-spacing:0.11em;}.cls-4{letter-spacing:0.11em;}.cls-5{letter-spacing:0.03em;}.cls-6{letter-spacing:0.08em;}.cls-7{fill:none;stroke:#fff;stroke-miterlimit:10;stroke-width:2.67px;}</style><linearGradient id="linear-gradient" x1="-2144.31" y1="98.32" x2="-2145.31" y2="97.52" gradientTransform="matrix(137.26, 0, 0, -137.26, 294472.43, 13503.98)" gradientUnits="userSpaceOnUse"><stop offset="0" stop-color="#1ec4dc"/><stop offset="0.25" stop-color="#369acd"/><stop offset="0.65" stop-color="#4d6fbe"/><stop offset="1" stop-color="#6644af"/></linearGradient></defs><title>Asset 96</title><g id="Layer_2" data-name="Layer 2"><g id="chocolate-cake-shot"><rect id="Box" class="cls-1" width="137.26" height="137.26" rx="10" ry="10"/><g id="Text"><text class="cls-2" transform="translate(5.5 117.77)">CHO<tspan class="cls-3" x="30.89" y="0">C</tspan><tspan x="40.27" y="0">O</tspan><tspan class="cls-4" x="51.02" y="0">L</tspan><tspan class="cls-5" x="59.02" y="0">A</tspan><tspan x="68.29" y="0">TE </tspan><tspan class="cls-3" x="90.21" y="0">C</tspan><tspan x="99.59" y="0">AKE</tspan><tspan x="44.52" y="12">SH</tspan><tspan class="cls-6" x="64.17" y="12">O</tspan><tspan x="74.42" y="12">T</tspan></text></g><g id="Icon"><polygon class="cls-7" points="81 92.87 57.39 92.87 49.11 45.51 89.09 45.51 81 92.87"/><polygon class="cls-8" points="54.35 53.68 83.76 53.68 79.19 81.1 59.2 81.1 54.35 53.68"/><path class="cls-7" d="M55.73,45.5l6.51-8.67c-.34-.27-.7-.53-1.07-.77C54.05,31.45,44.11,34.17,39,42.12c-4.91,7.61-3.64,17.25,2.71,22.09l8.67-11.54"/></g></g></g></svg>