<?xml version="1.0" encoding="utf-8"?>
<!-- Generator: Adobe Illustrator 22.1.0, SVG Export Plug-In . SVG Version: 6.00 Build 0)  -->
<svg version="1.1" id="Layer_1" xmlns="http://www.w3.org/2000/svg" xmlns:xlink="http://www.w3.org/1999/xlink" x="0px" y="0px"
	 viewBox="0 0 137.3 137.3" style="enable-background:new 0 0 137.3 137.3;" xml:space="preserve">
<style type="text/css">
	.st0{fill:url(#SVGID_1_);}
	.st1{fill:#FFFFFF;}
	.st2{fill:none;stroke:#FFFFFF;stroke-width:2.67;stroke-miterlimit:10;}
</style>
<g>
	
		<linearGradient id="SVGID_1_" gradientUnits="userSpaceOnUse" x1="0" y1="137.26" x2="1" y2="137.26" gradientTransform="matrix(-137.26 109.8084 109.8084 137.26 -14928.1465 -18832.0977)">
		<stop  offset="0" style="stop-color:#1EC4DC"/>
		<stop  offset="0.25" style="stop-color:#369ACD"/>
		<stop  offset="0.65" style="stop-color:#4D6FBE"/>
		<stop  offset="1" style="stop-color:#6644AF"/>
	</linearGradient>
	<path class="st0" d="M10,0h117.3c5.5,0,10,4.5,10,10v117.3c0,5.5-4.5,10-10,10H10c-5.5,0-10-4.5-10-10V10C0,4.5,4.5,0,10,0z"/>
	<path class="st1" d="M8,117.4c-0.6-0.3-1-0.8-1.3-1.4s-0.5-1.3-0.5-2.1c0-0.9,0.2-1.7,0.5-2.4c0.4-0.7,0.8-1.2,1.5-1.6
		s1.4-0.6,2.3-0.6c0.6,0,1.1,0.1,1.6,0.3s0.9,0.4,1.3,0.7l-0.6,1.1c-0.4-0.3-0.7-0.5-1.1-0.7c-0.4-0.1-0.8-0.2-1.2-0.2
		c-0.9,0-1.5,0.3-2,0.9c-0.5,0.6-0.7,1.4-0.7,2.5c0,0.9,0.2,1.6,0.6,2s1,0.7,1.8,0.7c0.8,0,1.6-0.3,2.3-0.9l0.4,1.1
		c-0.3,0.3-0.8,0.6-1.3,0.7c-0.5,0.2-1,0.3-1.6,0.3C9.3,117.9,8.6,117.7,8,117.4z"/>
	<polygon class="st1" points="22.2,109.3 23.7,109.3 23,117.8 21.5,117.8 21.8,114.1 17.5,114.1 17.2,117.8 15.7,117.8 16.4,109.3 
		17.9,109.3 17.6,112.9 21.9,112.9 	"/>
	<path class="st1" d="M28.2,117.4c-0.6-0.3-1.1-0.8-1.4-1.4s-0.5-1.3-0.5-2.1c0-0.9,0.2-1.7,0.5-2.4c0.3-0.7,0.8-1.2,1.4-1.6
		c0.6-0.4,1.3-0.6,2.2-0.6c0.8,0,1.5,0.2,2.1,0.5c0.6,0.3,1.1,0.8,1.4,1.4c0.3,0.6,0.5,1.3,0.5,2.1c0,0.9-0.2,1.7-0.5,2.4
		c-0.3,0.7-0.8,1.2-1.4,1.6c-0.6,0.4-1.3,0.6-2.2,0.6C29.5,117.9,28.8,117.7,28.2,117.4z M32.2,115.7c0.5-0.6,0.7-1.4,0.7-2.5
		c0-0.9-0.2-1.6-0.6-2.1c-0.4-0.5-1-0.7-1.8-0.7c-0.8,0-1.4,0.3-1.9,0.9c-0.5,0.6-0.7,1.4-0.7,2.5c0,0.9,0.2,1.6,0.6,2.1
		s1,0.7,1.8,0.7C31.1,116.6,31.7,116.3,32.2,115.7z"/>
	<path class="st1" d="M38.9,117.4c-0.6-0.3-1-0.8-1.3-1.4s-0.5-1.3-0.5-2.1c0-0.9,0.2-1.7,0.5-2.4c0.4-0.7,0.8-1.2,1.5-1.6
		s1.4-0.6,2.3-0.6c0.6,0,1.1,0.1,1.6,0.3s0.9,0.4,1.3,0.7l-0.6,1.1c-0.4-0.3-0.7-0.5-1.1-0.7c-0.4-0.1-0.8-0.2-1.2-0.2
		c-0.9,0-1.5,0.3-2,0.9c-0.5,0.6-0.7,1.4-0.7,2.5c0,0.9,0.2,1.6,0.6,2s1,0.7,1.8,0.7c0.8,0,1.6-0.3,2.3-0.9l0.4,1.1
		c-0.3,0.3-0.8,0.6-1.3,0.7c-0.5,0.2-1,0.3-1.6,0.3C40.2,117.9,39.5,117.7,38.9,117.4z"/>
	<path class="st1" d="M48.4,117.4c-0.6-0.3-1.1-0.8-1.4-1.4s-0.5-1.3-0.5-2.1c0-0.9,0.2-1.7,0.5-2.4c0.3-0.7,0.8-1.2,1.4-1.6
		c0.6-0.4,1.3-0.6,2.2-0.6c0.8,0,1.5,0.2,2.1,0.5c0.6,0.3,1.1,0.8,1.4,1.4c0.3,0.6,0.5,1.3,0.5,2.1c0,0.9-0.2,1.7-0.5,2.4
		c-0.3,0.7-0.8,1.2-1.4,1.6c-0.6,0.4-1.3,0.6-2.2,0.6C49.7,117.9,49,117.7,48.4,117.4z M52.3,115.7c0.5-0.6,0.7-1.4,0.7-2.5
		c0-0.9-0.2-1.6-0.6-2.1c-0.4-0.5-1-0.7-1.8-0.7c-0.8,0-1.4,0.3-1.9,0.9c-0.5,0.6-0.7,1.4-0.7,2.5c0,0.9,0.2,1.6,0.6,2.1
		s1,0.7,1.8,0.7C51.2,116.6,51.9,116.3,52.3,115.7z"/>
	<polygon class="st1" points="57.2,117.8 57.9,109.3 59.4,109.3 58.8,116.5 62.8,116.5 62.7,117.8 	"/>
	<path class="st1" d="M71.7,117.8l-0.7-2h-4.1l-1,2h-1.6l4.5-8.4H70l3.2,8.4H71.7z M67.5,114.6h3.1l-1.3-3.6L67.5,114.6z"/>
	<polygon class="st1" points="76.5,117.8 77,110.6 74.3,110.6 74.4,109.3 81.4,109.3 81.3,110.6 78.6,110.6 78,117.8 	"/>
	<polygon class="st1" points="89.4,110.6 85.3,110.6 85.1,112.9 89,112.9 88.9,114.1 85,114.1 84.8,116.6 89,116.6 88.9,117.8 
		83.2,117.8 83.9,109.3 89.5,109.3 	"/>
	<path class="st1" d="M98.3,117.4c-0.6-0.3-1-0.8-1.3-1.4c-0.3-0.6-0.5-1.3-0.5-2.1c0-0.9,0.2-1.7,0.5-2.4c0.4-0.7,0.8-1.2,1.5-1.6
		c0.6-0.4,1.4-0.6,2.3-0.6c0.6,0,1.1,0.1,1.6,0.3c0.5,0.2,0.9,0.4,1.3,0.7l-0.6,1.1c-0.4-0.3-0.7-0.5-1.1-0.7
		c-0.4-0.1-0.8-0.2-1.2-0.2c-0.9,0-1.5,0.3-2,0.9c-0.5,0.6-0.7,1.4-0.7,2.5c0,0.9,0.2,1.6,0.6,2c0.4,0.5,1,0.7,1.8,0.7
		c0.8,0,1.6-0.3,2.3-0.9l0.4,1.1c-0.3,0.3-0.8,0.6-1.3,0.7c-0.5,0.2-1,0.3-1.6,0.3C99.5,117.9,98.8,117.7,98.3,117.4z"/>
	<path class="st1" d="M112.2,117.8l-0.7-2h-4.1l-1,2h-1.6l4.5-8.4h1.3l3.2,8.4H112.2z M108,114.6h3.1l-1.3-3.6L108,114.6z"/>
	<polygon class="st1" points="123.9,109.3 119.5,113.4 123.4,117.8 121.6,117.8 117.9,113.8 117.6,117.8 116.1,117.8 116.7,109.3 
		118.3,109.3 118,113.1 122,109.3 	"/>
	<polygon class="st1" points="131.6,110.6 127.5,110.6 127.3,112.9 131.2,112.9 131.1,114.1 127.2,114.1 127,116.6 131.1,116.6 
		131,117.8 125.4,117.8 126.1,109.3 131.7,109.3 	"/>
	<path class="st1" d="M51.9,129.6c-0.6-0.2-1.1-0.4-1.5-0.7l0.6-1.1c0.4,0.3,0.9,0.5,1.3,0.7c0.5,0.1,0.9,0.2,1.5,0.2
		c0.6,0,1-0.1,1.3-0.3c0.3-0.2,0.5-0.5,0.5-0.8c0-0.2-0.1-0.4-0.2-0.6c-0.2-0.2-0.4-0.3-0.6-0.4s-0.6-0.2-1-0.3
		c-0.6-0.2-1.1-0.3-1.4-0.5c-0.4-0.2-0.7-0.4-1-0.7c-0.3-0.3-0.4-0.7-0.4-1.3c0-0.5,0.1-1,0.4-1.3s0.7-0.7,1.2-0.9s1.1-0.3,1.8-0.3
		c0.6,0,1.2,0.1,1.7,0.3c0.5,0.2,1,0.4,1.3,0.7l-0.6,1.1c-0.4-0.3-0.7-0.5-1.2-0.7s-0.8-0.2-1.3-0.2c-0.6,0-1,0.1-1.3,0.3
		s-0.5,0.5-0.5,0.9c0,0.2,0.1,0.5,0.3,0.6c0.2,0.2,0.4,0.3,0.6,0.4c0.2,0.1,0.6,0.2,1.1,0.3c0.6,0.2,1.1,0.3,1.4,0.5
		c0.4,0.2,0.7,0.4,0.9,0.7c0.3,0.3,0.4,0.7,0.4,1.2c0,0.8-0.3,1.4-0.9,1.8c-0.6,0.4-1.4,0.7-2.5,0.7
		C53.1,129.9,52.5,129.8,51.9,129.6z"/>
	<polygon class="st1" points="66.2,121.3 67.8,121.3 67.1,129.8 65.6,129.8 65.9,126.1 61.6,126.1 61.3,129.8 59.8,129.8 
		60.4,121.3 61.9,121.3 61.7,124.9 66,124.9 	"/>
	<path class="st1" d="M72.3,129.4c-0.6-0.3-1.1-0.8-1.4-1.4c-0.3-0.6-0.5-1.3-0.5-2.1c0-0.9,0.2-1.7,0.5-2.4s0.8-1.2,1.4-1.6
		c0.6-0.4,1.3-0.6,2.2-0.6c0.8,0,1.5,0.2,2.1,0.5c0.6,0.3,1.1,0.8,1.4,1.4c0.3,0.6,0.5,1.3,0.5,2.1c0,0.9-0.2,1.7-0.5,2.4
		s-0.8,1.2-1.4,1.6c-0.6,0.4-1.3,0.6-2.2,0.6C73.6,129.9,72.9,129.7,72.3,129.4z M76.2,127.7c0.5-0.6,0.7-1.4,0.7-2.5
		c0-0.9-0.2-1.6-0.6-2.1c-0.4-0.5-1-0.7-1.8-0.7c-0.8,0-1.4,0.3-1.9,0.9c-0.5,0.6-0.7,1.4-0.7,2.5c0,0.9,0.2,1.6,0.6,2.1
		c0.4,0.5,1,0.7,1.8,0.7C75.1,128.6,75.8,128.3,76.2,127.7z"/>
	<polygon class="st1" points="82.6,129.8 83.1,122.6 80.4,122.6 80.5,121.3 87.5,121.3 87.4,122.6 84.7,122.6 84.1,129.8 	"/>
	<polygon class="st2" points="81,92.9 57.4,92.9 49.1,45.5 89.1,45.5 	"/>
	<polygon class="st1" points="54.4,53.7 83.8,53.7 79.2,81.1 59.2,81.1 	"/>
	<path class="st2" d="M55.7,45.5l6.5-8.7c-0.3-0.3-0.7-0.5-1.1-0.8C54,31.5,44.1,34.2,39,42.1c-4.9,7.6-3.6,17.3,2.7,22.1l8.7-11.5"
		/>
</g>
</svg>
