<?xml version="1.0" encoding="utf-8"?>
<!-- Generator: Adobe Illustrator 22.1.0, SVG Export Plug-In . SVG Version: 6.00 Build 0)  -->
<svg version="1.1" id="Layer_1" xmlns="http://www.w3.org/2000/svg" xmlns:xlink="http://www.w3.org/1999/xlink" x="0px" y="0px"
	 viewBox="0 0 137.3 137.3" style="enable-background:new 0 0 137.3 137.3;" xml:space="preserve">
<style type="text/css">
	.st0{fill:url(#SVGID_1_);}
	.st1{fill:#FFFFFF;}
</style>
<g>
	
		<linearGradient id="SVGID_1_" gradientUnits="userSpaceOnUse" x1="0" y1="137.26" x2="1" y2="137.26" gradientTransform="matrix(-137.26 109.808 -109.808 -137.26 15216.1992 18848.6758)">
		<stop  offset="0" style="stop-color:#1EC4DC"/>
		<stop  offset="0.25" style="stop-color:#369ACD"/>
		<stop  offset="0.65" style="stop-color:#4D6FBE"/>
		<stop  offset="1" style="stop-color:#6644AF"/>
	</linearGradient>
	<path class="st0" d="M10,0h117.3c5.5,0,10,4.5,10,10v117.3c0,5.5-4.5,10-10,10H10c-5.5,0-10-4.5-10-10V10C0,4.5,4.5,0,10,0z"/>
	<polygon class="st1" points="47.7,113.3 48.9,113.3 48.2,121.7 46.9,121.7 47.3,116.2 44.8,120.3 43.7,120.3 41.8,116.2 
		41.4,121.7 40,121.7 40.7,113.3 41.9,113.3 44.4,118.7 	"/>
	<path class="st1" d="M58,121.7l-0.7-2h-4.1l-1,2h-1.6l4.5-8.4h1.3l3.2,8.4H58z M53.8,118.5h3.1l-1.3-3.6L53.8,118.5z"/>
	<path class="st1" d="M67.3,118.5c0.2,0.2,0.3,0.4,0.4,0.6l1.2,2.6h-1.7L66,119c-0.1-0.3-0.3-0.4-0.5-0.5c-0.2-0.1-0.4-0.2-0.7-0.2
		h-1.2l-0.3,3.4h-1.5l0.7-8.4h3.8c0.9,0,1.5,0.2,2,0.6c0.5,0.4,0.7,1,0.7,1.7c0,1.5-0.7,2.3-2.2,2.6
		C66.9,118.2,67.1,118.4,67.3,118.5z M65.9,117.1c1.1,0,1.7-0.5,1.7-1.4c0-0.4-0.1-0.7-0.4-0.9c-0.2-0.2-0.6-0.3-1.1-0.3h-2.2
		l-0.2,2.7H65.9z"/>
	<polygon class="st1" points="73.3,121.7 73.9,114.5 71.1,114.5 71.2,113.3 78.3,113.3 78.2,114.5 75.4,114.5 74.8,121.7 	"/>
	<polygon class="st1" points="80.1,121.7 80.7,113.3 82.3,113.3 81.6,121.7 	"/>
	<polygon class="st1" points="91.2,113.3 92.6,113.3 92,121.7 90.8,121.7 86.8,115.9 86.3,121.7 84.9,121.7 85.5,113.3 86.7,113.3 
		90.7,119.1 	"/>
	<polygon class="st1" points="95.2,121.7 95.9,113.3 97.4,113.3 96.8,121.7 	"/>
	<path class="st1" d="M73.1,67.8l23.3-27.9l5.3-6.2c0.4-0.4,0.4-1,0.2-1.5c-0.2-0.5-0.7-0.8-1.3-0.8H47.1l-3.7-4.5
		c-0.5-0.6-1.4-0.7-2-0.2c-0.6,0.5-0.7,1.4-0.2,2l2.3,2.7h-6.9c-0.8,0-1.4,0.6-1.4,1.4c0,0.3,0.1,0.6,0.3,0.9l5.2,6.2L64,67.8
		c0.3,0.4,0.7,0.7,1.1,1v19.9l-6.9,4.1c-1.2,0.7-1.6,2.3-0.9,3.5c0.5,0.8,1.3,1.3,2.2,1.3h18.2c1.4,0,2.6-1.1,2.6-2.6
		c0-0.9-0.5-1.8-1.3-2.2l-6.9-4.1v-20C72.5,68.4,72.8,68.1,73.1,67.8L73.1,67.8z M97.7,34.2l-2.9,3.4H52.2l-2.8-3.4H97.7z
		 M45.8,34.2l2.8,3.4h-6.1l-2.9-3.4H45.8z M44.8,40.4h6.1L59.7,51c-1.9,2.6-1.4,6.3,1.2,8.2c1.7,1.3,4.1,1.5,6,0.6l3.5,4.3
		c0.3,0.3,0.7,0.5,1.1,0.5c0.3,0,0.6-0.1,0.9-0.3c0.6-0.5,0.7-1.4,0.2-2l0,0L69.1,58c0.8-1,1.2-2.2,1.2-3.5c0-3.2-2.6-5.9-5.9-5.9
		c-0.9,0-1.7,0.2-2.5,0.6l-7.3-8.9h37.9L71,66c-0.6,0.7-1.5,1.1-2.4,1.1c-0.9,0-1.8-0.4-2.4-1.1L44.8,40.4z M64.4,57.6
		c-1.7,0-3.1-1.4-3.1-3.1c0-1.7,1.4-3.1,3.1-3.1c1.7,0,3.1,1.4,3.1,3.1v0C67.4,56.2,66.1,57.6,64.4,57.6z M69.4,69.9v19.6
		c0,0.5,0.2,0.9,0.6,1.2l7,4.2H60.3l7-4.2c0.4-0.3,0.7-0.7,0.7-1.2V69.9C68.4,69.9,68.9,69.9,69.4,69.9L69.4,69.9z"/>
	<path class="st1" d="M76.6,53.6c0.3,0.2,0.6,0.3,0.9,0.3c0.4,0,0.8-0.2,1.1-0.5l6.3-7.6c0.6-0.5,0.7-1.4,0.2-2l0,0
		c-0.3-0.3-0.7-0.5-1.1-0.5c-0.4,0-0.8,0.2-1.1,0.5l-6.5,7.8C75.8,52.2,75.9,53.1,76.6,53.6L76.6,53.6L76.6,53.6z"/>
	<path class="st1" d="M73.1,58.3c0.5,0.2,1.2,0.1,1.6-0.3c0.4-0.5,0.5-1.1,0.2-1.6c-0.4-0.7-1.2-0.9-1.9-0.5
		c-0.3,0.2-0.6,0.5-0.7,0.9C72.2,57.3,72.5,58,73.1,58.3z"/>
</g>
</svg>
