<svg xmlns="http://www.w3.org/2000/svg" xmlns:xlink="http://www.w3.org/1999/xlink" viewBox="0 0 137.26 137.26"><defs><style>.cls-1{fill:url(#linear-gradient);}.cls-2{font-size:11.96px;font-family:NunitoSans-BoldItalic, Nunito Sans;font-weight:700;font-style:italic;letter-spacing:0.12em;}.cls-2,.cls-5{fill:#fff;}.cls-3{letter-spacing:0.12em;}.cls-4{fill:none;stroke:#fff;stroke-miterlimit:10;stroke-width:2.82px;}</style><linearGradient id="linear-gradient" x1="-2768.67" y1="610.5" x2="-2769.67" y2="609.7" gradientTransform="matrix(137.26, 0, 0, -137.26, 380171.17, 83805.67)" gradientUnits="userSpaceOnUse"><stop offset="0" stop-color="#1ec4dc"/><stop offset="0.25" stop-color="#369acd"/><stop offset="0.65" stop-color="#4d6fbe"/><stop offset="1" stop-color="#6644af"/></linearGradient></defs><title>Asset 85</title><g id="Layer_2" data-name="Layer 2"><g id="drunken-elephant"><rect id="Box" class="cls-1" width="137.26" height="137.26" rx="10" ry="10"/><g id="Text"><text class="cls-2" transform="translate(31.83 116.77)">DRUNKEN <tspan class="cls-3"><tspan x="-0.39" y="12">ELEPHANT</tspan></tspan></text></g><g id="Icon"><path class="cls-4" d="M85,34.8a186.39,186.39,0,0,1,6.83,23C94.17,69,80.94,78.46,67.51,78.46S40.38,68.84,43.17,57.75a227.25,227.25,0,0,1,7.53-23Z"/><polygon class="cls-4" points="67.92 80.29 58.96 97.29 75.96 97.29 67.92 80.29"/><polygon class="cls-5" points="48.15 41.79 87.39 41.79 89.41 48.26 45.95 48.26 48.15 41.79"/><path class="cls-4" d="M80.46,32.46s4.4-8,9-9.75,12.3,0,12.3,0l-3.5,5.75Z"/><rect class="cls-5" x="54.46" y="64.71" width="3.92" height="3.92" transform="translate(111.28 -1.29) rotate(79.15)"/><rect class="cls-5" x="75.26" y="57.53" width="3.92" height="3.92" transform="translate(121.12 -27.54) rotate(79.15)"/><rect class="cls-5" x="64.09" y="61.52" width="6.17" height="6.17" transform="translate(94.28 -24.56) rotate(63.03)"/><rect class="cls-5" x="76.45" y="66.32" width="4.7" height="4.7" transform="translate(104.25 -32.71) rotate(63.03)"/></g></g></g></svg>