<?xml version="1.0" encoding="utf-8"?>
<!-- Generator: Adobe Illustrator 22.1.0, SVG Export Plug-In . SVG Version: 6.00 Build 0)  -->
<svg version="1.1" id="Layer_1" xmlns="http://www.w3.org/2000/svg" xmlns:xlink="http://www.w3.org/1999/xlink" x="0px" y="0px"
	 viewBox="0 0 137.3 137.3" style="enable-background:new 0 0 137.3 137.3;" xml:space="preserve">
<style type="text/css">
	.st0{fill:#4D71BC;}
	.st1{fill:#FFFFFF;}
</style>
<g>
	<path class="st0" d="M10,0h117.3c5.5,0,10,4.5,10,10v117.3c0,5.5-4.5,10-10,10H10c-5.5,0-10-4.5-10-10V10C0,4.5,4.5,0,10,0z"/>
	<polygon class="st1" points="46.5,115.6 42.5,115.6 42.3,117.9 46.1,117.9 46,119.1 42.2,119.1 41.9,122.8 40.4,122.8 41.1,114.3 
		46.6,114.3 	"/>
	<path class="st1" d="M54.4,122.8l-0.7-2h-4.1l-1,2H47l4.5-8.4h1.3l3.2,8.4H54.4z M50.2,119.6h3.1L52,116L50.2,119.6z"/>
	<polygon class="st1" points="59.2,122.8 59.7,115.6 57,115.6 57.1,114.3 64.1,114.3 64,115.6 61.3,115.6 60.7,122.8 	"/>
	<polygon class="st1" points="66,122.8 66.6,114.3 68.2,114.3 67.5,122.8 	"/>
	<path class="st1" d="M74.9,118.2h3.2l-0.3,4c-0.4,0.2-0.8,0.4-1.4,0.5c-0.5,0.1-1.1,0.2-1.7,0.2c-0.8,0-1.5-0.2-2.1-0.5
		c-0.6-0.3-1-0.8-1.4-1.4s-0.5-1.3-0.5-2.1c0-0.9,0.2-1.8,0.5-2.5c0.4-0.7,0.9-1.2,1.5-1.6s1.4-0.6,2.3-0.6c1.2,0,2.2,0.3,3,1
		l-0.6,1.1c-0.4-0.3-0.8-0.5-1.1-0.7s-0.8-0.2-1.3-0.2c-0.9,0-1.6,0.3-2.1,0.9c-0.5,0.6-0.7,1.4-0.7,2.5c0,0.9,0.2,1.6,0.6,2.1
		s1.1,0.7,1.9,0.7c0.5,0,1-0.1,1.6-0.2l0.2-2.1h-1.8L74.9,118.2z"/>
	<path class="st1" d="M82,122.1c-0.6-0.5-0.9-1.3-0.9-2.3c0-0.1,0-0.3,0-0.5l0.4-4.9H83l-0.4,5c0,0.1,0,0.2,0,0.4
		c0,0.7,0.2,1.2,0.5,1.5c0.3,0.3,0.8,0.5,1.5,0.5c0.6,0,1.1-0.2,1.5-0.5c0.4-0.3,0.6-0.9,0.6-1.6l0.4-5.2h1.5l-0.4,5
		c-0.1,1.2-0.4,2-1.1,2.6c-0.6,0.6-1.5,0.9-2.6,0.9C83.4,122.9,82.6,122.6,82,122.1z"/>
	<polygon class="st1" points="97.3,115.6 93.2,115.6 93,117.9 96.9,117.9 96.8,119.1 92.9,119.1 92.7,121.6 96.9,121.6 96.8,122.8 
		91.1,122.8 91.8,114.3 97.4,114.3 	"/>
	<path class="st1" d="M47.7,82.5C59.2,94,77.9,94,89.4,82.5c11.5-11.5,11.5-30.2,0-41.7c-11.5-11.5-30.1-11.5-41.7,0
		C36.2,52.3,36.1,70.9,47.7,82.5L47.7,82.5z M50.9,44c9.7-9.7,25.5-9.7,35.3,0c9.7,9.7,9.7,25.5,0,35.3c-9.7,9.7-25.5,9.7-35.2,0
		c-1.2-1.2-2.3-2.5-3.2-3.9C41.2,65.5,42.6,52.4,50.9,44z M61.7,77h13.8c0.7,0,1.3,0.9,1.3,1.9c0,1.1-0.6,1.9-1.3,1.9H61.7
		c-0.7,0-1.3-0.9-1.3-1.9C60.4,77.9,61,77,61.7,77z M52.8,61.3c-0.7-0.6-0.7-1.7-0.1-2.4c0.6-0.7,1.7-0.7,2.4-0.1l0,0
		c1.1,1.1,2.8,1,3.9-0.1c0.6-0.5,1.5-0.6,2.1-0.1l0.2,0.2c0.6,0.7,0.6,1.7-0.1,2.4C58.9,63.6,55.2,63.6,52.8,61.3z M75.9,61.3
		c-0.7-0.6-0.7-1.7,0-2.4c0.6-0.6,1.7-0.7,2.3-0.1c1.1,1,2.8,1,3.9,0c0.6-0.5,1.5-0.6,2.1-0.1l0.2,0.2c0.6,0.7,0.6,1.7-0.1,2.4l0,0
		C81.9,63.6,78.2,63.5,75.9,61.3L75.9,61.3z"/>
</g>
</svg>
