<svg xmlns="http://www.w3.org/2000/svg" viewBox="0 0 137.26 137.26"><defs><style>.cls-1{fill:#4d71bc;}.cls-2{font-size:11.96px;font-family:NunitoSans-BoldItalic, Nunito Sans;font-weight:700;font-style:italic;letter-spacing:0.06em;}.cls-2,.cls-5{fill:#fff;}.cls-3{letter-spacing:0.03em;}.cls-4{letter-spacing:0.12em;}</style></defs><title>Asset 43</title><g id="Layer_2" data-name="Layer 2"><g id="Fatigue_Icon"><rect id="Box" class="cls-1" width="137.26" height="137.26" rx="10" ry="10"/><g id="Text"><text class="cls-2" transform="translate(39.74 122.77)">F<tspan class="cls-3" x="7.51" y="0">A</tspan><tspan class="cls-4" x="16.78" y="0">TIGUE</tspan></text></g><g id="Fatigue_Img"><path class="cls-5" d="M47.7,82.54a29.47,29.47,0,1,0,0-41.7A29.43,29.43,0,0,0,47.7,82.54Zm3.22-38.49a24.93,24.93,0,1,1,0,35.27,24.48,24.48,0,0,1-3.19-3.91A25,25,0,0,1,50.92,44.05ZM61.67,77H75.44c.69,0,1.25.87,1.25,1.94s-.56,1.93-1.25,1.93H61.67c-.69,0-1.25-.87-1.25-1.93S61,77,61.67,77ZM52.8,61.29a1.67,1.67,0,1,1,2.28-2.44A2.8,2.8,0,0,0,59,58.8a1.68,1.68,0,0,1,2.15-.07l.21.2a1.68,1.68,0,0,1-.13,2.36A6.08,6.08,0,0,1,52.8,61.29Zm23.07,0a1.67,1.67,0,0,1,2.28-2.44,2.8,2.8,0,0,0,3.87,0,1.65,1.65,0,0,1,2.14-.06,1,1,0,0,1,.21.19,1.67,1.67,0,0,1-.13,2.36A6.05,6.05,0,0,1,75.87,61.27Z"/></g></g></g></svg>