<svg xmlns="http://www.w3.org/2000/svg" xmlns:xlink="http://www.w3.org/1999/xlink" viewBox="0 0 137.26 137.26"><defs><style>.cls-1{fill:url(#linear-gradient);}.cls-2{font-size:11.96px;font-family:NunitoSans-BoldItalic, Nunito Sans;font-weight:700;font-style:italic;letter-spacing:0.12em;}.cls-2,.cls-5{fill:#fff;}.cls-3{letter-spacing:0.12em;}.cls-4,.cls-6,.cls-7{fill:none;stroke:#fff;stroke-miterlimit:10;}.cls-4{stroke-width:2.67px;}.cls-7{stroke-width:0.82px;}</style><linearGradient id="linear-gradient" x1="-2456.54" y1="-76.94" x2="-2457.54" y2="-77.74" gradientTransform="matrix(137.26, 0, 0, -137.26, 337329.15, -10552.06)" gradientUnits="userSpaceOnUse"><stop offset="0" stop-color="#1ec4dc"/><stop offset="0.25" stop-color="#369acd"/><stop offset="0.65" stop-color="#4d6fbe"/><stop offset="1" stop-color="#6644af"/></linearGradient></defs><title>Asset 103</title><g id="Layer_2" data-name="Layer 2"><g id="fish-house-punch"><rect id="Box" class="cls-1" width="137.26" height="137.26" rx="10" ry="10"/><g id="Text"><text class="cls-2" transform="translate(23.8 113.77)">FISH HOUSE <tspan class="cls-3"><tspan x="20.53" y="12">PUNCH</tspan></tspan></text></g><g id="Icon"><path class="cls-4" d="M107.25,53.24a21.65,21.65,0,0,1,5.12,13.63C112.37,83,92.61,96,68.25,96S24.12,83,24.12,66.87a21.65,21.65,0,0,1,5.12-13.63Z"/><circle class="cls-4" cx="46.6" cy="39.08" r="2.92"/><circle class="cls-5" cx="61.2" cy="27.32" r="2.83"/><circle class="cls-5" cx="74.39" cy="47.26" r="1.77"/><ellipse class="cls-6" cx="45.45" cy="76.56" rx="8.92" ry="7.93"/><line class="cls-6" x1="50.59" y1="70.08" x2="40.59" y2="83.2"/><line class="cls-6" x1="38.91" y1="71.19" x2="51.63" y2="82.27"/><line class="cls-6" x1="36.54" y1="76.56" x2="54.37" y2="76.56"/><ellipse class="cls-7" cx="79.83" cy="82.36" rx="7.3" ry="6.49"/><line class="cls-7" x1="84.03" y1="77.05" x2="75.85" y2="87.79"/><line class="cls-7" x1="74.47" y1="77.96" x2="84.88" y2="87.03"/><line class="cls-7" x1="72.53" y1="82.36" x2="87.13" y2="82.36"/><path class="cls-4" d="M24.12,63.49a35.06,35.06,0,0,1,31.92-4c18,6.67,20.17,10.28,31.09,9.14S111,59.53,111,59.53"/><polyline class="cls-4" points="103.04 27.32 87.13 30.16 66.04 83.2"/></g></g></g></svg>