<?xml version="1.0" encoding="utf-8"?>
<!-- Generator: Adobe Illustrator 22.1.0, SVG Export Plug-In . SVG Version: 6.00 Build 0)  -->
<svg version="1.1" id="Layer_1" xmlns="http://www.w3.org/2000/svg" xmlns:xlink="http://www.w3.org/1999/xlink" x="0px" y="0px"
	 viewBox="0 0 137.3 137.3" style="enable-background:new 0 0 137.3 137.3;" xml:space="preserve">
<style type="text/css">
	.st0{fill:url(#SVGID_1_);}
	.st1{fill:#FFFFFF;}
	.st2{fill:none;stroke:#FFFFFF;stroke-width:2.67;stroke-miterlimit:10;}
	.st3{fill:none;stroke:#FFFFFF;stroke-miterlimit:10;}
	.st4{fill:none;stroke:#FFFFFF;stroke-width:0.82;stroke-miterlimit:10;}
</style>
<g>
	
		<linearGradient id="SVGID_1_" gradientUnits="userSpaceOnUse" x1="0" y1="137.26" x2="1" y2="137.26" gradientTransform="matrix(-137.26 109.8074 109.8074 137.26 -14928.0557 -18832.0547)">
		<stop  offset="0" style="stop-color:#1EC4DC"/>
		<stop  offset="0.25" style="stop-color:#369ACD"/>
		<stop  offset="0.65" style="stop-color:#4D6FBE"/>
		<stop  offset="1" style="stop-color:#6644AF"/>
	</linearGradient>
	<path class="st0" d="M10,0h117.3c5.5,0,10,4.5,10,10v117.3c0,5.5-4.5,10-10,10H10c-5.5,0-10-4.5-10-10V10C0,4.5,4.5,0,10,0z"/>
	<polygon class="st1" points="30.6,106.6 26.6,106.6 26.4,108.9 30.2,108.9 30.1,110.1 26.3,110.1 26,113.8 24.5,113.8 25.2,105.3 
		30.7,105.3 	"/>
	<polygon class="st1" points="32.7,113.8 33.3,105.3 34.9,105.3 34.2,113.8 	"/>
	<path class="st1" d="M38.6,113.6c-0.6-0.2-1.1-0.4-1.5-0.7l0.6-1.1c0.4,0.3,0.9,0.5,1.3,0.7c0.5,0.1,0.9,0.2,1.5,0.2
		c0.6,0,1-0.1,1.3-0.3c0.3-0.2,0.5-0.5,0.5-0.8c0-0.2-0.1-0.4-0.2-0.6c-0.2-0.2-0.4-0.3-0.6-0.4s-0.6-0.2-1-0.3
		c-0.6-0.2-1.1-0.3-1.4-0.5c-0.4-0.2-0.7-0.4-1-0.7c-0.3-0.3-0.4-0.7-0.4-1.3c0-0.5,0.1-1,0.4-1.3s0.7-0.7,1.2-0.9s1.1-0.3,1.8-0.3
		c0.6,0,1.2,0.1,1.7,0.3c0.5,0.2,1,0.4,1.3,0.7l-0.6,1.1c-0.4-0.3-0.7-0.5-1.2-0.7s-0.8-0.2-1.3-0.2c-0.6,0-1,0.1-1.3,0.3
		s-0.5,0.5-0.5,0.9c0,0.2,0.1,0.5,0.3,0.6c0.2,0.2,0.4,0.3,0.6,0.4c0.2,0.1,0.6,0.2,1.1,0.3c0.6,0.2,1.1,0.3,1.4,0.5
		c0.4,0.2,0.7,0.4,0.9,0.7c0.3,0.3,0.4,0.7,0.4,1.2c0,0.8-0.3,1.4-0.9,1.8c-0.6,0.4-1.4,0.7-2.5,0.7
		C39.8,113.9,39.2,113.8,38.6,113.6z"/>
	<polygon class="st1" points="53,105.3 54.5,105.3 53.8,113.8 52.3,113.8 52.6,110.1 48.3,110.1 48,113.8 46.5,113.8 47.2,105.3 
		48.7,105.3 48.4,108.9 52.7,108.9 	"/>
	<polygon class="st1" points="68.3,105.3 69.8,105.3 69.1,113.8 67.6,113.8 67.9,110.1 63.6,110.1 63.3,113.8 61.8,113.8 
		62.4,105.3 63.9,105.3 63.7,108.9 68,108.9 	"/>
	<path class="st1" d="M74.3,113.4c-0.6-0.3-1.1-0.8-1.4-1.4c-0.3-0.6-0.5-1.3-0.5-2.1c0-0.9,0.2-1.7,0.5-2.4s0.8-1.2,1.4-1.6
		c0.6-0.4,1.3-0.6,2.2-0.6c0.8,0,1.5,0.2,2.1,0.5c0.6,0.3,1.1,0.8,1.4,1.4c0.3,0.6,0.5,1.3,0.5,2.1c0,0.9-0.2,1.7-0.5,2.4
		s-0.8,1.2-1.4,1.6c-0.6,0.4-1.3,0.6-2.2,0.6C75.5,113.9,74.8,113.7,74.3,113.4z M78.2,111.7c0.5-0.6,0.7-1.4,0.7-2.5
		c0-0.9-0.2-1.6-0.6-2.1c-0.4-0.5-1-0.7-1.8-0.7c-0.8,0-1.4,0.3-1.9,0.9c-0.5,0.6-0.7,1.4-0.7,2.5c0,0.9,0.2,1.6,0.6,2.1
		c0.4,0.5,1,0.7,1.8,0.7C77.1,112.6,77.8,112.3,78.2,111.7z"/>
	<path class="st1" d="M84.1,113.1c-0.6-0.5-0.9-1.3-0.9-2.3c0-0.1,0-0.3,0-0.5l0.4-4.9h1.5l-0.4,5c0,0.1,0,0.2,0,0.4
		c0,0.7,0.2,1.2,0.5,1.5c0.3,0.3,0.8,0.5,1.5,0.5c0.6,0,1.1-0.2,1.5-0.5c0.4-0.3,0.6-0.9,0.6-1.6l0.4-5.2h1.5l-0.4,5
		c-0.1,1.2-0.4,2-1.1,2.6s-1.5,0.9-2.6,0.9C85.6,113.9,84.7,113.6,84.1,113.1z"/>
	<path class="st1" d="M94.5,113.6c-0.6-0.2-1.1-0.4-1.5-0.7l0.6-1.1c0.4,0.3,0.9,0.5,1.3,0.7c0.5,0.1,0.9,0.2,1.5,0.2
		c0.6,0,1-0.1,1.3-0.3s0.5-0.5,0.5-0.8c0-0.2-0.1-0.4-0.2-0.6c-0.2-0.2-0.4-0.3-0.6-0.4s-0.6-0.2-1-0.3c-0.6-0.2-1.1-0.3-1.4-0.5
		c-0.4-0.2-0.7-0.4-1-0.7c-0.3-0.3-0.4-0.7-0.4-1.3c0-0.5,0.1-1,0.4-1.3c0.3-0.4,0.7-0.7,1.2-0.9c0.5-0.2,1.1-0.3,1.8-0.3
		c0.6,0,1.2,0.1,1.7,0.3c0.5,0.2,1,0.4,1.3,0.7l-0.6,1.1c-0.4-0.3-0.7-0.5-1.2-0.7c-0.4-0.2-0.8-0.2-1.3-0.2c-0.6,0-1,0.1-1.3,0.3
		c-0.3,0.2-0.5,0.5-0.5,0.9c0,0.2,0.1,0.5,0.3,0.6c0.2,0.2,0.4,0.3,0.6,0.4c0.2,0.1,0.6,0.2,1.1,0.3c0.6,0.2,1.1,0.3,1.4,0.5
		c0.4,0.2,0.7,0.4,0.9,0.7c0.3,0.3,0.4,0.7,0.4,1.2c0,0.8-0.3,1.4-0.9,1.8c-0.6,0.4-1.4,0.7-2.5,0.7C95.6,113.9,95,113.8,94.5,113.6
		z"/>
	<polygon class="st1" points="108.5,106.6 104.4,106.6 104.2,108.9 108.1,108.9 108,110.1 104.1,110.1 103.9,112.6 108.1,112.6 
		108,113.8 102.3,113.8 103,105.3 108.6,105.3 	"/>
	<path class="st1" d="M51.3,118c0.5,0.4,0.7,1,0.7,1.8c0,0.9-0.3,1.6-0.8,2s-1.3,0.7-2.2,0.7h-2.2l-0.3,3.3H45l0.7-8.4h3.6
		C50.1,117.3,50.8,117.6,51.3,118z M50.6,119.8c0-0.9-0.5-1.3-1.5-1.3h-1.9l-0.2,2.8h1.9C50,121.3,50.6,120.8,50.6,119.8z"/>
	<path class="st1" d="M55.4,125.1c-0.6-0.5-0.9-1.3-0.9-2.3c0-0.1,0-0.3,0-0.5l0.4-4.9h1.5l-0.4,5c0,0.1,0,0.2,0,0.4
		c0,0.7,0.2,1.2,0.5,1.5c0.3,0.3,0.8,0.5,1.5,0.5c0.6,0,1.1-0.2,1.5-0.5c0.4-0.3,0.6-0.9,0.6-1.6l0.4-5.2H62l-0.4,5
		c-0.1,1.2-0.4,2-1.1,2.6c-0.6,0.6-1.5,0.9-2.6,0.9C56.8,125.9,56,125.6,55.4,125.1z"/>
	<polygon class="st1" points="70.8,117.3 72.3,117.3 71.6,125.8 70.5,125.8 66.4,119.9 66,125.8 64.5,125.8 65.2,117.3 66.3,117.3 
		70.4,123.2 	"/>
	<path class="st1" d="M76.7,125.4c-0.6-0.3-1-0.8-1.3-1.4c-0.3-0.6-0.5-1.3-0.5-2.1c0-0.9,0.2-1.7,0.5-2.4c0.4-0.7,0.8-1.2,1.5-1.6
		c0.6-0.4,1.4-0.6,2.3-0.6c0.6,0,1.1,0.1,1.6,0.3c0.5,0.2,0.9,0.4,1.3,0.7l-0.6,1.1c-0.4-0.3-0.7-0.5-1.1-0.7
		c-0.4-0.1-0.8-0.2-1.2-0.2c-0.9,0-1.5,0.3-2,0.9c-0.5,0.6-0.7,1.4-0.7,2.5c0,0.9,0.2,1.6,0.6,2c0.4,0.5,1,0.7,1.8,0.7
		c0.8,0,1.6-0.3,2.3-0.9l0.4,1.1c-0.3,0.3-0.8,0.6-1.3,0.7c-0.5,0.2-1,0.3-1.6,0.3C78,125.9,77.3,125.7,76.7,125.4z"/>
	<polygon class="st1" points="90.9,117.3 92.4,117.3 91.7,125.8 90.2,125.8 90.5,122.1 86.2,122.1 85.9,125.8 84.4,125.8 
		85.1,117.3 86.6,117.3 86.3,120.9 90.6,120.9 	"/>
	<path class="st2" d="M107.3,53.2c3.2,3.8,5,8.6,5.1,13.6C112.4,83,92.6,96,68.3,96c-24.4,0-44.1-13-44.1-29.1
		c0.1-5,1.9-9.8,5.1-13.6H107.3z"/>
	<circle class="st2" cx="46.6" cy="39.1" r="2.9"/>
	<path class="st1" d="M61.2,24.5c1.6,0,2.8,1.3,2.8,2.8s-1.3,2.8-2.8,2.8s-2.8-1.3-2.8-2.8S59.6,24.5,61.2,24.5z"/>
	<path class="st1" d="M74.4,45.5c1,0,1.8,0.8,1.8,1.8S75.4,49,74.4,49s-1.8-0.8-1.8-1.8S73.4,45.5,74.4,45.5z"/>
	<path class="st3" d="M45.5,68.6c4.9,0,8.9,3.6,8.9,7.9c0,4.4-4,7.9-8.9,7.9c-4.9,0-8.9-3.6-8.9-7.9C36.5,72.2,40.5,68.6,45.5,68.6z
		"/>
	<line class="st3" x1="50.6" y1="70.1" x2="40.6" y2="83.2"/>
	<line class="st3" x1="38.9" y1="71.2" x2="51.6" y2="82.3"/>
	<line class="st3" x1="36.5" y1="76.6" x2="54.4" y2="76.6"/>
	<path class="st4" d="M79.8,75.9c4,0,7.3,2.9,7.3,6.5c0,3.6-3.3,6.5-7.3,6.5c-4,0-7.3-2.9-7.3-6.5C72.5,78.8,75.8,75.9,79.8,75.9z"
		/>
	<line class="st4" x1="84" y1="77" x2="75.8" y2="87.8"/>
	<line class="st4" x1="74.5" y1="78" x2="84.9" y2="87"/>
	<line class="st4" x1="72.5" y1="82.4" x2="87.1" y2="82.4"/>
	<path class="st2" d="M24.1,63.5c9.4-6.4,21.3-7.9,31.9-4c18,6.7,20.2,10.3,31.1,9.1C98,67.5,111,59.5,111,59.5"/>
	<polyline class="st2" points="103,27.3 87.1,30.2 66,83.2 	"/>
</g>
</svg>
