<?xml version="1.0" encoding="utf-8"?>
<!-- Generator: Adobe Illustrator 22.1.0, SVG Export Plug-In . SVG Version: 6.00 Build 0)  -->
<svg version="1.1" id="Layer_1" xmlns="http://www.w3.org/2000/svg" xmlns:xlink="http://www.w3.org/1999/xlink" x="0px" y="0px"
	 viewBox="0 0 137.3 137.3" style="enable-background:new 0 0 137.3 137.3;" xml:space="preserve">
<style type="text/css">
	.st0{fill:url(#SVGID_1_);}
	.st1{fill:#FFFFFF;}
	.st2{fill:none;stroke:#FFFFFF;stroke-width:2.33;stroke-miterlimit:10;}
</style>
<g>
	
		<linearGradient id="SVGID_1_" gradientUnits="userSpaceOnUse" x1="0" y1="137.26" x2="1" y2="137.26" gradientTransform="matrix(-137.26 109.8063 109.8063 137.26 -14928.0352 -18831.957)">
		<stop  offset="0" style="stop-color:#1EC4DC"/>
		<stop  offset="0.25" style="stop-color:#369ACD"/>
		<stop  offset="0.65" style="stop-color:#4D6FBE"/>
		<stop  offset="1" style="stop-color:#6644AF"/>
	</linearGradient>
	<path class="st0" d="M10,0h117.3c5.5,0,10,4.5,10,10v117.3c0,5.5-4.5,10-10,10H10c-5.5,0-10-4.5-10-10V10C0,4.5,4.5,0,10,0z"/>
	<polygon class="st1" points="14.9,115.6 10.9,115.6 10.8,117.9 14.5,117.9 14.4,119.1 10.6,119.1 10.4,122.8 8.8,122.8 9.5,114.3 
		15,114.3 	"/>
	<path class="st1" d="M18.8,122.4c-0.6-0.3-1.1-0.8-1.4-1.4c-0.3-0.6-0.5-1.3-0.5-2.1c0-0.9,0.2-1.7,0.5-2.4
		c0.3-0.7,0.8-1.2,1.4-1.6s1.3-0.6,2.2-0.6c0.8,0,1.5,0.2,2.1,0.5s1.1,0.8,1.4,1.4c0.3,0.6,0.5,1.3,0.5,2.1c0,0.9-0.2,1.7-0.5,2.4
		c-0.3,0.7-0.8,1.2-1.4,1.6s-1.3,0.6-2.2,0.6C20.1,122.9,19.4,122.7,18.8,122.4z M22.8,120.7c0.5-0.6,0.7-1.4,0.7-2.5
		c0-0.9-0.2-1.6-0.6-2.1s-1-0.7-1.8-0.7c-0.8,0-1.4,0.3-1.9,0.9s-0.7,1.4-0.7,2.5c0,0.9,0.2,1.6,0.6,2.1c0.4,0.5,1,0.7,1.8,0.7
		C21.7,121.6,22.3,121.3,22.8,120.7z"/>
	<path class="st1" d="M28.7,122.1c-0.6-0.5-0.9-1.3-0.9-2.3c0-0.1,0-0.3,0-0.5l0.4-4.9h1.5l-0.4,5c0,0.1,0,0.2,0,0.4
		c0,0.7,0.2,1.2,0.5,1.5c0.3,0.3,0.8,0.5,1.5,0.5c0.6,0,1.1-0.2,1.5-0.5c0.4-0.3,0.6-0.9,0.6-1.6l0.4-5.2h1.5l-0.4,5
		c-0.1,1.2-0.4,2-1.1,2.6c-0.6,0.6-1.5,0.9-2.6,0.9C30.1,122.9,29.3,122.6,28.7,122.1z"/>
	<path class="st1" d="M43.3,119.6c0.2,0.2,0.3,0.4,0.4,0.6l1.2,2.6h-1.7l-1.3-2.7c-0.1-0.3-0.3-0.4-0.5-0.5s-0.4-0.2-0.7-0.2h-1.2
		l-0.3,3.4h-1.5l0.7-8.4h3.8c0.9,0,1.5,0.2,2,0.6c0.5,0.4,0.7,1,0.7,1.7c0,1.5-0.7,2.3-2.2,2.6C43,119.3,43.1,119.4,43.3,119.6z
		 M41.9,118.2c1.1,0,1.7-0.5,1.7-1.4c0-0.4-0.1-0.7-0.4-0.9s-0.6-0.3-1.1-0.3h-2.2l-0.2,2.7H41.9z"/>
	<polygon class="st1" points="58.7,114.3 60.3,114.3 59.6,122.8 58.1,122.8 58.4,119.1 54.1,119.1 53.8,122.8 52.3,122.8 
		52.9,114.3 54.4,114.3 54.2,117.9 58.5,117.9 	"/>
	<path class="st1" d="M64.7,122.4c-0.6-0.3-1.1-0.8-1.4-1.4c-0.3-0.6-0.5-1.3-0.5-2.1c0-0.9,0.2-1.7,0.5-2.4
		c0.3-0.7,0.8-1.2,1.4-1.6s1.3-0.6,2.2-0.6c0.8,0,1.5,0.2,2.1,0.5s1.1,0.8,1.4,1.4c0.3,0.6,0.5,1.3,0.5,2.1c0,0.9-0.2,1.7-0.5,2.4
		c-0.3,0.7-0.8,1.2-1.4,1.6s-1.3,0.6-2.2,0.6C66,122.9,65.3,122.7,64.7,122.4z M68.7,120.7c0.5-0.6,0.7-1.4,0.7-2.5
		c0-0.9-0.2-1.6-0.6-2.1s-1-0.7-1.8-0.7c-0.8,0-1.4,0.3-1.9,0.9s-0.7,1.4-0.7,2.5c0,0.9,0.2,1.6,0.6,2.1c0.4,0.5,1,0.7,1.8,0.7
		C67.6,121.6,68.2,121.3,68.7,120.7z"/>
	<path class="st1" d="M79.1,119.6c0.2,0.2,0.3,0.4,0.4,0.6l1.2,2.6h-1.7l-1.3-2.7c-0.1-0.3-0.3-0.4-0.5-0.5
		c-0.2-0.1-0.4-0.2-0.7-0.2h-1.2l-0.3,3.4h-1.5l0.7-8.4h3.8c0.9,0,1.5,0.2,2,0.6c0.5,0.4,0.7,1,0.7,1.7c0,1.5-0.8,2.3-2.2,2.6
		C78.7,119.3,78.9,119.4,79.1,119.6z M77.7,118.2c1.1,0,1.7-0.5,1.7-1.4c0-0.4-0.1-0.7-0.4-0.9c-0.2-0.2-0.6-0.3-1.1-0.3h-2.2
		l-0.2,2.7H77.7z"/>
	<path class="st1" d="M84.5,122.6c-0.6-0.2-1.1-0.4-1.5-0.7l0.6-1.1c0.4,0.3,0.9,0.5,1.3,0.7c0.5,0.1,0.9,0.2,1.5,0.2
		c0.6,0,1-0.1,1.3-0.3s0.5-0.5,0.5-0.8c0-0.2-0.1-0.4-0.2-0.6c-0.2-0.2-0.4-0.3-0.6-0.4s-0.6-0.2-1-0.3c-0.6-0.2-1.1-0.3-1.4-0.5
		c-0.4-0.2-0.7-0.4-1-0.7c-0.3-0.3-0.4-0.7-0.4-1.3c0-0.5,0.1-1,0.4-1.3c0.3-0.4,0.7-0.7,1.2-0.9c0.5-0.2,1.1-0.3,1.8-0.3
		c0.6,0,1.2,0.1,1.7,0.3c0.5,0.2,1,0.4,1.3,0.7l-0.6,1.1c-0.4-0.3-0.7-0.5-1.2-0.7c-0.4-0.2-0.8-0.2-1.3-0.2c-0.6,0-1,0.1-1.3,0.3
		c-0.3,0.2-0.5,0.5-0.5,0.9c0,0.2,0.1,0.5,0.3,0.6c0.2,0.2,0.4,0.3,0.6,0.4c0.2,0.1,0.6,0.2,1.1,0.3c0.6,0.2,1.1,0.3,1.4,0.5
		c0.4,0.2,0.7,0.4,0.9,0.7c0.3,0.3,0.4,0.7,0.4,1.2c0,0.8-0.3,1.4-0.9,1.8c-0.6,0.4-1.4,0.7-2.5,0.7
		C85.7,122.9,85.1,122.8,84.5,122.6z"/>
	<polygon class="st1" points="98.6,115.6 94.5,115.6 94.3,117.9 98.2,117.9 98.1,119.1 94.2,119.1 94,121.6 98.1,121.6 98.1,122.8 
		92.4,122.8 93.1,114.3 98.7,114.3 	"/>
	<polygon class="st1" points="108.6,114.3 109.8,114.3 109.1,122.8 107.7,122.8 108.2,117.2 105.6,121.4 104.6,121.4 102.7,117.3 
		102.3,122.8 100.9,122.8 101.6,114.3 102.8,114.3 105.2,119.8 	"/>
	<polygon class="st1" points="118.6,115.6 114.4,115.6 114.3,117.9 118.1,117.9 118,119.1 114.1,119.1 114,121.6 118.1,121.6 
		118,122.8 112.4,122.8 113,114.3 118.7,114.3 	"/>
	<polygon class="st1" points="127.1,114.3 128.6,114.3 127.9,122.8 126.8,122.8 122.7,116.9 122.3,122.8 120.8,122.8 121.5,114.3 
		122.6,114.3 126.7,120.2 	"/>
	<polygon class="st2" points="51.4,43.8 86.8,43.8 80.1,92.5 57.4,92.5 	"/>
	<polygon class="st1" points="52.8,54.6 85.3,54.6 76.4,86.8 61.4,86.8 	"/>
</g>
</svg>
