<svg xmlns="http://www.w3.org/2000/svg" xmlns:xlink="http://www.w3.org/1999/xlink" viewBox="0 0 137.26 137.26"><defs><style>.cls-1{fill:url(#linear-gradient);}.cls-2{font-size:11.96px;fill:#fff;font-family:NunitoSans-BoldItalic, Nunito Sans;font-weight:700;font-style:italic;letter-spacing:0.12em;}.cls-3{letter-spacing:0.11em;}.cls-4,.cls-5{fill:none;stroke:#fff;stroke-miterlimit:10;}.cls-4{stroke-width:2.33px;}.cls-5{stroke-width:1.87px;}</style><linearGradient id="linear-gradient" x1="-2768.77" y1="98.32" x2="-2769.77" y2="97.52" gradientTransform="matrix(137.26, 0, 0, -137.26, 380185.88, 13503.98)" gradientUnits="userSpaceOnUse"><stop offset="0" stop-color="#1ec4dc"/><stop offset="0.25" stop-color="#369acd"/><stop offset="0.65" stop-color="#4d6fbe"/><stop offset="1" stop-color="#6644af"/></linearGradient></defs><title>Asset 100</title><g id="Layer_2" data-name="Layer 2"><g id="frose"><rect id="Box" class="cls-1" width="137.26" height="137.26" rx="10" ry="10"/><g id="Text"><text class="cls-2" transform="translate(46.26 122.77)">F<tspan class="cls-3" x="8.2" y="0">R</tspan><tspan x="17.89" y="0">OSE</tspan></text></g><g id="Icon"><path class="cls-4" d="M83.2,32.2a53.84,53.84,0,0,1,1.32,12c0,16.68-7.16,30.2-16,30.2s-16-13.52-16-30.2a53.25,53.25,0,0,1,1.33-12Z"/><polyline class="cls-4" points="68.52 74.44 68.52 101.48 56.85 108.15 80.18 108.15"/><polyline class="cls-4" points="52.52 44.23 61.18 39.53 67.81 41.88 70.85 41.88 77.85 39.53 84.52 44.23"/><path class="cls-5" d="M92.21,34.52A9,9,0,0,0,77,24.81c-2.69,4.19-3.48,12.91.71,15.59S89.53,38.71,92.21,34.52Z"/><polyline class="cls-5" points="84.52 20.66 88.1 10.82 90.18 15.74 97.85 13.15 94.85 19.43 101.85 19.43 93.63 25.82"/></g></g></g></svg>