<?xml version="1.0" encoding="utf-8"?>
<!-- Generator: Adobe Illustrator 22.1.0, SVG Export Plug-In . SVG Version: 6.00 Build 0)  -->
<svg version="1.1" id="Layer_1" xmlns="http://www.w3.org/2000/svg" xmlns:xlink="http://www.w3.org/1999/xlink" x="0px" y="0px"
	 viewBox="0 0 137.3 137.3" style="enable-background:new 0 0 137.3 137.3;" xml:space="preserve">
<style type="text/css">
	.st0{fill:#4D71BC;}
	.st1{fill:#FFFFFF;}
</style>
<g>
	<path class="st0" d="M10,0h117.3c5.5,0,10,4.5,10,10v117.3c0,5.5-4.5,10-10,10H10c-5.5,0-10-4.5-10-10V10C0,4.5,4.5,0,10,0z"/>
	<path class="st1" d="M29.3,117.8h3.2l-0.3,4c-0.4,0.2-0.8,0.4-1.4,0.5c-0.5,0.1-1.1,0.2-1.7,0.2c-0.8,0-1.5-0.2-2.1-0.5
		c-0.6-0.3-1-0.8-1.4-1.4s-0.5-1.3-0.5-2.1c0-0.9,0.2-1.8,0.5-2.5c0.4-0.7,0.9-1.2,1.5-1.6s1.4-0.6,2.3-0.6c1.2,0,2.2,0.3,3,1
		l-0.6,1.1c-0.4-0.3-0.8-0.5-1.1-0.7c-0.4-0.1-0.8-0.2-1.3-0.2c-0.9,0-1.6,0.3-2.1,0.9c-0.5,0.6-0.7,1.4-0.7,2.5
		c0,0.9,0.2,1.6,0.6,2.1c0.4,0.5,1.1,0.7,1.9,0.7c0.5,0,1-0.1,1.6-0.2l0.2-2.1h-1.8L29.3,117.8z"/>
	<path class="st1" d="M41.8,122.3l-0.7-2h-4.1l-1,2h-1.6l4.5-8.4h1.3l3.2,8.4H41.8z M37.6,119.2h3.1l-1.3-3.6L37.6,119.2z"/>
	<polygon class="st1" points="53.3,113.9 54.5,113.9 53.8,122.3 52.4,122.3 52.9,116.8 50.3,121 49.3,121 47.4,116.9 47,122.3 
		45.6,122.3 46.3,113.9 47.5,113.9 49.9,119.4 	"/>
	<polygon class="st1" points="63.3,115.1 59.1,115.1 59,117.5 62.8,117.5 62.8,118.7 58.9,118.7 58.7,121.1 62.8,121.1 62.7,122.3 
		57.1,122.3 57.7,113.9 63.4,113.9 	"/>
	<polygon class="st1" points="76.5,113.9 78,113.9 77.3,122.3 76.1,122.3 72.1,116.5 71.6,122.3 70.2,122.3 70.9,113.9 72,113.9 
		76.1,119.8 	"/>
	<polygon class="st1" points="80.5,122.3 81.2,113.9 82.8,113.9 82.1,122.3 	"/>
	<path class="st1" d="M89.5,117.8h3.2l-0.3,4c-0.4,0.2-0.8,0.4-1.4,0.5s-1.1,0.2-1.7,0.2c-0.8,0-1.5-0.2-2.1-0.5
		c-0.6-0.3-1-0.8-1.4-1.4c-0.3-0.6-0.5-1.3-0.5-2.1c0-0.9,0.2-1.8,0.5-2.5c0.4-0.7,0.9-1.2,1.5-1.6c0.7-0.4,1.4-0.6,2.3-0.6
		c1.2,0,2.2,0.3,3,1l-0.6,1.1c-0.4-0.3-0.8-0.5-1.1-0.7c-0.4-0.1-0.8-0.2-1.3-0.2c-0.9,0-1.6,0.3-2.1,0.9c-0.5,0.6-0.7,1.4-0.7,2.5
		c0,0.9,0.2,1.6,0.6,2.1s1.1,0.7,1.9,0.7c0.5,0,1-0.1,1.6-0.2l0.2-2.1h-1.8L89.5,117.8z"/>
	<polygon class="st1" points="102,113.9 103.5,113.9 102.9,122.3 101.3,122.3 101.6,118.7 97.3,118.7 97,122.3 95.5,122.3 
		96.2,113.9 97.7,113.9 97.4,117.4 101.7,117.4 	"/>
	<polygon class="st1" points="108.1,122.3 108.7,115.2 105.9,115.2 106,113.9 113,113.9 112.9,115.2 110.2,115.2 109.6,122.3 	"/>
	<path class="st1" d="M60.6,70.3H56v-4.6c0-0.6-0.5-1.1-1.1-1.2h0h-4.6c-0.6,0-1.1,0.5-1.1,1.2v4.6h-4.6c-0.6,0-1.1,0.5-1.1,1.2V76
		c0,0.6,0.5,1.2,1.1,1.2h4.6v4.6c0,0.6,0.5,1.1,1.1,1.1h4.6c0.6,0,1.1-0.5,1.1-1.1v0v-4.6h4.6c0.6,0,1.1-0.5,1.1-1.1l0,0v-4.6
		C61.7,70.8,61.2,70.3,60.6,70.3L60.6,70.3z M59.5,74.8h-4.6c-0.6,0-1.1,0.5-1.1,1.2v4.6h-2.3V76c0-0.6-0.5-1.1-1.2-1.2h-4.6v-2.3
		h4.6c0.6,0,1.1-0.5,1.2-1.1v-4.6h2.3v4.6c0,0.6,0.5,1.1,1.1,1.1h4.6V74.8z"/>
	<path class="st1" d="M86.7,55.4c-0.7-0.1-1.3-0.1-2-0.1H72.1v-3.7c0-0.5-0.4-0.9-0.9-0.9h-1.4v-2.3c0-2.5-2.1-4.6-4.6-4.6h-5.7
		c-1.2,0-2.3-0.9-2.4-2.2c-0.1-1.3,0.9-2.3,2.2-2.4l0.1,0h18.3c2.5,0,4.6-2,4.7-4.5c0.1-2.5-1.9-4.6-4.5-4.7l-0.1,0h-5.8
		c-1.3,0-2.3-1-2.3-2.3v-3.4c0-0.6-0.5-1.1-1.1-1.1c-0.6,0-1.1,0.5-1.1,1.1v3.4c0,2.5,2.1,4.6,4.6,4.6h5.7c1.2,0,2.3,0.9,2.4,2.2
		c0.1,1.3-0.9,2.4-2.1,2.4l-0.1,0H59.5c-2.5,0-4.6,2-4.7,4.5c-0.1,2.5,1.9,4.7,4.5,4.7l0.1,0h5.7c1.3,0,2.3,1,2.3,2.3v2.3h-1.4
		c-0.5,0-0.9,0.4-0.9,0.9v3.7H52.6c-0.7,0-1.3,0-2,0.1c-7.9,0.9-15.4,8.3-16.2,16.2c-1.1,10.1,6.1,19.2,16.2,20.3
		c4.1,0.5,8.2-0.5,11.7-2.6c1.5-1,3.2-1.6,5-1.8c0.9-0.1,1.8-0.1,2.7,0c1.8,0.2,3.6,0.8,5.1,1.8c8.6,5.4,19.9,2.8,25.3-5.8
		c2.2-3.5,3.2-7.7,2.7-11.9C102.1,63.7,94.7,56.3,86.7,55.4z M67.9,53h1.5c0.2,0,0.4,0.2,0.4,0.4v1.5c0,0.2-0.2,0.4-0.4,0.4h-1.5
		c-0.2,0-0.4-0.2-0.4-0.4v-1.4C67.5,53.2,67.6,53,67.9,53L67.9,53z M96.7,84.4c-5.2,5.8-13.8,7.1-20.4,3c-1.8-1.2-4-1.9-6.2-2.1
		c-0.5,0-1,0-1.5,0c-0.5,0-1,0-1.5,0.1c-2.2,0.2-4.2,0.9-6.1,2c-7.5,4.7-17.5,2.3-22.1-5.2c-1.9-3.1-2.7-6.7-2.3-10.3
		c0.8-6.8,7.4-13.4,14.2-14.1c0.6-0.1,1.2-0.1,1.8-0.1h32.2c0.6,0,1.2,0,1.8,0.1c6.8,0.7,13.4,7.3,14.2,14.1
		C101.2,76.4,99.8,81,96.7,84.4z"/>
	<path class="st1" d="M84.7,71.4c2.5,0,4.6-2,4.6-4.6c0-2.5-2-4.6-4.6-4.6c-2.5,0-4.6,2-4.6,4.6v0C80.1,69.3,82.2,71.4,84.7,71.4z
		 M84.7,64.5c1.3,0,2.3,1,2.3,2.3c0,1.3-1,2.3-2.3,2.3c-1.3,0-2.3-1-2.3-2.3v0C82.4,65.5,83.4,64.5,84.7,64.5z"/>
	<path class="st1" d="M84.7,76c-2.5,0-4.6,2.1-4.6,4.6c0,2.5,2.1,4.6,4.6,4.6c2.5,0,4.6-2.1,4.6-4.6v0C89.3,78.1,87.2,76,84.7,76z
		 M84.7,82.9c-1.3,0-2.3-1-2.3-2.3s1-2.3,2.3-2.3s2.3,1,2.3,2.3C87,81.9,86,82.9,84.7,82.9L84.7,82.9z"/>
	<path class="st1" d="M76.7,69.1c-2.5,0-4.6,2-4.6,4.6c0,2.5,2,4.6,4.6,4.6c2.5,0,4.6-2,4.6-4.6v0C81.3,71.2,79.2,69.1,76.7,69.1z
		 M76.7,76c-1.3,0-2.3-1.1-2.3-2.3s1.1-2.3,2.3-2.3c1.3,0,2.3,1,2.3,2.3C79,75,78,76,76.7,76L76.7,76L76.7,76z"/>
	<path class="st1" d="M92.7,69.1c-2.5,0-4.6,2-4.6,4.6c0,2.5,2,4.6,4.6,4.6c2.5,0,4.6-2,4.6-4.6v0C97.3,71.2,95.3,69.1,92.7,69.1z
		 M92.7,76c-1.3,0-2.3-1-2.3-2.3c0-1.3,1-2.3,2.3-2.3c1.3,0,2.3,1,2.3,2.3C95,75,94,76,92.7,76L92.7,76L92.7,76z"/>
</g>
</svg>
