<svg xmlns="http://www.w3.org/2000/svg" viewBox="0 0 68.9 68.89"><defs><style>.cls-1{fill:#fff;}</style></defs><title>games-night</title><g id="Layer_2" data-name="Layer 2"><g id="Mockup"><path class="cls-1" d="M26.41,47.07H21.82V42.48a1.15,1.15,0,0,0-1.15-1.15H16.08a1.15,1.15,0,0,0-1.15,1.15v4.59H10.34a1.15,1.15,0,0,0-1.15,1.15v4.59A1.14,1.14,0,0,0,10.34,54h4.59v4.59a1.14,1.14,0,0,0,1.15,1.15h4.59a1.14,1.14,0,0,0,1.15-1.15V54h4.59a1.14,1.14,0,0,0,1.15-1.15V48.22A1.15,1.15,0,0,0,26.41,47.07Zm-1.15,4.6H20.67a1.15,1.15,0,0,0-1.15,1.14v4.6H17.23v-4.6a1.15,1.15,0,0,0-1.15-1.14H11.49v-2.3h4.59a1.15,1.15,0,0,0,1.15-1.15V43.63h2.29v4.59a1.15,1.15,0,0,0,1.15,1.15h4.59Z"/><path class="cls-1" d="M52.55,32.26a19.72,19.72,0,0,0-2-.11H37.89V28.48a.93.93,0,0,0-.93-.93H35.6V25.26A4.59,4.59,0,0,0,31,20.67H25.33A2.34,2.34,0,0,1,23,18.48a2.3,2.3,0,0,1,2.29-2.41H43.54a4.64,4.64,0,0,0,4.68-4.46,4.58,4.58,0,0,0-4.59-4.72H37.89a2.29,2.29,0,0,1-2.29-2.3V1.15A1.15,1.15,0,0,0,34.45,0h0A1.14,1.14,0,0,0,33.3,1.15V4.59a4.59,4.59,0,0,0,4.59,4.59h5.68a2.35,2.35,0,0,1,2.36,2.19,2.3,2.3,0,0,1-2.3,2.41H25.36a4.66,4.66,0,0,0-4.69,4.46A4.59,4.59,0,0,0,25.26,23H31a2.3,2.3,0,0,1,2.3,2.3v2.29H31.93a.93.93,0,0,0-.93.93v3.67H18.37a19.53,19.53,0,0,0-2,.11C8.43,33.11,1,40.51.12,48.43A18.37,18.37,0,0,0,28,66.13a11.27,11.27,0,0,1,5-1.78,18.3,18.3,0,0,1,2.67,0,11.45,11.45,0,0,1,5.12,1.8A18.38,18.38,0,0,0,68.78,48.42C67.9,40.51,60.47,33.11,52.55,32.26ZM33.71,29.85h1.48a.41.41,0,0,1,.41.41v1.48a.42.42,0,0,1-.41.41H33.71a.41.41,0,0,1-.41-.41V30.26A.41.41,0,0,1,33.71,29.85ZM62.5,61.23a16.05,16.05,0,0,1-20.42,3,13.62,13.62,0,0,0-6.16-2.14c-.49,0-1,0-1.47,0s-1,0-1.55.06a13.48,13.48,0,0,0-6.07,2.12A16.07,16.07,0,0,1,2.4,48.68c.76-6.8,7.39-13.4,14.19-14.13.6-.07,1.19-.1,1.78-.11H50.52a17.53,17.53,0,0,1,1.78.1c6.81.73,13.44,7.33,14.19,14.13A15.94,15.94,0,0,1,62.5,61.23Z"/><path class="cls-1" d="M50.52,48.22a4.59,4.59,0,1,0-4.59-4.59A4.59,4.59,0,0,0,50.52,48.22Zm0-6.89a2.3,2.3,0,1,1-2.29,2.3A2.3,2.3,0,0,1,50.52,41.33Z"/><path class="cls-1" d="M50.52,52.81a4.6,4.6,0,1,0,4.59,4.6A4.6,4.6,0,0,0,50.52,52.81Zm0,6.89a2.3,2.3,0,1,1,2.3-2.29A2.29,2.29,0,0,1,50.52,59.7Z"/><path class="cls-1" d="M42.49,45.92a4.6,4.6,0,1,0,4.59,4.6A4.6,4.6,0,0,0,42.49,45.92Zm0,6.89a2.3,2.3,0,1,1,2.29-2.29A2.29,2.29,0,0,1,42.49,52.81Z"/><path class="cls-1" d="M58.56,45.92a4.6,4.6,0,1,0,4.59,4.6A4.59,4.59,0,0,0,58.56,45.92Zm0,6.89a2.3,2.3,0,1,1,2.3-2.29A2.29,2.29,0,0,1,58.56,52.81Z"/></g></g></svg>