<svg xmlns="http://www.w3.org/2000/svg" viewBox="0 0 137.26 137.26"><defs><style>.cls-1{fill:#4d71bc;}.cls-2{font-size:11.96px;font-family:NunitoSans-BoldItalic, Nunito Sans;font-weight:700;font-style:italic;letter-spacing:0.12em;}.cls-2,.cls-3{fill:#fff;}</style></defs><title>Asset 36</title><g id="Layer_2" data-name="Layer 2"><g id="Game-Night_Icon"><rect id="Box" class="cls-1" width="137.26" height="137.26" rx="10" ry="10"/><g id="Text"><text class="cls-2" transform="translate(24.41 122.35)">GAME NIGHT</text></g><g id="Game-Night_Img"><path class="cls-3" d="M60.59,70.25H56V65.66a1.14,1.14,0,0,0-1.15-1.15H50.26a1.15,1.15,0,0,0-1.15,1.15v4.59H44.52a1.15,1.15,0,0,0-1.15,1.15V76a1.15,1.15,0,0,0,1.15,1.15h4.59v4.59a1.15,1.15,0,0,0,1.15,1.15h4.59A1.14,1.14,0,0,0,56,81.73V77.14h4.59A1.14,1.14,0,0,0,61.74,76V71.4A1.14,1.14,0,0,0,60.59,70.25Zm-1.14,4.59h-4.6A1.16,1.16,0,0,0,53.7,76v4.59H51.41V76a1.16,1.16,0,0,0-1.15-1.15H45.67V72.55h4.59a1.16,1.16,0,0,0,1.15-1.15V66.81H53.7V71.4a1.16,1.16,0,0,0,1.15,1.15h4.6Z"/><path class="cls-3" d="M86.73,55.44a19.57,19.57,0,0,0-2-.11H72.07V51.66a.93.93,0,0,0-.92-.93H69.78V48.44a4.6,4.6,0,0,0-4.59-4.6H59.51a2.34,2.34,0,0,1-2.36-2.18,2.3,2.3,0,0,1,2.3-2.41H77.72a4.66,4.66,0,0,0,4.69-4.46,4.59,4.59,0,0,0-4.59-4.72H72.07a2.3,2.3,0,0,1-2.29-2.3V24.33a1.15,1.15,0,0,0-1.15-1.15h0a1.15,1.15,0,0,0-1.15,1.15v3.44a4.59,4.59,0,0,0,4.59,4.59h5.68a2.34,2.34,0,0,1,2.36,2.19A2.3,2.3,0,0,1,77.82,37H59.54a4.66,4.66,0,0,0-4.69,4.46,4.6,4.6,0,0,0,4.6,4.72h5.74a2.3,2.3,0,0,1,2.29,2.3v2.29H66.12a.93.93,0,0,0-.93.93v3.67H52.56a17.15,17.15,0,0,0-2,.11c-7.92.85-15.35,8.25-16.23,16.16A18.37,18.37,0,0,0,62.22,89.31a11.32,11.32,0,0,1,5-1.78,18.3,18.3,0,0,1,2.67,0,11.29,11.29,0,0,1,5.12,1.8A18.37,18.37,0,0,0,103,71.6C102.08,63.69,94.65,56.28,86.73,55.44ZM67.89,53h1.48a.41.41,0,0,1,.41.41v1.47a.42.42,0,0,1-.41.42H67.89a.42.42,0,0,1-.41-.42V53.44A.41.41,0,0,1,67.89,53ZM96.68,84.41a16.06,16.06,0,0,1-20.42,3,13.46,13.46,0,0,0-6.16-2.14c-.49,0-1,0-1.47,0s-1,0-1.55.06A13.48,13.48,0,0,0,61,87.36a16.07,16.07,0,0,1-24.42-15.5c.75-6.8,7.38-13.41,14.19-14.14a17.53,17.53,0,0,1,1.78-.1H84.7a15.05,15.05,0,0,1,1.78.1c6.81.73,13.44,7.33,14.2,14.13A16,16,0,0,1,96.68,84.41Z"/><path class="cls-3" d="M84.7,71.4a4.6,4.6,0,1,0-4.59-4.59A4.6,4.6,0,0,0,84.7,71.4Zm0-6.89a2.3,2.3,0,1,1-2.29,2.3A2.3,2.3,0,0,1,84.7,64.51Z"/><path class="cls-3" d="M84.7,76a4.6,4.6,0,1,0,4.6,4.59A4.6,4.6,0,0,0,84.7,76Zm0,6.89a2.3,2.3,0,1,1,2.3-2.3A2.3,2.3,0,0,1,84.7,82.88Z"/><path class="cls-3" d="M76.67,69.1a4.6,4.6,0,1,0,4.59,4.59A4.6,4.6,0,0,0,76.67,69.1Zm0,6.89A2.3,2.3,0,1,1,79,73.69,2.3,2.3,0,0,1,76.67,76Z"/><path class="cls-3" d="M92.74,69.1a4.6,4.6,0,1,0,4.59,4.59A4.59,4.59,0,0,0,92.74,69.1Zm0,6.89a2.3,2.3,0,1,1,2.3-2.3A2.3,2.3,0,0,1,92.74,76Z"/></g></g></g></svg>