<svg xmlns="http://www.w3.org/2000/svg" viewBox="0 0 137.26 137.26">
    <defs>
        <style>
            .cls-1 {
                fill: #1ec4dc;
            }

            .cls-2 {
                font-size: 11.96px;
                font-family: NunitoSans-BoldItalic, Nunito Sans;
                font-weight: 700;
                font-style: italic;
                letter-spacing: 0.12em;
            }

            .cls-2,
            .cls-3 {
                fill: #fff;
            }
        </style>
    </defs>
    <title>Asset 35</title>
    <g id="Layer_2" data-name="Layer 2">
        <g id="Going-Out_Icon">
            <rect id="Box" class="cls-1" width="137.26" height="137.26" rx="10" ry="10" />
            <g id="Text"><text class="cls-2" transform="translate(29 121.4)">GOING OUT</text></g>
            <g id="Going-Out_Img">
                <path class="cls-3" d="M54,52.8a1.32,1.32,0,1,0-1.32-1.32A1.32,1.32,0,0,0,54,52.8Z" />
                <path class="cls-3"
                    d="M43.47,32.59l3.13,1.57,1.57,3.14a1.33,1.33,0,0,0,1.18.73h0a1.36,1.36,0,0,0,1.19-.73l1.56-3.14,3.14-1.57a1.32,1.32,0,0,0,0-2.36l-3.13-1.57-1.57-3.18a1.33,1.33,0,0,0-2.37,0L46.6,28.66l-3.13,1.57a1.32,1.32,0,0,0,0,2.36Zm4.71-1.76a1.34,1.34,0,0,0,.6-.6l.57-1.17.58,1.17a1.34,1.34,0,0,0,.6.6l1.16.58L50.53,32a1.37,1.37,0,0,0-.6.59l-.58,1.16-.58-1.16a1.35,1.35,0,0,0-.59-.59L47,31.41Z" />
                <path class="cls-3"
                    d="M84.92,35.17,90.25,37,92,42.27a1.32,1.32,0,0,0,2.51,0L96.31,37l5.32-1.78a1.32,1.32,0,0,0,0-2.51L96.3,30.88l-1.77-5.23a1.33,1.33,0,0,0-2.51,0l-1.77,5.23-5.33,1.78a1.32,1.32,0,0,0,0,2.51Zm6.79-2a1.37,1.37,0,0,0,.84-.84l.73-2.16L94,32.35a1.33,1.33,0,0,0,.83.84l2.19.73-2.19.72a1.36,1.36,0,0,0-.83.84l-.73,2.19-.73-2.19a1.35,1.35,0,0,0-.84-.84l-2.19-.72Z" />
                <path class="cls-3"
                    d="M40.81,64.71A27.8,27.8,0,0,0,68.6,92.5h.29a27.79,27.79,0,0,0,6.32-54.78V34.8a4,4,0,0,0-4-4H69.92V26.07a1.33,1.33,0,0,0-2.65,0v4.76H66a4,4,0,0,0-4,4v2.92a27.79,27.79,0,0,0-21.17,27ZM43.49,66h6.6a39.84,39.84,0,0,0,1.75,10.59H46.45a25.27,25.27,0,0,1-3-10.59ZM48.1,79.27h4.69a26.76,26.76,0,0,0,5.1,8.17,25.19,25.19,0,0,1-9.79-8.17ZM52.74,66h7.93a97.86,97.86,0,0,0,.68,10.59H54.62A36.43,36.43,0,0,1,52.74,66Zm2.93,13.24h6.06A36.54,36.54,0,0,0,64.46,89c-4-1.74-7-5.73-8.79-9.71ZM73.17,52.8a94.52,94.52,0,0,1,.71,10.59H63.31A94.52,94.52,0,0,1,64,52.8Zm-8.76-2.65c1.34-7.95,3.37-10.58,4.19-10.58s2.84,2.63,4.18,10.58ZM73.88,66a94.52,94.52,0,0,1-.71,10.59H64A94.52,94.52,0,0,1,63.31,66ZM68.6,89.85c-.82,0-2.85-2.63-4.19-10.59h8.37c-1.34,8-3.36,10.59-4.18,10.59ZM72.71,89a36.22,36.22,0,0,0,2.75-9.78h6c-1.79,4-4.64,8.09-8.7,9.78Zm3.82-25.65a97.62,97.62,0,0,0-.69-10.59h6.69a36.78,36.78,0,0,1,1.92,10.59ZM84.45,66a37.73,37.73,0,0,1-2,10.59H75.84A97.79,97.79,0,0,0,76.53,66ZM79.34,87.42a27,27,0,0,0,4.94-8.16H89.1a25.24,25.24,0,0,1-9.76,8.16Zm11.4-10.8h-5.5A40.67,40.67,0,0,0,87.1,66h6.6a25,25,0,0,1-3,10.59Zm3-13.23H87.1A40.13,40.13,0,0,0,85.32,52.8h5.42a24.94,24.94,0,0,1,3,10.59ZM89.1,50.15H84.37a26.7,26.7,0,0,0-5.09-8.21,25.34,25.34,0,0,1,9.82,8.21Zm-7.61,0h-6a36.24,36.24,0,0,0-2.73-9.72c4.06,1.73,7,5.7,8.76,9.72ZM64.63,34.8A1.32,1.32,0,0,1,66,33.48h5.29a1.33,1.33,0,0,1,1.33,1.32v2.4a28.16,28.16,0,0,0-7.94,0ZM58,41.92a24.57,24.57,0,0,0-3,4,1.33,1.33,0,0,0,2.26,1.39,16.86,16.86,0,0,1,7.27-6.85,36.61,36.61,0,0,0-2.73,9.72h-2.4a1.33,1.33,0,0,0,0,2.65h2a97.53,97.53,0,0,0-.68,10.59H52.74a40.33,40.33,0,0,1,.8-6.67A1.32,1.32,0,1,0,51,56.2a42.36,42.36,0,0,0-.86,7.19h-6.6a25.23,25.23,0,0,1,3-10.59h2.3a1.33,1.33,0,0,0,0-2.65H48.1A25.11,25.11,0,0,1,58,41.92Z" />
                <path class="cls-3"
                    d="M36,43.54h1.33v1.32a1.32,1.32,0,0,0,2.64,0V43.54h1.33a1.33,1.33,0,0,0,0-2.65H40V39.57a1.32,1.32,0,1,0-2.64,0v1.32H36a1.33,1.33,0,0,0,0,2.65Z" />
            </g>
        </g>
    </g>
</svg>