<?xml version="1.0" encoding="utf-8"?>
<!-- Generator: Adobe Illustrator 22.1.0, SVG Export Plug-In . SVG Version: 6.00 Build 0)  -->
<svg version="1.1" id="Layer_1" xmlns="http://www.w3.org/2000/svg" xmlns:xlink="http://www.w3.org/1999/xlink" x="0px" y="0px"
	 viewBox="0 0 137.3 137.3" style="enable-background:new 0 0 137.3 137.3;" xml:space="preserve">
<style type="text/css">
	.st0{fill:#1EC4DC;}
	.st1{fill:#FFFFFF;}
</style>
<g>
	<path class="st0" d="M10,0h117.3c5.5,0,10,4.5,10,10v117.3c0,5.5-4.5,10-10,10H10c-5.5,0-10-4.5-10-10V10C0,4.5,4.5,0,10,0z"/>
	<path class="st1" d="M33.9,116.8h3.2l-0.3,4c-0.4,0.2-0.8,0.4-1.4,0.5c-0.5,0.1-1.1,0.2-1.7,0.2c-0.8,0-1.5-0.2-2.1-0.5
		c-0.6-0.3-1-0.8-1.4-1.4s-0.5-1.3-0.5-2.1c0-0.9,0.2-1.8,0.5-2.5c0.4-0.7,0.9-1.2,1.5-1.6s1.4-0.6,2.3-0.6c1.2,0,2.2,0.3,3,1
		l-0.6,1.1c-0.4-0.3-0.8-0.5-1.1-0.7c-0.4-0.1-0.8-0.2-1.3-0.2c-0.9,0-1.6,0.3-2.1,0.9c-0.5,0.6-0.7,1.4-0.7,2.5
		c0,0.9,0.2,1.6,0.6,2.1c0.4,0.5,1.1,0.7,1.9,0.7c0.5,0,1-0.1,1.6-0.2l0.2-2.1h-1.8L33.9,116.8z"/>
	<path class="st1" d="M41.8,121c-0.6-0.3-1.1-0.8-1.4-1.4c-0.3-0.6-0.5-1.3-0.5-2.1c0-0.9,0.2-1.7,0.5-2.4c0.3-0.7,0.8-1.2,1.4-1.6
		c0.6-0.4,1.3-0.6,2.2-0.6c0.8,0,1.5,0.2,2.1,0.5c0.6,0.3,1.1,0.8,1.4,1.4c0.3,0.6,0.5,1.3,0.5,2.1c0,0.9-0.2,1.7-0.5,2.4
		c-0.3,0.7-0.8,1.2-1.4,1.6c-0.6,0.4-1.3,0.6-2.2,0.6C43.1,121.5,42.4,121.3,41.8,121z M45.7,119.4c0.5-0.6,0.7-1.4,0.7-2.5
		c0-0.9-0.2-1.6-0.6-2.1c-0.4-0.5-1-0.7-1.8-0.7c-0.8,0-1.4,0.3-1.9,0.9c-0.5,0.6-0.7,1.4-0.7,2.5c0,0.9,0.2,1.6,0.6,2.1
		s1,0.7,1.8,0.7C44.7,120.3,45.3,120,45.7,119.4z"/>
	<polygon class="st1" points="50.6,121.4 51.3,113 52.8,113 52.2,121.4 	"/>
	<polygon class="st1" points="61.7,113 63.2,113 62.5,121.4 61.4,121.4 57.3,115.6 56.8,121.4 55.4,121.4 56.1,113 57.2,113 
		61.3,118.8 	"/>
	<path class="st1" d="M70,116.8h3.2l-0.3,4c-0.4,0.2-0.8,0.4-1.4,0.5c-0.5,0.1-1.1,0.2-1.7,0.2c-0.8,0-1.5-0.2-2.1-0.5
		c-0.6-0.3-1-0.8-1.4-1.4s-0.5-1.3-0.5-2.1c0-0.9,0.2-1.8,0.5-2.5c0.4-0.7,0.9-1.2,1.5-1.6s1.4-0.6,2.3-0.6c1.2,0,2.2,0.3,3,1
		l-0.6,1.1c-0.4-0.3-0.8-0.5-1.1-0.7c-0.4-0.1-0.8-0.2-1.3-0.2c-0.9,0-1.6,0.3-2.1,0.9c-0.5,0.6-0.7,1.4-0.7,2.5
		c0,0.9,0.2,1.6,0.6,2.1c0.4,0.5,1.1,0.7,1.9,0.7c0.5,0,1-0.1,1.6-0.2l0.2-2.1h-1.8L70,116.8z"/>
	<path class="st1" d="M82.5,121c-0.6-0.3-1.1-0.8-1.4-1.4c-0.3-0.6-0.5-1.3-0.5-2.1c0-0.9,0.2-1.7,0.5-2.4s0.8-1.2,1.4-1.6
		c0.6-0.4,1.3-0.6,2.2-0.6c0.8,0,1.5,0.2,2.1,0.5c0.6,0.3,1.1,0.8,1.4,1.4c0.3,0.6,0.5,1.3,0.5,2.1c0,0.9-0.2,1.7-0.5,2.4
		c-0.3,0.7-0.8,1.2-1.4,1.6c-0.6,0.4-1.3,0.6-2.2,0.6C83.8,121.5,83.1,121.3,82.5,121z M86.5,119.4c0.5-0.6,0.7-1.4,0.7-2.5
		c0-0.9-0.2-1.6-0.6-2.1c-0.4-0.5-1-0.7-1.8-0.7c-0.8,0-1.4,0.3-1.9,0.9c-0.5,0.6-0.7,1.4-0.7,2.5c0,0.9,0.2,1.6,0.6,2.1
		s1,0.7,1.8,0.7C85.4,120.3,86,120,86.5,119.4z"/>
	<path class="st1" d="M92.4,120.7c-0.6-0.5-0.9-1.3-0.9-2.3c0-0.1,0-0.3,0-0.5L92,113h1.5l-0.4,5c0,0.1,0,0.2,0,0.4
		c0,0.7,0.2,1.2,0.5,1.5c0.3,0.3,0.8,0.5,1.5,0.5c0.6,0,1.1-0.2,1.5-0.5s0.6-0.9,0.6-1.6l0.4-5.2H99l-0.4,5c-0.1,1.2-0.4,2-1.1,2.6
		s-1.5,0.9-2.6,0.9C93.8,121.5,93,121.2,92.4,120.7z"/>
	<polygon class="st1" points="103.5,121.4 104.1,114.2 101.3,114.2 101.4,113 108.5,113 108.4,114.2 105.6,114.2 105.1,121.4 	"/>
	<circle class="st1" cx="54" cy="51.5" r="1.3"/>
	<path class="st1" d="M43.5,32.6l3.1,1.6l1.6,3.1c0.2,0.4,0.7,0.7,1.2,0.7c0.5,0,1-0.3,1.2-0.7l1.6-3.1l3.1-1.6
		c0.7-0.3,0.9-1.1,0.6-1.8c-0.1-0.3-0.3-0.5-0.6-0.6l-3.1-1.6l-1.6-3.2c-0.3-0.7-1.1-0.9-1.8-0.6c-0.3,0.1-0.5,0.3-0.6,0.6l-1.6,3.2
		l-3.1,1.6c-0.7,0.3-0.9,1.1-0.6,1.8C43,32.3,43.2,32.5,43.5,32.6z M48.2,30.8c0.3-0.1,0.5-0.3,0.6-0.6l0.6-1.2l0.6,1.2
		c0.1,0.3,0.3,0.5,0.6,0.6l1.2,0.6L50.5,32c-0.3,0.1-0.5,0.3-0.6,0.6l-0.6,1.2l-0.6-1.2c-0.1-0.3-0.3-0.5-0.6-0.6L47,31.4L48.2,30.8
		z"/>
	<path class="st1" d="M84.9,35.2l5.3,1.8l1.8,5.3c0.2,0.7,1,1.1,1.7,0.8c0.4-0.1,0.7-0.4,0.8-0.8l1.8-5.3l5.3-1.8
		c0.7-0.2,1.1-1,0.8-1.7c-0.1-0.4-0.4-0.7-0.8-0.8l-5.3-1.8l-1.8-5.2c-0.2-0.7-1-1.1-1.7-0.8c-0.4,0.1-0.7,0.4-0.8,0.8l-1.8,5.2
		l-5.3,1.8c-0.7,0.2-1.1,1-0.8,1.7C84.2,34.7,84.5,35,84.9,35.2z M91.7,33.2c0.4-0.1,0.7-0.4,0.8-0.8l0.7-2.2l0.7,2.2
		c0.1,0.4,0.4,0.7,0.8,0.8l2.2,0.7l-2.2,0.7c-0.4,0.1-0.7,0.4-0.8,0.8l-0.7,2.2l-0.7-2.2c-0.1-0.4-0.4-0.7-0.8-0.8l-2.2-0.7
		L91.7,33.2z"/>
	<path class="st1" d="M40.8,64.7c0,15.3,12.4,27.8,27.8,27.8h0.3c15.3-0.2,27.7-12.7,27.5-28.1c-0.1-12.7-8.8-23.7-21.2-26.7v-2.9
		c0-2.2-1.8-4-4-4h-1.3v-4.7c-0.1-0.7-0.7-1.3-1.4-1.2c-0.6,0.1-1.2,0.6-1.2,1.2v4.8H66c-2.2,0-4,1.8-4,4v2.9
		C49.6,40.8,40.8,51.9,40.8,64.7L40.8,64.7z M43.5,66h6.6c0.1,3.6,0.7,7.2,1.8,10.6h-5.4C44.7,73.3,43.7,69.7,43.5,66L43.5,66z
		 M48.1,79.3h4.7c1.2,3,2.9,5.8,5.1,8.2C54,85.6,50.6,82.8,48.1,79.3z M52.7,66h7.9c0,3.5,0.3,7.1,0.7,10.6h-6.7
		C53.5,73.2,52.8,69.6,52.7,66z M55.7,79.2h6.1c0.5,3.4,1.4,6.6,2.7,9.8C60.5,87.3,57.5,83.3,55.7,79.2L55.7,79.2z M73.2,52.8
		c0.4,3.5,0.7,7,0.7,10.6H63.3c0-3.5,0.3-7.1,0.7-10.6H73.2z M64.4,50.1c1.3-7.9,3.4-10.6,4.2-10.6c0.8,0,2.8,2.6,4.2,10.6H64.4z
		 M73.9,66c0,3.5-0.3,7.1-0.7,10.6H64c-0.4-3.5-0.7-7-0.7-10.6H73.9z M68.6,89.8c-0.8,0-2.9-2.6-4.2-10.6h8.4
		C71.4,87.3,69.4,89.8,68.6,89.8z M72.7,89c1.4-3.1,2.3-6.4,2.8-9.8h6C79.7,83.2,76.8,87.3,72.7,89L72.7,89z M76.5,63.4
		c0-3.5-0.3-7.1-0.7-10.6h6.7c1.2,3.4,1.8,7,1.9,10.6H76.5z M84.5,66c-0.2,3.6-0.8,7.2-2,10.6h-6.6c0.4-3.5,0.7-7,0.7-10.6H84.5z
		 M79.3,87.4c2.1-2.4,3.8-5.2,4.9-8.2h4.8C86.6,82.8,83.2,85.6,79.3,87.4z M90.7,76.6h-5.5c1.1-3.4,1.7-7,1.9-10.6h6.6
		C93.5,69.7,92.5,73.3,90.7,76.6L90.7,76.6z M93.7,63.4h-6.6c-0.1-3.6-0.7-7.2-1.8-10.6h5.4C92.5,56.1,93.5,59.7,93.7,63.4z
		 M89.1,50.1h-4.7c-1.2-3-2.9-5.8-5.1-8.2C83.2,43.8,86.6,46.6,89.1,50.1z M81.5,50.1h-6c-0.5-3.4-1.4-6.6-2.7-9.7
		C76.8,42.2,79.8,46.1,81.5,50.1L81.5,50.1z M64.6,34.8c0-0.7,0.6-1.3,1.3-1.3l0.1,0h5.3c0.7,0,1.3,0.6,1.3,1.3v2.4
		c-2.6-0.4-5.3-0.4-7.9,0L64.6,34.8z M58,41.9c-1.1,1.2-2.1,2.6-3,4c-0.3,0.7-0.1,1.5,0.6,1.8c0.6,0.3,1.3,0.1,1.7-0.4
		c1.7-3,4.2-5.4,7.3-6.9c-1.4,3.1-2.3,6.4-2.7,9.7h-2.4c-0.7,0.1-1.3,0.7-1.2,1.4c0.1,0.6,0.6,1.2,1.2,1.2h2
		c-0.4,3.5-0.6,7.1-0.7,10.6h-8c0.1-2.2,0.3-4.5,0.8-6.7c0.3-0.7,0-1.4-0.7-1.7c-0.7-0.3-1.4,0-1.7,0.7C51,55.9,51,56,51,56.2
		c-0.5,2.4-0.8,4.8-0.9,7.2h-6.6c0.2-3.7,1.2-7.3,3-10.6h2.3c0.7-0.1,1.3-0.7,1.2-1.4c-0.1-0.6-0.6-1.2-1.2-1.2h-0.7
		C50.6,46.6,54,43.8,58,41.9z"/>
	<path class="st1" d="M36,43.5h1.3v1.3c0,0.7,0.6,1.3,1.3,1.3c0.7,0,1.3-0.6,1.3-1.3v-1.3h1.3c0.7-0.1,1.3-0.7,1.2-1.4
		c-0.1-0.6-0.6-1.2-1.2-1.2H40v-1.3c0-0.7-0.6-1.3-1.3-1.3s-1.3,0.6-1.3,1.3v0v1.3H36c-0.7,0.1-1.3,0.7-1.2,1.4
		C34.8,43,35.4,43.5,36,43.5z"/>
</g>
</svg>
