<svg xmlns="http://www.w3.org/2000/svg" viewBox="0 0 137.26 137.26"><defs><style>.cls-1{fill:#1ec4dc;}.cls-2{font-size:11.96px;font-family:NunitoSans-BoldItalic, Nunito Sans;font-weight:700;font-style:italic;letter-spacing:0.12em;}.cls-2,.cls-5{fill:#fff;}.cls-3{letter-spacing:0.12em;}.cls-4{letter-spacing:0.12em;}</style></defs><title>Asset 37</title><g id="Layer_2" data-name="Layer 2"><g id="Happy_Icon"><rect id="Box" class="cls-1" width="137.26" height="137.26" rx="10" ry="10"/><g id="Text"><text class="cls-2" transform="translate(45.14 121.82)">HAP<tspan class="cls-3" x="30.23" y="0">P</tspan><tspan class="cls-4" x="39.53" y="0">Y</tspan></text></g><g id="Happy_Img"><path class="cls-5" d="M83.09,39.34a1.81,1.81,0,0,1-.47-3.56l.07,0a1.81,1.81,0,1,1,.92,3.5h0a1.59,1.59,0,0,1-.48.07Z"/><path class="cls-5" d="M95.29,56.73a4.93,4.93,0,0,1-2.47-.67,5,5,0,0,1-2.32-3A1.81,1.81,0,1,1,94,52.1a1.36,1.36,0,0,0,1.65,1,1.37,1.37,0,0,0,.82-.63,1.3,1.3,0,0,0,.13-1,1.82,1.82,0,0,1,1.29-2.22,1.8,1.8,0,0,1,2.21,1.28,4.95,4.95,0,0,1-3.51,6.08,4.8,4.8,0,0,1-1.3.18Z"/><path class="cls-5" d="M79.63,60.92a5,5,0,0,1-4.8-3.68A1.82,1.82,0,0,1,76.12,55a1.8,1.8,0,0,1,2.21,1.28,1.37,1.37,0,0,0,.63.82,1.3,1.3,0,0,0,1,.13,1.32,1.32,0,0,0,.82-.62,1.38,1.38,0,0,0,.14-1,1.81,1.81,0,0,1,3.5-.93,5,5,0,0,1-.5,3.77,4.92,4.92,0,0,1-3,2.31,4.77,4.77,0,0,1-1.29.17Z"/><path class="cls-5" d="M90.54,72.79a7.47,7.47,0,0,1-3.72-1,7.36,7.36,0,0,1-3.46-4.52,1.81,1.81,0,1,1,3.5-.94,3.75,3.75,0,0,0,1.78,2.32,3.81,3.81,0,0,0,5.6-4.3,1.81,1.81,0,1,1,3.5-.93,7.45,7.45,0,0,1-5.27,9.11,7.12,7.12,0,0,1-1.93.26Z"/><path class="cls-5" d="M114.12,54a25.69,25.69,0,0,0-23.3-19,1.81,1.81,0,1,0-.22,3.62A22.09,22.09,0,0,1,95,82a21.68,21.68,0,0,1-5.68.75,22.2,22.2,0,0,1-18.6-10.09,25.69,25.69,0,0,0,0-24A22,22,0,0,1,77.46,42a1.82,1.82,0,0,0-1.94-3.07,25.91,25.91,0,0,0-6.9,6.43,25.71,25.71,0,1,0,0,30.62,25.94,25.94,0,0,0,10.83,8.45,25.49,25.49,0,0,0,16.48,1.07A25.75,25.75,0,0,0,114.12,54ZM48,82.71A22.09,22.09,0,1,1,70.07,60.62,22.12,22.12,0,0,1,48,82.71Z"/><path class="cls-5" d="M43,58.59a1.82,1.82,0,0,1-1.82-1.81,1.35,1.35,0,1,0-2.69,0,1.81,1.81,0,0,1-3.62,0,5,5,0,0,1,9.94,0A1.81,1.81,0,0,1,43,58.59Z"/><path class="cls-5" d="M59.25,58.59a1.82,1.82,0,0,1-1.82-1.81,1.35,1.35,0,1,0-2.69,0,1.81,1.81,0,0,1-3.62,0,5,5,0,0,1,9.94,0,1.81,1.81,0,0,1-1.81,1.81Z"/><path class="cls-5" d="M48,73a7.45,7.45,0,0,1-7.45-7.44,1.81,1.81,0,1,1,3.62,0,3.83,3.83,0,0,0,7.65,0,1.81,1.81,0,1,1,3.62,0A7.45,7.45,0,0,1,48,73Z"/></g></g></g></svg>