<svg xmlns="http://www.w3.org/2000/svg" viewBox="0 0 83.4 46.26"><defs><style>.cls-1{fill:#fff;}</style></defs><title>happy</title><g id="Layer_2" data-name="Layer 2"><g id="Graphics"><path class="cls-1" d="M54.71,4A1.64,1.64,0,0,1,54.28.78h.07a1.63,1.63,0,1,1,.82,3.15h0a1.52,1.52,0,0,1-.42.06Z"/><path class="cls-1" d="M65.68,19.62a4.47,4.47,0,0,1-4.31-3.31,1.63,1.63,0,1,1,3.15-.84,1.21,1.21,0,0,0,1.48.85,1.2,1.2,0,0,0,.74-.56,1.23,1.23,0,0,0,.12-.92A1.63,1.63,0,1,1,70,14a4.47,4.47,0,0,1-3.16,5.47,4.69,4.69,0,0,1-1.17.15Z"/><path class="cls-1" d="M51.59,23.4a4.46,4.46,0,0,1-4.31-3.32,1.63,1.63,0,0,1,3.15-.84,1.2,1.2,0,0,0,1.48.86,1.25,1.25,0,0,0,.74-.57,1.23,1.23,0,0,0,.12-.92,1.63,1.63,0,0,1,3.15-.84,4.46,4.46,0,0,1-.45,3.39,4.39,4.39,0,0,1-2.72,2.08,4.16,4.16,0,0,1-1.16.16Z"/><path class="cls-1" d="M61.4,34.07a6.71,6.71,0,0,1-6.46-5,1.64,1.64,0,0,1,1.16-2,1.62,1.62,0,0,1,2,1.15,3.44,3.44,0,0,0,1.6,2.09,3.4,3.4,0,0,0,2.61.34,3.44,3.44,0,0,0,2.43-4.21,1.63,1.63,0,0,1,3.15-.84,6.7,6.7,0,0,1-4.74,8.2,6.45,6.45,0,0,1-1.74.23Z"/><path class="cls-1" d="M82.61,17.14A23.1,23.1,0,0,0,61.66,0a1.63,1.63,0,1,0-.2,3.25,19.87,19.87,0,0,1,3.95,39,19.37,19.37,0,0,1-5.1.67,20,20,0,0,1-16.73-9.07,23.1,23.1,0,0,0,0-21.56,20,20,0,0,1,6.06-6A1.63,1.63,0,0,0,47.9,3.58a23.21,23.21,0,0,0-6.21,5.77,23.12,23.12,0,1,0,0,27.54,23.37,23.37,0,0,0,9.74,7.61,23,23,0,0,0,8.8,1.76A23.16,23.16,0,0,0,82.61,17.14ZM23.13,43A19.87,19.87,0,1,1,43,23.13,19.89,19.89,0,0,1,23.13,43Z"/><path class="cls-1" d="M18.67,21.3A1.63,1.63,0,0,1,17,19.67a1.21,1.21,0,1,0-2.42,0,1.63,1.63,0,1,1-3.26,0,4.47,4.47,0,0,1,8.94,0,1.63,1.63,0,0,1-1.63,1.63Z"/><path class="cls-1" d="M33.26,21.3a1.63,1.63,0,0,1-1.63-1.63,1.21,1.21,0,1,0-2.42,0,1.63,1.63,0,0,1-3.26,0,4.47,4.47,0,1,1,8.94,0,1.63,1.63,0,0,1-1.63,1.63Z"/><path class="cls-1" d="M23.13,34.22a6.7,6.7,0,0,1-6.7-6.69,1.63,1.63,0,0,1,3.26,0,3.44,3.44,0,1,0,6.87,0,1.63,1.63,0,1,1,3.26,0,6.7,6.7,0,0,1-6.69,6.69Z"/></g></g></svg>