<?xml version="1.0" encoding="utf-8"?>
<!-- Generator: Adobe Illustrator 22.1.0, SVG Export Plug-In . SVG Version: 6.00 Build 0)  -->
<svg version="1.1" id="Layer_1" xmlns="http://www.w3.org/2000/svg" xmlns:xlink="http://www.w3.org/1999/xlink" x="0px" y="0px"
	 viewBox="0 0 137.3 137.3" style="enable-background:new 0 0 137.3 137.3;" xml:space="preserve">
<style type="text/css">
	.st0{fill:#1EC4DC;}
	.st1{fill:#FFFFFF;}
</style>
<g>
	<path class="st0" d="M10,0h117.3c5.5,0,10,4.5,10,10v117.3c0,5.5-4.5,10-10,10H10c-5.5,0-10-4.5-10-10V10C0,4.5,4.5,0,10,0z"/>
	<polygon class="st1" points="52.3,113.4 53.8,113.4 53.2,121.8 51.6,121.8 51.9,118.2 47.6,118.2 47.3,121.8 45.8,121.8 
		46.5,113.4 48,113.4 47.7,116.9 52,116.9 	"/>
	<path class="st1" d="M62.9,121.8l-0.7-2h-4.1l-1,2h-1.6l4.5-8.4h1.3l3.2,8.4H62.9z M58.7,118.7h3.1l-1.3-3.6L58.7,118.7z"/>
	<path class="st1" d="M73,114c0.5,0.4,0.7,1,0.7,1.8c0,0.9-0.3,1.6-0.8,2s-1.3,0.7-2.2,0.7h-2.2l-0.3,3.3h-1.5l0.7-8.4h3.6
		C71.8,113.4,72.5,113.6,73,114z M72.3,115.9c0-0.9-0.5-1.3-1.5-1.3h-1.9l-0.2,2.8h1.9C71.7,117.4,72.3,116.9,72.3,115.9z"/>
	<path class="st1" d="M82.3,114c0.5,0.4,0.7,1,0.7,1.8c0,0.9-0.3,1.6-0.8,2s-1.3,0.7-2.2,0.7h-2.2l-0.3,3.3h-1.5l0.7-8.4h3.6
		C81.2,113.4,81.9,113.6,82.3,114z M81.6,115.9c0-0.9-0.5-1.3-1.5-1.3h-2l-0.2,2.8h1.9C81,117.4,81.6,116.9,81.6,115.9z"/>
	<polygon class="st1" points="93,113.4 89.3,117.9 88.9,121.8 87.4,121.8 87.7,117.9 84.6,113.4 86.4,113.4 88.5,116.7 91.2,113.4 	
		"/>
	<path class="st1" d="M83.1,39.3c-1,0-1.8-0.8-1.8-1.8c0-0.8,0.5-1.5,1.3-1.8h0.1c1-0.3,2,0.3,2.2,1.2c0.3,1-0.3,2-1.2,2.2l-0.1,0
		C83.5,39.3,83.3,39.4,83.1,39.3L83.1,39.3z"/>
	<path class="st1" d="M95.3,56.7c-0.9,0-1.7-0.2-2.5-0.7c-1.1-0.7-2-1.7-2.3-3c-0.3-1,0.3-2,1.3-2.2c1-0.3,2,0.3,2.2,1.3
		c0.2,0.7,0.9,1.2,1.6,1l0,0c0.3-0.1,0.6-0.3,0.8-0.6c0.2-0.3,0.2-0.7,0.1-1c-0.3-1,0.3-2,1.3-2.2c1-0.3,1.9,0.3,2.2,1.3l0,0
		c0.7,2.6-0.8,5.4-3.5,6.1l0,0C96.2,56.7,95.7,56.8,95.3,56.7L95.3,56.7z"/>
	<path class="st1" d="M79.6,60.9c-2.2,0-4.2-1.5-4.8-3.7c-0.3-1,0.3-2,1.3-2.2l0,0c1-0.3,1.9,0.3,2.2,1.3l0,0
		c0.1,0.3,0.3,0.6,0.6,0.8c0.3,0.2,0.7,0.2,1,0.1c0.3-0.1,0.6-0.3,0.8-0.6c0.2-0.3,0.2-0.7,0.1-1c-0.3-1,0.3-2,1.3-2.2
		s2,0.3,2.2,1.3c0.3,1.3,0.2,2.6-0.5,3.8c-0.7,1.1-1.7,2-3,2.3C80.5,60.9,80.1,60.9,79.6,60.9L79.6,60.9z"/>
	<path class="st1" d="M90.5,72.8c-1.3,0-2.6-0.3-3.7-1c-1.7-1-3-2.6-3.5-4.5c-0.3-1,0.3-2,1.3-2.2c1-0.3,2,0.3,2.2,1.3
		c0.3,1,0.9,1.8,1.8,2.3c1.8,1.1,4.1,0.5,5.2-1.4c0.5-0.9,0.7-1.9,0.4-2.9c-0.3-1,0.3-2,1.3-2.2c1-0.3,2,0.3,2.2,1.3
		c1.1,4-1.3,8-5.3,9.1C91.8,72.7,91.2,72.8,90.5,72.8z"/>
	<path class="st1" d="M114.1,54c-2.9-10.7-12.3-18.3-23.3-19c-1-0.1-1.9,0.7-1.9,1.7c-0.1,1,0.7,1.9,1.7,1.9
		c12.2,0.7,21.4,11.2,20.7,23.4c-0.6,9.5-7.1,17.5-16.3,20c-1.9,0.5-3.8,0.8-5.7,0.8c-7.5,0-14.5-3.8-18.6-10.1c4-7.5,4-16.5,0-24
		c1.7-2.7,4-5,6.7-6.7c0.8-0.6,1-1.7,0.4-2.5c-0.5-0.7-1.5-1-2.3-0.5c-2.7,1.7-5,3.9-6.9,6.4C60.2,34,44.1,31.6,32.7,40
		c-11.4,8.5-13.8,24.6-5.3,36c8.5,11.4,24.6,13.8,36,5.3c2-1.5,3.8-3.3,5.3-5.3c2.8,3.7,6.5,6.7,10.8,8.4c5.2,2.2,11,2.6,16.5,1.1
		C109.6,81.8,117.8,67.7,114.1,54z M48,82.7c-12.2,0-22.1-9.9-22.1-22.1c0-12.2,9.9-22.1,22.1-22.1c12.2,0,22.1,9.9,22.1,22.1v0
		C70.1,72.8,60.2,82.7,48,82.7z"/>
	<path class="st1" d="M43,58.6c-1,0-1.8-0.8-1.8-1.8c0.1-0.7-0.5-1.4-1.2-1.5s-1.4,0.5-1.5,1.2v0.2c0,1-0.8,1.8-1.8,1.8
		c-1,0-1.8-0.8-1.8-1.8c0.3-2.7,2.8-4.7,5.5-4.4c2.3,0.3,4.2,2.1,4.4,4.4C44.8,57.8,44,58.6,43,58.6z"/>
	<path class="st1" d="M59.3,58.6c-1,0-1.8-0.8-1.8-1.8c0.1-0.7-0.5-1.4-1.2-1.5s-1.4,0.5-1.5,1.2v0.2c0,1-0.8,1.8-1.8,1.8
		c-1,0-1.8-0.8-1.8-1.8c0.3-2.7,2.8-4.7,5.5-4.4c2.3,0.3,4.2,2.1,4.4,4.4C61.1,57.8,60.2,58.6,59.3,58.6z"/>
	<path class="st1" d="M48,73c-4.1,0-7.4-3.3-7.5-7.4c0-1,0.8-1.8,1.8-1.8c1,0,1.8,0.8,1.8,1.8v0c0.1,2.1,1.9,3.7,4,3.6
		c2-0.1,3.5-1.7,3.6-3.6c0-1,0.8-1.8,1.8-1.8c1,0,1.8,0.8,1.8,1.8v0C55.4,69.7,52.1,73,48,73z"/>
</g>
</svg>
