<?xml version="1.0" encoding="utf-8"?>
<!-- Generator: Adobe Illustrator 22.1.0, SVG Export Plug-In . SVG Version: 6.00 Build 0)  -->
<svg version="1.1" id="Layer_1" xmlns="http://www.w3.org/2000/svg" xmlns:xlink="http://www.w3.org/1999/xlink" x="0px" y="0px"
	 viewBox="0 0 258.5 80.3" style="enable-background:new 0 0 258.5 80.3;" xml:space="preserve">
<style type="text/css">
	.st0{fill:#451380;}
	.st1{fill:#FFFFFF;}
</style>
<g>
	<path class="st0" d="M8.8,0h241c4.8,0,8.8,3.9,8.8,8.8v62.8c0,4.8-3.9,8.8-8.8,8.8H8.8c-4.8,0-8.8-3.9-8.8-8.8V8.8
		C0,3.9,3.9,0,8.8,0z"/>
	<polygon class="st1" points="64.1,33.6 66.1,33.6 65.2,44.7 63.2,44.7 63.6,39.9 57.9,39.9 57.6,44.7 55.6,44.7 56.4,33.6 
		58.4,33.6 58.1,38.3 63.7,38.3 	"/>
	<path class="st1" d="M78,44.7l-0.9-2.6h-5.4l-1.3,2.6h-2.1l5.9-11.1h1.7L80,44.7H78z M72.5,40.6h4.1l-1.7-4.7L72.5,40.6z"/>
	<path class="st1" d="M90.2,40.5c0.2,0.2,0.4,0.5,0.5,0.8l1.6,3.4h-2.2l-1.7-3.5c-0.2-0.3-0.4-0.6-0.6-0.7c-0.2-0.1-0.6-0.2-1-0.2
		h-1.5l-0.3,4.5h-2l0.9-11.1h4.9c1.1,0,2,0.3,2.7,0.8c0.6,0.5,0.9,1.3,0.9,2.3c0,2-1,3.1-3,3.4C89.8,40.2,90,40.3,90.2,40.5z
		 M88.4,38.7c1.5,0,2.2-0.6,2.2-1.9c0-0.6-0.2-1-0.5-1.2c-0.3-0.3-0.8-0.4-1.4-0.4h-2.8l-0.3,3.5H88.4z"/>
	<path class="st1" d="M96.8,33.6h4.1c1.1,0,2.1,0.2,2.9,0.6s1.4,1,1.8,1.8c0.4,0.8,0.6,1.7,0.6,2.8c0,1.2-0.2,2.3-0.7,3.2
		c-0.5,0.9-1.1,1.6-2,2s-2,0.7-3.2,0.7h-4.3L96.8,33.6z M100.1,43.1c2.7,0,4-1.4,4-4.3c0-1.1-0.3-2-0.9-2.6s-1.5-0.9-2.6-0.9h-1.9
		l-0.6,7.8H100.1z"/>
	<path class="st1" d="M118.5,43.1h4.9l-0.1,1.6h-7.5l0.1-1.5l4.1-4c0.5-0.5,0.9-1,1.1-1.4c0.2-0.4,0.4-0.8,0.4-1.2
		c0-0.5-0.1-0.8-0.4-1c-0.3-0.2-0.7-0.4-1.2-0.4c-1,0-2,0.4-3.1,1.1l-0.6-1.5c0.5-0.4,1.1-0.7,1.7-0.9c0.6-0.2,1.3-0.3,2.1-0.3
		c1.1,0,1.9,0.3,2.5,0.8s0.9,1.3,0.9,2.2c0,0.6-0.2,1.2-0.5,1.8s-0.9,1.2-1.6,2L118.5,43.1z"/>
	<path class="st1" d="M133.5,38c0.5,0.3,0.9,0.7,1.2,1.1c0.3,0.5,0.4,1.1,0.4,1.7c0,0.8-0.2,1.5-0.5,2.1c-0.3,0.6-0.8,1.1-1.5,1.4
		c-0.6,0.3-1.4,0.5-2.2,0.5c-0.7,0-1.4-0.1-2.1-0.3c-0.7-0.2-1.2-0.5-1.7-1l0.8-1.5c0.9,0.8,1.9,1.1,3.1,1.1c0.7,0,1.2-0.2,1.6-0.6
		c0.4-0.4,0.6-0.9,0.6-1.6c0-0.6-0.2-1-0.5-1.4s-0.8-0.5-1.5-0.5c-0.9,0-1.7,0.3-2.3,0.9h-1.2l0.5-6.5h6.9l-0.1,1.6h-5l-0.2,2.9
		c0.6-0.3,1.2-0.5,1.9-0.5C132.4,37.6,133,37.8,133.5,38z"/>
	<path class="st1" d="M139.3,39.5c-0.5-0.5-0.7-1.3-0.7-2.3c0-1.2,0.3-2.1,0.8-2.7c0.5-0.7,1.2-1,2.1-1c0.9,0,1.6,0.3,2,0.8
		c0.5,0.5,0.7,1.3,0.7,2.3c0,1.2-0.3,2.1-0.8,2.7c-0.5,0.7-1.2,1-2.1,1C140.5,40.2,139.8,40,139.3,39.5z M142.3,38.3
		c0.2-0.5,0.3-1.1,0.3-2c0-0.5-0.1-0.9-0.3-1.2c-0.2-0.3-0.4-0.4-0.8-0.4c-0.8,0-1.2,0.9-1.2,2.6c0,0.6,0.1,1,0.3,1.2
		s0.4,0.4,0.8,0.4C141.7,39,142,38.7,142.3,38.3z M142.1,45.2l-1.2-0.8l7.3-11.2l1.2,0.8L142.1,45.2z M146.8,44.1
		c-0.5-0.5-0.7-1.3-0.7-2.3c0-1.2,0.3-2.1,0.8-2.7c0.5-0.7,1.2-1,2.1-1c0.9,0,1.6,0.3,2,0.8c0.5,0.5,0.7,1.3,0.7,2.3
		c0,1.2-0.3,2.1-0.8,2.8c-0.5,0.7-1.2,1-2.1,1C148,44.8,147.3,44.6,146.8,44.1z M149.8,42.9c0.2-0.5,0.3-1.1,0.3-2
		c0-0.5-0.1-1-0.3-1.2c-0.2-0.3-0.5-0.4-0.8-0.4c-0.8,0-1.2,0.9-1.2,2.6c0,0.6,0.1,1,0.3,1.2c0.2,0.3,0.4,0.4,0.8,0.4
		C149.3,43.6,149.6,43.3,149.8,42.9z"/>
	<polygon class="st1" points="163,39.5 162.9,40.9 159.8,40.9 159.5,44.1 158.1,44.1 158.4,40.9 155.2,40.9 155.3,39.5 158.5,39.5 
		158.7,36.4 160.1,36.4 159.9,39.5 	"/>
	<path class="st1" d="M178.7,37.5c0.5,0.5,0.7,1.2,0.7,2.1c0,0.2,0,0.4,0,0.5l-0.4,4.6h-1.9l0.1-1.1c-0.2,0.4-0.5,0.7-0.9,0.9
		s-0.8,0.3-1.3,0.3c-0.5,0-1-0.1-1.4-0.3c-0.4-0.2-0.7-0.5-0.9-0.8c-0.2-0.3-0.3-0.7-0.3-1.2c0-0.6,0.1-1.1,0.4-1.4
		c0.3-0.4,0.8-0.6,1.4-0.8s1.5-0.2,2.6-0.2h0.6l0-0.3c0-0.5-0.1-0.9-0.3-1.2s-0.6-0.4-1.2-0.4c-0.4,0-0.8,0.1-1.3,0.2
		s-0.9,0.3-1.3,0.6l-0.4-1.4c0.4-0.3,0.9-0.5,1.5-0.7s1.2-0.3,1.8-0.3C177.5,36.8,178.2,37.1,178.7,37.5z M176.9,42.9
		c0.3-0.3,0.5-0.8,0.6-1.4l0-0.3H177c-0.7,0-1.2,0-1.6,0.1s-0.7,0.2-0.8,0.4c-0.2,0.2-0.2,0.4-0.2,0.7c0,0.3,0.1,0.6,0.3,0.8
		s0.5,0.3,0.9,0.3C176.1,43.4,176.5,43.3,176.9,42.9z"/>
	<polygon class="st1" points="183,44.7 183.8,33.6 185.8,33.6 184.9,44.7 	"/>
	<path class="st1" d="M190.5,44.4c-0.6-0.3-1-0.7-1.3-1.3c-0.3-0.6-0.5-1.2-0.5-2c0-0.9,0.2-1.6,0.5-2.3s0.8-1.1,1.5-1.5
		c0.6-0.3,1.4-0.5,2.2-0.5c1.2,0,2.2,0.3,2.9,1l-0.7,1.4c-0.7-0.5-1.4-0.8-2.2-0.8c-0.7,0-1.2,0.2-1.6,0.7c-0.4,0.5-0.6,1.1-0.6,2
		c0,0.7,0.2,1.3,0.5,1.7c0.4,0.4,0.8,0.6,1.5,0.6c0.4,0,0.8-0.1,1.1-0.2c0.3-0.1,0.7-0.3,1.1-0.6l0.4,1.4c-0.3,0.3-0.8,0.5-1.2,0.7
		c-0.5,0.2-1,0.3-1.5,0.3C191.8,44.9,191.1,44.7,190.5,44.4z"/>
</g>
</svg>
