<?xml version="1.0" encoding="utf-8"?>
<!-- Generator: Adobe Illustrator 22.1.0, SVG Export Plug-In . SVG Version: 6.00 Build 0)  -->
<svg version="1.1" id="Layer_1" xmlns="http://www.w3.org/2000/svg" xmlns:xlink="http://www.w3.org/1999/xlink" x="0px" y="0px"
	 viewBox="0 0 137.3 137.3" style="enable-background:new 0 0 137.3 137.3;" xml:space="preserve">
<style type="text/css">
	.st0{fill:#451380;}
	.st1{fill:#FFFFFF;}
</style>
<g>
	<path class="st0" d="M10,0h117.3c5.5,0,10,4.5,10,10v117.3c0,5.5-4.5,10-10,10H10c-5.5,0-10-4.5-10-10V10C0,4.5,4.5,0,10,0z"/>
	<polygon class="st1" points="23.7,113.4 25.2,113.4 24.5,121.8 23,121.8 23.3,118.2 19,118.2 18.7,121.8 17.2,121.8 17.8,113.4 
		19.3,113.4 19.1,116.9 23.4,116.9 	"/>
	<polygon class="st1" points="34,114.6 29.8,114.6 29.7,116.9 33.6,116.9 33.5,118.1 29.6,118.1 29.4,120.6 33.5,120.6 33.4,121.8 
		27.8,121.8 28.4,113.4 34.1,113.4 	"/>
	<path class="st1" d="M42.6,121.8l-0.7-2h-4.1l-1,2h-1.6l4.5-8.4h1.3l3.2,8.4H42.6z M38.4,118.7h3.1l-1.3-3.6L38.4,118.7z"/>
	<path class="st1" d="M51.9,118.6c0.2,0.2,0.3,0.4,0.4,0.6l1.2,2.6h-1.7l-1.3-2.7c-0.1-0.3-0.3-0.4-0.5-0.5
		c-0.2-0.1-0.4-0.2-0.7-0.2h-1.2l-0.3,3.4h-1.5l0.7-8.4h3.8c0.9,0,1.5,0.2,2,0.6c0.5,0.4,0.7,1,0.7,1.7c0,1.5-0.7,2.3-2.2,2.6
		C51.5,118.4,51.7,118.5,51.9,118.6z M50.4,117.3c1.1,0,1.7-0.5,1.7-1.4c0-0.4-0.1-0.7-0.4-0.9c-0.2-0.2-0.6-0.3-1.1-0.3h-2.2
		l-0.2,2.7H50.4z"/>
	<polygon class="st1" points="57.9,121.8 58.5,114.7 55.7,114.7 55.8,113.4 62.8,113.4 62.8,114.7 60,114.7 59.4,121.8 	"/>
	<path class="st1" d="M71.2,118.2c0.2,0.3,0.4,0.7,0.4,1.2c0,0.8-0.3,1.4-0.8,1.8c-0.5,0.4-1.3,0.6-2.2,0.6h-3.9l0.7-8.4h3.6
		c0.9,0,1.6,0.2,2.1,0.6c0.5,0.4,0.7,0.9,0.7,1.5c0,0.5-0.1,0.9-0.4,1.2c-0.3,0.3-0.6,0.6-1.1,0.8C70.6,117.6,71,117.9,71.2,118.2z
		 M69.7,120.3c0.3-0.2,0.4-0.5,0.4-1c0-0.4-0.1-0.7-0.4-0.9s-0.6-0.3-1.2-0.3h-2.1l-0.2,2.5h2.2C69,120.6,69.4,120.5,69.7,120.3z
		 M66.7,114.6l-0.2,2.4h2c0.6,0,1-0.1,1.2-0.3s0.4-0.5,0.4-1c0-0.7-0.5-1.1-1.5-1.1H66.7z"/>
	<path class="st1" d="M79.7,118.6c0.2,0.2,0.3,0.4,0.4,0.6l1.2,2.6h-1.7l-1.3-2.7c-0.1-0.3-0.3-0.4-0.5-0.5
		c-0.2-0.1-0.4-0.2-0.7-0.2h-1.2l-0.3,3.4h-1.5l0.7-8.4h3.8c0.9,0,1.5,0.2,2,0.6c0.5,0.4,0.7,1,0.7,1.7c0,1.5-0.8,2.3-2.2,2.6
		C79.4,118.4,79.6,118.5,79.7,118.6z M78.3,117.3c1.1,0,1.7-0.5,1.7-1.4c0-0.4-0.1-0.7-0.4-0.9c-0.2-0.2-0.6-0.3-1.1-0.3h-2.2
		l-0.2,2.7H78.3z"/>
	<path class="st1" d="M85.9,121.4c-0.6-0.3-1.1-0.8-1.4-1.4c-0.3-0.6-0.5-1.3-0.5-2.1c0-0.9,0.2-1.7,0.5-2.4
		c0.3-0.7,0.8-1.2,1.4-1.6c0.6-0.4,1.3-0.6,2.2-0.6c0.8,0,1.5,0.2,2.1,0.5c0.6,0.3,1.1,0.8,1.4,1.4c0.3,0.6,0.5,1.3,0.5,2.1
		c0,0.9-0.2,1.7-0.5,2.4c-0.3,0.7-0.8,1.2-1.4,1.6s-1.3,0.6-2.2,0.6C87.2,121.9,86.5,121.8,85.9,121.4z M89.8,119.8
		c0.5-0.6,0.7-1.4,0.7-2.5c0-0.9-0.2-1.6-0.6-2.1s-1-0.7-1.8-0.7c-0.8,0-1.4,0.3-1.9,0.9c-0.5,0.6-0.7,1.4-0.7,2.5
		c0,0.9,0.2,1.6,0.6,2.1c0.4,0.5,1,0.7,1.8,0.7C88.7,120.7,89.4,120.4,89.8,119.8z"/>
	<polygon class="st1" points="102.5,113.4 98.1,117.5 102,121.8 100.2,121.8 96.6,117.9 96.2,121.8 94.7,121.8 95.4,113.4 
		96.9,113.4 96.6,117.1 100.6,113.4 	"/>
	<polygon class="st1" points="110.2,114.6 106.1,114.6 105.9,116.9 109.8,116.9 109.7,118.1 105.8,118.1 105.6,120.6 109.8,120.6 
		109.7,121.8 104,121.8 104.7,113.4 110.3,113.4 	"/>
	<polygon class="st1" points="118.8,113.4 120.3,113.4 119.6,121.8 118.4,121.8 114.4,116 113.9,121.8 112.5,121.8 113.2,113.4 
		114.3,113.4 118.4,119.2 	"/>
	<path class="st1" d="M92.8,33.1c-3.7-2.4-8.3-3.1-12.5-2.1c-5.2,1.2-9.4,4.8-11.6,9.6c-2.2-4.8-6.5-8.4-11.6-9.6
		c-4.3-1-8.8-0.2-12.5,2.2c-3.9,2.5-6.7,6.5-7.7,11.1C33.1,61.6,46.9,75.6,61,82.9l7.1,3.7c0.3,0.2,0.7,0.2,1,0l7.1-3.7
		c14.2-7.3,28-21.3,24.2-38.7C99.5,39.7,96.7,35.6,92.8,33.1z M75.2,81l-6.6,3.4L62,81c-13.4-7-26.5-20.2-23.1-36.3
		c0.8-4,3.3-7.5,6.7-9.7c3.2-2.1,7.2-2.8,10.9-1.9c5.4,1.3,9.7,5.6,11,11c0.2,0.6,0.8,0.9,1.3,0.8c0.4-0.1,0.7-0.4,0.8-0.8
		c1.3-5.4,5.6-9.7,11-11c3.8-0.9,7.7-0.2,11,1.9c3.5,2.2,5.9,5.7,6.7,9.7C101.8,60.8,88.7,74,75.2,81z"/>
	<path class="st1" d="M55.6,37.3c0.6,0.2,1.2-0.2,1.3-0.7c0.2-0.6-0.2-1.2-0.7-1.3l-0.1,0c-0.9-0.2-1.8-0.3-2.7-0.3
		c-6,0.1-11.1,4.4-12.3,10.3c-0.1,0.6,0.2,1.1,0.8,1.3l0,0h0.2c0.5,0,0.9-0.4,1-0.9c1-4.9,5.2-8.5,10.2-8.6
		C54.1,37,54.8,37.1,55.6,37.3L55.6,37.3z"/>
	<path class="st1" d="M79.8,62.6c0.4,0.4,1.1,0.4,1.5,0c0.4-0.4,0.4-1.1,0-1.5L80.2,60c-0.4-0.4-1.1-0.4-1.5,0"/>
	<circle class="st1" cx="41.6" cy="50" r="1.1"/>
	<path class="st1" d="M60.5,53.3l-4.3-2.2c-0.5-0.3-1.2-0.1-1.5,0.5c-0.3,0.5-0.1,1.2,0.5,1.5l2.4,1.2l-2.4,1.2
		c-0.5,0.3-0.7,0.9-0.5,1.5c0.3,0.5,0.9,0.7,1.5,0.5l4.3-2.2c0.5-0.3,0.8-0.9,0.5-1.4C60.9,53.6,60.7,53.4,60.5,53.3z"/>
	<path class="st1" d="M82.6,51.7c-0.3-0.5-0.9-0.8-1.4-0.5l0,0l-4.3,2.2c-0.5,0.3-0.8,0.9-0.5,1.4c0.1,0.2,0.3,0.4,0.5,0.5l4.3,2.2
		c0.5,0.3,1.2,0.1,1.5-0.5s0.1-1.2-0.5-1.5l-2.4-1.2l2.4-1.2C82.6,52.9,82.9,52.2,82.6,51.7L82.6,51.7L82.6,51.7z"/>
	<path class="st1" d="M68.6,58.6c-6.4,0-6.5,4.3-6.5,4.3c0,0.6,0.5,1.1,1.1,1.1c0.6,0,1.1-0.5,1.1-1.1v0c0-0.2,0.2-2.2,4.3-2.2
		c4.1,0,4.3,2,4.3,2.2c0,0.6,0.5,1.1,1.1,1.1s1.1-0.5,1.1-1.1C75.1,62.9,75,58.6,68.6,58.6L68.6,58.6z"/>
</g>
</svg>
