<svg xmlns="http://www.w3.org/2000/svg" viewBox="0 0 137.26 137.26"><defs><style>.cls-1{fill:#451380;}.cls-2{font-size:11.96px;font-family:NunitoSans-BoldItalic, Nunito Sans;font-weight:700;font-style:italic;letter-spacing:0.12em;}.cls-2,.cls-6{fill:#fff;}.cls-3{letter-spacing:0.11em;}.cls-4{letter-spacing:0.1em;}.cls-5{letter-spacing:0.11em;}</style></defs><title>Asset 41</title><g id="Layer_2" data-name="Layer 2"><g id="Heartbroken_Icon"><rect id="Box" class="cls-1" width="137.26" height="137.26" rx="10" ry="10"/><g id="Text"><text class="cls-2" transform="translate(16.49 121.82)">H<tspan class="cls-3" x="10.59" y="0">E</tspan><tspan x="18.93" y="0">A</tspan><tspan class="cls-4" x="29.24" y="0">R</tspan><tspan x="38.74" y="0">TB</tspan><tspan class="cls-5" x="57.11" y="0">R</tspan><tspan x="66.79" y="0">OKEN</tspan></text></g><g id="Heartbroken_Img"><path class="cls-6" d="M92.79,33.12A16.36,16.36,0,0,0,80.24,31a17,17,0,0,0-11.61,9.58A17,17,0,0,0,57,31a16.36,16.36,0,0,0-12.55,2.18,17.36,17.36,0,0,0-7.65,11.11C33.11,61.58,46.9,75.59,61.05,82.93l7.08,3.67a1.1,1.1,0,0,0,1,0l7.08-3.67c14.15-7.34,28-21.35,24.23-38.69a17.38,17.38,0,0,0-7.65-11.12ZM75.22,81l-6.59,3.41L62,81C48.6,74,35.47,60.84,38.93,44.69A15.23,15.23,0,0,1,45.63,35a14.24,14.24,0,0,1,10.9-1.9,15,15,0,0,1,11,11,1.09,1.09,0,0,0,2.1,0,15,15,0,0,1,11-11A14.24,14.24,0,0,1,91.63,35a15.23,15.23,0,0,1,6.7,9.74C101.79,60.84,88.66,74,75.22,81Z"/><path class="cls-6" d="M55.56,37.26a1.08,1.08,0,1,0,.49-2.1,11.88,11.88,0,0,0-2.72-.31,12.81,12.81,0,0,0-12.28,10.3,1.07,1.07,0,0,0,.83,1.28l.23,0a1.07,1.07,0,0,0,1-.85A10.65,10.65,0,0,1,53.33,37a10.44,10.44,0,0,1,2.23.25Z"/><path class="cls-6" d="M79.75,62.63a1.08,1.08,0,0,0,1.53-1.53L80.2,60a1.08,1.08,0,0,0-1.51,0"/><path class="cls-6" d="M42.69,50a1.08,1.08,0,1,1-1.08-1.08A1.08,1.08,0,0,1,42.69,50Z"/><path class="cls-6" d="M60.47,53.33l-4.32-2.16a1.08,1.08,0,1,0-1,1.94l2.39,1.19-2.39,1.19a1.08,1.08,0,1,0,1,1.94l4.32-2.16a1.08,1.08,0,0,0,0-1.94Z"/><path class="cls-6" d="M82.57,51.66a1.07,1.07,0,0,0-1.45-.49L76.8,53.33a1.08,1.08,0,0,0,0,1.94l4.32,2.16a1.08,1.08,0,0,0,1-1.94l-2.4-1.19,2.39-1.19a1.07,1.07,0,0,0,.49-1.45Z"/><path class="cls-6" d="M68.63,58.62c-6.41,0-6.48,4.28-6.48,4.33a1.08,1.08,0,1,0,2.16,0c0-.22.22-2.19,4.32-2.19s4.31,2,4.32,2.17a1.08,1.08,0,1,0,2.16,0c0-.05-.07-4.33-6.48-4.33Z"/></g></g></g></svg>