<svg xmlns="http://www.w3.org/2000/svg" viewBox="0 0 65.65 56.9"><defs><style>.cls-1{fill:#fff;}</style></defs><title>heartbroken</title><g id="Layer_2" data-name="Layer 2"><g id="Graphics"><path class="cls-1" d="M57.28,2.63A16.56,16.56,0,0,0,44.58.43a17.21,17.21,0,0,0-11.76,9.7A17.2,17.2,0,0,0,21.07.43,16.56,16.56,0,0,0,8.37,2.64,17.53,17.53,0,0,0,.62,13.89C-3.14,31.44,10.83,45.62,25.15,53.05l7.17,3.72a1.06,1.06,0,0,0,1,0l7.17-3.72C54.82,45.63,68.79,31.44,65,13.89A17.59,17.59,0,0,0,57.28,2.63ZM39.49,51.11l-6.67,3.46-6.66-3.46c-13.61-7-26.9-20.42-23.4-36.76A15.41,15.41,0,0,1,9.54,4.48a14.4,14.4,0,0,1,11-1.92,15.17,15.17,0,0,1,11.18,11.1,1.1,1.1,0,0,0,2.12,0,15.19,15.19,0,0,1,11.2-11.1,14.4,14.4,0,0,1,11,1.92,15.42,15.42,0,0,1,6.79,9.87c3.5,16.34-9.79,29.71-23.4,36.76Z"/><path class="cls-1" d="M19.59,6.83a1.13,1.13,0,0,0,1.05-.32,1.11,1.11,0,0,0,.25-1.07,1.12,1.12,0,0,0-.8-.75,12.83,12.83,0,0,0-2.76-.31A13,13,0,0,0,4.9,14.81a1.08,1.08,0,0,0,.84,1.29.91.91,0,0,0,.23,0A1.09,1.09,0,0,0,7,15.26,10.77,10.77,0,0,1,17.33,6.57a9.56,9.56,0,0,1,2.26.26Z"/><path class="cls-1" d="M44.08,32.5a1.1,1.1,0,0,0,1.54,0,1.09,1.09,0,0,0,0-1.53l-1.09-1.1a1.1,1.1,0,0,0-1.54,0"/><path class="cls-1" d="M6.57,19.7a1.1,1.1,0,1,1-1.1-1.1,1.09,1.09,0,0,1,1.1,1.1Z"/><path class="cls-1" d="M24.56,23.09,20.18,20.9a1.09,1.09,0,0,0-1,2l2.41,1.21-2.41,1.21a1.09,1.09,0,0,0,1,2l4.38-2.19a1.09,1.09,0,0,0,.61-1,1.11,1.11,0,0,0-.61-1Z"/><path class="cls-1" d="M46.94,21.39a1.07,1.07,0,0,0-.64-.54,1,1,0,0,0-.83,0l-4.38,2.19a1.1,1.1,0,0,0-.6,1,1.08,1.08,0,0,0,.6,1l4.38,2.19a1.1,1.1,0,1,0,1-2L44,24.07l2.42-1.2a1.14,1.14,0,0,0,.56-.64,1.12,1.12,0,0,0-.06-.84Z"/><path class="cls-1" d="M32.82,28.45c-6.49,0-6.56,4.33-6.56,4.37a1.1,1.1,0,0,0,2.19,0c0-.23.22-2.21,4.37-2.21s4.37,2,4.38,2.18a1.1,1.1,0,1,0,2.19,0s-.08-4.37-6.57-4.37Z"/></g></g></svg>