<svg xmlns="http://www.w3.org/2000/svg" xmlns:xlink="http://www.w3.org/1999/xlink" viewBox="0 0 137.26 137.26"><defs><style>.cls-1{fill:url(#linear-gradient);}.cls-2{font-size:11.96px;fill:#fff;font-family:NunitoSans-BoldItalic, Nunito Sans;font-weight:700;font-style:italic;letter-spacing:0.12em;}.cls-3{letter-spacing:0.11em;}.cls-4{letter-spacing:0.03em;}.cls-5{letter-spacing:0.08em;}.cls-6{fill:none;stroke:#fff;stroke-miterlimit:10;stroke-width:2.33px;}</style><linearGradient id="linear-gradient" x1="-2768.77" y1="444.05" x2="-2769.77" y2="443.25" gradientTransform="matrix(137.26, 0, 0, -137.26, 380185.88, 60958.79)" gradientUnits="userSpaceOnUse"><stop offset="0" stop-color="#1ec4dc"/><stop offset="0.25" stop-color="#369acd"/><stop offset="0.65" stop-color="#4d6fbe"/><stop offset="1" stop-color="#6644af"/></linearGradient></defs><title>Asset 91</title><g id="Layer_2" data-name="Layer 2"><g id="irish-affogato"><rect id="Box" class="cls-1" width="137.26" height="137.26" rx="10" ry="10"/><g id="Text"><text class="cls-2" transform="translate(9.6 122.77)">IRISH AF<tspan class="cls-3" x="62.18" y="0">F</tspan><tspan x="70.26" y="0">OG</tspan><tspan class="cls-4" x="91.21" y="0">A</tspan><tspan class="cls-5" x="100.48" y="0">T</tspan><tspan x="108.74" y="0">O</tspan></text></g><g id="Icon"><polygon class="cls-6" points="76.64 84.86 59.83 84.86 55.14 44.71 81.61 44.71 76.64 84.86"/><rect class="cls-6" x="66.86" y="84.86" width="3.45" height="14.72"/><polyline class="cls-6" points="66.86 99.57 58.17 103.64 78.44 103.64 70.3 99.57"/><path class="cls-6" d="M58.22,71.11a13.67,13.67,0,0,1,8.64-1.17A61.13,61.13,0,0,0,77,71.11l1.45-6.33L57.29,63.12Z"/><path class="cls-6" d="M57.29,55.46l23.31-2.6Z"/><path class="cls-6" d="M78.44,43.06S90,40,80.92,36.44c-2.74-1.08-8.07,2.27-5.59,2.89s5.59-2.89,4.35-6.2-4.35-2.69-6-4.24S71,23.84,71,23.84l-.67,2.05c-.89,3.93-2.41,3.93-8.2,4.14s-3.78,5.44-4.81,7.1c0,0-5.82.69-4.44,4S81.61,42.5,81.61,42.5"/></g></g></g></svg>