<?xml version="1.0" encoding="utf-8"?>
<!-- Generator: Adobe Illustrator 22.1.0, SVG Export Plug-In . SVG Version: 6.00 Build 0)  -->
<svg version="1.1" id="Layer_1" xmlns="http://www.w3.org/2000/svg" xmlns:xlink="http://www.w3.org/1999/xlink" x="0px" y="0px"
	 viewBox="0 0 137.3 137.3" style="enable-background:new 0 0 137.3 137.3;" xml:space="preserve">
<style type="text/css">
	.st0{fill:url(#SVGID_1_);}
	.st1{fill:#FFFFFF;}
	.st2{fill:none;stroke:#FFFFFF;stroke-width:2.33;stroke-miterlimit:10;}
</style>
<g>
	
		<linearGradient id="SVGID_1_" gradientUnits="userSpaceOnUse" x1="0" y1="137.26" x2="1" y2="137.26" gradientTransform="matrix(-137.26 109.8063 -109.8063 -137.26 15216.2539 18848.4512)">
		<stop  offset="0" style="stop-color:#1EC4DC"/>
		<stop  offset="0.25" style="stop-color:#369ACD"/>
		<stop  offset="0.65" style="stop-color:#4D6FBE"/>
		<stop  offset="1" style="stop-color:#6644AF"/>
	</linearGradient>
	<path class="st0" d="M10,0h117.3c5.5,0,10,4.5,10,10v117.3c0,5.5-4.5,10-10,10H10c-5.5,0-10-4.5-10-10V10C0,4.5,4.5,0,10,0z"/>
	<polygon class="st1" points="10.3,122.8 10.9,114.3 12.5,114.3 11.8,122.8 	"/>
	<path class="st1" d="M20.5,119.6c0.2,0.2,0.3,0.4,0.4,0.6l1.2,2.6h-1.7l-1.3-2.7c-0.1-0.3-0.3-0.4-0.5-0.5
		c-0.2-0.1-0.4-0.2-0.7-0.2h-1.2l-0.3,3.4h-1.5l0.7-8.4h3.8c0.9,0,1.5,0.2,2,0.6c0.5,0.4,0.7,1,0.7,1.7c0,1.5-0.7,2.3-2.2,2.6
		C20.2,119.3,20.4,119.4,20.5,119.6z M19.1,118.2c1.1,0,1.7-0.5,1.7-1.4c0-0.4-0.1-0.7-0.4-0.9c-0.2-0.2-0.6-0.3-1.1-0.3h-2.2
		l-0.2,2.7H19.1z"/>
	<polygon class="st1" points="24.8,122.8 25.5,114.3 27,114.3 26.3,122.8 	"/>
	<path class="st1" d="M30.8,122.6c-0.6-0.2-1.1-0.4-1.5-0.7l0.6-1.1c0.4,0.3,0.9,0.5,1.3,0.7c0.5,0.1,0.9,0.2,1.5,0.2
		c0.6,0,1-0.1,1.3-0.3c0.3-0.2,0.5-0.5,0.5-0.8c0-0.2-0.1-0.4-0.2-0.6c-0.2-0.2-0.4-0.3-0.6-0.4s-0.6-0.2-1-0.3
		c-0.6-0.2-1.1-0.3-1.4-0.5c-0.4-0.2-0.7-0.4-1-0.7c-0.3-0.3-0.4-0.7-0.4-1.3c0-0.5,0.1-1,0.4-1.3s0.7-0.7,1.2-0.9s1.1-0.3,1.8-0.3
		c0.6,0,1.2,0.1,1.7,0.3c0.5,0.2,1,0.4,1.3,0.7l-0.6,1.1c-0.4-0.3-0.7-0.5-1.2-0.7s-0.8-0.2-1.3-0.2c-0.6,0-1,0.1-1.3,0.3
		s-0.5,0.5-0.5,0.9c0,0.2,0.1,0.5,0.3,0.6c0.2,0.2,0.4,0.3,0.6,0.4c0.2,0.1,0.6,0.2,1.1,0.3c0.6,0.2,1.1,0.3,1.4,0.5
		c0.4,0.2,0.7,0.4,0.9,0.7c0.3,0.3,0.4,0.7,0.4,1.2c0,0.8-0.3,1.4-0.9,1.8c-0.6,0.4-1.4,0.7-2.5,0.7
		C31.9,122.9,31.3,122.8,30.8,122.6z"/>
	<polygon class="st1" points="45.1,114.3 46.6,114.3 46,122.8 44.5,122.8 44.8,119.1 40.4,119.1 40.2,122.8 38.6,122.8 39.3,114.3 
		40.8,114.3 40.5,117.9 44.9,117.9 	"/>
	<path class="st1" d="M60.4,122.8l-0.7-2h-4.1l-1,2H53l4.5-8.4h1.3l3.2,8.4H60.4z M56.2,119.6h3.1L58,116L56.2,119.6z"/>
	<polygon class="st1" points="70.3,115.6 66.3,115.6 66.1,117.9 69.9,117.9 69.8,119.1 66,119.1 65.7,122.8 64.2,122.8 64.9,114.3 
		70.4,114.3 	"/>
	<polygon class="st1" points="78.5,115.6 74.6,115.6 74.4,117.9 78.1,117.9 78,119.1 74.3,119.1 74,122.8 72.5,122.8 73.1,114.3 
		78.6,114.3 	"/>
	<path class="st1" d="M82.4,122.4c-0.6-0.3-1.1-0.8-1.4-1.4c-0.3-0.6-0.5-1.3-0.5-2.1c0-0.9,0.2-1.7,0.5-2.4
		c0.3-0.7,0.8-1.2,1.4-1.6s1.3-0.6,2.2-0.6c0.8,0,1.5,0.2,2.1,0.5s1.1,0.8,1.4,1.4c0.3,0.6,0.5,1.3,0.5,2.1c0,0.9-0.2,1.7-0.5,2.4
		c-0.3,0.7-0.8,1.2-1.4,1.6s-1.3,0.6-2.2,0.6C83.7,122.9,83,122.7,82.4,122.4z M86.4,120.7c0.5-0.6,0.7-1.4,0.7-2.5
		c0-0.9-0.2-1.6-0.6-2.1s-1-0.7-1.8-0.7c-0.8,0-1.4,0.3-1.9,0.9s-0.7,1.4-0.7,2.5c0,0.9,0.2,1.6,0.6,2.1c0.4,0.5,1,0.7,1.8,0.7
		C85.3,121.6,85.9,121.3,86.4,120.7z"/>
	<path class="st1" d="M95.5,118.2h3.2l-0.3,4c-0.4,0.2-0.8,0.4-1.4,0.5s-1.1,0.2-1.7,0.2c-0.8,0-1.5-0.2-2.1-0.5
		c-0.6-0.3-1-0.8-1.4-1.4c-0.3-0.6-0.5-1.3-0.5-2.1c0-0.9,0.2-1.8,0.5-2.5c0.4-0.7,0.9-1.2,1.5-1.6c0.7-0.4,1.4-0.6,2.3-0.6
		c1.2,0,2.2,0.3,3,1l-0.6,1.1c-0.4-0.3-0.8-0.5-1.1-0.7c-0.4-0.1-0.8-0.2-1.3-0.2c-0.9,0-1.6,0.3-2.1,0.9c-0.5,0.6-0.7,1.4-0.7,2.5
		c0,0.9,0.2,1.6,0.6,2.1s1.1,0.7,1.9,0.7c0.5,0,1-0.1,1.6-0.2l0.2-2.1h-1.8L95.5,118.2z"/>
	<path class="st1" d="M108,122.8l-0.7-2h-4.1l-1,2h-1.6l4.5-8.4h1.3l3.2,8.4H108z M103.8,119.6h3.1l-1.3-3.6L103.8,119.6z"/>
	<polygon class="st1" points="112.7,122.8 113.3,115.6 110.6,115.6 110.7,114.3 117.7,114.3 117.6,115.6 114.9,115.6 114.3,122.8 	
		"/>
	<path class="st1" d="M120.9,122.4c-0.6-0.3-1.1-0.8-1.4-1.4c-0.3-0.6-0.5-1.3-0.5-2.1c0-0.9,0.2-1.7,0.5-2.4s0.8-1.2,1.4-1.6
		c0.6-0.4,1.3-0.6,2.2-0.6c0.8,0,1.5,0.2,2.1,0.5c0.6,0.3,1.1,0.8,1.4,1.4c0.3,0.6,0.5,1.3,0.5,2.1c0,0.9-0.2,1.7-0.5,2.4
		s-0.8,1.2-1.4,1.6c-0.6,0.4-1.3,0.6-2.2,0.6C122.2,122.9,121.5,122.7,120.9,122.4z M124.9,120.7c0.5-0.6,0.7-1.4,0.7-2.5
		c0-0.9-0.2-1.6-0.6-2.1c-0.4-0.5-1-0.7-1.8-0.7c-0.8,0-1.4,0.3-1.9,0.9c-0.5,0.6-0.7,1.4-0.7,2.5c0,0.9,0.2,1.6,0.6,2.1
		c0.4,0.5,1,0.7,1.8,0.7C123.8,121.6,124.4,121.3,124.9,120.7z"/>
	<polygon class="st2" points="76.6,84.9 59.8,84.9 55.1,44.7 81.6,44.7 	"/>
	<rect x="66.9" y="84.9" class="st2" width="3.4" height="14.7"/>
	<polyline class="st2" points="66.9,99.6 58.2,103.6 78.4,103.6 70.3,99.6 	"/>
	<path class="st2" d="M58.2,71.1c2.7-1.3,5.7-1.7,8.6-1.2c3.3,0.7,6.7,1.1,10.1,1.2l1.5-6.3l-21.2-1.7L58.2,71.1z"/>
	<path class="st2" d="M57.3,55.5l23.3-2.6L57.3,55.5z"/>
	<path class="st2" d="M78.4,43.1c0,0,11.6-3.1,2.5-6.6c-2.7-1.1-8.1,2.3-5.6,2.9c2.5,0.6,5.6-2.9,4.3-6.2c-1.2-3.3-4.3-2.7-6-4.2
		C72,27.3,71,23.8,71,23.8l-0.7,2.1c-0.9,3.9-2.4,3.9-8.2,4.1c-5.8,0.2-3.8,5.4-4.8,7.1c0,0-5.8,0.7-4.4,4s28.7,1.4,28.7,1.4"/>
</g>
</svg>
