<?xml version="1.0" encoding="utf-8"?>
<!-- Generator: Adobe Illustrator 22.1.0, SVG Export Plug-In . SVG Version: 6.00 Build 0)  -->
<svg version="1.1" id="Layer_1" xmlns="http://www.w3.org/2000/svg" xmlns:xlink="http://www.w3.org/1999/xlink" x="0px" y="0px"
	 viewBox="0 0 258.5 80.3" style="enable-background:new 0 0 258.5 80.3;" xml:space="preserve">
<style type="text/css">
	.st0{fill:#369ACD;}
	.st1{fill:#FFFFFF;}
</style>
<g>
	<path class="st0" d="M8.8,0h241c4.8,0,8.8,3.9,8.8,8.8v62.8c0,4.8-3.9,8.8-8.8,8.8H8.8c-4.8,0-8.8-3.9-8.8-8.8V8.8
		C0,3.9,3.9,0,8.8,0z"/>
	<polygon class="st1" points="59.1,44.7 60,33.6 62,33.6 61.2,43.1 66.4,43.1 66.3,44.7 	"/>
	<polygon class="st1" points="69.7,44.7 70.6,33.6 72.6,33.6 71.7,44.7 	"/>
	<path class="st1" d="M81.5,38.7h4.2L85.3,44c-0.5,0.3-1.1,0.5-1.8,0.6c-0.7,0.1-1.4,0.2-2.2,0.2c-1.1,0-2-0.2-2.8-0.6
		c-0.8-0.4-1.4-1-1.8-1.8s-0.6-1.7-0.6-2.8c0-1.2,0.2-2.3,0.7-3.2s1.1-1.6,2-2.1c0.9-0.5,1.9-0.8,3-0.8c1.6,0,3,0.4,4,1.3L85,36.3
		c-0.5-0.4-1-0.7-1.5-0.9c-0.5-0.2-1-0.3-1.7-0.3c-1.2,0-2.1,0.4-2.8,1.2c-0.7,0.8-1,1.9-1,3.3c0,1.2,0.3,2.1,0.9,2.7
		c0.6,0.6,1.4,0.9,2.6,0.9c0.7,0,1.4-0.1,2-0.3l0.2-2.8h-2.4L81.5,38.7z"/>
	<polygon class="st1" points="98,33.6 100,33.6 99.1,44.7 97.1,44.7 97.5,39.9 91.8,39.9 91.4,44.7 89.4,44.7 90.3,33.6 92.3,33.6 
		91.9,38.3 97.6,38.3 	"/>
	<polygon class="st1" points="106,44.7 106.7,35.3 103.1,35.3 103.2,33.6 112.5,33.6 112.4,35.3 108.8,35.3 108,44.7 	"/>
	<path class="st1" d="M127.4,38c0.5,0.3,0.9,0.7,1.2,1.1c0.3,0.5,0.4,1.1,0.4,1.7c0,0.8-0.2,1.5-0.5,2.1c-0.3,0.6-0.8,1.1-1.5,1.4
		c-0.6,0.3-1.4,0.5-2.2,0.5c-0.7,0-1.4-0.1-2.1-0.3c-0.7-0.2-1.2-0.5-1.7-1l0.8-1.5c0.9,0.8,1.9,1.1,3.1,1.1c0.7,0,1.2-0.2,1.6-0.6
		c0.4-0.4,0.6-0.9,0.6-1.6c0-0.6-0.2-1-0.5-1.4c-0.4-0.3-0.8-0.5-1.5-0.5c-0.9,0-1.7,0.3-2.3,0.9h-1.2l0.5-6.5h6.9l-0.1,1.6h-5
		l-0.2,2.9c0.6-0.3,1.2-0.5,1.9-0.5C126.3,37.6,126.9,37.8,127.4,38z"/>
	<polygon class="st1" points="132.6,41.3 132.7,39.7 137.4,39.7 137.2,41.3 	"/>
	<polygon class="st1" points="141.7,33.6 149.4,33.6 149.3,35.1 143.6,44.7 141.5,44.7 147.1,35.3 141.5,35.3 	"/>
	<path class="st1" d="M153.3,39.5c-0.5-0.5-0.7-1.3-0.7-2.3c0-1.2,0.3-2.1,0.8-2.7c0.5-0.7,1.2-1,2.1-1c0.9,0,1.6,0.3,2,0.8
		c0.5,0.5,0.7,1.3,0.7,2.3c0,1.2-0.3,2.1-0.8,2.7c-0.5,0.7-1.2,1-2.1,1C154.4,40.2,153.7,40,153.3,39.5z M156.2,38.3
		c0.2-0.5,0.3-1.1,0.3-2c0-0.5-0.1-0.9-0.3-1.2c-0.2-0.3-0.4-0.4-0.8-0.4c-0.8,0-1.2,0.9-1.2,2.6c0,0.6,0.1,1,0.3,1.2
		c0.2,0.3,0.4,0.4,0.8,0.4C155.7,39,156,38.7,156.2,38.3z M156.1,45.2l-1.2-0.8l7.3-11.2l1.2,0.8L156.1,45.2z M160.8,44.1
		c-0.5-0.5-0.7-1.3-0.7-2.3c0-1.2,0.3-2.1,0.8-2.7c0.5-0.7,1.2-1,2.1-1c0.9,0,1.6,0.3,2,0.8c0.5,0.5,0.7,1.3,0.7,2.3
		c0,1.2-0.3,2.1-0.8,2.8c-0.5,0.7-1.2,1-2.1,1C162,44.8,161.3,44.6,160.8,44.1z M163.8,42.9c0.2-0.5,0.3-1.1,0.3-2
		c0-0.5-0.1-1-0.3-1.2c-0.2-0.3-0.5-0.4-0.8-0.4c-0.8,0-1.2,0.9-1.2,2.6c0,0.6,0.1,1,0.3,1.2s0.4,0.4,0.8,0.4
		C163.2,43.6,163.6,43.3,163.8,42.9z"/>
	<path class="st1" d="M181.3,37.5c0.5,0.5,0.7,1.2,0.7,2.1c0,0.2,0,0.4,0,0.5l-0.4,4.6h-1.9l0.1-1.1c-0.2,0.4-0.5,0.7-0.9,0.9
		s-0.8,0.3-1.3,0.3c-0.5,0-1-0.1-1.4-0.3c-0.4-0.2-0.7-0.5-0.9-0.8c-0.2-0.3-0.3-0.7-0.3-1.2c0-0.6,0.1-1.1,0.4-1.4
		c0.3-0.4,0.8-0.6,1.4-0.8c0.7-0.2,1.5-0.2,2.6-0.2h0.6l0-0.3c0-0.5-0.1-0.9-0.3-1.2c-0.2-0.3-0.6-0.4-1.2-0.4
		c-0.4,0-0.8,0.1-1.3,0.2c-0.4,0.1-0.9,0.3-1.3,0.6l-0.4-1.4c0.4-0.3,0.9-0.5,1.5-0.7s1.2-0.3,1.8-0.3
		C180.1,36.8,180.9,37.1,181.3,37.5z M179.5,42.9c0.3-0.3,0.5-0.8,0.6-1.4l0-0.3h-0.4c-0.7,0-1.2,0-1.6,0.1
		c-0.4,0.1-0.7,0.2-0.8,0.4c-0.2,0.2-0.2,0.4-0.2,0.7c0,0.3,0.1,0.6,0.3,0.8s0.5,0.3,0.9,0.3C178.8,43.4,179.2,43.3,179.5,42.9z"/>
	<polygon class="st1" points="185.6,44.7 186.5,33.6 188.4,33.6 187.6,44.7 	"/>
	<path class="st1" d="M193.2,44.4c-0.6-0.3-1-0.7-1.3-1.3c-0.3-0.6-0.5-1.2-0.5-2c0-0.9,0.2-1.6,0.5-2.3c0.3-0.6,0.8-1.1,1.5-1.5
		c0.6-0.3,1.4-0.5,2.2-0.5c1.2,0,2.2,0.3,2.9,1l-0.7,1.4c-0.7-0.5-1.4-0.8-2.2-0.8c-0.7,0-1.2,0.2-1.6,0.7c-0.4,0.5-0.6,1.1-0.6,2
		c0,0.7,0.2,1.3,0.5,1.7c0.4,0.4,0.8,0.6,1.5,0.6c0.4,0,0.8-0.1,1.1-0.2c0.3-0.1,0.7-0.3,1.1-0.6l0.4,1.4c-0.3,0.3-0.8,0.5-1.2,0.7
		c-0.5,0.2-1,0.3-1.5,0.3C194.4,44.9,193.8,44.7,193.2,44.4z"/>
</g>
</svg>
