<svg xmlns="http://www.w3.org/2000/svg" xmlns:xlink="http://www.w3.org/1999/xlink" viewBox="0 0 137.26 137.26"><defs><style>.cls-1{fill:url(#linear-gradient);}.cls-2{font-size:11.96px;font-family:NunitoSans-BoldItalic, Nunito Sans;font-weight:700;font-style:italic;letter-spacing:0.08em;}.cls-2,.cls-9{fill:#fff;}.cls-3{letter-spacing:0.12em;}.cls-4{letter-spacing:0.11em;}.cls-5{letter-spacing:0.11em;}.cls-6{letter-spacing:0.12em;}.cls-10,.cls-7,.cls-8{fill:none;stroke:#fff;stroke-miterlimit:10;}.cls-7{stroke-width:3.74px;}.cls-8{stroke-width:3.27px;}.cls-10{stroke-width:3.34px;}</style><linearGradient id="linear-gradient" x1="-2456.44" y1="610.5" x2="-2457.44" y2="609.7" gradientTransform="matrix(137.26, 0, 0, -137.26, 337314.44, 83805.67)" gradientUnits="userSpaceOnUse"><stop offset="0" stop-color="#1ec4dc"/><stop offset="0.25" stop-color="#369acd"/><stop offset="0.65" stop-color="#4d6fbe"/><stop offset="1" stop-color="#6644af"/></linearGradient></defs><title>Asset 83</title><g id="Layer_2" data-name="Layer 2"><g id="long-island-icedtea"><rect id="Box" class="cls-1" width="137.26" height="137.26" rx="10" ry="10"/><g id="Text"><text class="cls-2" transform="translate(20.33 116.77)">L<tspan class="cls-3" x="7.62" y="0">ONG IS</tspan><tspan class="cls-4" x="57.47" y="0">L</tspan><tspan class="cls-3" x="65.47" y="0">AND</tspan><tspan class="cls-3"><tspan x="15.62" y="12">ICED T</tspan><tspan class="cls-5" x="62.33" y="12">E</tspan><tspan class="cls-6" x="70.66" y="12">A</tspan></tspan></text></g><g id="Icon"><polygon class="cls-7" points="77.81 92.29 59.48 92.29 47.63 33.96 89.63 33.96 77.81 92.29"/><path class="cls-8" d="M40.71,16.06s12-2,13.11-.65,13,58.34,13,58.34"/><rect class="cls-9" x="70.48" y="50.46" width="6.62" height="6.63"/><rect class="cls-9" x="62.78" y="81.25" width="6.62" height="6.63" transform="translate(15.97 -10.34) rotate(10.17)"/><rect class="cls-9" x="68.63" y="62.14" width="4.3" height="4.3" transform="translate(-16.02 24.18) rotate(-17.45)"/><path class="cls-7" d="M50.35,47.35c4.13-1.73,10.35-4.1,15.74-3s8.13,3.77,14.56,3l6.42-.77"/><path class="cls-10" d="M86,45.9a9.71,9.71,0,0,0,1.54.11A10.61,10.61,0,1,0,76.9,35.4"/></g></g></g></svg>