<?xml version="1.0" encoding="utf-8"?>
<!-- Generator: Adobe Illustrator 22.1.0, SVG Export Plug-In . SVG Version: 6.00 Build 0)  -->
<svg version="1.1" id="Layer_1" xmlns="http://www.w3.org/2000/svg" xmlns:xlink="http://www.w3.org/1999/xlink" x="0px" y="0px"
	 viewBox="0 0 137.3 137.3" style="enable-background:new 0 0 137.3 137.3;" xml:space="preserve">
<style type="text/css">
	.st0{fill:url(#SVGID_1_);}
	.st1{fill:#FFFFFF;}
	.st2{fill:none;stroke:#FFFFFF;stroke-width:3.74;stroke-miterlimit:10;}
	.st3{fill:none;stroke:#FFFFFF;stroke-width:3.27;stroke-miterlimit:10;}
	.st4{fill:none;stroke:#FFFFFF;stroke-width:3.34;stroke-miterlimit:10;}
</style>
<g>
	
		<linearGradient id="SVGID_1_" gradientUnits="userSpaceOnUse" x1="0" y1="137.26" x2="1" y2="137.26" gradientTransform="matrix(-137.26 109.8063 109.8063 137.26 -14928.3701 -18831.6895)">
		<stop  offset="0" style="stop-color:#1EC4DC"/>
		<stop  offset="0.25" style="stop-color:#369ACD"/>
		<stop  offset="0.65" style="stop-color:#4D6FBE"/>
		<stop  offset="1" style="stop-color:#6644AF"/>
	</linearGradient>
	<path class="st0" d="M10,0h117.3c5.5,0,10,4.5,10,10v117.3c0,5.5-4.5,10-10,10H10c-5.5,0-10-4.5-10-10V10C0,4.5,4.5,0,10,0z"/>
	<polygon class="st1" points="21,116.8 21.7,108.3 23.2,108.3 22.7,115.5 26.6,115.5 26.5,116.8 	"/>
	<path class="st1" d="M30.5,116.4c-0.6-0.3-1.1-0.8-1.4-1.4s-0.5-1.3-0.5-2.1c0-0.9,0.2-1.7,0.5-2.4c0.3-0.7,0.8-1.2,1.4-1.6
		c0.6-0.4,1.3-0.6,2.2-0.6c0.8,0,1.5,0.2,2.1,0.5c0.6,0.3,1.1,0.8,1.4,1.4c0.3,0.6,0.5,1.3,0.5,2.1c0,0.9-0.2,1.7-0.5,2.4
		c-0.3,0.7-0.8,1.2-1.4,1.6c-0.6,0.4-1.3,0.6-2.2,0.6C31.8,116.9,31.1,116.7,30.5,116.4z M34.5,114.7c0.5-0.6,0.7-1.4,0.7-2.5
		c0-0.9-0.2-1.6-0.6-2.1c-0.4-0.5-1-0.7-1.8-0.7c-0.8,0-1.4,0.3-1.9,0.9c-0.5,0.6-0.7,1.4-0.7,2.5c0,0.9,0.2,1.6,0.6,2.1
		s1,0.7,1.8,0.7C33.4,115.6,34,115.3,34.5,114.7z"/>
	<polygon class="st1" points="45.7,108.3 47.1,108.3 46.5,116.8 45.3,116.8 41.3,110.9 40.8,116.8 39.4,116.8 40,108.3 41.2,108.3 
		45.2,114.2 	"/>
	<path class="st1" d="M53.9,112.2h3.2l-0.3,4c-0.4,0.2-0.8,0.4-1.4,0.5c-0.5,0.1-1.1,0.2-1.7,0.2c-0.8,0-1.5-0.2-2.1-0.5
		c-0.6-0.3-1-0.8-1.4-1.4s-0.5-1.3-0.5-2.1c0-0.9,0.2-1.8,0.5-2.5s0.9-1.2,1.5-1.6s1.4-0.6,2.3-0.6c1.2,0,2.2,0.3,3,1l-0.6,1.1
		c-0.4-0.3-0.8-0.5-1.1-0.7s-0.8-0.2-1.3-0.2c-0.9,0-1.6,0.3-2.1,0.9c-0.5,0.6-0.7,1.4-0.7,2.5c0,0.9,0.2,1.6,0.6,2.1
		c0.4,0.5,1.1,0.7,1.9,0.7c0.5,0,1-0.1,1.6-0.2l0.2-2.1h-1.8L53.9,112.2z"/>
	<polygon class="st1" points="64.6,116.8 65.2,108.3 66.8,108.3 66.1,116.8 	"/>
	<path class="st1" d="M70.6,116.6c-0.6-0.2-1.1-0.4-1.5-0.7l0.6-1.1c0.4,0.3,0.9,0.5,1.3,0.7c0.5,0.1,0.9,0.2,1.5,0.2
		c0.6,0,1-0.1,1.3-0.3c0.3-0.2,0.5-0.5,0.5-0.8c0-0.2-0.1-0.4-0.2-0.6c-0.2-0.2-0.4-0.3-0.6-0.4s-0.6-0.2-1-0.3
		c-0.6-0.2-1.1-0.3-1.4-0.5c-0.4-0.2-0.7-0.4-1-0.7c-0.3-0.3-0.4-0.7-0.4-1.3c0-0.5,0.1-1,0.4-1.3c0.3-0.4,0.7-0.7,1.2-0.9
		c0.5-0.2,1.1-0.3,1.8-0.3c0.6,0,1.2,0.1,1.7,0.3s1,0.4,1.3,0.7l-0.6,1.1c-0.4-0.3-0.7-0.5-1.2-0.7c-0.4-0.2-0.8-0.2-1.3-0.2
		c-0.6,0-1,0.1-1.3,0.3c-0.3,0.2-0.5,0.5-0.5,0.9c0,0.2,0.1,0.5,0.3,0.6c0.2,0.2,0.4,0.3,0.6,0.4c0.2,0.1,0.6,0.2,1.1,0.3
		c0.6,0.2,1.1,0.3,1.4,0.5s0.7,0.4,0.9,0.7s0.4,0.7,0.4,1.2c0,0.8-0.3,1.4-0.9,1.8c-0.6,0.4-1.4,0.7-2.5,0.7
		C71.7,116.9,71.1,116.8,70.6,116.6z"/>
	<polygon class="st1" points="78.5,116.8 79.2,108.3 80.7,108.3 80.1,115.5 84.1,115.5 84,116.8 	"/>
	<path class="st1" d="M93,116.8l-0.7-2h-4.1l-1,2h-1.6l4.5-8.4h1.3l3.2,8.4H93z M88.8,113.6h3.1l-1.3-3.6L88.8,113.6z"/>
	<polygon class="st1" points="103.1,108.3 104.6,108.3 103.9,116.8 102.7,116.8 98.7,110.9 98.2,116.8 96.8,116.8 97.4,108.3 
		98.6,108.3 102.7,114.2 	"/>
	<path class="st1" d="M107.8,108.3h3.1c0.8,0,1.6,0.2,2.2,0.5c0.6,0.3,1.1,0.8,1.4,1.4s0.5,1.3,0.5,2.1c0,0.9-0.2,1.8-0.5,2.4
		s-0.9,1.2-1.5,1.5c-0.7,0.4-1.5,0.5-2.4,0.5h-3.3L107.8,108.3z M110.3,115.5c2,0,3.1-1.1,3.1-3.3c0-0.9-0.2-1.5-0.7-2
		c-0.5-0.4-1.1-0.7-2-0.7h-1.5l-0.5,5.9H110.3z"/>
	<polygon class="st1" points="36.6,128.8 37.3,120.3 38.8,120.3 38.2,128.8 	"/>
	<path class="st1" d="M43.3,128.4c-0.6-0.3-1-0.8-1.3-1.4s-0.5-1.3-0.5-2.1c0-0.9,0.2-1.7,0.5-2.4c0.4-0.7,0.8-1.2,1.5-1.6
		s1.4-0.6,2.3-0.6c0.6,0,1.1,0.1,1.6,0.3s0.9,0.4,1.3,0.7l-0.6,1.1c-0.4-0.3-0.7-0.5-1.1-0.7c-0.4-0.1-0.8-0.2-1.2-0.2
		c-0.9,0-1.5,0.3-2,0.9c-0.5,0.6-0.7,1.4-0.7,2.5c0,0.9,0.2,1.6,0.6,2s1,0.7,1.8,0.7c0.8,0,1.6-0.3,2.3-0.9l0.4,1.1
		c-0.3,0.3-0.8,0.6-1.3,0.7c-0.5,0.2-1,0.3-1.6,0.3C44.5,128.9,43.9,128.7,43.3,128.4z"/>
	<polygon class="st1" points="57.2,121.6 53,121.6 52.8,123.9 56.7,123.9 56.6,125.1 52.7,125.1 52.6,127.6 56.7,127.6 56.6,128.8 
		50.9,128.8 51.6,120.3 57.3,120.3 	"/>
	<path class="st1" d="M60.1,120.3h3.1c0.8,0,1.6,0.2,2.2,0.5s1.1,0.8,1.4,1.4c0.3,0.6,0.5,1.3,0.5,2.1c0,0.9-0.2,1.8-0.5,2.4
		c-0.4,0.7-0.9,1.2-1.5,1.5c-0.7,0.4-1.5,0.5-2.4,0.5h-3.3L60.1,120.3z M62.6,127.5c2,0,3.1-1.1,3.1-3.3c0-0.9-0.2-1.5-0.7-2
		c-0.5-0.4-1.1-0.7-2-0.7h-1.5l-0.5,5.9H62.6z"/>
	<polygon class="st1" points="76.5,128.8 77.1,121.6 74.3,121.6 74.4,120.3 81.5,120.3 81.4,121.6 78.6,121.6 78,128.8 	"/>
	<polygon class="st1" points="89.5,121.6 85.4,121.6 85.2,123.9 89.1,123.9 89,125.1 85.1,125.1 84.9,127.6 89.1,127.6 89,128.8 
		83.3,128.8 84,120.3 89.6,120.3 	"/>
	<path class="st1" d="M98.1,128.8l-0.7-2h-4.1l-1,2h-1.6l4.5-8.4h1.3l3.2,8.4H98.1z M93.9,125.6H97l-1.3-3.6L93.9,125.6z"/>
	<polygon class="st2" points="77.8,92.3 59.5,92.3 47.6,34 89.6,34 	"/>
	<path class="st3" d="M40.7,16.1c0,0,12-2,13.1-0.6c1.1,1.3,13,58.3,13,58.3"/>
	<rect x="70.5" y="50.5" class="st1" width="6.6" height="6.6"/>
	
		<rect x="62.8" y="81.3" transform="matrix(0.1766 -0.9843 0.9843 0.1766 -28.8176 134.684)" class="st1" width="6.6" height="6.6"/>
	<rect x="68.6" y="62.1" transform="matrix(0.954 -0.2999 0.2999 0.954 -16.0226 24.1891)" class="st1" width="4.3" height="4.3"/>
	<path class="st2" d="M50.4,47.4c4.1-1.7,10.4-4.1,15.7-3c5.4,1.1,8.1,3.8,14.6,3l6.4-0.8"/>
	<path class="st4" d="M86,45.9c0.5,0.1,1,0.1,1.5,0.1c5.9,0,10.6-4.8,10.6-10.6s-4.8-10.6-10.6-10.6c-5.8,0-10.6,4.8-10.6,10.6"/>
</g>
</svg>
