<svg xmlns="http://www.w3.org/2000/svg" viewBox="0 0 81.3 86.54"><defs><style>.cls-1{fill:#fff;}</style></defs><title>martini</title><g id="Layer_2" data-name="Layer 2"><g id="Mockup"><path class="cls-1" d="M46.13,50.29,74.45,16.41l6.44-7.52a1.67,1.67,0,0,0,.26-1.8,1.71,1.71,0,0,0-1.54-1H14.47L9.92.61a1.69,1.69,0,0,0-2.6,2.16L10.08,6.1H1.69A1.7,1.7,0,0,0,.4,8.89L6.76,16.4h0L35.08,50.29a7.13,7.13,0,0,0,1.31,1.21V75.68l-8.4,5a3.14,3.14,0,0,0,1.61,5.83H51.7a3.14,3.14,0,0,0,1.61-5.83l-8.4-5V51.44a7.81,7.81,0,0,0,1.22-1.15ZM75.93,9.48l-3.55,4.14H20.68L17.26,9.48Zm-63.06,0,3.43,4.14H8.84L5.33,9.48ZM11.67,17h7.42L29.8,30a7.1,7.1,0,0,0,5.69,11.33,7.16,7.16,0,0,0,3.1-.71l4.21,5.1a1.71,1.71,0,0,0,1.31.61,1.66,1.66,0,0,0,1.07-.39,1.69,1.69,0,0,0,.23-2.38l-4.22-5.1a7.1,7.1,0,0,0-5.7-11.33,7.15,7.15,0,0,0-3.09.71L23.48,17H69.54l-26,31.12a3.86,3.86,0,0,1-2.9,1.37,3.81,3.81,0,0,1-3-1.37ZM35.49,37.9a3.72,3.72,0,1,1,3.72-3.72,3.72,3.72,0,0,1-3.72,3.72Zm6,14.91V76.63a1.68,1.68,0,0,0,.83,1.45l8.47,5.08H30.47L39,78.08a1.67,1.67,0,0,0,.82-1.45V52.82a6.91,6.91,0,0,0,1.76,0Z"/><path class="cls-1" d="M50.28,33a1.64,1.64,0,0,0,1.08.4,1.71,1.71,0,0,0,1.3-.61l7.66-9.23.06,0a1.68,1.68,0,0,0,.19-2.38,1.72,1.72,0,0,0-1.31-.61,1.73,1.73,0,0,0-1.33.62l-7.87,9.47A1.68,1.68,0,0,0,50.28,33Z"/><path class="cls-1" d="M46.12,38.71a1.69,1.69,0,1,0-1-2,1.69,1.69,0,0,0,1,2Z"/></g></g></svg>