<svg xmlns="http://www.w3.org/2000/svg" viewBox="0 0 137.26 137.26">
    <defs>
        <linearGradient id="alky-gradient" x1="100%" y1="0%" x2="0%" y2="80%">
            <stop offset="0%" style="stop-color:#1ec4dc;stop-opacity:1" />
            <stop offset="25%" style="stop-color:#369acd;stop-opacity:1" />
            <stop offset="65%" style="stop-color:#4d6fbe;stop-opacity:1" />
            <stop offset="100%" style="stop-color:#6644af;stop-opacity:1" />
        </linearGradient>

        <style>
            .cls-1 {
                <!-- fill: #4d71bc; -->
                fill: url(#alky-gradient);
            }

            .cls-2 {
                font-size: 11.96px;
                font-family: NunitoSans-BoldItalic, Nunito Sans;
                font-weight: 700;
                font-style: italic;
                letter-spacing: 0.12em;
            }

            .cls-2,
            .cls-5 {
                fill: #fff;
            }

            .cls-3 {
                letter-spacing: 0.1em;
            }

            .cls-4 {
                letter-spacing: 0.12em;
            }
        </style>
    </defs>
    <title>Asset 42</title>
    <g id="Layer_2" data-name="Layer 2">
        <g id="Martini_Icon">
            <rect id="Box" class="cls-1" width="137.26" height="137.26" rx="10" ry="10" />
            <g id="Text"><text class="cls-2" transform="translate(39.34 121.7)">MA<tspan class="cls-3" x="21.8" y="0">R
                    </tspan>
                    <tspan class="cls-4" x="31.3" y="0">TINI</tspan>
                </text></g>
            <g id="Martini_Img">
                <path class="cls-5"
                    d="M73.14,67.79l23.32-27.9,5.31-6.19a1.36,1.36,0,0,0,.21-1.48,1.38,1.38,0,0,0-1.26-.82H47.06l-3.74-4.52a1.39,1.39,0,0,0-2.14,1.78l2.27,2.74H36.54a1.4,1.4,0,0,0-1.06,2.3l5.23,6.18h0L64.05,67.79a5.32,5.32,0,0,0,1.07,1V88.7L58.2,92.85a2.58,2.58,0,0,0,1.33,4.8h18.2a2.58,2.58,0,0,0,1.33-4.8L72.14,88.7v-20a5.61,5.61,0,0,0,1-.95Zm24.55-33.6L94.76,37.6H52.19l-2.82-3.41Zm-51.94,0,2.82,3.41H42.43l-2.89-3.41Zm-1,6.19h6.12L59.69,51a5.85,5.85,0,0,0,7.24,8.75L70.4,64a1.41,1.41,0,0,0,1.08.5,1.35,1.35,0,0,0,.88-.32,1.39,1.39,0,0,0,.19-2L69.07,58a5.78,5.78,0,0,0,1.16-3.48,5.85,5.85,0,0,0-8.39-5.27l-7.35-8.88H92.42L71,66a3.17,3.17,0,0,1-2.38,1.13A3.23,3.23,0,0,1,66.18,66ZM64.38,57.59a3.07,3.07,0,1,1,3.06-3.06,3.07,3.07,0,0,1-3.06,3.06Zm5,12.28V89.49A1.38,1.38,0,0,0,70,90.68l7,4.19H60.25l7-4.19a1.38,1.38,0,0,0,.67-1.19V69.88a6.48,6.48,0,0,0,1.46,0Z" />
                <path class="cls-5"
                    d="M76.56,53.57a1.41,1.41,0,0,0,.89.32,1.39,1.39,0,0,0,1.07-.5l6.31-7.6,0,0a1.41,1.41,0,0,0,.17-2,1.42,1.42,0,0,0-1.09-.5,1.45,1.45,0,0,0-1.09.51l-6.48,7.81a1.39,1.39,0,0,0,.18,2Z" />
                <path class="cls-5"
                    d="M73.14,58.26a1.41,1.41,0,0,0,1.56-.35,1.42,1.42,0,0,0,.18-1.63,1.39,1.39,0,0,0-2.56.37,1.41,1.41,0,0,0,.82,1.61Z" />
            </g>
        </g>
    </g>
</svg>