<svg xmlns="http://www.w3.org/2000/svg" xmlns:xlink="http://www.w3.org/1999/xlink" viewBox="0 0 137.26 137.26"><defs><style>.cls-1{fill:url(#linear-gradient);}.cls-2{font-size:11.96px;fill:#fff;font-family:NunitoSans-BoldItalic, Nunito Sans;font-weight:700;font-style:italic;}.cls-2,.cls-9{letter-spacing:0.12em;}.cls-3{letter-spacing:0.08em;}.cls-4{letter-spacing:0.1em;}.cls-5{letter-spacing:0.12em;}.cls-6{letter-spacing:0.08em;}.cls-7{letter-spacing:0.03em;}.cls-8{letter-spacing:0.08em;}.cls-10,.cls-11{fill:none;stroke:#fff;stroke-miterlimit:10;}.cls-10{stroke-width:2.67px;}</style><linearGradient id="linear-gradient" x1="-2300.43" y1="-76.94" x2="-2301.43" y2="-77.74" gradientTransform="matrix(137.26, 0, 0, -137.26, 315900.79, -10552.06)" gradientUnits="userSpaceOnUse"><stop offset="0" stop-color="#1ec4dc"/><stop offset="0.25" stop-color="#369acd"/><stop offset="0.65" stop-color="#4d6fbe"/><stop offset="1" stop-color="#6644af"/></linearGradient></defs><title>Asset 102</title><g id="Layer_2" data-name="Layer 2"><g id="i-love-you-so-matcha"><rect id="Box" class="cls-1" width="137.26" height="137.26" rx="10" ry="10"/><g id="Text"><text class="cls-2" transform="translate(14.73 113.77)">I <tspan class="cls-3" x="9.47" y="0">L</tspan><tspan class="cls-4" x="17.09" y="0">O</tspan><tspan class="cls-5" x="27.62" y="0">VE </tspan><tspan class="cls-6" x="50.75" y="0">Y</tspan><tspan x="59.13" y="0">OU SO </tspan><tspan class="cls-5"><tspan x="24.89" y="12">M</tspan><tspan class="cls-7" x="36.38" y="12">A</tspan><tspan class="cls-8" x="45.65" y="12">T</tspan><tspan class="cls-9" x="53.91" y="12">CHA</tspan></tspan></text></g><g id="Icon"><polygon class="cls-10" points="81.13 93.49 53.38 93.49 48.97 31.82 85.3 31.82 81.13 93.49"/><rect class="cls-11" x="54.97" y="39.49" width="6.83" height="6.83"/><rect class="cls-11" x="67.13" y="37.16" width="4.58" height="4.58"/><rect class="cls-11" x="69.42" y="46.32" width="7.02" height="7.02"/><polygon class="cls-11" points="67.13 84.74 81.38 8.99 83.57 10.47 69.32 86.22 67.13 84.74"/><path class="cls-11" d="M49,46.32s8.91-4.75,15.91-3.41,14.25,3.41,14.25,3.41H85.3"/></g></g></g></svg>