<?xml version="1.0" encoding="utf-8"?>
<!-- Generator: Adobe Illustrator 22.1.0, SVG Export Plug-In . SVG Version: 6.00 Build 0)  -->
<svg version="1.1" id="Layer_1" xmlns="http://www.w3.org/2000/svg" xmlns:xlink="http://www.w3.org/1999/xlink" x="0px" y="0px"
	 viewBox="0 0 137.3 137.3" style="enable-background:new 0 0 137.3 137.3;" xml:space="preserve">
<style type="text/css">
	.st0{fill:url(#SVGID_1_);}
	.st1{fill:#FFFFFF;}
	.st2{fill:none;stroke:#FFFFFF;stroke-width:2.67;stroke-miterlimit:10;}
	.st3{fill:none;stroke:#FFFFFF;stroke-miterlimit:10;}
</style>
<g>
	
		<linearGradient id="SVGID_1_" gradientUnits="userSpaceOnUse" x1="0" y1="137.26" x2="1" y2="137.26" gradientTransform="matrix(-137.26 109.8074 109.8074 137.26 -14928.4844 -18831.7129)">
		<stop  offset="0" style="stop-color:#1EC4DC"/>
		<stop  offset="0.25" style="stop-color:#369ACD"/>
		<stop  offset="0.65" style="stop-color:#4D6FBE"/>
		<stop  offset="1" style="stop-color:#6644AF"/>
	</linearGradient>
	<path class="st0" d="M10,0h117.3c5.5,0,10,4.5,10,10v117.3c0,5.5-4.5,10-10,10H10c-5.5,0-10-4.5-10-10V10C0,4.5,4.5,0,10,0z"/>
	<polygon class="st1" points="15.4,113.8 16.1,105.3 17.6,105.3 17,113.8 	"/>
	<polygon class="st1" points="24.9,113.8 25.6,105.3 27.1,105.3 26.5,112.5 30.5,112.5 30.4,113.8 	"/>
	<path class="st1" d="M34.4,113.4c-0.6-0.3-1.1-0.8-1.4-1.4s-0.5-1.3-0.5-2.1c0-0.9,0.2-1.7,0.5-2.4c0.3-0.7,0.8-1.2,1.4-1.6
		c0.6-0.4,1.3-0.6,2.2-0.6c0.8,0,1.5,0.2,2.1,0.5c0.6,0.3,1.1,0.8,1.4,1.4c0.3,0.6,0.5,1.3,0.5,2.1c0,0.9-0.2,1.7-0.5,2.4
		c-0.3,0.7-0.8,1.2-1.4,1.6c-0.6,0.4-1.3,0.6-2.2,0.6C35.7,113.9,35,113.7,34.4,113.4z M38.4,111.7c0.5-0.6,0.7-1.4,0.7-2.5
		c0-0.9-0.2-1.6-0.6-2.1c-0.4-0.5-1-0.7-1.8-0.7c-0.8,0-1.4,0.3-1.9,0.9c-0.5,0.6-0.7,1.4-0.7,2.5c0,0.9,0.2,1.6,0.6,2.1
		s1,0.7,1.8,0.7C37.3,112.6,37.9,112.3,38.4,111.7z"/>
	<polygon class="st1" points="49.9,105.3 51.4,105.3 47,113.8 45.8,113.8 42.7,105.3 44.3,105.3 46.6,111.8 	"/>
	<polygon class="st1" points="59.2,106.6 55.1,106.6 54.9,108.9 58.8,108.9 58.7,110.1 54.8,110.1 54.6,112.6 58.7,112.6 
		58.6,113.8 53,113.8 53.7,105.3 59.3,105.3 	"/>
	<polygon class="st1" points="73.8,105.3 70.1,109.9 69.7,113.8 68.2,113.8 68.5,109.9 65.5,105.3 67.2,105.3 69.4,108.6 
		72.1,105.3 	"/>
	<path class="st1" d="M76.4,113.4c-0.6-0.3-1.1-0.8-1.4-1.4c-0.3-0.6-0.5-1.3-0.5-2.1c0-0.9,0.2-1.7,0.5-2.4
		c0.3-0.7,0.8-1.2,1.4-1.6s1.3-0.6,2.2-0.6c0.8,0,1.5,0.2,2.1,0.5s1.1,0.8,1.4,1.4c0.3,0.6,0.5,1.3,0.5,2.1c0,0.9-0.2,1.7-0.5,2.4
		c-0.3,0.7-0.8,1.2-1.4,1.6s-1.3,0.6-2.2,0.6C77.7,113.9,77,113.7,76.4,113.4z M80.4,111.7c0.5-0.6,0.7-1.4,0.7-2.5
		c0-0.9-0.2-1.6-0.6-2.1s-1-0.7-1.8-0.7c-0.8,0-1.4,0.3-1.9,0.9s-0.7,1.4-0.7,2.5c0,0.9,0.2,1.6,0.6,2.1c0.4,0.5,1,0.7,1.8,0.7
		C79.3,112.6,79.9,112.3,80.4,111.7z"/>
	<path class="st1" d="M86.3,113.1c-0.6-0.5-0.9-1.3-0.9-2.3c0-0.1,0-0.3,0-0.5l0.4-4.9h1.5l-0.4,5c0,0.1,0,0.2,0,0.4
		c0,0.7,0.2,1.2,0.5,1.5c0.3,0.3,0.8,0.5,1.5,0.5c0.6,0,1.1-0.2,1.5-0.5c0.4-0.3,0.6-0.9,0.6-1.6l0.4-5.2h1.5l-0.4,5
		c-0.1,1.2-0.4,2-1.1,2.6c-0.6,0.6-1.5,0.9-2.6,0.9C87.8,113.9,86.9,113.6,86.3,113.1z"/>
	<path class="st1" d="M101.3,113.6c-0.6-0.2-1.1-0.4-1.5-0.7l0.6-1.1c0.4,0.3,0.9,0.5,1.3,0.7c0.5,0.1,0.9,0.2,1.5,0.2
		c0.6,0,1-0.1,1.3-0.3s0.5-0.5,0.5-0.8c0-0.2-0.1-0.4-0.2-0.6c-0.2-0.2-0.4-0.3-0.6-0.4s-0.6-0.2-1-0.3c-0.6-0.2-1.1-0.3-1.4-0.5
		c-0.4-0.2-0.7-0.4-1-0.7c-0.3-0.3-0.4-0.7-0.4-1.3c0-0.5,0.1-1,0.4-1.3c0.3-0.4,0.7-0.7,1.2-0.9c0.5-0.2,1.1-0.3,1.8-0.3
		c0.6,0,1.2,0.1,1.7,0.3c0.5,0.2,1,0.4,1.3,0.7l-0.6,1.1c-0.4-0.3-0.7-0.5-1.2-0.7c-0.4-0.2-0.8-0.2-1.3-0.2c-0.6,0-1,0.1-1.3,0.3
		c-0.3,0.2-0.5,0.5-0.5,0.9c0,0.2,0.1,0.5,0.3,0.6c0.2,0.2,0.4,0.3,0.6,0.4c0.2,0.1,0.6,0.2,1.1,0.3c0.6,0.2,1.1,0.3,1.4,0.5
		c0.4,0.2,0.7,0.4,0.9,0.7c0.3,0.3,0.4,0.7,0.4,1.2c0,0.8-0.3,1.4-0.9,1.8c-0.6,0.4-1.4,0.7-2.5,0.7
		C102.5,113.9,101.9,113.8,101.3,113.6z"/>
	<path class="st1" d="M111.1,113.4c-0.6-0.3-1.1-0.8-1.4-1.4c-0.3-0.6-0.5-1.3-0.5-2.1c0-0.9,0.2-1.7,0.5-2.4
		c0.3-0.7,0.8-1.2,1.4-1.6s1.3-0.6,2.2-0.6c0.8,0,1.5,0.2,2.1,0.5s1.1,0.8,1.4,1.4c0.3,0.6,0.5,1.3,0.5,2.1c0,0.9-0.2,1.7-0.5,2.4
		c-0.3,0.7-0.8,1.2-1.4,1.6s-1.3,0.6-2.2,0.6C112.4,113.9,111.7,113.7,111.1,113.4z M115,111.7c0.5-0.6,0.7-1.4,0.7-2.5
		c0-0.9-0.2-1.6-0.6-2.1s-1-0.7-1.8-0.7c-0.8,0-1.4,0.3-1.9,0.9s-0.7,1.4-0.7,2.5c0,0.9,0.2,1.6,0.6,2.1c0.4,0.5,1,0.7,1.8,0.7
		C114,112.6,114.6,112.3,115,111.7z"/>
	<polygon class="st1" points="48,117.3 49.2,117.3 48.5,125.8 47.2,125.8 47.6,120.2 45,124.4 44,124.4 42.1,120.3 41.7,125.8 
		40.3,125.8 41,117.3 42.2,117.3 44.6,122.8 	"/>
	<path class="st1" d="M58.3,125.8l-0.7-2h-4.1l-1,2h-1.6l4.5-8.4h1.3l3.2,8.4H58.3z M54.1,122.6h3.1l-1.3-3.6L54.1,122.6z"/>
	<polygon class="st1" points="63,125.8 63.6,118.6 60.9,118.6 61,117.3 68,117.3 67.9,118.6 65.2,118.6 64.6,125.8 	"/>
	<path class="st1" d="M71.2,125.4c-0.6-0.3-1-0.8-1.3-1.4s-0.5-1.3-0.5-2.1c0-0.9,0.2-1.7,0.5-2.4c0.4-0.7,0.8-1.2,1.5-1.6
		c0.6-0.4,1.4-0.6,2.3-0.6c0.6,0,1.1,0.1,1.6,0.3c0.5,0.2,0.9,0.4,1.3,0.7l-0.6,1.1c-0.4-0.3-0.7-0.5-1.1-0.7
		c-0.4-0.1-0.8-0.2-1.2-0.2c-0.9,0-1.5,0.3-2,0.9c-0.5,0.6-0.7,1.4-0.7,2.5c0,0.9,0.2,1.6,0.6,2c0.4,0.5,1,0.7,1.8,0.7
		c0.8,0,1.6-0.3,2.3-0.9l0.4,1.1c-0.3,0.3-0.8,0.6-1.3,0.7c-0.5,0.2-1,0.3-1.6,0.3C72.4,125.9,71.8,125.7,71.2,125.4z"/>
	<polygon class="st1" points="85.3,117.3 86.9,117.3 86.2,125.8 84.7,125.8 85,122.1 80.7,122.1 80.4,125.8 78.9,125.8 79.5,117.3 
		81,117.3 80.8,120.9 85.1,120.9 	"/>
	<path class="st1" d="M95.9,125.8l-0.7-2h-4.1l-1,2h-1.6l4.5-8.4h1.3l3.2,8.4H95.9z M91.7,122.6h3.1l-1.3-3.6L91.7,122.6z"/>
	<polygon class="st2" points="81.1,93.5 53.4,93.5 49,31.8 85.3,31.8 	"/>
	<rect x="55" y="39.5" class="st3" width="6.8" height="6.8"/>
	<rect x="67.1" y="37.2" class="st3" width="4.6" height="4.6"/>
	<rect x="69.4" y="46.3" class="st3" width="7" height="7"/>
	<polygon class="st3" points="67.1,84.7 81.4,9 83.6,10.5 69.3,86.2 	"/>
	<path class="st3" d="M49,46.3c0,0,8.9-4.8,15.9-3.4c7,1.3,14.3,3.4,14.3,3.4h6.1"/>
</g>
</svg>
