<?xml version="1.0" encoding="utf-8"?>
<!-- Generator: Adobe Illustrator 22.1.0, SVG Export Plug-In . SVG Version: 6.00 Build 0)  -->
<svg version="1.1" id="Layer_1" xmlns="http://www.w3.org/2000/svg" xmlns:xlink="http://www.w3.org/1999/xlink" x="0px" y="0px"
	 viewBox="0 0 258.5 80.3" style="enable-background:new 0 0 258.5 80.3;" xml:space="preserve">
<style type="text/css">
	.st0{fill:#6644AF;}
	.st1{fill:#FFFFFF;}
</style>
<g>
	<path class="st0" d="M8.8,0h241c4.8,0,8.8,3.9,8.8,8.8v62.8c0,4.8-3.9,8.8-8.8,8.8H8.8c-4.8,0-8.8-3.9-8.8-8.8V8.8
		C0,3.9,3.9,0,8.8,0z"/>
	<polygon class="st1" points="48.3,33.6 49.9,33.6 49,44.7 47.2,44.7 47.8,37.4 44.5,42.9 43.1,42.9 40.6,37.5 40,44.7 38.2,44.7 
		39.1,33.6 40.7,33.6 43.9,40.8 	"/>
	<polygon class="st1" points="61.5,35.2 56.1,35.2 55.8,38.3 61,38.3 60.8,39.9 55.7,39.9 55.4,43.1 60.9,43.1 60.8,44.7 53.3,44.7 
		54.2,33.6 61.6,33.6 	"/>
	<path class="st1" d="M65.4,33.6h4.1c1.1,0,2.1,0.2,2.9,0.6s1.4,1,1.8,1.8c0.4,0.8,0.6,1.7,0.6,2.8c0,1.2-0.2,2.3-0.7,3.2
		c-0.5,0.9-1.1,1.6-2,2s-2,0.7-3.2,0.7h-4.3L65.4,33.6z M68.7,43.1c2.7,0,4-1.4,4-4.3c0-1.1-0.3-2-0.9-2.6s-1.5-0.9-2.6-0.9h-1.9
		l-0.6,7.8H68.7z"/>
	<polygon class="st1" points="78.2,44.7 79.1,33.6 81.1,33.6 80.3,44.7 	"/>
	<path class="st1" d="M85.9,43.8c-0.8-0.7-1.1-1.7-1.1-3.1c0-0.1,0-0.3,0-0.6l0.5-6.5h2l-0.5,6.5c0,0.1,0,0.3,0,0.5
		c0,0.9,0.2,1.5,0.6,1.9c0.4,0.4,1.1,0.6,1.9,0.6c0.8,0,1.5-0.2,1.9-0.7c0.5-0.4,0.7-1.2,0.8-2.1l0.5-6.8h2l-0.5,6.6
		c-0.1,1.5-0.6,2.7-1.4,3.4c-0.8,0.8-2,1.2-3.4,1.2C87.8,44.9,86.7,44.5,85.9,43.8z"/>
	<polygon class="st1" points="108.1,33.6 109.7,33.6 108.8,44.7 107,44.7 107.6,37.4 104.2,42.9 102.9,42.9 100.4,37.5 99.8,44.7 
		98,44.7 98.9,33.6 100.5,33.6 103.7,40.8 	"/>
	<polygon class="st1" points="124.4,43.1 126.8,43.1 126.7,44.7 119.9,44.7 120,43.1 122.4,43.1 123,36 121,37.1 120.2,35.6 
		123.7,33.6 125.2,33.6 	"/>
	<path class="st1" d="M133.2,43.1h4.9l-0.1,1.6h-7.5l0.1-1.5l4.1-4c0.5-0.5,0.9-1,1.1-1.4c0.2-0.4,0.4-0.8,0.4-1.2
		c0-0.5-0.1-0.8-0.4-1c-0.3-0.2-0.7-0.4-1.2-0.4c-1,0-2,0.4-3.1,1.1l-0.6-1.5c0.5-0.4,1.1-0.7,1.7-0.9c0.6-0.2,1.3-0.3,2.1-0.3
		c1.1,0,1.9,0.3,2.5,0.8s0.9,1.3,0.9,2.2c0,0.6-0.2,1.2-0.5,1.8c-0.3,0.6-0.9,1.2-1.6,2L133.2,43.1z"/>
	<polygon class="st1" points="142.1,41.3 142.2,39.7 146.9,39.7 146.8,41.3 	"/>
	<polygon class="st1" points="155.8,43.1 158.2,43.1 158.1,44.7 151.3,44.7 151.4,43.1 153.8,43.1 154.4,36 152.4,37.1 151.6,35.6 
		155.1,33.6 156.6,33.6 	"/>
	<path class="st1" d="M168.3,38c0.5,0.3,0.9,0.7,1.2,1.1c0.3,0.5,0.4,1.1,0.4,1.7c0,0.8-0.2,1.5-0.5,2.1c-0.3,0.6-0.8,1.1-1.5,1.4
		c-0.6,0.3-1.4,0.5-2.2,0.5c-0.7,0-1.4-0.1-2.1-0.3c-0.7-0.2-1.2-0.5-1.7-1l0.8-1.5c0.9,0.8,1.9,1.1,3.1,1.1c0.7,0,1.2-0.2,1.6-0.6
		c0.4-0.4,0.6-0.9,0.6-1.6c0-0.6-0.2-1-0.5-1.4s-0.8-0.5-1.5-0.5c-0.9,0-1.7,0.3-2.3,0.9h-1.2l0.5-6.5h6.9l-0.1,1.6h-5l-0.2,2.9
		c0.6-0.3,1.2-0.5,1.9-0.5C167.2,37.6,167.8,37.8,168.3,38z"/>
	<path class="st1" d="M174.1,39.5c-0.5-0.5-0.7-1.3-0.7-2.3c0-1.2,0.3-2.1,0.8-2.7c0.5-0.7,1.2-1,2.1-1c0.9,0,1.6,0.3,2,0.8
		c0.5,0.5,0.7,1.3,0.7,2.3c0,1.2-0.3,2.1-0.8,2.7c-0.5,0.7-1.2,1-2.1,1C175.3,40.2,174.6,40,174.1,39.5z M177.1,38.3
		c0.2-0.5,0.3-1.1,0.3-2c0-0.5-0.1-0.9-0.3-1.2c-0.2-0.3-0.4-0.4-0.8-0.4c-0.8,0-1.2,0.9-1.2,2.6c0,0.6,0.1,1,0.3,1.2
		s0.4,0.4,0.8,0.4C176.6,39,176.9,38.7,177.1,38.3z M177,45.2l-1.2-0.8l7.3-11.2l1.2,0.8L177,45.2z M181.7,44.1
		c-0.5-0.5-0.7-1.3-0.7-2.3c0-1.2,0.3-2.1,0.8-2.7c0.5-0.7,1.2-1,2.1-1c0.9,0,1.6,0.3,2,0.8c0.5,0.5,0.7,1.3,0.7,2.3
		c0,1.2-0.3,2.1-0.8,2.8c-0.5,0.7-1.2,1-2.1,1C182.8,44.8,182.1,44.6,181.7,44.1z M184.6,42.9c0.2-0.5,0.3-1.1,0.3-2
		c0-0.5-0.1-1-0.3-1.2c-0.2-0.3-0.5-0.4-0.8-0.4c-0.8,0-1.2,0.9-1.2,2.6c0,0.6,0.1,1,0.3,1.2c0.2,0.3,0.4,0.4,0.8,0.4
		C184.1,43.6,184.4,43.3,184.6,42.9z"/>
	<path class="st1" d="M202.2,37.5c0.5,0.5,0.7,1.2,0.7,2.1c0,0.2,0,0.4,0,0.5l-0.4,4.6h-1.9l0.1-1.1c-0.2,0.4-0.5,0.7-0.9,0.9
		s-0.8,0.3-1.3,0.3c-0.5,0-1-0.1-1.4-0.3c-0.4-0.2-0.7-0.5-0.9-0.8c-0.2-0.3-0.3-0.7-0.3-1.2c0-0.6,0.1-1.1,0.4-1.4
		c0.3-0.4,0.8-0.6,1.4-0.8c0.7-0.2,1.5-0.2,2.6-0.2h0.6l0-0.3c0-0.5-0.1-0.9-0.3-1.2c-0.2-0.3-0.6-0.4-1.2-0.4
		c-0.4,0-0.8,0.1-1.3,0.2c-0.4,0.1-0.9,0.3-1.3,0.6l-0.4-1.4c0.4-0.3,0.9-0.5,1.5-0.7s1.2-0.3,1.8-0.3
		C201,36.8,201.7,37.1,202.2,37.5z M200.4,42.9c0.3-0.3,0.5-0.8,0.6-1.4l0-0.3h-0.4c-0.7,0-1.2,0-1.6,0.1c-0.4,0.1-0.7,0.2-0.8,0.4
		c-0.2,0.2-0.2,0.4-0.2,0.7c0,0.3,0.1,0.6,0.3,0.8s0.5,0.3,0.9,0.3C199.6,43.4,200,43.3,200.4,42.9z"/>
	<polygon class="st1" points="206.5,44.7 207.3,33.6 209.3,33.6 208.4,44.7 	"/>
	<path class="st1" d="M214,44.4c-0.6-0.3-1-0.7-1.3-1.3c-0.3-0.6-0.5-1.2-0.5-2c0-0.9,0.2-1.6,0.5-2.3c0.3-0.6,0.8-1.1,1.5-1.5
		c0.6-0.3,1.4-0.5,2.2-0.5c1.2,0,2.2,0.3,2.9,1l-0.7,1.4c-0.7-0.5-1.4-0.8-2.2-0.8c-0.7,0-1.2,0.2-1.6,0.7c-0.4,0.5-0.6,1.1-0.6,2
		c0,0.7,0.2,1.3,0.5,1.7c0.4,0.4,0.8,0.6,1.5,0.6c0.4,0,0.8-0.1,1.1-0.2c0.3-0.1,0.7-0.3,1.1-0.6l0.4,1.4c-0.3,0.3-0.8,0.5-1.2,0.7
		c-0.5,0.2-1,0.3-1.5,0.3C215.3,44.9,214.6,44.7,214,44.4z"/>
</g>
</svg>
