<svg xmlns="http://www.w3.org/2000/svg" xmlns:xlink="http://www.w3.org/1999/xlink" viewBox="0 0 137.26 137.26"><defs><style>.cls-1{fill:url(#linear-gradient);}.cls-2{font-size:11.96px;fill:#fff;font-family:NunitoSans-BoldItalic, Nunito Sans;font-weight:700;font-style:italic;letter-spacing:0.12em;}.cls-3{letter-spacing:0.11em;}.cls-4{letter-spacing:0.11em;}.cls-5{letter-spacing:0.12em;}.cls-6{fill:none;stroke:#fff;stroke-miterlimit:10;stroke-width:2.33px;}</style><linearGradient id="linear-gradient" x1="-2300.43" y1="98.32" x2="-2301.43" y2="97.52" gradientTransform="matrix(137.26, 0, 0, -137.26, 315900.79, 13503.98)" gradientUnits="userSpaceOnUse"><stop offset="0" stop-color="#1ec4dc"/><stop offset="0.25" stop-color="#369acd"/><stop offset="0.65" stop-color="#4d6fbe"/><stop offset="1" stop-color="#6644af"/></linearGradient></defs><title>Asset 97</title><g id="Layer_2" data-name="Layer 2"><g id="mexican-bulldog"><rect id="Box" class="cls-1" width="137.26" height="137.26" rx="10" ry="10"/><g id="Text"><text class="cls-2" transform="translate(34.95 118.77)">M<tspan class="cls-3" x="11.49" y="0">E</tspan><tspan x="19.88" y="0">XI</tspan><tspan class="cls-4" x="34.05" y="0">C</tspan><tspan x="43.44" y="0">AN </tspan><tspan class="cls-5"><tspan x="0.72" y="12">BULLDOG</tspan></tspan></text></g><g id="Icon"><path class="cls-6" d="M95.12,46h0a19.21,19.21,0,0,1,1.26,6.84c0,12.63-12.47,22.86-27.82,22.86S40.74,65.47,40.74,52.84A19.43,19.43,0,0,1,42,46h0"/><line class="cls-6" x1="42" y1="46" x2="95.12" y2="46"/><line class="cls-6" x1="59.74" y1="101.86" x2="78.06" y2="101.86"/><line class="cls-6" x1="68.57" y1="75.7" x2="68.57" y2="101.86"/><polyline class="cls-6" points="82.14 51.9 100.38 22.69 88.7 16.29 70.46 45.5"/><path class="cls-6" d="M70.46,44.6a31.9,31.9,0,0,1-2.7,13.29l-3,6.65,3.43,2.13s7.54-9.84,10.76-12.31l3.22-2.47"/><path class="cls-6" d="M40.74,52.84s16.37-1.08,22.42,0,14.6,3.86,20.26,2.8,13-2.8,13-2.8"/><line class="cls-6" x1="73.44" y1="40.73" x2="85.42" y2="46.65"/><line class="cls-6" x1="83.14" y1="25.19" x2="95.12" y2="31.12"/><polyline class="cls-6" points="40.74 31.11 54.22 28.15 61.67 68.71"/></g></g></g></svg>