<?xml version="1.0" encoding="utf-8"?>
<!-- Generator: Adobe Illustrator 22.1.0, SVG Export Plug-In . SVG Version: 6.00 Build 0)  -->
<svg version="1.1" id="Layer_1" xmlns="http://www.w3.org/2000/svg" xmlns:xlink="http://www.w3.org/1999/xlink" x="0px" y="0px"
	 viewBox="0 0 137.3 137.3" style="enable-background:new 0 0 137.3 137.3;" xml:space="preserve">
<style type="text/css">
	.st0{fill:url(#SVGID_1_);}
	.st1{fill:#FFFFFF;}
	.st2{fill:none;stroke:#FFFFFF;stroke-width:2.33;stroke-miterlimit:10;}
</style>
<g>
	
		<linearGradient id="SVGID_1_" gradientUnits="userSpaceOnUse" x1="0" y1="137.26" x2="1" y2="137.26" gradientTransform="matrix(-137.26 109.8084 109.8084 137.26 -14928.5537 -18831.7695)">
		<stop  offset="0" style="stop-color:#1EC4DC"/>
		<stop  offset="0.25" style="stop-color:#369ACD"/>
		<stop  offset="0.65" style="stop-color:#4D6FBE"/>
		<stop  offset="1" style="stop-color:#6644AF"/>
	</linearGradient>
	<path class="st0" d="M10,0h117.3c5.5,0,10,4.5,10,10v117.3c0,5.5-4.5,10-10,10H10c-5.5,0-10-4.5-10-10V10C0,4.5,4.5,0,10,0z"/>
	<polygon class="st1" points="43.3,110.3 44.5,110.3 43.8,118.8 42.5,118.8 42.9,113.2 40.4,117.4 39.4,117.4 37.4,113.3 37,118.8 
		35.7,118.8 36.3,110.3 37.5,110.3 40,115.8 	"/>
	<polygon class="st1" points="53.3,111.6 49.2,111.6 49,113.9 52.9,113.9 52.8,115.1 48.9,115.1 48.7,117.6 52.9,117.6 52.8,118.8 
		47.1,118.8 47.8,110.3 53.4,110.3 	"/>
	<polygon class="st1" points="63.2,110.3 59.8,114.5 62.7,118.8 60.9,118.8 58.8,115.6 56.3,118.8 54.5,118.8 58,114.5 55.3,110.3 
		57,110.3 59,113.3 61.4,110.3 	"/>
	<polygon class="st1" points="64.9,118.8 65.5,110.3 67.1,110.3 66.4,118.8 	"/>
	<path class="st1" d="M71.5,118.4c-0.6-0.3-1-0.8-1.3-1.4c-0.3-0.6-0.5-1.3-0.5-2.1c0-0.9,0.2-1.7,0.5-2.4c0.4-0.7,0.8-1.2,1.5-1.6
		s1.4-0.6,2.3-0.6c0.6,0,1.1,0.1,1.6,0.3c0.5,0.2,0.9,0.4,1.3,0.7l-0.6,1.1c-0.4-0.3-0.7-0.5-1.1-0.7c-0.4-0.1-0.8-0.2-1.2-0.2
		c-0.9,0-1.5,0.3-2,0.9c-0.5,0.6-0.7,1.4-0.7,2.5c0,0.9,0.2,1.6,0.6,2c0.4,0.5,1,0.7,1.8,0.7c0.8,0,1.6-0.3,2.3-0.9l0.4,1.1
		c-0.3,0.3-0.8,0.6-1.3,0.7c-0.5,0.2-1,0.3-1.6,0.3C72.8,118.9,72.1,118.7,71.5,118.4z"/>
	<path class="st1" d="M85.5,118.8l-0.7-2h-4.1l-1,2h-1.6l4.5-8.4h1.3l3.2,8.4H85.5z M81.3,115.6h3.1l-1.3-3.6L81.3,115.6z"/>
	<polygon class="st1" points="95.7,110.3 97.1,110.3 96.5,118.8 95.3,118.8 91.3,112.9 90.8,118.8 89.4,118.8 90,110.3 91.2,110.3 
		95.2,116.2 	"/>
	<path class="st1" d="M42.9,127.1c0.2,0.3,0.4,0.7,0.4,1.2c0,0.8-0.3,1.4-0.8,1.8c-0.5,0.4-1.3,0.6-2.2,0.6h-3.9l0.7-8.4h3.6
		c0.9,0,1.6,0.2,2.1,0.6c0.5,0.4,0.7,0.9,0.7,1.5c0,0.5-0.1,0.9-0.4,1.2c-0.3,0.3-0.6,0.6-1.1,0.8C42.3,126.6,42.7,126.8,42.9,127.1
		z M41.4,129.3c0.3-0.2,0.4-0.5,0.4-1c0-0.4-0.1-0.7-0.4-0.9c-0.3-0.2-0.6-0.3-1.2-0.3h-2.1l-0.2,2.5h2.2
		C40.7,129.6,41.1,129.5,41.4,129.3z M38.4,123.5l-0.2,2.4h2c0.6,0,1-0.1,1.2-0.3c0.3-0.2,0.4-0.5,0.4-1c0-0.7-0.5-1.1-1.5-1.1H38.4
		z"/>
	<path class="st1" d="M47,130.1c-0.6-0.5-0.9-1.3-0.9-2.3c0-0.1,0-0.3,0-0.5l0.4-4.9h1.5l-0.4,5c0,0.1,0,0.2,0,0.4
		c0,0.7,0.2,1.2,0.5,1.5c0.3,0.3,0.8,0.5,1.5,0.5c0.6,0,1.1-0.2,1.5-0.5c0.4-0.3,0.6-0.9,0.6-1.6l0.4-5.2h1.5l-0.4,5
		c-0.1,1.2-0.4,2-1.1,2.6c-0.6,0.6-1.5,0.9-2.6,0.9C48.4,130.9,47.6,130.6,47,130.1z"/>
	<polygon class="st1" points="56.1,130.8 56.8,122.3 58.3,122.3 57.8,129.5 61.7,129.5 61.6,130.8 	"/>
	<polygon class="st1" points="64.2,130.8 64.9,122.3 66.4,122.3 65.8,129.5 69.8,129.5 69.7,130.8 	"/>
	<path class="st1" d="M72.9,122.3H76c0.8,0,1.6,0.2,2.2,0.5c0.6,0.3,1.1,0.8,1.4,1.4c0.3,0.6,0.5,1.3,0.5,2.1c0,0.9-0.2,1.8-0.5,2.4
		c-0.4,0.7-0.9,1.2-1.5,1.5c-0.7,0.4-1.5,0.5-2.4,0.5h-3.3L72.9,122.3z M75.4,129.5c2,0,3.1-1.1,3.1-3.3c0-0.9-0.2-1.5-0.7-2
		c-0.5-0.4-1.1-0.7-2-0.7h-1.5l-0.5,5.9H75.4z"/>
	<path class="st1" d="M84.6,130.4c-0.6-0.3-1.1-0.8-1.4-1.4c-0.3-0.6-0.5-1.3-0.5-2.1c0-0.9,0.2-1.7,0.5-2.4s0.8-1.2,1.4-1.6
		c0.6-0.4,1.3-0.6,2.2-0.6c0.8,0,1.5,0.2,2.1,0.5c0.6,0.3,1.1,0.8,1.4,1.4c0.3,0.6,0.5,1.3,0.5,2.1c0,0.9-0.2,1.7-0.5,2.4
		s-0.8,1.2-1.4,1.6c-0.6,0.4-1.3,0.6-2.2,0.6C85.9,130.9,85.2,130.7,84.6,130.4z M88.6,128.7c0.5-0.6,0.7-1.4,0.7-2.5
		c0-0.9-0.2-1.6-0.6-2.1c-0.4-0.5-1-0.7-1.8-0.7c-0.8,0-1.4,0.3-1.9,0.9c-0.5,0.6-0.7,1.4-0.7,2.5c0,0.9,0.2,1.6,0.6,2.1
		c0.4,0.5,1,0.7,1.8,0.7C87.5,129.6,88.1,129.3,88.6,128.7z"/>
	<path class="st1" d="M97.6,126.2h3.2l-0.3,4c-0.4,0.2-0.8,0.4-1.4,0.5c-0.5,0.1-1.1,0.2-1.7,0.2c-0.8,0-1.5-0.2-2.1-0.5
		c-0.6-0.3-1-0.8-1.4-1.4c-0.3-0.6-0.5-1.3-0.5-2.1c0-0.9,0.2-1.8,0.5-2.5c0.4-0.7,0.9-1.2,1.5-1.6c0.7-0.4,1.4-0.6,2.3-0.6
		c1.2,0,2.2,0.3,3,1l-0.6,1.1c-0.4-0.3-0.8-0.5-1.1-0.7c-0.4-0.1-0.8-0.2-1.3-0.2c-0.9,0-1.6,0.3-2.1,0.9c-0.5,0.6-0.7,1.4-0.7,2.5
		c0,0.9,0.2,1.6,0.6,2.1c0.4,0.5,1.1,0.7,1.9,0.7c0.5,0,1-0.1,1.6-0.2l0.2-2.1h-1.8L97.6,126.2z"/>
	<path class="st2" d="M95.1,46L95.1,46c0.8,2.2,1.3,4.5,1.3,6.8c0,12.6-12.5,22.9-27.8,22.9S40.7,65.5,40.7,52.8
		c0-2.3,0.4-4.7,1.3-6.8"/>
	<line class="st2" x1="42" y1="46" x2="95.1" y2="46"/>
	<line class="st2" x1="59.7" y1="101.9" x2="78.1" y2="101.9"/>
	<line class="st2" x1="68.6" y1="75.7" x2="68.6" y2="101.9"/>
	<polyline class="st2" points="82.1,51.9 100.4,22.7 88.7,16.3 70.5,45.5 	"/>
	<path class="st2" d="M70.5,44.6c0.1,4.6-0.9,9.1-2.7,13.3l-3,6.6l3.4,2.1c0,0,7.5-9.8,10.8-12.3l3.2-2.5"/>
	<path class="st2" d="M40.7,52.8c0,0,16.4-1.1,22.4,0c6,1.1,14.6,3.9,20.3,2.8s13-2.8,13-2.8"/>
	<line class="st2" x1="73.4" y1="40.7" x2="85.4" y2="46.6"/>
	<line class="st2" x1="83.1" y1="25.2" x2="95.1" y2="31.1"/>
	<polyline class="st2" points="40.7,31.1 54.2,28.1 61.7,68.7 	"/>
</g>
</svg>
