<svg xmlns="http://www.w3.org/2000/svg" xmlns:xlink="http://www.w3.org/1999/xlink" viewBox="0 0 137.26 137.26"><defs><style>.cls-1{fill:url(#linear-gradient);}.cls-2{font-size:11.96px;font-family:NunitoSans-BoldItalic, Nunito Sans;font-weight:700;font-style:italic;letter-spacing:0.12em;}.cls-2,.cls-9{fill:#fff;}.cls-3{letter-spacing:0.1em;}.cls-4{letter-spacing:0.11em;}.cls-5{letter-spacing:0.12em;}.cls-6{letter-spacing:0.11em;}.cls-7{letter-spacing:0.12em;}.cls-10,.cls-8{fill:none;stroke:#fff;stroke-miterlimit:10;}.cls-8{stroke-width:3.81px;}.cls-10{stroke-width:3.22px;}</style><linearGradient id="linear-gradient" x1="-2612.66" y1="444.05" x2="-2613.66" y2="443.25" gradientTransform="matrix(137.26, 0, 0, -137.26, 358757.52, 60958.79)" gradientUnits="userSpaceOnUse"><stop offset="0" stop-color="#1ec4dc"/><stop offset="0.25" stop-color="#369acd"/><stop offset="0.65" stop-color="#4d6fbe"/><stop offset="1" stop-color="#6644af"/></linearGradient></defs><title>Asset 89</title><g id="Layer_2" data-name="Layer 2"><g id="mezcal-negroni"><rect id="Box" class="cls-1" width="137.26" height="137.26" rx="10" ry="10"/><g id="Text"><text class="cls-2" transform="translate(6.61 122.77)">ME<tspan class="cls-3" x="19.97" y="0">Z</tspan><tspan class="cls-4" x="28.42" y="0">C</tspan><tspan x="37.81" y="0">AL N</tspan><tspan class="cls-5" x="71.23" y="0">E</tspan><tspan x="79.68" y="0">G</tspan><tspan class="cls-6" x="89.88" y="0">R</tspan><tspan class="cls-7" x="99.57" y="0">ONI</tspan></text></g><g id="Icon"><polygon class="cls-8" points="91.11 91.58 51.44 91.58 46.11 53.19 96.78 53.19 91.11 91.58"/><line class="cls-8" x1="48" y1="66.82" x2="93.11" y2="66.82"/><rect class="cls-9" x="55.61" y="81.71" width="7.08" height="7.08"/><rect class="cls-9" x="59.9" y="70.72" width="7.08" height="7.08" transform="translate(18.53 -12.47) rotate(13.13)"/><rect class="cls-9" x="72.45" y="78.81" width="7.08" height="7.08" transform="translate(-23.79 31.36) rotate(-20.23)"/><rect class="cls-9" x="79.61" y="71.25" width="7.08" height="7.08" transform="translate(-11.89 15.84) rotate(-10.16)"/><path class="cls-10" d="M50.18,68h-.45c-7.83,0-14.17-5.87-14.17-13.11S41.9,41.78,49.73,41.78c5,0,13.46,2.74,14.13,12.24"/></g></g></g></svg>