<?xml version="1.0" encoding="utf-8"?>
<!-- Generator: Adobe Illustrator 22.1.0, SVG Export Plug-In . SVG Version: 6.00 Build 0)  -->
<svg version="1.1" id="Layer_1" xmlns="http://www.w3.org/2000/svg" xmlns:xlink="http://www.w3.org/1999/xlink" x="0px" y="0px"
	 viewBox="0 0 137.3 137.3" style="enable-background:new 0 0 137.3 137.3;" xml:space="preserve">
<style type="text/css">
	.st0{fill:url(#SVGID_1_);}
	.st1{fill:#FFFFFF;}
	.st2{fill:none;stroke:#FFFFFF;stroke-width:4.02;stroke-miterlimit:10;}
</style>
<g>
	
		<linearGradient id="SVGID_1_" gradientUnits="userSpaceOnUse" x1="0" y1="137.26" x2="1" y2="137.26" gradientTransform="matrix(-137.26 109.8063 109.8063 137.26 -14928.2227 -18831.8066)">
		<stop  offset="0" style="stop-color:#1EC4DC"/>
		<stop  offset="0.25" style="stop-color:#369ACD"/>
		<stop  offset="0.65" style="stop-color:#4D6FBE"/>
		<stop  offset="1" style="stop-color:#6644AF"/>
	</linearGradient>
	<path class="st0" d="M10,0h117.3c5.5,0,10,4.5,10,10v117.3c0,5.5-4.5,10-10,10H10c-5.5,0-10-4.5-10-10V10C0,4.5,4.5,0,10,0z"/>
	<polygon class="st1" points="22.6,114.3 23.8,114.3 23.1,122.8 21.7,122.8 22.2,117.2 19.6,121.4 18.6,121.4 16.7,117.3 
		16.3,122.8 14.9,122.8 15.6,114.3 16.8,114.3 19.2,119.8 	"/>
	<path class="st1" d="M28.3,122.4c-0.6-0.3-1.1-0.8-1.4-1.4s-0.5-1.3-0.5-2.1c0-0.9,0.2-1.7,0.5-2.4c0.3-0.7,0.8-1.2,1.4-1.6
		c0.6-0.4,1.3-0.6,2.2-0.6c0.8,0,1.5,0.2,2.1,0.5c0.6,0.3,1.1,0.8,1.4,1.4c0.3,0.6,0.5,1.3,0.5,2.1c0,0.9-0.2,1.7-0.5,2.4
		c-0.3,0.7-0.8,1.2-1.4,1.6c-0.6,0.4-1.3,0.6-2.2,0.6C29.6,122.9,28.9,122.7,28.3,122.4z M32.2,120.7c0.5-0.6,0.7-1.4,0.7-2.5
		c0-0.9-0.2-1.6-0.6-2.1c-0.4-0.5-1-0.7-1.8-0.7c-0.8,0-1.4,0.3-1.9,0.9c-0.5,0.6-0.7,1.4-0.7,2.5c0,0.9,0.2,1.6,0.6,2.1
		s1,0.7,1.8,0.7C31.2,121.6,31.8,121.3,32.2,120.7z"/>
	<path class="st1" d="M38.3,122.6c-0.6-0.2-1.1-0.4-1.5-0.7l0.6-1.1c0.4,0.3,0.9,0.5,1.3,0.7c0.5,0.1,0.9,0.2,1.5,0.2
		c0.6,0,1-0.1,1.3-0.3c0.3-0.2,0.5-0.5,0.5-0.8c0-0.2-0.1-0.4-0.2-0.6c-0.2-0.2-0.4-0.3-0.6-0.4s-0.6-0.2-1-0.3
		c-0.6-0.2-1.1-0.3-1.4-0.5c-0.4-0.2-0.7-0.4-1-0.7c-0.3-0.3-0.4-0.7-0.4-1.3c0-0.5,0.1-1,0.4-1.3s0.7-0.7,1.2-0.9s1.1-0.3,1.8-0.3
		c0.6,0,1.2,0.1,1.7,0.3c0.5,0.2,1,0.4,1.3,0.7l-0.6,1.1c-0.4-0.3-0.7-0.5-1.2-0.7s-0.8-0.2-1.3-0.2c-0.6,0-1,0.1-1.3,0.3
		s-0.5,0.5-0.5,0.9c0,0.2,0.1,0.5,0.3,0.6c0.2,0.2,0.4,0.3,0.6,0.4c0.2,0.1,0.6,0.2,1.1,0.3c0.6,0.2,1.1,0.3,1.4,0.5
		c0.4,0.2,0.7,0.4,0.9,0.7c0.3,0.3,0.4,0.7,0.4,1.2c0,0.8-0.3,1.4-0.9,1.8c-0.6,0.4-1.4,0.7-2.5,0.7
		C39.5,122.9,38.9,122.8,38.3,122.6z"/>
	<path class="st1" d="M48.1,122.4c-0.6-0.3-1-0.8-1.3-1.4c-0.3-0.6-0.5-1.3-0.5-2.1c0-0.9,0.2-1.7,0.5-2.4c0.4-0.7,0.8-1.2,1.5-1.6
		c0.6-0.4,1.4-0.6,2.3-0.6c0.6,0,1.1,0.1,1.6,0.3c0.5,0.2,0.9,0.4,1.3,0.7l-0.6,1.1c-0.4-0.3-0.7-0.5-1.1-0.7
		c-0.4-0.1-0.8-0.2-1.2-0.2c-0.9,0-1.5,0.3-2,0.9c-0.5,0.6-0.7,1.4-0.7,2.5c0,0.9,0.2,1.6,0.6,2c0.4,0.5,1,0.7,1.8,0.7
		c0.8,0,1.6-0.3,2.3-0.9l0.4,1.1c-0.3,0.3-0.8,0.6-1.3,0.7c-0.5,0.2-1,0.3-1.6,0.3C49.3,122.9,48.6,122.7,48.1,122.4z"/>
	<path class="st1" d="M57.5,122.4c-0.6-0.3-1.1-0.8-1.4-1.4s-0.5-1.3-0.5-2.1c0-0.9,0.2-1.7,0.5-2.4c0.3-0.7,0.8-1.2,1.4-1.6
		c0.6-0.4,1.3-0.6,2.2-0.6c0.8,0,1.5,0.2,2.1,0.5c0.6,0.3,1.1,0.8,1.4,1.4c0.3,0.6,0.5,1.3,0.5,2.1c0,0.9-0.2,1.7-0.5,2.4
		c-0.3,0.7-0.8,1.2-1.4,1.6c-0.6,0.4-1.3,0.6-2.2,0.6C58.8,122.9,58.1,122.7,57.5,122.4z M61.4,120.7c0.5-0.6,0.7-1.4,0.7-2.5
		c0-0.9-0.2-1.6-0.6-2.1c-0.4-0.5-1-0.7-1.8-0.7c-0.8,0-1.4,0.3-1.9,0.9c-0.5,0.6-0.7,1.4-0.7,2.5c0,0.9,0.2,1.6,0.6,2.1
		s1,0.7,1.8,0.7C60.4,121.6,61,121.3,61.4,120.7z"/>
	<polygon class="st1" points="77.4,114.3 78.8,114.3 75.2,122.8 74,122.8 72.3,116.7 69.7,122.8 68.5,122.8 66.1,114.3 67.7,114.3 
		69.3,120.6 72,114.3 73.1,114.3 74.7,120.7 	"/>
	<polygon class="st1" points="93.2,114.3 94.4,114.3 93.7,122.8 92.3,122.8 92.8,117.2 90.2,121.4 89.2,121.4 87.3,117.3 
		86.9,122.8 85.5,122.8 86.2,114.3 87.4,114.3 89.8,119.8 	"/>
	<path class="st1" d="M98,122.1c-0.6-0.5-0.9-1.3-0.9-2.3c0-0.1,0-0.3,0-0.5l0.4-4.9h1.5l-0.4,5c0,0.1,0,0.2,0,0.4
		c0,0.7,0.2,1.2,0.5,1.5c0.3,0.3,0.8,0.5,1.5,0.5c0.6,0,1.1-0.2,1.5-0.5c0.4-0.3,0.6-0.9,0.6-1.6l0.4-5.2h1.5l-0.4,5
		c-0.1,1.2-0.4,2-1.1,2.6s-1.5,0.9-2.6,0.9C99.4,122.9,98.6,122.6,98,122.1z"/>
	<polygon class="st1" points="107.1,122.8 107.8,114.3 109.3,114.3 108.8,121.5 112.7,121.5 112.6,122.8 	"/>
	<polygon class="st1" points="121.4,115.6 117.3,115.6 117.1,117.9 121,117.9 120.9,119.1 117,119.1 116.8,121.6 120.9,121.6 
		120.9,122.8 115.2,122.8 115.9,114.3 121.5,114.3 	"/>
	<path class="st2" d="M49.2,42.7h36.5c3.8,0,6.9,3.1,6.9,6.9v41.8c0,3.8-3.1,6.9-6.9,6.9H49.2c-3.8,0-6.9-3.1-6.9-6.9V49.6
		C42.3,45.8,45.4,42.7,49.2,42.7z"/>
	<path class="st2" d="M92.6,57.4c0,0,4.3-7.7,12-8s8.7,4.9,6.3,13.9S92.6,82.7,92.6,82.7"/>
	<path class="st2" d="M42.3,58.9c-8.1-1.2-13.7-8.7-12.5-16.8c1.2-8.1,8.7-13.7,16.8-12.5c6.7,1,11.9,6.4,12.6,13.2"/>
	<line class="st2" x1="42.3" y1="49.6" x2="92.6" y2="49.6"/>
	<polyline class="st2" points="32,49.4 42.3,47.4 37.1,33 	"/>
	<line class="st2" x1="50.6" y1="30.7" x2="45.8" y2="44.1"/>
	<path class="st2" d="M81,41.2c0,0-2.2-8.9,2.2-11.9c3-2.1,5.8-4.4,8.5-6.8l3-2.8l1,9.6c0,0-4,13.4-9.9,13.4"/>
</g>
</svg>
