<svg xmlns="http://www.w3.org/2000/svg" xmlns:xlink="http://www.w3.org/1999/xlink" viewBox="0 0 137.26 137.26"><defs><style>.cls-1{fill:url(#linear-gradient);}.cls-2{font-size:11.96px;fill:#fff;font-family:NunitoSans-BoldItalic, Nunito Sans;font-weight:700;font-style:italic;letter-spacing:0.12em;}.cls-3{letter-spacing:0.11em;}.cls-4{letter-spacing:0.1em;}.cls-5{fill:none;stroke:#fff;stroke-miterlimit:10;stroke-width:4.02px;}</style><linearGradient id="linear-gradient" x1="-2300.43" y1="444.05" x2="-2301.43" y2="443.25" gradientTransform="matrix(137.26, 0, 0, -137.26, 315900.79, 60958.79)" gradientUnits="userSpaceOnUse"><stop offset="0" stop-color="#1ec4dc"/><stop offset="0.25" stop-color="#369acd"/><stop offset="0.65" stop-color="#4d6fbe"/><stop offset="1" stop-color="#6644af"/></linearGradient></defs><title>Asset 87</title><g id="Layer_2" data-name="Layer 2"><g id="moscow-mule"><rect id="Box" class="cls-1" width="137.26" height="137.26" rx="10" ry="10"/><g id="Text"><text class="cls-2" transform="translate(14.21 122.77)">MOS<tspan class="cls-3" x="31.3" y="0">C</tspan><tspan class="cls-4" x="40.69" y="0">O</tspan><tspan x="51.22" y="0">W MULE</tspan></text></g><g id="Icon"><rect class="cls-5" x="42.3" y="42.71" width="50.33" height="55.67" rx="6.91" ry="6.91"/><path class="cls-5" d="M92.63,57.38s4.34-7.67,12-8,8.67,4.88,6.34,13.94S92.63,82.71,92.63,82.71"/><path class="cls-5" d="M42.3,58.85A14.83,14.83,0,1,1,59.22,42.71"/><line class="cls-5" x1="42.3" y1="49.62" x2="92.63" y2="49.62"/><polyline class="cls-5" points="31.96 49.36 42.3 47.38 37.13 33.04"/><line class="cls-5" x1="50.63" y1="30.69" x2="45.8" y2="44.1"/><path class="cls-5" d="M81,41.2s-2.17-8.88,2.16-11.85a87,87,0,0,0,8.5-6.81l3-2.83,1,9.64s-4,13.36-9.91,13.36"/></g></g></g></svg>