<?xml version="1.0" encoding="utf-8"?>
<!-- Generator: Adobe Illustrator 22.1.0, SVG Export Plug-In . SVG Version: 6.00 Build 0)  -->
<svg version="1.1" id="Layer_1" xmlns="http://www.w3.org/2000/svg" xmlns:xlink="http://www.w3.org/1999/xlink" x="0px" y="0px"
	 viewBox="0 0 243.9 113.5" style="enable-background:new 0 0 243.9 113.5;" xml:space="preserve">
<style type="text/css">
	.st0{fill:#4D71BC;}
	.st1{fill:#FFFFFF;}
</style>
<g>
	<path class="st0" d="M8.3,0h227.3c4.6,0,8.3,3.7,8.3,8.3v97c0,4.6-3.7,8.3-8.3,8.3H8.3c-4.6,0-8.3-3.7-8.3-8.3v-97
		C0,3.7,3.7,0,8.3,0z"/>
	<polygon class="st1" points="89.3,93.2 90.3,93.2 89.8,100.2 88.7,100.2 89,95.6 86.9,99.1 86.1,99.1 84.5,95.7 84.1,100.2 
		83,100.2 83.5,93.2 84.6,93.2 86.6,97.8 	"/>
	<path class="st1" d="M93.4,99.6c-0.5-0.4-0.7-1.1-0.7-1.9c0-0.1,0-0.2,0-0.4l0.3-4.1h1.2l-0.3,4.1c0,0.1,0,0.2,0,0.3
		c0,0.5,0.1,1,0.4,1.2c0.3,0.3,0.7,0.4,1.2,0.4c0.5,0,0.9-0.1,1.2-0.4c0.3-0.3,0.5-0.7,0.5-1.4l0.3-4.3h1.2l-0.3,4.2
		c-0.1,1-0.4,1.7-0.9,2.2c-0.5,0.5-1.2,0.7-2.2,0.7C94.5,100.3,93.8,100.1,93.4,99.6z"/>
	<polygon class="st1" points="100.9,100.2 101.5,93.2 102.7,93.2 102.3,99.2 105.5,99.2 105.4,100.2 	"/>
	<polygon class="st1" points="108,100.2 108.5,94.3 106.2,94.3 106.3,93.2 112.1,93.2 112,94.3 109.7,94.3 109.3,100.2 	"/>
	<polygon class="st1" points="113.6,100.2 114.1,93.2 115.4,93.2 114.9,100.2 	"/>
	<path class="st1" d="M122.8,93.8c0.4,0.4,0.6,0.8,0.6,1.5c0,0.7-0.2,1.3-0.7,1.7c-0.4,0.4-1.1,0.6-1.9,0.6h-1.8l-0.2,2.7h-1.3
		l0.6-7h2.9C121.8,93.2,122.4,93.4,122.8,93.8z M122.2,95.3c0-0.7-0.4-1.1-1.2-1.1h-1.6l-0.2,2.3h1.6
		C121.7,96.5,122.2,96.1,122.2,95.3z"/>
	<polygon class="st1" points="125.3,100.2 125.8,93.2 127.1,93.2 126.6,99.2 129.9,99.2 129.8,100.2 	"/>
	<path class="st1" d="M137.2,100.2l-0.6-1.6h-3.4l-0.8,1.6h-1.3l3.7-7h1l2.6,7H137.2z M133.8,97.6h2.6l-1-3L133.8,97.6z"/>
	<polygon class="st1" points="145.9,93.2 142.8,97 142.6,100.2 141.3,100.2 141.6,97 139,93.2 140.4,93.2 142.2,96 144.5,93.2 	"/>
	<polygon class="st1" points="152.1,94.2 148.7,94.2 148.5,96.2 151.7,96.2 151.7,97.2 148.4,97.2 148.3,99.2 151.7,99.2 
		151.6,100.2 147,100.2 147.5,93.2 152.2,93.2 	"/>
	<path class="st1" d="M158.5,97.6c0.1,0.1,0.2,0.3,0.3,0.5l1,2.1h-1.4l-1.1-2.2c-0.1-0.2-0.2-0.4-0.4-0.4c-0.2-0.1-0.4-0.1-0.6-0.1
		h-1l-0.2,2.8H154l0.5-7h3.1c0.7,0,1.3,0.2,1.7,0.5s0.6,0.8,0.6,1.4c0,1.2-0.6,1.9-1.9,2.1C158.2,97.4,158.3,97.4,158.5,97.6z
		 M157.3,96.4c0.9,0,1.4-0.4,1.4-1.2c0-0.3-0.1-0.6-0.3-0.8c-0.2-0.2-0.5-0.3-0.9-0.3h-1.8l-0.2,2.2H157.3z"/>
	<path class="st1" d="M136.3,49.1c-2.3-2-5.1-3.5-8-4.4c5.9-3.6,7.8-11.3,4.2-17.2c-3.6-5.9-11.3-7.8-17.2-4.2
		c-5.9,3.6-7.8,11.3-4.2,17.2c1,1.7,2.5,3.2,4.2,4.2c-2.9,0.9-5.6,2.3-7.9,4.3c-1.7-1.5-3.6-2.6-5.8-3.4c4.5-3.1,5.5-9.3,2.4-13.7
		c-3.1-4.5-9.3-5.5-13.7-2.4c-4.5,3.1-5.5,9.3-2.4,13.7c0.7,0.9,1.5,1.8,2.4,2.4c-7,2.4-11.7,9-11.7,16.4v1.1l0.1,0.1h20.9
		c-0.1,1-0.2,1.9-0.2,2.9v1.2c0,5,4.1,9.1,9.1,9.1h0h26.5c5,0,9.1-4.1,9.1-9.1v0v-1.2c0-1-0.1-1.9-0.2-2.9h21l0.1-0.1V62
		c0-7.4-4.7-14-11.7-16.4c4.5-3.1,5.5-9.3,2.4-13.7c-3.1-4.5-9.3-5.5-13.7-2.4c-4.5,3.1-5.5,9.3-2.4,13.7c0.7,0.9,1.5,1.8,2.4,2.4
		C140,46.4,138,47.6,136.3,49.1 M140.7,37.6c0-3.9,3.2-7.1,7.1-7.1c3.9,0,7.1,3.2,7.1,7.1c0,3.9-3.1,7-7,7.1h-0.3
		C143.8,44.7,140.7,41.5,140.7,37.6z M112,34c0-5.4,4.4-9.8,9.8-9.8c5.4,0,9.8,4.4,9.8,9.8c0,5.2-4,9.5-9.2,9.8h-1.1
		C116.1,43.4,112.1,39.2,112,34z M88.9,37.6c0-3.9,3.2-7.1,7.1-7.1c3.9,0,7.1,3.2,7.1,7.1c0,3.9-3.1,7.1-7,7.1h-0.3
		C92,44.6,88.9,41.5,88.9,37.6z M100.2,60.5H81.5c0.8-7.4,7-12.9,14.4-13h0.2c3.4,0,6.7,1.2,9.3,3.5
		C102.9,53.7,101.1,56.9,100.2,60.5z M141.5,67.3c0,3.5-2.8,6.4-6.4,6.4h-26.5c-3.5,0-6.4-2.9-6.4-6.4v-1.2c0-10.6,8.4-19.3,19-19.6
		c0.2,0,0.4,0,0.6,0c0.2,0,0.4,0,0.6,0c10.6,0.4,19,9,19,19.6L141.5,67.3z M138.3,51c2.6-2.3,5.9-3.5,9.4-3.5h0.2
		c7.4,0.1,13.6,5.6,14.4,13h-18.8C142.6,56.9,140.8,53.7,138.3,51"/>
</g>
</svg>
