<svg xmlns="http://www.w3.org/2000/svg" viewBox="0 0 104.54 66.38"><defs><style>.cls-1{fill:#fff;}</style></defs><title>multiplayer</title><g id="Layer_2" data-name="Layer 2"><g id="Mockup"><path class="cls-1" d="M69.66,33.34A26.62,26.62,0,0,0,60,28.07a15.12,15.12,0,1,0-15.63,0,26.83,26.83,0,0,0-9.58,5.21,20.81,20.81,0,0,0-7-4.05,11.94,11.94,0,1,0-13.69,0A21,21,0,0,0,0,49v1.37a.09.09,0,0,0,.08.08h25.3a27,27,0,0,0-.23,3.5v1.4a11,11,0,0,0,11,11H68.22a11,11,0,0,0,11-11V54a27,27,0,0,0-.23-3.5h25.47a.09.09,0,0,0,.08-.08V49A21,21,0,0,0,90.41,29.21a11.94,11.94,0,1,0-13.69,0,20.69,20.69,0,0,0-7.06,4.13m5.28-13.92a8.63,8.63,0,1,1,8.79,8.63H83.4A8.61,8.61,0,0,1,74.94,19.42Zm-34.63-4.3a11.82,11.82,0,1,1,12.5,11.79H51.44A11.83,11.83,0,0,1,40.31,15.12Zm-28,4.3a8.63,8.63,0,1,1,8.79,8.63h-.33A8.62,8.62,0,0,1,12.27,19.42ZM26,47.14H3.35A17.67,17.67,0,0,1,20.77,31.36H21a17.46,17.46,0,0,1,11.27,4.2A27.09,27.09,0,0,0,26,47.14Zm49.91,8.23a7.71,7.71,0,0,1-7.69,7.7H36.11a7.71,7.71,0,0,1-7.69-7.7V54a23.76,23.76,0,0,1,23-23.73c.23,0,.48,0,.71,0s.47,0,.7,0A23.76,23.76,0,0,1,75.87,54ZM72.06,35.64a17.59,17.59,0,0,1,11.38-4.28h.25A17.66,17.66,0,0,1,101.1,47.14H78.33a27.14,27.14,0,0,0-6.27-11.5"/></g></g></svg>