<svg xmlns="http://www.w3.org/2000/svg" viewBox="0 0 243.88 113.5"><defs><style>.cls-1{fill:#4d71bc;}.cls-2{font-size:9.89px;font-family:NunitoSans-BoldItalic, Nunito Sans;font-weight:700;font-style:italic;letter-spacing:0.12em;}.cls-2,.cls-7{fill:#fff;}.cls-3{letter-spacing:0em;}.cls-4{letter-spacing:0.12em;}.cls-5{letter-spacing:0.11em;}.cls-6{letter-spacing:0.04em;}</style></defs><title>Asset 45</title><g id="Layer_2" data-name="Layer 2"><g id="Multiplayer_Icon"><rect id="Box" class="cls-1" width="243.88" height="113.5" rx="8.27" ry="8.27"/><text class="cls-2" transform="translate(82.42 100.21)">MU<tspan class="cls-3" x="17.93" y="0">L</tspan><tspan class="cls-4" x="23.37" y="0">TIP</tspan><tspan class="cls-5" x="42.3" y="0">L</tspan><tspan class="cls-6" x="48.91" y="0">A</tspan><tspan class="cls-4" x="56.62" y="0">YER</tspan></text><path id="Multiplayer_Img" class="cls-7" d="M136.32,49.09a22.12,22.12,0,0,0-8-4.36,12.51,12.51,0,1,0-12.93,0A22.21,22.21,0,0,0,107.47,49a17.45,17.45,0,0,0-5.76-3.36,9.87,9.87,0,1,0-11.33,0A17.33,17.33,0,0,0,78.72,62.05v1.13a.07.07,0,0,0,.07.07H99.7a22.88,22.88,0,0,0-.18,2.89V67.3a9.09,9.09,0,0,0,9.09,9.1h26.51a9.09,9.09,0,0,0,9.1-9.1V66.14a22.88,22.88,0,0,0-.18-2.89h21.05a.08.08,0,0,0,.07-.07V62.05a17.39,17.39,0,0,0-11.68-16.38,9.87,9.87,0,1,0-11.33,0,17,17,0,0,0-5.83,3.42m4.36-11.51A7.14,7.14,0,1,1,148,44.71h-.27A7.13,7.13,0,0,1,140.68,37.58ZM112.05,34a9.77,9.77,0,1,1,10.33,9.75h-1.13A9.78,9.78,0,0,1,112.05,34ZM88.86,37.58a7.13,7.13,0,1,1,7.27,7.13h-.27A7.13,7.13,0,0,1,88.86,37.58ZM100.18,60.5H81.49a14.61,14.61,0,0,1,14.4-13h.21a14.43,14.43,0,0,1,9.32,3.47A22.38,22.38,0,0,0,100.18,60.5Zm41.27,6.8a6.37,6.37,0,0,1-6.36,6.37H108.58a6.37,6.37,0,0,1-6.36-6.37V66.14a19.65,19.65,0,0,1,19-19.62,5.82,5.82,0,0,0,.59,0,5.72,5.72,0,0,0,.58,0,19.65,19.65,0,0,1,19,19.62ZM138.31,51a14.49,14.49,0,0,1,9.4-3.54h.21a14.61,14.61,0,0,1,14.4,13H143.49A22.4,22.4,0,0,0,138.31,51"/></g></g></svg>