<svg xmlns="http://www.w3.org/2000/svg" viewBox="0 0 67.82 67.75"><defs><style>.cls-1{fill:#fff;}</style></defs><title>night-out</title><g id="Layer_2" data-name="Layer 2"><g id="Mockup"><path class="cls-1" d="M19.32,28.05A1.32,1.32,0,1,0,18,26.73a1.32,1.32,0,0,0,1.32,1.32Z"/><path class="cls-1" d="M8.75,7.85l3.13,1.56,1.57,3.14a1.31,1.31,0,0,0,1.18.73h0a1.34,1.34,0,0,0,1.19-.73l1.56-3.14,3.14-1.56a1.33,1.33,0,0,0,.73-1.19,1.31,1.31,0,0,0-.73-1.18L17.39,3.92,15.82.74A1.32,1.32,0,0,0,14.63,0a1.35,1.35,0,0,0-1.19.74L11.88,3.92,8.75,5.48A1.31,1.31,0,0,0,8,6.66a1.33,1.33,0,0,0,.73,1.19Zm4.71-1.77a1.3,1.3,0,0,0,.59-.59l.58-1.18.58,1.18a1.4,1.4,0,0,0,.59.59L17,6.66l-1.17.58a1.37,1.37,0,0,0-.59.6L14.63,9l-.58-1.16a1.32,1.32,0,0,0-.59-.6L12.3,6.66Z"/><path class="cls-1" d="M50.2,10.42l5.32,1.78,1.78,5.33a1.33,1.33,0,0,0,2.51,0l1.78-5.33,5.32-1.78a1.32,1.32,0,0,0,0-2.51L61.58,6.14,59.81.9A1.33,1.33,0,0,0,57.3.9L55.53,6.14,50.2,7.91a1.32,1.32,0,0,0,0,2.51Zm6.79-2a1.32,1.32,0,0,0,.83-.83l.74-2.16.73,2.16a1.32,1.32,0,0,0,.83.83l2.19.73-2.19.73a1.35,1.35,0,0,0-.84.84l-.72,2.18-.73-2.18A1.35,1.35,0,0,0,57,9.9L54.8,9.17Z"/><path class="cls-1" d="M6.09,40A27.79,27.79,0,0,0,33.88,67.75h.29A27.79,27.79,0,0,0,40.49,13V10.06a4,4,0,0,0-4-4H35.2V1.32a1.33,1.33,0,0,0-2.65,0V6.09H31.23a4,4,0,0,0-4,4V13A27.79,27.79,0,0,0,6.09,40Zm2.68,1.33h6.6a39.44,39.44,0,0,0,1.75,10.58H11.73a25.19,25.19,0,0,1-3-10.58Zm4.61,13.23h4.69a26.62,26.62,0,0,0,5.1,8.18,25.3,25.3,0,0,1-9.79-8.18ZM18,41.29H26a97.51,97.51,0,0,0,.68,10.58H19.9A36.42,36.42,0,0,1,18,41.29ZM21,54.52H27a36.43,36.43,0,0,0,2.73,9.71c-4.06-1.74-7-5.73-8.79-9.71Zm17.5-26.47a94.52,94.52,0,0,1,.71,10.59H28.59a94.52,94.52,0,0,1,.71-10.59Zm-8.76-2.64c1.34-8,3.37-10.59,4.19-10.59s2.84,2.63,4.18,10.59Zm9.47,15.88a94.34,94.34,0,0,1-.71,10.58H29.3a94.34,94.34,0,0,1-.71-10.58ZM33.88,65.11c-.82,0-2.85-2.63-4.19-10.59h8.37c-1.34,8-3.36,10.59-4.18,10.59ZM38,64.29a36.52,36.52,0,0,0,2.75-9.77h5.95c-1.79,4-4.64,8.09-8.7,9.77Zm3.82-25.65a97.79,97.79,0,0,0-.69-10.59h6.69a36.78,36.78,0,0,1,1.92,10.59Zm7.92,2.65a37.59,37.59,0,0,1-2,10.58H41.12a97.43,97.43,0,0,0,.69-10.58ZM44.61,62.68a26.91,26.91,0,0,0,5-8.16h4.82a25.37,25.37,0,0,1-9.77,8.16ZM56,51.87H50.51a40.61,40.61,0,0,0,1.87-10.58H59a24.94,24.94,0,0,1-3,10.58Zm3-13.23h-6.6a39.8,39.8,0,0,0-1.79-10.59H56a25,25,0,0,1,3,10.59Zm-4.6-13.23H49.64a26.37,26.37,0,0,0-5.08-8.21,25.17,25.17,0,0,1,9.82,8.21Zm-7.61,0h-6A36.78,36.78,0,0,0,38,15.68c4.06,1.73,7,5.7,8.76,9.73ZM29.91,10.06a1.33,1.33,0,0,1,1.32-1.33h5.29a1.34,1.34,0,0,1,1.33,1.33v2.4a27.79,27.79,0,0,0-7.94,0Zm-6.67,7.11a24.23,24.23,0,0,0-3,4,1.32,1.32,0,0,0,2.26,1.38,16.92,16.92,0,0,1,7.27-6.85A36.68,36.68,0,0,0,27,25.41h-2.4a1.32,1.32,0,0,0,0,2.64h2A97.86,97.86,0,0,0,26,38.64H18a40.33,40.33,0,0,1,.8-6.67,1.32,1.32,0,1,0-2.59-.52,42.36,42.36,0,0,0-.86,7.19H8.77a25.27,25.27,0,0,1,3-10.59H14a1.32,1.32,0,0,0,0-2.64h-.65a25.22,25.22,0,0,1,9.86-8.24Z"/><path class="cls-1" d="M1.32,18.79H2.65v1.32a1.32,1.32,0,1,0,2.64,0V18.79H6.62a1.33,1.33,0,0,0,0-2.65H5.29V14.82a1.32,1.32,0,0,0-2.64,0v1.32H1.32a1.33,1.33,0,0,0,0,2.65Z"/></g></g></svg>