<?xml version="1.0" encoding="utf-8"?>
<!-- Generator: Adobe Illustrator 22.1.0, SVG Export Plug-In . SVG Version: 6.00 Build 0)  -->
<svg version="1.1" id="Layer_1" xmlns="http://www.w3.org/2000/svg" xmlns:xlink="http://www.w3.org/1999/xlink" x="0px" y="0px"
	 viewBox="0 0 137.3 137.3" style="enable-background:new 0 0 137.3 137.3;" xml:space="preserve">
<style type="text/css">
	.st0{fill:url(#SVGID_1_);}
	.st1{fill:#FFFFFF;}
	.st2{fill:none;stroke:#FFFFFF;stroke-width:2.67;stroke-miterlimit:10;}
</style>
<g>
	
		<linearGradient id="SVGID_1_" gradientUnits="userSpaceOnUse" x1="0" y1="137.26" x2="1" y2="137.26" gradientTransform="matrix(-137.26 109.8074 109.8074 137.26 -14928.0762 -18832.0391)">
		<stop  offset="0" style="stop-color:#1EC4DC"/>
		<stop  offset="0.25" style="stop-color:#369ACD"/>
		<stop  offset="0.65" style="stop-color:#4D6FBE"/>
		<stop  offset="1" style="stop-color:#6644AF"/>
	</linearGradient>
	<path class="st0" d="M10,0h117.3c5.5,0,10,4.5,10,10v117.3c0,5.5-4.5,10-10,10H10c-5.5,0-10-4.5-10-10V10C0,4.5,4.5,0,10,0z"/>
	<path class="st1" d="M23.3,122.4c-0.6-0.3-1.1-0.8-1.4-1.4s-0.5-1.3-0.5-2.1c0-0.9,0.2-1.7,0.5-2.4c0.3-0.7,0.8-1.2,1.4-1.6
		c0.6-0.4,1.3-0.6,2.2-0.6c0.8,0,1.5,0.2,2.1,0.5c0.6,0.3,1.1,0.8,1.4,1.4c0.3,0.6,0.5,1.3,0.5,2.1c0,0.9-0.2,1.7-0.5,2.4
		c-0.3,0.7-0.8,1.2-1.4,1.6c-0.6,0.4-1.3,0.6-2.2,0.6C24.6,122.9,23.9,122.7,23.3,122.4z M27.3,120.7c0.5-0.6,0.7-1.4,0.7-2.5
		c0-0.9-0.2-1.6-0.6-2.1c-0.4-0.5-1-0.7-1.8-0.7c-0.8,0-1.4,0.3-1.9,0.9c-0.5,0.6-0.7,1.4-0.7,2.5c0,0.9,0.2,1.6,0.6,2.1
		s1,0.7,1.8,0.7C26.2,121.6,26.8,121.3,27.3,120.7z"/>
	<polygon class="st1" points="32.2,122.8 32.8,114.3 34.4,114.3 33.8,121.5 37.7,121.5 37.6,122.8 	"/>
	<path class="st1" d="M40.9,114.3H44c0.8,0,1.6,0.2,2.2,0.5s1.1,0.8,1.4,1.4c0.3,0.6,0.5,1.3,0.5,2.1c0,0.9-0.2,1.8-0.5,2.4
		c-0.4,0.7-0.9,1.2-1.5,1.5c-0.7,0.4-1.5,0.5-2.4,0.5h-3.3L40.9,114.3z M43.4,121.5c2,0,3.1-1.1,3.1-3.3c0-0.9-0.2-1.5-0.7-2
		c-0.5-0.4-1.1-0.7-2-0.7h-1.5l-0.5,5.9H43.4z"/>
	<polygon class="st1" points="61.4,115.6 57.5,115.6 57.3,117.9 61,117.9 60.9,119.1 57.2,119.1 56.9,122.8 55.4,122.8 56,114.3 
		61.5,114.3 	"/>
	<path class="st1" d="M69.3,122.8l-0.7-2h-4.1l-1,2H62l4.5-8.4h1.3l3.2,8.4H69.3z M65.1,119.6h3.1L67,116L65.1,119.6z"/>
	<path class="st1" d="M74.3,122.6c-0.6-0.2-1.1-0.4-1.5-0.7l0.6-1.1c0.4,0.3,0.9,0.5,1.3,0.7c0.5,0.1,0.9,0.2,1.5,0.2
		c0.6,0,1-0.1,1.3-0.3c0.3-0.2,0.5-0.5,0.5-0.8c0-0.2-0.1-0.4-0.2-0.6c-0.2-0.2-0.4-0.3-0.6-0.4s-0.6-0.2-1-0.3
		c-0.6-0.2-1.1-0.3-1.4-0.5c-0.4-0.2-0.7-0.4-1-0.7c-0.3-0.3-0.4-0.7-0.4-1.3c0-0.5,0.1-1,0.4-1.3c0.3-0.4,0.7-0.7,1.2-0.9
		c0.5-0.2,1.1-0.3,1.8-0.3c0.6,0,1.2,0.1,1.7,0.3s1,0.4,1.3,0.7l-0.6,1.1c-0.4-0.3-0.7-0.5-1.2-0.7c-0.4-0.2-0.8-0.2-1.3-0.2
		c-0.6,0-1,0.1-1.3,0.3c-0.3,0.2-0.5,0.5-0.5,0.9c0,0.2,0.1,0.5,0.3,0.6c0.2,0.2,0.4,0.3,0.6,0.4c0.2,0.1,0.6,0.2,1.1,0.3
		c0.6,0.2,1.1,0.3,1.4,0.5s0.7,0.4,0.9,0.7s0.4,0.7,0.4,1.2c0,0.8-0.3,1.4-0.9,1.8c-0.6,0.4-1.4,0.7-2.5,0.7
		C75.4,122.9,74.8,122.8,74.3,122.6z"/>
	<polygon class="st1" points="88.6,114.3 90.1,114.3 89.5,122.8 88,122.8 88.2,119.1 83.9,119.1 83.7,122.8 82.1,122.8 82.8,114.3 
		84.3,114.3 84,117.9 88.4,117.9 	"/>
	<polygon class="st1" points="92.7,122.8 93.4,114.3 94.9,114.3 94.3,122.8 	"/>
	<path class="st1" d="M99.4,122.4c-0.6-0.3-1.1-0.8-1.4-1.4c-0.3-0.6-0.5-1.3-0.5-2.1c0-0.9,0.2-1.7,0.5-2.4
		c0.3-0.7,0.8-1.2,1.4-1.6s1.3-0.6,2.2-0.6c0.8,0,1.5,0.2,2.1,0.5s1.1,0.8,1.4,1.4c0.3,0.6,0.5,1.3,0.5,2.1c0,0.9-0.2,1.7-0.5,2.4
		c-0.3,0.7-0.8,1.2-1.4,1.6s-1.3,0.6-2.2,0.6C100.7,122.9,100,122.7,99.4,122.4z M103.4,120.7c0.5-0.6,0.7-1.4,0.7-2.5
		c0-0.9-0.2-1.6-0.6-2.1s-1-0.7-1.8-0.7c-0.8,0-1.4,0.3-1.9,0.9s-0.7,1.4-0.7,2.5c0,0.9,0.2,1.6,0.6,2.1c0.4,0.5,1,0.7,1.8,0.7
		C102.3,121.6,102.9,121.3,103.4,120.7z"/>
	<polygon class="st1" points="114.6,114.3 116,114.3 115.3,122.8 114.2,122.8 110.2,116.9 109.7,122.8 108.2,122.8 108.9,114.3 
		110.1,114.3 114.1,120.2 	"/>
	<path class="st2" d="M44.7,43.8c-3.2,5.3-4.8,11.3-4.8,17.5c0,2,0.2,3.9,0.5,5.8c2.5,15,14.6,26.3,29.2,26.3s26.6-11.4,29.2-26.3
		c0.3-1.9,0.5-3.9,0.5-5.8c0-6.2-1.6-12.2-4.8-17.5H44.7z"/>
	<polyline class="st2" points="40.4,67.2 39.9,67.2 39.9,93.5 69.6,93.5 99.2,93.5 99.2,67.2 98.7,67.2 	"/>
	<rect x="44.7" y="52.5" class="st2" width="16.2" height="13.7"/>
	<rect x="58.2" y="62.6" class="st2" width="15.3" height="12.5"/>
	<rect x="79.9" y="49.2" class="st2" width="11.8" height="11.8"/>
	<line class="st2" x1="39.9" y1="61.3" x2="98.7" y2="55.1"/>
</g>
</svg>
