<svg xmlns="http://www.w3.org/2000/svg" xmlns:xlink="http://www.w3.org/1999/xlink" viewBox="0 0 137.26 137.26"><defs><style>.cls-1{fill:url(#linear-gradient);}.cls-2{font-size:11.96px;fill:#fff;font-family:NunitoSans-BoldItalic, Nunito Sans;font-weight:700;font-style:italic;letter-spacing:0.12em;}.cls-3{letter-spacing:0.06em;}.cls-4{letter-spacing:0.11em;}.cls-5{letter-spacing:0.12em;}.cls-6{fill:none;stroke:#fff;stroke-miterlimit:10;stroke-width:2.67px;}</style><linearGradient id="linear-gradient" x1="-2144.31" y1="-76.94" x2="-2145.31" y2="-77.74" gradientTransform="matrix(137.26, 0, 0, -137.26, 294472.43, -10552.06)" gradientUnits="userSpaceOnUse"><stop offset="0" stop-color="#1ec4dc"/><stop offset="0.25" stop-color="#369acd"/><stop offset="0.65" stop-color="#4d6fbe"/><stop offset="1" stop-color="#6644af"/></linearGradient></defs><title>Asset 101</title><g id="Layer_2" data-name="Layer 2"><g id="old-fashion"><rect id="Box" class="cls-1" width="137.26" height="137.26" rx="10" ry="10"/><g id="Text"><text class="cls-2" transform="translate(20.73 122.77)">OLD <tspan class="cls-3" x="33.95" y="0">F</tspan><tspan class="cls-4" x="41.46" y="0">A</tspan><tspan class="cls-5" x="51.67" y="0">SHION</tspan></text></g><g id="Icon"><path class="cls-6" d="M44.67,43.82a33.85,33.85,0,0,0-4.78,17.5,35,35,0,0,0,.49,5.84c2.53,15,14.63,26.33,29.18,26.33S96.2,82.14,98.73,67.16a35,35,0,0,0,.49-5.84,33.85,33.85,0,0,0-4.78-17.5Z"/><polyline class="cls-6" points="40.38 67.16 39.89 67.16 39.89 93.49 69.56 93.49 99.22 93.49 99.22 67.16 98.73 67.16"/><rect class="cls-6" x="44.67" y="52.49" width="16.22" height="13.67"/><rect class="cls-6" x="58.23" y="62.63" width="15.33" height="12.53"/><rect class="cls-6" x="79.89" y="49.16" width="11.83" height="11.83"/><line class="cls-6" x1="39.89" y1="61.32" x2="98.66" y2="55.07"/></g></g></g></svg>