<?xml version="1.0" encoding="utf-8"?>
<!-- Generator: Adobe Illustrator 22.1.0, SVG Export Plug-In . SVG Version: 6.00 Build 0)  -->
<svg version="1.1" id="Layer_1" xmlns="http://www.w3.org/2000/svg" xmlns:xlink="http://www.w3.org/1999/xlink" x="0px" y="0px"
	 viewBox="0 0 137.3 137.3" style="enable-background:new 0 0 137.3 137.3;" xml:space="preserve">
<style type="text/css">
	.st0{fill:url(#SVGID_1_);}
	.st1{fill:#FFFFFF;}
	.st2{fill:none;stroke:#FFFFFF;stroke-width:4.02;stroke-miterlimit:10;}
</style>
<g>
	
		<linearGradient id="SVGID_1_" gradientUnits="userSpaceOnUse" x1="0" y1="137.26" x2="1" y2="137.26" gradientTransform="matrix(-137.26 109.8063 109.8063 137.26 -14928.3896 -18831.6719)">
		<stop  offset="0" style="stop-color:#1EC4DC"/>
		<stop  offset="0.25" style="stop-color:#369ACD"/>
		<stop  offset="0.65" style="stop-color:#4D6FBE"/>
		<stop  offset="1" style="stop-color:#6644AF"/>
	</linearGradient>
	<path class="st0" d="M10,0h117.3c5.5,0,10,4.5,10,10v117.3c0,5.5-4.5,10-10,10H10c-5.5,0-10-4.5-10-10V10C0,4.5,4.5,0,10,0z"/>
	<path class="st1" d="M23.7,115c0.5,0.4,0.7,1,0.7,1.8c0,0.9-0.3,1.6-0.8,2s-1.3,0.7-2.2,0.7h-2.2l-0.3,3.3h-1.5l0.7-8.4h3.6
		C22.5,114.3,23.2,114.6,23.7,115z M22.9,116.8c0-0.9-0.5-1.3-1.5-1.3h-1.9l-0.2,2.8h1.9C22.4,118.3,22.9,117.8,22.9,116.8z"/>
	<polygon class="st1" points="32.9,115.6 28.8,115.6 28.6,117.9 32.5,117.9 32.4,119.1 28.5,119.1 28.3,121.6 32.4,121.6 
		32.3,122.8 26.7,122.8 27.4,114.3 33,114.3 	"/>
	<path class="st1" d="M41.5,122.8l-0.7-2h-4.1l-1,2h-1.6l4.5-8.4h1.3l3.2,8.4H41.5z M37.3,119.6h3.1l-1.3-3.6L37.3,119.6z"/>
	<path class="st1" d="M46.9,122.4c-0.6-0.3-1-0.8-1.3-1.4s-0.5-1.3-0.5-2.1c0-0.9,0.2-1.7,0.5-2.4c0.4-0.7,0.8-1.2,1.5-1.6
		s1.4-0.6,2.3-0.6c0.6,0,1.1,0.1,1.6,0.3s0.9,0.4,1.3,0.7l-0.6,1.1c-0.4-0.3-0.7-0.5-1.1-0.7c-0.4-0.1-0.8-0.2-1.2-0.2
		c-0.9,0-1.5,0.3-2,0.9c-0.5,0.6-0.7,1.4-0.7,2.5c0,0.9,0.2,1.6,0.6,2s1,0.7,1.8,0.7c0.8,0,1.6-0.3,2.3-0.9l0.4,1.1
		c-0.3,0.3-0.8,0.6-1.3,0.7c-0.5,0.2-1,0.3-1.6,0.3C48.2,122.9,47.5,122.7,46.9,122.4z"/>
	<polygon class="st1" points="61.1,114.3 62.6,114.3 61.9,122.8 60.4,122.8 60.7,119.1 56.4,119.1 56.1,122.8 54.6,122.8 
		55.3,114.3 56.8,114.3 56.5,117.9 60.8,117.9 	"/>
	<polygon class="st1" points="77.5,114.3 78.7,114.3 78.1,122.8 76.7,122.8 77.1,117.2 74.6,121.4 73.6,121.4 71.7,117.3 
		71.3,122.8 69.9,122.8 70.5,114.3 71.8,114.3 74.2,119.8 	"/>
	<path class="st1" d="M83.3,122.4c-0.6-0.3-1.1-0.8-1.4-1.4c-0.3-0.6-0.5-1.3-0.5-2.1c0-0.9,0.2-1.7,0.5-2.4
		c0.3-0.7,0.8-1.2,1.4-1.6s1.3-0.6,2.2-0.6c0.8,0,1.5,0.2,2.1,0.5s1.1,0.8,1.4,1.4c0.3,0.6,0.5,1.3,0.5,2.1c0,0.9-0.2,1.7-0.5,2.4
		c-0.3,0.7-0.8,1.2-1.4,1.6s-1.3,0.6-2.2,0.6C84.6,122.9,83.9,122.7,83.3,122.4z M87.2,120.7c0.5-0.6,0.7-1.4,0.7-2.5
		c0-0.9-0.2-1.6-0.6-2.1s-1-0.7-1.8-0.7c-0.8,0-1.4,0.3-1.9,0.9s-0.7,1.4-0.7,2.5c0,0.9,0.2,1.6,0.6,2.1c0.4,0.5,1,0.7,1.8,0.7
		C86.2,121.6,86.8,121.3,87.2,120.7z"/>
	<path class="st1" d="M90.8,121.6l0.8,0c0.4,0,0.7-0.1,0.9-0.3c0.2-0.2,0.3-0.5,0.3-0.9l0.5-6h1.5l-0.5,6c-0.1,0.8-0.3,1.4-0.7,1.8
		c-0.4,0.4-1.1,0.6-1.9,0.7l-0.9,0.1L90.8,121.6z"/>
	<polygon class="st1" points="97.4,122.8 98.1,114.3 99.6,114.3 99,122.8 	"/>
	<polygon class="st1" points="104.2,122.8 104.8,115.6 102,115.6 102.1,114.3 109.2,114.3 109.1,115.6 106.3,115.6 105.8,122.8 	"/>
	<path class="st1" d="M112.4,122.4c-0.6-0.3-1.1-0.8-1.4-1.4c-0.3-0.6-0.5-1.3-0.5-2.1c0-0.9,0.2-1.7,0.5-2.4
		c0.3-0.7,0.8-1.2,1.4-1.6s1.3-0.6,2.2-0.6c0.8,0,1.5,0.2,2.1,0.5s1.1,0.8,1.4,1.4c0.3,0.6,0.5,1.3,0.5,2.1c0,0.9-0.2,1.7-0.5,2.4
		c-0.3,0.7-0.8,1.2-1.4,1.6s-1.3,0.6-2.2,0.6C113.7,122.9,113,122.7,112.4,122.4z M116.4,120.7c0.5-0.6,0.7-1.4,0.7-2.5
		c0-0.9-0.2-1.6-0.6-2.1s-1-0.7-1.8-0.7c-0.8,0-1.4,0.3-1.9,0.9s-0.7,1.4-0.7,2.5c0,0.9,0.2,1.6,0.6,2.1c0.4,0.5,1,0.7,1.8,0.7
		C115.3,121.6,115.9,121.3,116.4,120.7z"/>
	<path class="st2" d="M50.9,54.6h35.4c4,0,7.2,3.2,7.2,7.2v26.9c0,4-3.2,7.2-7.2,7.2H50.9c-4,0-7.2-3.2-7.2-7.2V61.9
		C43.6,57.9,46.9,54.6,50.9,54.6z"/>
	<rect x="49.3" y="40.3" class="st2" width="38.1" height="14.5"/>
	<line class="st2" x1="43" y1="47.5" x2="94.5" y2="47.5"/>
	<path class="st2" d="M43.6,74c0,0,11.4-6,18.4-3.4s7.7,4.4,13.3,4.7s18.1-6.7,18.1-6.7"/>
	<path class="st2" d="M43,21c0,0,11.7-2.3,13.3,0S62,39,62,39"/>
	<path class="st2" d="M77.7,39c0,0-4.6-11,0-15.3c3.4-3.2,6.9-6.1,10.7-8.9c0,0,3,7.2,2.7,9.6s-2.3,12-7.8,13.3L77.7,39z"/>
	<line class="st2" x1="66.7" y1="54.6" x2="75.3" y2="75.3"/>
</g>
</svg>
