<svg xmlns="http://www.w3.org/2000/svg" xmlns:xlink="http://www.w3.org/1999/xlink" viewBox="0 0 137.26 137.26"><defs><style>.cls-1{fill:url(#linear-gradient);}.cls-2{font-size:11.96px;fill:#fff;font-family:NunitoSans-BoldItalic, Nunito Sans;font-weight:700;font-style:italic;letter-spacing:0.12em;}.cls-3{letter-spacing:0.11em;}.cls-4{letter-spacing:0.1em;}.cls-5{letter-spacing:0.09em;}.cls-6{letter-spacing:0.12em;}.cls-7{letter-spacing:0.08em;}.cls-8{fill:none;stroke:#fff;stroke-miterlimit:10;stroke-width:4.02px;}</style><linearGradient id="linear-gradient" x1="-2144.21" y1="610.5" x2="-2145.21" y2="609.7" gradientTransform="matrix(137.26, 0, 0, -137.26, 294457.71, 83805.67)" gradientUnits="userSpaceOnUse"><stop offset="0" stop-color="#1ec4dc"/><stop offset="0.25" stop-color="#369acd"/><stop offset="0.65" stop-color="#4d6fbe"/><stop offset="1" stop-color="#6644af"/></linearGradient></defs><title>Asset 81</title><g id="Layer_2" data-name="Layer 2"><g id="peach-mojito"><rect id="Box" class="cls-1" width="137.26" height="137.26" rx="10" ry="10"/><g id="Text"><text class="cls-2" transform="translate(16.69 122.77)">P<tspan class="cls-3" x="9.33" y="0">E</tspan><tspan class="cls-4" x="17.66" y="0">A</tspan><tspan x="27.71" y="0">CH M</tspan><tspan class="cls-5" x="64.01" y="0">O</tspan><tspan class="cls-6" x="74.36" y="0">JI</tspan><tspan class="cls-7" x="84.87" y="0">T</tspan><tspan class="cls-6" x="93.13" y="0">O</tspan></text></g><g id="Icon"><rect class="cls-8" x="43.63" y="54.63" width="49.85" height="41.32" rx="7.23" ry="7.23"/><rect class="cls-8" x="49.33" y="40.29" width="38.13" height="14.45"/><line class="cls-8" x1="43" y1="47.52" x2="94.47" y2="47.52"/><path class="cls-8" d="M43.63,74S55,68,62,70.62,69.67,75,75.33,75.3s18.14-6.67,18.14-6.67"/><path class="cls-8" d="M43,21s11.67-2.34,13.33,0S62,39,62,39"/><path class="cls-8" d="M77.67,39s-4.58-11,0-15.34a119.69,119.69,0,0,1,10.65-8.88s3,7.22,2.68,9.55-2.35,12-7.84,13.33Z"/><line class="cls-8" x1="66.74" y1="54.63" x2="75.33" y2="75.3"/></g></g></g></svg>