<svg xmlns="http://www.w3.org/2000/svg" xmlns:xlink="http://www.w3.org/1999/xlink" viewBox="0 0 137.26 137.26"><defs><style>.cls-1{fill:url(#linear-gradient);}.cls-2{font-size:11.96px;font-family:NunitoSans-BoldItalic, Nunito Sans;font-weight:700;font-style:italic;letter-spacing:0.11em;}.cls-2,.cls-7{fill:#fff;}.cls-3{letter-spacing:0.12em;}.cls-4{letter-spacing:0.12em;}.cls-5{letter-spacing:0.11em;}.cls-6{letter-spacing:0.03em;}</style><linearGradient id="linear-gradient" x1="-2144.49" y1="270.56" x2="-2145.49" y2="269.76" gradientTransform="matrix(137.26, 0, 0, -137.26, 294496.22, 37145.25)" gradientUnits="userSpaceOnUse"><stop offset="0" stop-color="#1ec4dc"/><stop offset="0.25" stop-color="#369acd"/><stop offset="0.65" stop-color="#4d6fbe"/><stop offset="1" stop-color="#6644af"/></linearGradient></defs><title>Asset 90</title><g id="Layer_2" data-name="Layer 2"><g id="raspberry-beer-margarita"><rect id="Box" class="cls-1" width="137.26" height="137.26" rx="10" ry="10"/><g id="Text"><text class="cls-2" transform="translate(6.55 116.77)">RA<tspan class="cls-3" x="19.86" y="0">SPBER</tspan><tspan x="66.08" y="0">R</tspan><tspan class="cls-3" x="75.73" y="0">Y BEER</tspan><tspan class="cls-4"><tspan x="20.51" y="12">MA</tspan><tspan class="cls-5" x="42.31" y="12">R</tspan><tspan class="cls-3" x="52" y="12">GARI</tspan><tspan class="cls-6" x="87.04" y="12">T</tspan><tspan class="cls-3" x="94.77" y="12">A</tspan></tspan></text></g><g id="Icon"><path class="cls-7" d="M73.67,87a1.49,1.49,0,1,0,1.48,1.49A1.49,1.49,0,0,0,73.67,87Z"/><path class="cls-7" d="M52.83,49.82a1.48,1.48,0,0,0-1.48,1.48V79.63a1.48,1.48,0,0,0,3,0V51.3A1.48,1.48,0,0,0,52.83,49.82Z"/><path class="cls-7" d="M64.69,49.82a1.48,1.48,0,0,0-1.48,1.48V79.63a1.49,1.49,0,0,0,3,0V51.3A1.49,1.49,0,0,0,64.69,49.82Z"/><path class="cls-7" d="M50,96.05H79.67a7.43,7.43,0,0,0,7.42-7.42V84.18H94.5a7.42,7.42,0,0,0,7.42-7.41V51.41A7.43,7.43,0,0,0,94.5,44H87.09V39.5A7.4,7.4,0,0,0,80,26.67a7.43,7.43,0,0,0-6.27-3.44,7.3,7.3,0,0,0-2.79.55,13.26,13.26,0,0,0-20.27,2.35A13.37,13.37,0,0,0,36.52,39.44V57.23A4.52,4.52,0,0,0,42.6,61.4V88.63A7.42,7.42,0,0,0,50,96.05Zm29.66-3H50a4.45,4.45,0,0,1-4.19-3H67.74a1.48,1.48,0,1,0,0-3H45.56V46.73A10.31,10.31,0,0,0,53.3,41a1.08,1.08,0,0,1,.78.31,8.91,8.91,0,0,0,12.64-.16.51.51,0,0,1,.35-.15c2.31,0,3.82.5,4.49,1.47a5,5,0,0,1,.55,2.81v6a4.45,4.45,0,0,0,3,4.19V79.63a1.48,1.48,0,0,0,3,0V55.49a4.45,4.45,0,0,0,3-4.19V40.85a7.75,7.75,0,0,0,3.11,0v46.3H79.6a1.48,1.48,0,1,0,0,2.95h4.27A4.46,4.46,0,0,1,79.67,93.08Zm7.42-40.19H93V75.28H87.09ZM94.5,47A4.45,4.45,0,0,1,99,51.41V76.77a4.45,4.45,0,0,1-4.45,4.45H87.09v-3H94.5A1.49,1.49,0,0,0,96,76.77V51.41a1.49,1.49,0,0,0-1.49-1.49H87.09V47ZM41,58.72a1.55,1.55,0,0,1-1.56-1.49V39.44A10.41,10.41,0,0,1,49.92,29.08a10.19,10.19,0,0,1,1.35.08,1.48,1.48,0,0,0,1.48-.74,10.33,10.33,0,0,1,16.79-1.84,1.49,1.49,0,0,0,1.9.27,4.28,4.28,0,0,1,2.3-.66,4.45,4.45,0,0,1,4.2,3,1.48,1.48,0,0,0,.93.91,1.49,1.49,0,0,0,1.3-.17A4.45,4.45,0,0,1,87,32.56a4.56,4.56,0,0,1-6.77,4.9,1.47,1.47,0,0,0-1.45,0A1.49,1.49,0,0,0,78,38.78V51.3a1.48,1.48,0,0,1-3,0v-6A7.56,7.56,0,0,0,74,40.8c-1.26-1.82-3.59-2.74-6.93-2.74a3.49,3.49,0,0,0-2.49,1,5.85,5.85,0,0,1-4.26,1.81,5.93,5.93,0,0,1-4.16-1.7,4,4,0,0,0-2.86-1.16,3,3,0,0,0-2.67,1.66,7.34,7.34,0,0,1-6.56,4.16,1.48,1.48,0,0,0-1.47,1.49V57.16A1.61,1.61,0,0,1,41,58.72Z"/></g></g></g></svg>