<?xml version="1.0" encoding="utf-8"?>
<!-- Generator: Adobe Illustrator 22.1.0, SVG Export Plug-In . SVG Version: 6.00 Build 0)  -->
<svg version="1.1" id="Layer_1" xmlns="http://www.w3.org/2000/svg" xmlns:xlink="http://www.w3.org/1999/xlink" x="0px" y="0px"
	 viewBox="0 0 137.3 137.3" style="enable-background:new 0 0 137.3 137.3;" xml:space="preserve">
<style type="text/css">
	.st0{fill:url(#SVGID_1_);}
	.st1{fill:#FFFFFF;}
</style>
<g>
	
		<linearGradient id="SVGID_1_" gradientUnits="userSpaceOnUse" x1="0" y1="137.26" x2="1" y2="137.26" gradientTransform="matrix(-137.26 109.8063 109.8063 137.26 -14928.2256 -18831.8047)">
		<stop  offset="0" style="stop-color:#1EC4DC"/>
		<stop  offset="0.25" style="stop-color:#369ACD"/>
		<stop  offset="0.65" style="stop-color:#4D6FBE"/>
		<stop  offset="1" style="stop-color:#6644AF"/>
	</linearGradient>
	<path class="st0" d="M10,0h117.3c5.5,0,10,4.5,10,10v117.3c0,5.5-4.5,10-10,10H10c-5.5,0-10-4.5-10-10V10C0,4.5,4.5,0,10,0z"/>
	<path class="st1" d="M12.7,113.6c0.2,0.2,0.3,0.4,0.4,0.6l1.2,2.6h-1.7l-1.3-2.7c-0.1-0.3-0.3-0.4-0.5-0.5
		c-0.2-0.1-0.4-0.2-0.7-0.2H9l-0.3,3.4H7.2l0.7-8.4h3.8c0.9,0,1.5,0.2,2,0.6c0.5,0.4,0.7,1,0.7,1.7c0,1.5-0.7,2.3-2.2,2.6
		C12.3,113.3,12.5,113.4,12.7,113.6z M11.3,112.2c1.1,0,1.7-0.5,1.7-1.4c0-0.4-0.1-0.7-0.4-0.9c-0.2-0.2-0.6-0.3-1.1-0.3H9.3
		l-0.2,2.7H11.3z"/>
	<path class="st1" d="M23.2,116.8l-0.7-2h-4.1l-1,2h-1.6l4.5-8.4h1.3l3.2,8.4H23.2z M19,113.6h3.1l-1.3-3.6L19,113.6z"/>
	<path class="st1" d="M28.3,116.6c-0.6-0.2-1.1-0.4-1.5-0.7l0.6-1.1c0.4,0.3,0.9,0.5,1.3,0.7c0.5,0.1,0.9,0.2,1.5,0.2
		c0.6,0,1-0.1,1.3-0.3c0.3-0.2,0.5-0.5,0.5-0.8c0-0.2-0.1-0.4-0.2-0.6c-0.2-0.2-0.4-0.3-0.6-0.4s-0.6-0.2-1-0.3
		c-0.6-0.2-1.1-0.3-1.4-0.5c-0.4-0.2-0.7-0.4-1-0.7c-0.3-0.3-0.4-0.7-0.4-1.3c0-0.5,0.1-1,0.4-1.3s0.7-0.7,1.2-0.9s1.1-0.3,1.8-0.3
		c0.6,0,1.2,0.1,1.7,0.3c0.5,0.2,1,0.4,1.3,0.7l-0.6,1.1c-0.4-0.3-0.7-0.5-1.2-0.7s-0.8-0.2-1.3-0.2c-0.6,0-1,0.1-1.3,0.3
		s-0.5,0.5-0.5,0.9c0,0.2,0.1,0.5,0.3,0.6c0.2,0.2,0.4,0.3,0.6,0.4c0.2,0.1,0.6,0.2,1.1,0.3c0.6,0.2,1.1,0.3,1.4,0.5
		c0.4,0.2,0.7,0.4,0.9,0.7c0.3,0.3,0.4,0.7,0.4,1.2c0,0.8-0.3,1.4-0.9,1.8c-0.6,0.4-1.4,0.7-2.5,0.7
		C29.5,116.9,28.8,116.8,28.3,116.6z"/>
	<path class="st1" d="M42.4,109c0.5,0.4,0.7,1,0.7,1.8c0,0.9-0.3,1.6-0.8,2s-1.3,0.7-2.2,0.7h-2.2l-0.3,3.3h-1.5l0.7-8.4h3.6
		C41.3,108.3,41.9,108.6,42.4,109z M41.7,110.8c0-0.9-0.5-1.3-1.5-1.3h-1.9l-0.2,2.8H40C41.1,112.3,41.7,111.8,41.7,110.8z"/>
	<path class="st1" d="M52,113.1c0.2,0.3,0.4,0.7,0.4,1.2c0,0.8-0.3,1.4-0.8,1.8c-0.5,0.4-1.3,0.6-2.2,0.6h-3.9l0.7-8.4h3.6
		c0.9,0,1.6,0.2,2.1,0.6c0.5,0.4,0.7,0.9,0.7,1.5c0,0.5-0.1,0.9-0.4,1.2c-0.3,0.3-0.6,0.6-1.1,0.8C51.4,112.6,51.8,112.8,52,113.1z
		 M50.5,115.3c0.3-0.2,0.4-0.5,0.4-1c0-0.4-0.1-0.7-0.4-0.9c-0.3-0.2-0.6-0.3-1.2-0.3h-2.1l-0.2,2.5h2.2
		C49.8,115.6,50.2,115.5,50.5,115.3z M47.5,109.5l-0.2,2.4h2c0.6,0,1-0.1,1.2-0.3c0.3-0.2,0.4-0.5,0.4-1c0-0.7-0.5-1.1-1.5-1.1H47.5
		z"/>
	<polygon class="st1" points="61.3,109.6 57.1,109.6 57,111.9 60.8,111.9 60.7,113.1 56.8,113.1 56.7,115.6 60.8,115.6 60.7,116.8 
		55.1,116.8 55.7,108.3 61.4,108.3 	"/>
	<path class="st1" d="M69,113.6c0.2,0.2,0.3,0.4,0.4,0.6l1.2,2.6h-1.7l-1.3-2.7c-0.1-0.3-0.3-0.4-0.5-0.5c-0.2-0.1-0.4-0.2-0.7-0.2
		h-1.2l-0.3,3.4h-1.5l0.7-8.4h3.8c0.9,0,1.5,0.2,2,0.6c0.5,0.4,0.7,1,0.7,1.7c0,1.5-0.7,2.3-2.2,2.6C68.6,113.3,68.8,113.4,69,113.6
		z M67.6,112.2c1.1,0,1.7-0.5,1.7-1.4c0-0.4-0.1-0.7-0.4-0.9c-0.2-0.2-0.6-0.3-1.1-0.3h-2.2l-0.2,2.7H67.6z"/>
	<path class="st1" d="M78.8,113.6c0.2,0.2,0.3,0.4,0.4,0.6l1.2,2.6h-1.7l-1.3-2.7c-0.1-0.3-0.3-0.4-0.5-0.5
		c-0.2-0.1-0.4-0.2-0.7-0.2h-1.2l-0.3,3.4h-1.5l0.7-8.4h3.8c0.9,0,1.5,0.2,2,0.6c0.5,0.4,0.7,1,0.7,1.7c0,1.5-0.8,2.3-2.2,2.6
		C78.4,113.3,78.6,113.4,78.8,113.6z M77.3,112.2c1.1,0,1.7-0.5,1.7-1.4c0-0.4-0.1-0.7-0.4-0.9c-0.2-0.2-0.6-0.3-1.1-0.3h-2.2
		l-0.2,2.7H77.3z"/>
	<polygon class="st1" points="90.6,108.3 86.9,112.9 86.5,116.8 85,116.8 85.3,112.9 82.3,108.3 84,108.3 86.2,111.6 88.9,108.3 	
		"/>
	<path class="st1" d="M103.1,113.1c0.2,0.3,0.4,0.7,0.4,1.2c0,0.8-0.3,1.4-0.8,1.8c-0.5,0.4-1.3,0.6-2.2,0.6h-3.9l0.7-8.4h3.6
		c0.9,0,1.6,0.2,2.1,0.6c0.5,0.4,0.7,0.9,0.7,1.5c0,0.5-0.1,0.9-0.4,1.2c-0.3,0.3-0.6,0.6-1.1,0.8
		C102.5,112.6,102.8,112.8,103.1,113.1z M101.6,115.3c0.3-0.2,0.4-0.5,0.4-1c0-0.4-0.1-0.7-0.4-0.9c-0.3-0.2-0.6-0.3-1.2-0.3h-2.1
		l-0.2,2.5h2.2C100.9,115.6,101.3,115.5,101.6,115.3z M98.6,109.5l-0.2,2.4h2c0.6,0,1-0.1,1.2-0.3s0.4-0.5,0.4-1
		c0-0.7-0.5-1.1-1.5-1.1H98.6z"/>
	<polygon class="st1" points="112.3,109.6 108.2,109.6 108,111.9 111.9,111.9 111.8,113.1 107.9,113.1 107.7,115.6 111.8,115.6 
		111.7,116.8 106.1,116.8 106.8,108.3 112.4,108.3 	"/>
	<polygon class="st1" points="120.8,109.6 116.6,109.6 116.5,111.9 120.3,111.9 120.3,113.1 116.4,113.1 116.2,115.6 120.3,115.6 
		120.2,116.8 114.6,116.8 115.2,108.3 120.9,108.3 	"/>
	<path class="st1" d="M128.5,113.6c0.2,0.2,0.3,0.4,0.4,0.6l1.2,2.6h-1.7l-1.3-2.7c-0.1-0.3-0.3-0.4-0.5-0.5s-0.4-0.2-0.7-0.2h-1.2
		l-0.3,3.4H123l0.7-8.4h3.8c0.9,0,1.5,0.2,2,0.6c0.5,0.4,0.7,1,0.7,1.7c0,1.5-0.7,2.3-2.2,2.6C128.1,113.3,128.3,113.4,128.5,113.6z
		 M127.1,112.2c1.1,0,1.7-0.5,1.7-1.4c0-0.4-0.1-0.7-0.4-0.9s-0.6-0.3-1.1-0.3h-2.2l-0.2,2.7H127.1z"/>
	<polygon class="st1" points="35.4,120.3 36.6,120.3 36,128.8 34.6,128.8 35,123.2 32.5,127.4 31.5,127.4 29.6,123.3 29.1,128.8 
		27.8,128.8 28.4,120.3 29.7,120.3 32.1,125.8 	"/>
	<path class="st1" d="M45.7,128.8l-0.7-2h-4.1l-1,2h-1.6l4.5-8.4H44l3.2,8.4H45.7z M41.5,125.6h3.1l-1.3-3.6L41.5,125.6z"/>
	<path class="st1" d="M55,125.6c0.2,0.2,0.3,0.4,0.4,0.6l1.2,2.6H55l-1.3-2.7c-0.1-0.3-0.3-0.4-0.5-0.5c-0.2-0.1-0.4-0.2-0.7-0.2
		h-1.2l-0.3,3.4h-1.5l0.7-8.4H54c0.9,0,1.5,0.2,2,0.6c0.5,0.4,0.7,1,0.7,1.7c0,1.5-0.7,2.3-2.2,2.6C54.6,125.3,54.8,125.4,55,125.6z
		 M53.6,124.2c1.1,0,1.7-0.5,1.7-1.4c0-0.4-0.1-0.7-0.4-0.9c-0.2-0.2-0.6-0.3-1.1-0.3h-2.2l-0.2,2.7H53.6z"/>
	<path class="st1" d="M63.4,124.2h3.2l-0.3,4c-0.4,0.2-0.8,0.4-1.4,0.5c-0.5,0.1-1.1,0.2-1.7,0.2c-0.8,0-1.5-0.2-2.1-0.5
		c-0.6-0.3-1-0.8-1.4-1.4s-0.5-1.3-0.5-2.1c0-0.9,0.2-1.8,0.5-2.5s0.9-1.2,1.5-1.6s1.4-0.6,2.3-0.6c1.2,0,2.2,0.3,3,1l-0.6,1.1
		c-0.4-0.3-0.8-0.5-1.1-0.7s-0.8-0.2-1.3-0.2c-0.9,0-1.6,0.3-2.1,0.9c-0.5,0.6-0.7,1.4-0.7,2.5c0,0.9,0.2,1.6,0.6,2.1
		c0.4,0.5,1.1,0.7,1.9,0.7c0.5,0,1-0.1,1.6-0.2l0.2-2.1h-1.8L63.4,124.2z"/>
	<path class="st1" d="M75.9,128.8l-0.7-2h-4.1l-1,2h-1.6l4.5-8.4h1.3l3.2,8.4H75.9z M71.7,125.6h3.1l-1.3-3.6L71.7,125.6z"/>
	<path class="st1" d="M85.2,125.6c0.2,0.2,0.3,0.4,0.4,0.6l1.2,2.6h-1.7l-1.3-2.7c-0.1-0.3-0.3-0.4-0.5-0.5
		c-0.2-0.1-0.4-0.2-0.7-0.2h-1.2l-0.3,3.4h-1.5l0.7-8.4h3.8c0.9,0,1.5,0.2,2,0.6c0.5,0.4,0.7,1,0.7,1.7c0,1.5-0.8,2.3-2.2,2.6
		C84.8,125.3,85,125.4,85.2,125.6z M83.8,124.2c1.1,0,1.7-0.5,1.7-1.4c0-0.4-0.1-0.7-0.4-0.9c-0.2-0.2-0.6-0.3-1.1-0.3h-2.2
		l-0.2,2.7H83.8z"/>
	<polygon class="st1" points="89.5,128.8 90.1,120.3 91.7,120.3 91,128.8 	"/>
	<polygon class="st1" points="96.3,128.8 96.8,121.6 94.1,121.6 94.2,120.3 101.2,120.3 101.1,121.6 98.4,121.6 97.8,128.8 	"/>
	<path class="st1" d="M108.5,128.8l-0.7-2h-4.1l-1,2h-1.6l4.5-8.4h1.3l3.2,8.4H108.5z M104.3,125.6h3.1l-1.3-3.6L104.3,125.6z"/>
	<path class="st1" d="M73.7,87c-0.8,0-1.5,0.7-1.5,1.5c0,0.8,0.7,1.5,1.5,1.5c0.8,0,1.5-0.7,1.5-1.5v0C75.2,87.7,74.5,87,73.7,87z"
		/>
	<path class="st1" d="M52.8,49.8c-0.8,0-1.5,0.7-1.5,1.5v28.3c0,0.8,0.7,1.5,1.5,1.5c0.8,0,1.5-0.7,1.5-1.5V51.3
		C54.4,50.5,53.7,49.8,52.8,49.8L52.8,49.8z"/>
	<path class="st1" d="M64.7,49.8c-0.8,0-1.5,0.7-1.5,1.5v28.3c0,0.8,0.7,1.5,1.5,1.5s1.5-0.7,1.5-1.5V51.3
		C66.2,50.5,65.5,49.8,64.7,49.8L64.7,49.8z"/>
	<path class="st1" d="M50,96h29.7c4.1,0,7.4-3.3,7.4-7.4v-4.5h7.4c4.1,0,7.4-3.3,7.4-7.4V51.4c0-4.1-3.3-7.4-7.4-7.4h-7.4v-4.5
		c3.3-2.5,3.9-7.1,1.5-10.4c-2-2.6-5.5-3.7-8.6-2.5c-1.4-2.1-3.7-3.4-6.3-3.4c-1,0-1.9,0.2-2.8,0.5c-5.3-5.1-13.7-4.9-18.7,0.4
		c-0.6,0.6-1.1,1.2-1.5,1.9c-7.4-0.4-13.7,5.2-14.1,12.6c0,0.2,0,0.5,0,0.7v17.8c0,2.5,2.1,4.5,4.6,4.4c0.5,0,1-0.1,1.5-0.3v27.2
		C42.6,92.7,45.9,96,50,96z M79.7,93H50c-1.9,0-3.6-1.2-4.2-3h21.9c0.8,0,1.5-0.7,1.5-1.5c0-0.8-0.7-1.5-1.5-1.5H45.6V46.7
		c3.4-0.5,6.3-2.7,7.7-5.7c0.3,0,0.6,0.1,0.8,0.3c3.5,3.4,9.2,3.4,12.6-0.1l0,0c0.1-0.1,0.2-0.1,0.3-0.1c2.3,0,3.8,0.5,4.5,1.5
		c0.5,0.9,0.6,1.8,0.6,2.8v6c0,1.9,1.2,3.6,3,4.2v24.2c0,0.8,0.7,1.5,1.5,1.5c0.8,0,1.5-0.7,1.5-1.5V55.5c1.8-0.6,3-2.3,3-4.2V40.9
		c1,0.2,2.1,0.2,3.1,0v46.3h-4.6c-0.8-0.1-1.5,0.5-1.6,1.4c-0.1,0.8,0.5,1.5,1.4,1.6h0.2h4.3C83.2,91.9,81.6,93.1,79.7,93L79.7,93z
		 M87.1,52.9H93v22.4h-5.9L87.1,52.9z M94.5,47c2.5,0,4.5,1.9,4.5,4.4v0v25.4c0,2.5-2,4.5-4.5,4.5h-7.5v-3h7.4
		c0.8,0,1.5-0.6,1.5-1.5V51.4c0-0.8-0.7-1.5-1.5-1.5h-7.4V47H94.5z M41,58.7c-0.8,0-1.5-0.7-1.6-1.5V39.4c0-5.7,4.7-10.4,10.5-10.4
		h0c0.5,0,0.9,0,1.4,0.1c0.6,0.1,1.2-0.2,1.5-0.7c2.8-5,9-6.8,14-4c1,0.6,2,1.3,2.8,2.2c0.5,0.5,1.3,0.7,1.9,0.3
		c0.7-0.4,1.5-0.7,2.3-0.7c1.9,0,3.6,1.2,4.2,3c0.2,0.4,0.5,0.8,0.9,0.9c0.4,0.1,0.9,0.1,1.3-0.2c2-1.4,4.8-0.9,6.2,1.2
		c0.3,0.4,0.5,0.9,0.6,1.5c0.5,2.5-1,4.9-3.5,5.4c-1.1,0.2-2.3,0.1-3.3-0.5c-0.5-0.3-1-0.3-1.5,0c-0.5,0.3-0.8,0.8-0.8,1.3v12.5
		c0,0.8-0.7,1.5-1.5,1.5S75,52.1,75,51.3v-6c0.1-1.6-0.2-3.1-1-4.5c-1.3-1.8-3.6-2.7-6.9-2.7c-0.9,0-1.8,0.3-2.5,1
		c-1.1,1.2-2.7,1.8-4.3,1.8c-1.6,0-3-0.6-4.2-1.7c-0.8-0.8-1.8-1.2-2.9-1.2c-1.1,0-2.2,0.6-2.7,1.7c-1.2,2.5-3.8,4.1-6.6,4.2
		c-0.8,0-1.5,0.7-1.5,1.5v11.8C42.6,58,41.9,58.7,41,58.7z"/>
</g>
</svg>
