<?xml version="1.0" encoding="utf-8"?>
<!-- Generator: Adobe Illustrator 22.1.0, SVG Export Plug-In . SVG Version: 6.00 Build 0)  -->
<svg version="1.1" id="Layer_1" xmlns="http://www.w3.org/2000/svg" xmlns:xlink="http://www.w3.org/1999/xlink" x="0px" y="0px"
	 viewBox="0 0 137.3 137.3" style="enable-background:new 0 0 137.3 137.3;" xml:space="preserve">
<style type="text/css">
	.st0{fill:#6644AF;}
	.st1{fill:#FFFFFF;}
</style>
<title>Asset 38</title>
<g>
	<path class="st0" d="M10,0h117.3c5.5,0,10,4.5,10,10v117.3c0,5.5-4.5,10-10,10H10c-5.5,0-10-4.5-10-10V10C0,4.5,4.5,0,10,0z"/>
	<path class="st1" d="M39.9,119.2c0.2,0.2,0.3,0.4,0.4,0.6l1.2,2.6h-1.7l-1.3-2.7c-0.1-0.3-0.3-0.4-0.5-0.5
		c-0.2-0.1-0.4-0.2-0.7-0.2h-1.2l-0.3,3.4h-1.5l0.7-8.4h3.8c0.9,0,1.5,0.2,2,0.6c0.5,0.4,0.7,1,0.7,1.7c0,1.5-0.7,2.3-2.2,2.6
		C39.6,118.9,39.8,119,39.9,119.2z M38.5,117.8c1.1,0,1.7-0.5,1.7-1.4c0-0.4-0.1-0.7-0.4-0.9c-0.2-0.2-0.6-0.3-1.1-0.3h-2.2
		l-0.2,2.7H38.5z"/>
	<polygon class="st1" points="50.4,115.1 46.3,115.1 46.1,117.5 50,117.5 49.9,118.7 46,118.7 45.8,121.1 50,121.1 49.9,122.3 
		44.2,122.3 44.9,113.9 50.5,113.9 	"/>
	<polygon class="st1" points="52.7,122.3 53.4,113.9 54.9,113.9 54.3,121.1 58.3,121.1 58.2,122.3 	"/>
	<path class="st1" d="M67.2,122.3l-0.7-2h-4.1l-1,2h-1.6l4.5-8.4h1.3l3.2,8.4H67.2z M63,119.2h3.1l-1.3-3.6L63,119.2z"/>
	<polygon class="st1" points="78.5,113.9 75.1,118.1 78,122.3 76.2,122.3 74.2,119.2 71.6,122.3 69.8,122.3 73.4,118 70.6,113.9 
		72.3,113.9 74.3,116.9 76.7,113.9 	"/>
	<polygon class="st1" points="80.2,122.3 80.9,113.9 82.4,113.9 81.7,122.3 	"/>
	<polygon class="st1" points="91.3,113.9 92.8,113.9 92.1,122.3 90.9,122.3 86.9,116.5 86.4,122.3 85,122.3 85.7,113.9 86.8,113.9 
		90.9,119.8 	"/>
	<path class="st1" d="M99.5,117.8h3.2l-0.3,4c-0.4,0.2-0.8,0.4-1.4,0.5c-0.5,0.1-1.1,0.2-1.7,0.2c-0.8,0-1.5-0.2-2.1-0.5
		c-0.6-0.3-1-0.8-1.4-1.4c-0.3-0.6-0.5-1.3-0.5-2.1c0-0.9,0.2-1.8,0.5-2.5c0.4-0.7,0.9-1.2,1.5-1.6c0.7-0.4,1.4-0.6,2.3-0.6
		c1.2,0,2.2,0.3,3,1l-0.6,1.1c-0.4-0.3-0.8-0.5-1.1-0.7c-0.4-0.1-0.8-0.2-1.3-0.2c-0.9,0-1.6,0.3-2.1,0.9c-0.5,0.6-0.7,1.4-0.7,2.5
		c0,0.9,0.2,1.6,0.6,2.1c0.4,0.5,1.1,0.7,1.9,0.7c0.5,0,1-0.1,1.6-0.2l0.2-2.1h-1.8L99.5,117.8z"/>
	<path class="st1" d="M73.1,69.5c0,6.8,5.5,12.3,12.3,12.3s12.3-5.5,12.3-12.3c0-6.8-5.5-12.3-12.3-12.3S73.1,62.7,73.1,69.5z
		 M85.4,59.6c5.5,0,9.9,4.4,9.9,9.9s-4.4,9.9-9.9,9.9s-9.9-4.4-9.9-9.9v0C75.5,64,80,59.6,85.4,59.6z"/>
	<path class="st1" d="M91.2,94.2H79.6c-0.7,0-1.2,0.5-1.2,1.2c0,0.7,0.5,1.2,1.2,1.2h0h11.6c0.7,0,1.2-0.6,1.2-1.2
		C92.5,94.7,91.9,94.2,91.2,94.2z"/>
	<path class="st1" d="M96.5,89.2H74.3c-0.7,0.1-1.2,0.7-1.1,1.3c0.1,0.6,0.5,1.1,1.1,1.1h22.2c0.7-0.1,1.2-0.7,1.1-1.3
		C97.6,89.7,97.1,89.3,96.5,89.2z"/>
	<path class="st1" d="M47.2,89.2L47.2,89.2c-0.7,0.1-1.2,0.7-1.1,1.3c0.1,0.6,0.5,1.1,1.1,1.1c0.7-0.1,1.2-0.7,1.1-1.3
		C48.3,89.7,47.8,89.3,47.2,89.2z"/>
	<path class="st1" d="M39.8,91.7c-0.7,0-1.2,0.5-1.2,1.2c-0.1,0.7,0.4,1.3,1.1,1.3s1.3-0.4,1.3-1.1v-0.2
		C41,92.2,40.5,91.7,39.8,91.7z"/>
	<path class="st1" d="M104.9,84.3H49.8c-1.2-0.7-2.4-1.4-3.7-2c6.4-11.2,10.5-23.6,11.9-36.5l11.5,11.4c0.2,0.2,0.5,0.4,0.9,0.4h0.2
		c0.4-0.1,0.7-0.3,0.9-0.7c2.3-4.6,1.4-10.3-2.3-13.9l-1-1h8.7c0.7,0,1.2-0.6,1.2-1.2l0,0c0-0.1,0-0.3-0.1-0.4
		c-1.6-4.9-6.2-8.3-11.4-8.2h-1.6l6.2-6.2c0.5-0.5,0.5-1.2,0-1.7l0,0C71,24,70.9,24,70.7,23.9c-4.6-2.3-10.3-1.4-13.9,2.3l-1.2,1.2
		c-0.4,0.4-0.7,0.8-1.1,1.2c-0.3-0.4-0.7-0.8-1.1-1.2l-1.2-1.2c-3.7-3.7-9.3-4.6-13.9-2.3c-0.6,0.3-0.9,1-0.6,1.7
		c0.1,0.1,0.1,0.2,0.2,0.3l6.2,6.2h-1.6c-5.2,0-9.8,3.3-11.4,8.2C31,41,31.3,41.7,32,41.9l0,0c0.1,0,0.3,0.1,0.4,0.1h8.7l-1,1
		c-3.7,3.7-4.6,9.3-2.3,13.9c0.2,0.4,0.5,0.6,0.9,0.7h0.2c0.3,0,0.6-0.1,0.9-0.4l10.7-10.6c-1.3,11.8-5.8,23.1-12.9,32.6
		c-1.6-0.4-3.3-0.8-5-1c-0.4,0-0.8,0.3-0.9,0.7l-0.1,1c0,0.4,0.2,0.7,0.6,0.8h0c1.2,0.2,2.5,0.4,3.7,0.7c-0.4,0.5-0.3,1.2,0.1,1.7
		c0.5,0.4,1.3,0.4,1.7-0.2l0,0c9-11.1,14.4-24.7,15.3-39l1.4-1.4l1.1,1.1c-1.3,15.3-6.4,30-15,42.8c-0.5,0.5-0.4,1.3,0,1.7
		c0.5,0.5,1.3,0.4,1.7,0c0.1-0.1,0.2-0.2,0.2-0.3c0.7-1.1,1.4-2.1,2.1-3.3c5.6,2.7,10.6,6.5,14.6,11.3c0.2,0.2,0.5,0.2,0.7,0.1l0,0
		l1.1-0.9c0.2-0.2,0.3-0.5,0.1-0.7l0,0c-2.3-2.8-5-5.2-7.9-7.4h51.4c0.7,0,1.2-0.5,1.2-1.2c0-0.7-0.5-1.2-1.2-1.2h0L104.9,84.3z
		 M34.3,39.5c1.7-3.1,4.9-4.9,8.4-4.9h1.7c3.1,0,6,1.5,7.8,4c-2.6-0.5-5.3-0.2-7.6,0.9L34.3,39.5z M39.4,54.1c-1-3.3,0-7,2.4-9.4
		l1.2-1.2c1.8-1.8,4.2-2.8,6.7-2.8c0.9,0,1.8,0.1,2.7,0.4L39.4,54.1z M52.2,35c-1.1-1-2.4-1.7-3.8-2.2l-7.3-7.4c3.4-1,7,0,9.4,2.4
		l1.2,1.2c0.6,0.6,1,1.2,1.4,1.9C52.6,32.3,52.3,33.7,52.2,35z M69.8,54.1l-13-13c3.3-1,6.9-0.1,9.4,2.4l1.2,1.2
		C69.9,47.1,70.8,50.8,69.8,54.1z M66.5,34.5c3.5,0,6.7,1.9,8.4,4.9H64.7c-2.4-1.1-5.1-1.5-7.6-0.9c1.8-2.5,4.7-4,7.8-4L66.5,34.5z
		 M54.9,37.4c-0.6-3,0.4-6.1,2.5-8.3l1.2-1.2c2.5-2.5,6.1-3.4,9.4-2.4l-7.3,7.4C58.3,33.7,56.3,35.3,54.9,37.4z"/>
</g>
</svg>
