<svg xmlns="http://www.w3.org/2000/svg" viewBox="0 0 137.26 137.26"><defs><style>.cls-1{fill:#6644af;}.cls-2{font-size:11.96px;font-family:NunitoSans-BoldItalic, Nunito Sans;font-weight:700;font-style:italic;letter-spacing:0.12em;}.cls-2,.cls-6{fill:#fff;}.cls-3{letter-spacing:0.11em;}.cls-4{letter-spacing:0.1em;}.cls-5{letter-spacing:0.12em;}</style></defs><title>Asset 38</title><g id="Layer_2" data-name="Layer 2"><g id="Relaxing_Icon"><rect id="Box" class="cls-1" width="137.26" height="137.26" rx="10" ry="10"/><g id="Text"><text class="cls-2" transform="translate(33.8 122.35)">RE<tspan class="cls-3" x="18.22" y="0">L</tspan><tspan class="cls-4" x="26.22" y="0">A</tspan><tspan class="cls-5" x="36.35" y="0">XING</tspan></text></g><g id="Relaxing_Img"><path class="cls-6" d="M73.08,69.49A12.33,12.33,0,1,0,85.41,57.16,12.33,12.33,0,0,0,73.08,69.49Zm12.33-9.86a9.87,9.87,0,1,1-9.86,9.86A9.86,9.86,0,0,1,85.41,59.63Z"/><path class="cls-6" d="M91.23,94.16H79.6a1.23,1.23,0,1,0,0,2.46H91.23a1.23,1.23,0,0,0,0-2.46Z"/><path class="cls-6" d="M96.51,89.22H74.31a1.24,1.24,0,0,0,0,2.47h22.2a1.24,1.24,0,0,0,0-2.47Z"/><path class="cls-6" d="M47.18,89.22h0a1.24,1.24,0,0,0,0,2.47h0a1.24,1.24,0,0,0,0-2.47Z"/><path class="cls-6" d="M39.78,91.69a1.23,1.23,0,0,0-1.23,1.23h0a1.24,1.24,0,1,0,2.47,0h0A1.24,1.24,0,0,0,39.78,91.69Z"/><path class="cls-6" d="M104.88,84.29H49.8c-1.21-.73-2.45-1.39-3.73-2a93.43,93.43,0,0,0,11.87-36.5l11.47,11.4a1.19,1.19,0,0,0,.86.36.68.68,0,0,0,.2,0,1.21,1.21,0,0,0,.9-.66,12,12,0,0,0-2.26-13.92l-1-1h8.68A1.22,1.22,0,0,0,78,40.7a1.32,1.32,0,0,0-.06-.39,12,12,0,0,0-11.44-8.24h-1.6l6.16-6.2a1.22,1.22,0,0,0,0-1.74,1.24,1.24,0,0,0-.32-.23,12,12,0,0,0-13.92,2.26l-1.17,1.18a10.36,10.36,0,0,0-1.07,1.23,12.48,12.48,0,0,0-1.06-1.23l-1.18-1.18A12,12,0,0,0,38.43,23.9a1.25,1.25,0,0,0-.56,1.66,1.39,1.39,0,0,0,.23.31l6.17,6.2H42.65a12,12,0,0,0-11.44,8.24A1.23,1.23,0,0,0,32,41.87a1.32,1.32,0,0,0,.39.06h8.67l-1,1a12.06,12.06,0,0,0-2.26,13.92,1.23,1.23,0,0,0,.9.66.71.71,0,0,0,.2,0,1.23,1.23,0,0,0,.87-.36L50.43,46.56a66.86,66.86,0,0,1-12.89,32.6,45.77,45.77,0,0,0-5-1,.78.78,0,0,0-.85.69l-.1,1a.72.72,0,0,0,.65.79c1.23.18,2.46.42,3.67.71h0A1.21,1.21,0,0,0,36.05,83l0,0a1.23,1.23,0,0,0,1.74-.17,69.45,69.45,0,0,0,15.34-39l1.42-1.41,1.06,1.06a90.15,90.15,0,0,1-15,42.78,1.23,1.23,0,1,0,2,1.38c.72-1.06,1.41-2.15,2.09-3.25a43.79,43.79,0,0,1,14.6,11.3.49.49,0,0,0,.7.07l1.13-.92a.51.51,0,0,0,.07-.72,45.8,45.8,0,0,0-7.86-7.38h51.42a1.23,1.23,0,1,0,0-2.46ZM34.26,39.47a9.56,9.56,0,0,1,8.39-4.93h1.66a9.52,9.52,0,0,1,7.8,4,12,12,0,0,0-7.63.91Zm5.09,14.64a9.57,9.57,0,0,1,2.43-9.42L43,43.51a9.43,9.43,0,0,1,6.69-2.75,9.74,9.74,0,0,1,2.73.39ZM52.24,35.05a11.93,11.93,0,0,0-3.76-2.23l-7.31-7.36a9.59,9.59,0,0,1,9.42,2.44h0l1.18,1.18A9.61,9.61,0,0,1,53.19,31,11.85,11.85,0,0,0,52.24,35.05ZM69.82,54.11l-13-13a9.51,9.51,0,0,1,9.41,2.36l1.18,1.18A9.57,9.57,0,0,1,69.82,54.11ZM66.51,34.54a9.57,9.57,0,0,1,8.39,4.93H64.69a12,12,0,0,0-7.64-.91,9.54,9.54,0,0,1,7.79-4ZM54.86,37.39a9.31,9.31,0,0,1,2.53-8.31h0l1.17-1.18A9.62,9.62,0,0,1,68,25.46l-7.31,7.36A12,12,0,0,0,54.86,37.39Z"/></g></g></g></svg>