<svg xmlns="http://www.w3.org/2000/svg" viewBox="0 0 74.97 74"><defs><style>.cls-1{fill:#fff;}</style></defs><title>relaxing</title><g id="Layer_2" data-name="Layer 2"><g id="Mockup"><path class="cls-1" d="M41.93,46.87A12.34,12.34,0,1,0,54.26,34.54,12.33,12.33,0,0,0,41.93,46.87ZM54.26,37a9.87,9.87,0,1,1-9.86,9.87A9.87,9.87,0,0,1,54.26,37Z"/><path class="cls-1" d="M60.08,71.53H48.45a1.24,1.24,0,0,0,0,2.47H60.08a1.24,1.24,0,0,0,0-2.47Z"/><path class="cls-1" d="M65.36,66.6H43.16a1.24,1.24,0,0,0,0,2.47h22.2a1.24,1.24,0,1,0,0-2.47Z"/><path class="cls-1" d="M16,66.6h0a1.24,1.24,0,0,0,0,2.47h0a1.24,1.24,0,1,0,0-2.47Z"/><path class="cls-1" d="M8.63,69.07A1.23,1.23,0,0,0,7.4,70.3h0a1.24,1.24,0,0,0,2.47,0h0A1.23,1.23,0,0,0,8.63,69.07Z"/><path class="cls-1" d="M73.73,61.67H18.65c-1.2-.73-2.45-1.39-3.73-2a93.48,93.48,0,0,0,11.87-36.5l11.47,11.4a1.22,1.22,0,0,0,.86.36l.2,0a1.21,1.21,0,0,0,.9-.66A12,12,0,0,0,38,20.32l-1-1h8.67a1.23,1.23,0,0,0,1.23-1.23,1,1,0,0,0-.06-.39A12,12,0,0,0,35.36,9.45h-1.6l6.16-6.2a1.23,1.23,0,0,0,0-1.74,1.18,1.18,0,0,0-.32-.23A12,12,0,0,0,25.67,3.54L24.5,4.71A11.46,11.46,0,0,0,23.43,6a12.6,12.6,0,0,0-1.06-1.24L21.19,3.54A12,12,0,0,0,7.28,1.28a1.22,1.22,0,0,0-.55,1.65A1,1,0,0,0,7,3.25l6.17,6.2H11.5A12,12,0,0,0,.06,17.69a1.25,1.25,0,0,0,.78,1.56,1.32,1.32,0,0,0,.39.06H9.9l-1,1A12.06,12.06,0,0,0,6.63,34.24a1.24,1.24,0,0,0,.91.66l.2,0a1.26,1.26,0,0,0,.87-.36L19.29,23.94A66.9,66.9,0,0,1,6.39,56.53a48.18,48.18,0,0,0-5-1,.76.76,0,0,0-.85.69l-.1,1a.73.73,0,0,0,.65.79c1.23.17,2.46.42,3.68.7h0a1.22,1.22,0,0,0,.16,1.7l0,0a1.22,1.22,0,0,0,1.73-.16A69.4,69.4,0,0,0,22,21.23l1.42-1.41,1.07,1.05a90.24,90.24,0,0,1-15,42.78A1.24,1.24,0,0,0,11.59,65c.71-1.06,1.4-2.14,2.08-3.25a43.85,43.85,0,0,1,14.6,11.31.52.52,0,0,0,.71.07l1.12-.93a.5.5,0,0,0,.07-.71,46.25,46.25,0,0,0-7.86-7.39H73.73a1.23,1.23,0,1,0,0-2.46ZM3.12,16.85a9.58,9.58,0,0,1,8.38-4.94h1.66a9.6,9.6,0,0,1,7.81,4,12,12,0,0,0-7.64.92ZM8.2,31.49a9.57,9.57,0,0,1,2.44-9.43l1.17-1.17a9.48,9.48,0,0,1,6.69-2.76,9.64,9.64,0,0,1,2.73.4ZM21.1,12.43a11.86,11.86,0,0,0-3.76-2.23L10,2.84a9.6,9.6,0,0,1,9.43,2.44h0l1.18,1.18A9.23,9.23,0,0,1,22,8.33,11.52,11.52,0,0,0,21.1,12.43ZM38.67,31.49l-13-13a9.51,9.51,0,0,1,9.41,2.36l1.18,1.17A9.6,9.6,0,0,1,38.67,31.49ZM35.36,11.91a9.59,9.59,0,0,1,8.39,4.94H33.54a12,12,0,0,0-7.64-.92,9.57,9.57,0,0,1,7.8-4ZM23.71,14.76a9.33,9.33,0,0,1,2.53-8.3h0l1.18-1.18a9.57,9.57,0,0,1,9.42-2.44L29.53,10.2A12,12,0,0,0,23.71,14.76Z"/></g></g></svg>