<svg xmlns="http://www.w3.org/2000/svg" viewBox="0 0 243.88 113.5"><defs><style>.cls-1{fill:#451380;}.cls-2{font-size:9.89px;font-family:NunitoSans-BoldItalic, Nunito Sans;font-weight:700;font-style:italic;letter-spacing:0.12em;}.cls-2,.cls-6{fill:#fff;}.cls-3{letter-spacing:0.11em;}.cls-4{letter-spacing:0.04em;}.cls-5{letter-spacing:0.12em;}</style></defs><title>Asset 44</title><g id="Layer_2" data-name="Layer 2"><g id="Single-Player_Icon"><rect id="Box" class="cls-1" width="243.88" height="113.5" rx="8.27" ry="8.27"/><text class="cls-2" transform="translate(76.71 100.21)">SINGLE P<tspan class="cls-3" x="53.73" y="0">L</tspan><tspan class="cls-4" x="60.34" y="0">A</tspan><tspan class="cls-5" x="68.05" y="0">YER</tspan></text><g id="Single-Player_Img"><path class="cls-6" d="M137.93,48.91c.37.34,1,1,1.5,1.42C139,49.86,138.3,49.25,137.93,48.91Z"/><path class="cls-6" d="M139.59,50.49l-.16-.16Z"/><path class="cls-6" d="M146.06,64.08c-.07-.66-.56-2.85-.59-3h0a24.34,24.34,0,0,0-5.59-10.29l0,0,0,0-2.21-2.13.26.24-.26-.24A24.08,24.08,0,0,0,129,43.93a13.61,13.61,0,1,0-14.08,0,24,24,0,0,0-8.61,4.69,18.4,18.4,0,0,0-2.24,2l-.07.09a24.31,24.31,0,0,0-5.62,10.34c-.21.73-.53,3-.53,3a25.25,25.25,0,0,0-.2,3.15V68.5a9.9,9.9,0,0,0,9.9,9.9h28.85a9.9,9.9,0,0,0,9.91-9.9V67.23A25.25,25.25,0,0,0,146.06,64.08ZM111.25,32.27A10.63,10.63,0,1,1,122.5,42.88h-1.23A10.64,10.64,0,0,1,111.25,32.27Zm32,36.23a6.94,6.94,0,0,1-6.92,6.92H107.48a6.94,6.94,0,0,1-6.93-6.92V67.23a21.38,21.38,0,0,1,20.72-21.35c.2,0,.43,0,.63,0s.43,0,.63,0a21.38,21.38,0,0,1,20.72,21.35Z"/></g></g></g></svg>