<svg xmlns="http://www.w3.org/2000/svg" viewBox="0 0 58.85 72.24"><defs><style>.cls-1{fill:#fff;}</style></defs><title>single-player</title><g id="Layer_2" data-name="Layer 2"><g id="Mockup"><path class="cls-1" d="M48.76,36.58c.45.4,1.25,1.14,1.82,1.71C50,37.72,49.21,37,48.76,36.58Z"/><path class="cls-1" d="M50.77,38.48l-.19-.19Z"/><path class="cls-1" d="M58.6,54.93c-.09-.81-.68-3.45-.72-3.62h0a29.57,29.57,0,0,0-6.75-12.44l0,0,0,0-2.69-2.57.32.29-.32-.29a29,29,0,0,0-10.53-5.74,16.46,16.46,0,1,0-17,0,29.36,29.36,0,0,0-10.42,5.67,22.91,22.91,0,0,0-2.7,2.48.94.94,0,0,1-.1.1A29.53,29.53,0,0,0,.88,51.3c-.25.89-.63,3.63-.63,3.63A29.82,29.82,0,0,0,0,58.73v1.53a12,12,0,0,0,12,12H46.87a12,12,0,0,0,12-12V58.73A29.82,29.82,0,0,0,58.6,54.93ZM16.5,16.46A12.86,12.86,0,1,1,30.1,29.29H28.61A12.88,12.88,0,0,1,16.5,16.46Zm38.7,43.8a8.39,8.39,0,0,1-8.38,8.38H11.93a8.39,8.39,0,0,1-8.37-8.38V58.73A25.86,25.86,0,0,1,28.61,32.91c.25,0,.52,0,.77,0s.52,0,.76,0A25.87,25.87,0,0,1,55.2,58.73Z"/></g></g></svg>