<?xml version="1.0" encoding="utf-8"?>
<!-- Generator: Adobe Illustrator 22.1.0, SVG Export Plug-In . SVG Version: 6.00 Build 0)  -->
<svg version="1.1" id="Layer_1" xmlns="http://www.w3.org/2000/svg" xmlns:xlink="http://www.w3.org/1999/xlink" x="0px" y="0px"
	 viewBox="0 0 243.9 113.5" style="enable-background:new 0 0 243.9 113.5;" xml:space="preserve">
<style type="text/css">
	.st0{fill:#451380;}
	.st1{fill:#FFFFFF;}
</style>
<g>
	<path class="st0" d="M8.3,0h227.3c4.6,0,8.3,3.7,8.3,8.3v97c0,4.6-3.7,8.3-8.3,8.3H8.3c-4.6,0-8.3-3.7-8.3-8.3v-97
		C0,3.7,3.7,0,8.3,0z"/>
	<path class="st1" d="M78.3,100.1c-0.5-0.1-0.9-0.3-1.2-0.6l0.5-0.9c0.3,0.3,0.7,0.4,1.1,0.6c0.4,0.1,0.8,0.2,1.2,0.2
		c0.5,0,0.8-0.1,1.1-0.2c0.3-0.2,0.4-0.4,0.4-0.7c0-0.2-0.1-0.4-0.2-0.5c-0.1-0.1-0.3-0.2-0.5-0.3c-0.2-0.1-0.5-0.2-0.8-0.3
		c-0.5-0.1-0.9-0.3-1.2-0.4c-0.3-0.1-0.6-0.3-0.8-0.6c-0.2-0.3-0.3-0.6-0.3-1c0-0.4,0.1-0.8,0.3-1.1s0.6-0.6,1-0.7
		c0.4-0.2,0.9-0.3,1.5-0.3c0.5,0,1,0.1,1.4,0.2s0.8,0.4,1.1,0.6l-0.5,0.9c-0.3-0.2-0.6-0.4-1-0.6c-0.3-0.1-0.7-0.2-1.1-0.2
		c-0.5,0-0.8,0.1-1.1,0.3c-0.3,0.2-0.4,0.4-0.4,0.7c0,0.2,0.1,0.4,0.2,0.5c0.1,0.1,0.3,0.2,0.5,0.3c0.2,0.1,0.5,0.2,0.9,0.3
		c0.5,0.1,0.9,0.3,1.2,0.4c0.3,0.1,0.6,0.3,0.8,0.6c0.2,0.3,0.3,0.6,0.3,1c0,0.6-0.2,1.2-0.7,1.5c-0.5,0.4-1.2,0.5-2.1,0.5
		C79.2,100.3,78.7,100.2,78.3,100.1z"/>
	<polygon class="st1" points="84.8,100.2 85.3,93.2 86.6,93.2 86,100.2 	"/>
	<polygon class="st1" points="94,93.2 95.2,93.2 94.6,100.2 93.7,100.2 90.3,95.4 89.9,100.2 88.7,100.2 89.3,93.2 90.2,93.2 
		93.6,98.1 	"/>
	<path class="st1" d="M100.8,96.4h2.6l-0.3,3.3c-0.3,0.2-0.7,0.3-1.1,0.4c-0.4,0.1-0.9,0.1-1.4,0.1c-0.7,0-1.3-0.1-1.8-0.4
		s-0.9-0.6-1.1-1.1c-0.3-0.5-0.4-1.1-0.4-1.8c0-0.8,0.1-1.5,0.4-2c0.3-0.6,0.7-1,1.3-1.3s1.2-0.5,1.9-0.5c1,0,1.9,0.3,2.5,0.8
		l-0.5,0.9c-0.3-0.3-0.6-0.5-0.9-0.6c-0.3-0.1-0.7-0.2-1-0.2c-0.7,0-1.3,0.3-1.7,0.8c-0.4,0.5-0.6,1.2-0.6,2.1
		c0,0.7,0.2,1.3,0.5,1.7c0.4,0.4,0.9,0.6,1.6,0.6c0.4,0,0.9-0.1,1.3-0.2l0.1-1.7h-1.5L100.8,96.4z"/>
	<polygon class="st1" points="105.7,100.2 106.3,93.2 107.6,93.2 107.1,99.2 110.4,99.2 110.3,100.2 	"/>
	<polygon class="st1" points="117.6,94.2 114.1,94.2 114,96.2 117.2,96.2 117.1,97.2 113.9,97.2 113.7,99.2 117.2,99.2 117.1,100.2 
		112.4,100.2 113,93.2 117.6,93.2 	"/>
	<path class="st1" d="M128.5,93.8c0.4,0.4,0.6,0.8,0.6,1.5c0,0.7-0.2,1.3-0.7,1.7c-0.4,0.4-1.1,0.6-1.9,0.6h-1.8l-0.2,2.7h-1.3
		l0.6-7h2.9C127.5,93.2,128.1,93.4,128.5,93.8z M127.9,95.3c0-0.7-0.4-1.1-1.2-1.1H125l-0.2,2.3h1.6
		C127.4,96.5,127.9,96.1,127.9,95.3z"/>
	<polygon class="st1" points="131,100.2 131.6,93.2 132.8,93.2 132.4,99.2 135.6,99.2 135.5,100.2 	"/>
	<path class="st1" d="M143,100.2l-0.6-1.6H139l-0.8,1.6h-1.3l3.7-7h1l2.6,7H143z M139.5,97.6h2.6l-1-3L139.5,97.6z"/>
	<polygon class="st1" points="151.7,93.2 148.5,97 148.3,100.2 147,100.2 147.3,97 144.7,93.2 146.2,93.2 148,96 150.2,93.2 	"/>
	<polygon class="st1" points="157.8,94.2 154.4,94.2 154.2,96.2 157.5,96.2 157.4,97.2 154.2,97.2 154,99.2 157.4,99.2 157.3,100.2 
		152.7,100.2 153.2,93.2 157.9,93.2 	"/>
	<path class="st1" d="M164.2,97.6c0.1,0.1,0.2,0.3,0.3,0.5l1,2.1h-1.4l-1.1-2.2c-0.1-0.2-0.2-0.4-0.4-0.4c-0.2-0.1-0.4-0.1-0.6-0.1
		h-1l-0.2,2.8h-1.3l0.5-7h3.1c0.7,0,1.3,0.2,1.7,0.5c0.4,0.3,0.6,0.8,0.6,1.4c0,1.2-0.6,1.9-1.9,2.1
		C163.9,97.4,164.1,97.4,164.2,97.6z M163,96.4c0.9,0,1.4-0.4,1.4-1.2c0-0.3-0.1-0.6-0.3-0.8c-0.2-0.2-0.5-0.3-0.9-0.3h-1.8
		l-0.2,2.2H163z"/>
	<path class="st1" d="M137.9,48.9c0.4,0.3,1,1,1.5,1.4C139,49.9,138.3,49.3,137.9,48.9z"/>
	<path class="st1" d="M139.6,50.5l-0.2-0.2L139.6,50.5z"/>
	<path class="st1" d="M146.1,64.1c-0.1-0.7-0.6-2.8-0.6-3c-1-3.8-2.9-7.4-5.6-10.3l-2.2-2.1l0.3,0.2l-0.3-0.2
		c-2.5-2.2-5.5-3.8-8.7-4.7c6.4-3.9,8.5-12.3,4.6-18.7c-3.9-6.4-12.3-8.5-18.7-4.6c-6.4,3.9-8.5,12.3-4.6,18.7
		c1.1,1.9,2.7,3.5,4.6,4.6c-3.2,1-6.1,2.6-8.6,4.7c-0.8,0.6-1.5,1.3-2.2,2l-0.1,0.1c-2.7,2.9-4.6,6.5-5.6,10.3c-0.2,0.7-0.5,3-0.5,3
		c-0.1,1-0.2,2.1-0.2,3.2v1.3c0,5.5,4.4,9.9,9.9,9.9h28.9c5.5,0,9.9-4.4,9.9-9.9v0v-1.3C146.3,66.2,146.2,65.1,146.1,64.1z
		 M111.3,32.3c0-5.9,4.8-10.6,10.6-10.6c5.9,0,10.6,4.8,10.6,10.6c0,5.6-4.4,10.3-10,10.6h-1.2C115.6,42.6,111.3,37.9,111.3,32.3z
		 M143.3,68.5c0,3.8-3.1,6.9-6.9,6.9h-28.9c-3.8,0-6.9-3.1-6.9-6.9v-1.3c0-11.5,9.2-21,20.7-21.4c0.2,0,0.4,0,0.6,0
		c0.2,0,0.4,0,0.6,0c11.5,0.4,20.7,9.8,20.7,21.4V68.5z"/>
</g>
</svg>
