<svg xmlns="http://www.w3.org/2000/svg" xmlns:xlink="http://www.w3.org/1999/xlink" viewBox="0 0 137.26 137.26"><defs><style>.cls-1{fill:url(#linear-gradient);}.cls-2{font-size:10px;font-family:NunitoSans-BoldItalic, Nunito Sans;font-weight:700;font-style:italic;letter-spacing:0.12em;}.cls-2,.cls-7{fill:#fff;}.cls-3{letter-spacing:0.05em;}.cls-4{letter-spacing:0.11em;}.cls-5{letter-spacing:0.11em;}.cls-6,.cls-8,.cls-9{fill:none;stroke:#fff;stroke-miterlimit:10;}.cls-6{stroke-width:2.33px;}.cls-8{stroke-width:0.8px;}</style><linearGradient id="linear-gradient" x1="-2768.77" y1="270.56" x2="-2769.77" y2="269.76" gradientTransform="matrix(137.26, 0, 0, -137.26, 380185.88, 37145.25)" gradientUnits="userSpaceOnUse"><stop offset="0" stop-color="#1ec4dc"/><stop offset="0.25" stop-color="#369acd"/><stop offset="0.65" stop-color="#4d6fbe"/><stop offset="1" stop-color="#6644af"/></linearGradient></defs><title>Asset 95</title><g id="Layer_2" data-name="Layer 2"><g id="sparkling-grapefruit-sangria"><rect id="Box" class="cls-1" width="137.26" height="137.26" rx="10" ry="10"/><g id="Text"><text class="cls-2" transform="translate(33.7 110.77)">S<tspan class="cls-3" x="7.58" y="0">P</tspan><tspan x="14.63" y="0">ARKLING </tspan><tspan x="-30.97" y="12">G</tspan><tspan class="cls-4" x="-22.44" y="12">R</tspan><tspan x="-14.37" y="12">APEFRUIT </tspan><tspan class="cls-5" x="47.93" y="12">S</tspan><tspan x="55.44" y="12">ANGRIA</tspan></text></g><g id="Icon"><path class="cls-6" d="M66.45,95.8H54.85s-15-19-15.33-22.33,9.66-36.33,9.66-36.33H66.45"/><path class="cls-6" d="M39.52,73.47c.42,4.29,14.57,21.38,15.33,22.33"/><path class="cls-6" d="M66.45,37.14H83.72s10,33,9.66,36.33S78.05,95.8,78.05,95.8H66.45"/><path class="cls-6" d="M78.05,95.8c.75-1,14.9-18,15.33-22.33"/><circle class="cls-7" cx="52.43" cy="26.72" r="1.58"/><circle class="cls-7" cx="61.18" cy="19.14" r="2"/><circle class="cls-7" cx="63.18" cy="46.31" r="2.27"/><rect class="cls-8" x="50.53" y="61.45" width="8.22" height="8.22" transform="translate(-20.61 25.3) rotate(-22.04)"/><rect class="cls-9" x="60.25" y="75.15" width="6.49" height="6.49" transform="translate(38.8 -19.42) rotate(24.83)"/><path class="cls-6" d="M44.18,57.31s9-3,12.67-2.17,6.35,5,10.95,2.17c6-3.67,21.36-1.54,21.36-1.54"/><circle class="cls-7" cx="75.57" cy="29.2" r="2.48"/><path class="cls-9" d="M68.52,70.81,79.92,56s7.6,6.65,8.1,12.66S86.85,77,86.85,77Z"/><path class="cls-9" d="M78.05,59.31s2,.66,3.63,5.5S84.85,66.29,83.85,76"/><path class="cls-9" d="M68.52,70.81l12.59-7.48Z"/><line class="cls-9" x1="84.14" y1="70.27" x2="68.52" y2="70.81"/></g></g></g></svg>