<?xml version="1.0" encoding="utf-8"?>
<!-- Generator: Adobe Illustrator 22.1.0, SVG Export Plug-In . SVG Version: 6.00 Build 0)  -->
<svg version="1.1" id="Layer_1" xmlns="http://www.w3.org/2000/svg" xmlns:xlink="http://www.w3.org/1999/xlink" x="0px" y="0px"
	 viewBox="0 0 137.3 137.3" style="enable-background:new 0 0 137.3 137.3;" xml:space="preserve">
<style type="text/css">
	.st0{fill:url(#SVGID_1_);}
	.st1{fill:#FFFFFF;}
	.st2{fill:none;stroke:#FFFFFF;stroke-width:2.33;stroke-miterlimit:10;}
	.st3{fill:none;stroke:#FFFFFF;stroke-width:0.8;stroke-miterlimit:10;}
	.st4{fill:none;stroke:#FFFFFF;stroke-miterlimit:10;}
</style>
<g>
	
		<linearGradient id="SVGID_1_" gradientUnits="userSpaceOnUse" x1="0" y1="137.26" x2="1" y2="137.26" gradientTransform="matrix(-137.26 109.8063 109.8063 137.26 -14927.626 -18832.2832)">
		<stop  offset="0" style="stop-color:#1EC4DC"/>
		<stop  offset="0.25" style="stop-color:#369ACD"/>
		<stop  offset="0.65" style="stop-color:#4D6FBE"/>
		<stop  offset="1" style="stop-color:#6644AF"/>
	</linearGradient>
	<path class="st0" d="M10,0h117.3c5.5,0,10,4.5,10,10v117.3c0,5.5-4.5,10-10,10H10c-5.5,0-10-4.5-10-10V10C0,4.5,4.5,0,10,0z"/>
	<path class="st1" d="M35.3,110.6c-0.5-0.1-0.9-0.4-1.3-0.6l0.5-0.9c0.4,0.3,0.7,0.5,1.1,0.6c0.4,0.1,0.8,0.2,1.2,0.2
		c0.5,0,0.9-0.1,1.1-0.2c0.3-0.2,0.4-0.4,0.4-0.7c0-0.2-0.1-0.4-0.2-0.5c-0.1-0.1-0.3-0.2-0.5-0.3c-0.2-0.1-0.5-0.2-0.8-0.3
		c-0.5-0.1-0.9-0.3-1.2-0.4s-0.6-0.3-0.8-0.6c-0.2-0.3-0.3-0.6-0.3-1.1c0-0.4,0.1-0.8,0.3-1.1c0.2-0.3,0.6-0.6,1-0.7
		c0.4-0.2,0.9-0.3,1.5-0.3c0.5,0,1,0.1,1.4,0.2c0.5,0.2,0.8,0.4,1.1,0.6l-0.5,0.9c-0.3-0.2-0.6-0.4-1-0.6c-0.4-0.1-0.7-0.2-1.1-0.2
		c-0.5,0-0.9,0.1-1.1,0.3c-0.3,0.2-0.4,0.4-0.4,0.7c0,0.2,0.1,0.4,0.2,0.5c0.1,0.1,0.3,0.3,0.5,0.3s0.5,0.2,0.9,0.3
		c0.5,0.1,0.9,0.3,1.2,0.4c0.3,0.1,0.6,0.3,0.8,0.6c0.2,0.3,0.3,0.6,0.3,1c0,0.7-0.3,1.2-0.8,1.5c-0.5,0.4-1.2,0.6-2.1,0.6
		C36.2,110.9,35.7,110.8,35.3,110.6z"/>
	<path class="st1" d="M47.1,104.3c0.4,0.4,0.6,0.9,0.6,1.5c0,0.7-0.2,1.3-0.7,1.7c-0.4,0.4-1.1,0.6-1.9,0.6h-1.8l-0.2,2.7h-1.3
		l0.6-7h3C46.1,103.7,46.7,103.9,47.1,104.3z M46.5,105.8c0-0.7-0.4-1.1-1.3-1.1h-1.6l-0.2,2.3h1.6C46,107,46.5,106.6,46.5,105.8z"
		/>
	<path class="st1" d="M54.3,110.8l-0.6-1.7h-3.4l-0.8,1.7h-1.3l3.7-7h1.1l2.6,7H54.3z M50.8,108.1h2.6l-1.1-3L50.8,108.1z"/>
	<path class="st1" d="M62.1,108.1c0.1,0.1,0.2,0.3,0.3,0.5l1,2.2H62l-1.1-2.3c-0.1-0.2-0.2-0.4-0.4-0.4s-0.4-0.1-0.6-0.1h-1
		l-0.2,2.8h-1.3l0.6-7h3.1c0.7,0,1.3,0.2,1.7,0.5c0.4,0.3,0.6,0.8,0.6,1.4c0,1.2-0.6,2-1.9,2.1C61.8,107.9,61.9,108,62.1,108.1z
		 M60.9,106.9c0.9,0,1.4-0.4,1.4-1.2c0-0.4-0.1-0.6-0.3-0.8c-0.2-0.2-0.5-0.3-0.9-0.3h-1.8l-0.2,2.2H60.9z"/>
	<polygon class="st1" points="72.2,103.7 68.5,107.2 71.8,110.8 70.3,110.8 67.2,107.5 66.9,110.8 65.6,110.8 66.2,103.7 
		67.5,103.7 67.2,106.9 70.6,103.7 	"/>
	<polygon class="st1" points="73.4,110.8 74,103.7 75.3,103.7 74.8,109.7 78.1,109.7 78,110.8 	"/>
	<polygon class="st1" points="80.2,110.8 80.7,103.7 82,103.7 81.5,110.8 	"/>
	<polygon class="st1" points="89.5,103.7 90.7,103.7 90.1,110.8 89.2,110.8 85.8,105.9 85.4,110.8 84.2,110.8 84.7,103.7 
		85.7,103.7 89.1,108.6 	"/>
	<path class="st1" d="M96.3,107H99l-0.3,3.4c-0.3,0.2-0.7,0.3-1.2,0.4c-0.5,0.1-0.9,0.1-1.4,0.1c-0.7,0-1.3-0.1-1.8-0.4
		c-0.5-0.3-0.9-0.7-1.1-1.2s-0.4-1.1-0.4-1.8c0-0.8,0.1-1.5,0.4-2.1c0.3-0.6,0.7-1,1.3-1.4c0.5-0.3,1.2-0.5,1.9-0.5
		c1,0,1.9,0.3,2.5,0.8l-0.5,0.9c-0.3-0.3-0.6-0.5-0.9-0.6s-0.7-0.2-1.1-0.2c-0.8,0-1.3,0.3-1.8,0.8c-0.4,0.5-0.6,1.2-0.6,2.1
		c0,0.7,0.2,1.3,0.5,1.7c0.4,0.4,0.9,0.6,1.6,0.6c0.4,0,0.9-0.1,1.3-0.2l0.1-1.8h-1.5L96.3,107z"/>
	<path class="st1" d="M6.8,119h2.7l-0.3,3.4c-0.3,0.2-0.7,0.3-1.2,0.4c-0.5,0.1-0.9,0.1-1.4,0.1c-0.7,0-1.3-0.1-1.8-0.4
		c-0.5-0.3-0.9-0.7-1.1-1.2c-0.3-0.5-0.4-1.1-0.4-1.8c0-0.8,0.1-1.5,0.4-2.1c0.3-0.6,0.7-1,1.3-1.4c0.5-0.3,1.2-0.5,1.9-0.5
		c1,0,1.9,0.3,2.5,0.8L9,117.4c-0.3-0.3-0.6-0.5-0.9-0.6s-0.7-0.2-1.1-0.2c-0.8,0-1.3,0.3-1.8,0.8c-0.4,0.5-0.6,1.2-0.6,2.1
		c0,0.7,0.2,1.3,0.5,1.7s0.9,0.6,1.6,0.6c0.4,0,0.9-0.1,1.3-0.2l0.1-1.8H6.7L6.8,119z"/>
	<path class="st1" d="M16.4,120.1c0.1,0.1,0.2,0.3,0.3,0.5l1,2.2h-1.4l-1.1-2.3c-0.1-0.2-0.2-0.4-0.4-0.4s-0.4-0.1-0.6-0.1h-1
		l-0.2,2.8h-1.3l0.5-7h3.1c0.7,0,1.3,0.2,1.7,0.5c0.4,0.3,0.6,0.8,0.6,1.4c0,1.2-0.6,2-1.9,2.1C16.1,119.9,16.3,120,16.4,120.1z
		 M15.2,118.9c0.9,0,1.4-0.4,1.4-1.2c0-0.4-0.1-0.6-0.3-0.8s-0.5-0.3-0.9-0.3h-1.8l-0.2,2.2H15.2z"/>
	<path class="st1" d="M25.3,122.8l-0.6-1.7h-3.4l-0.8,1.7h-1.3l3.7-7h1.1l2.6,7H25.3z M21.8,120.1h2.6l-1.1-3L21.8,120.1z"/>
	<path class="st1" d="M33.8,116.3c0.4,0.4,0.6,0.9,0.6,1.5c0,0.7-0.2,1.3-0.7,1.7c-0.4,0.4-1.1,0.6-1.9,0.6H30l-0.2,2.7h-1.3l0.6-7
		h3C32.8,115.7,33.4,115.9,33.8,116.3z M33.1,117.8c0-0.7-0.4-1.1-1.3-1.1h-1.6l-0.2,2.3h1.6C32.7,119,33.1,118.6,33.1,117.8z"/>
	<polygon class="st1" points="41.5,116.7 38,116.7 37.9,118.7 41.1,118.7 41.1,119.7 37.8,119.7 37.6,121.8 41.1,121.8 41,122.8 
		36.3,122.8 36.9,115.7 41.6,115.7 	"/>
	<polygon class="st1" points="48.5,116.8 45.1,116.8 45,118.7 48.1,118.7 48,119.7 44.9,119.7 44.6,122.8 43.4,122.8 43.9,115.7 
		48.5,115.7 	"/>
	<path class="st1" d="M54.8,120.1c0.1,0.1,0.2,0.3,0.3,0.5l1,2.2h-1.4l-1.1-2.3c-0.1-0.2-0.2-0.4-0.4-0.4s-0.4-0.1-0.6-0.1h-1
		l-0.2,2.8h-1.3l0.6-7h3.1c0.7,0,1.3,0.2,1.7,0.5c0.4,0.3,0.6,0.8,0.6,1.4c0,1.2-0.6,2-1.9,2.1C54.5,119.9,54.7,120,54.8,120.1z
		 M53.6,118.9c0.9,0,1.4-0.4,1.4-1.2c0-0.4-0.1-0.6-0.3-0.8c-0.2-0.2-0.5-0.3-0.9-0.3H52l-0.2,2.2H53.6z"/>
	<path class="st1" d="M59.3,122.2c-0.5-0.4-0.7-1.1-0.7-2c0-0.1,0-0.2,0-0.4l0.3-4.1h1.3l-0.3,4.1c0,0.1,0,0.2,0,0.3
		c0,0.6,0.1,1,0.4,1.2c0.3,0.3,0.7,0.4,1.2,0.4c0.5,0,0.9-0.1,1.2-0.4s0.5-0.7,0.5-1.4l0.3-4.3h1.3l-0.3,4.2c-0.1,1-0.4,1.7-0.9,2.2
		s-1.2,0.7-2.2,0.7C60.4,122.9,59.7,122.6,59.3,122.2z"/>
	<polygon class="st1" points="66.9,122.8 67.4,115.7 68.7,115.7 68.2,122.8 	"/>
	<polygon class="st1" points="72.5,122.8 73,116.8 70.7,116.8 70.8,115.7 76.7,115.7 76.6,116.8 74.3,116.8 73.8,122.8 	"/>
	<path class="st1" d="M83.2,122.6c-0.5-0.1-0.9-0.4-1.3-0.6l0.5-0.9c0.4,0.3,0.7,0.5,1.1,0.6c0.4,0.1,0.8,0.2,1.2,0.2
		c0.5,0,0.9-0.1,1.1-0.2c0.3-0.2,0.4-0.4,0.4-0.7c0-0.2-0.1-0.4-0.2-0.5c-0.1-0.1-0.3-0.2-0.5-0.3c-0.2-0.1-0.5-0.2-0.8-0.3
		c-0.5-0.1-0.9-0.3-1.2-0.4c-0.3-0.1-0.6-0.3-0.8-0.6c-0.2-0.3-0.3-0.6-0.3-1.1c0-0.4,0.1-0.8,0.3-1.1c0.2-0.3,0.6-0.6,1-0.7
		c0.4-0.2,0.9-0.3,1.5-0.3c0.5,0,1,0.1,1.4,0.2s0.8,0.4,1.1,0.6l-0.5,0.9c-0.3-0.2-0.6-0.4-1-0.6c-0.3-0.1-0.7-0.2-1.1-0.2
		c-0.5,0-0.9,0.1-1.1,0.3c-0.3,0.2-0.4,0.4-0.4,0.7c0,0.2,0.1,0.4,0.2,0.5s0.3,0.3,0.5,0.3c0.2,0.1,0.5,0.2,0.9,0.3
		c0.5,0.1,0.9,0.3,1.2,0.4c0.3,0.1,0.6,0.3,0.8,0.6c0.2,0.3,0.3,0.6,0.3,1c0,0.7-0.3,1.2-0.8,1.5c-0.5,0.4-1.2,0.6-2.1,0.6
		C84.2,122.9,83.7,122.8,83.2,122.6z"/>
	<path class="st1" d="M95.1,122.8l-0.6-1.7h-3.4l-0.8,1.7H89l3.7-7h1.1l2.6,7H95.1z M91.6,120.1h2.6l-1.1-3L91.6,120.1z"/>
	<polygon class="st1" points="103.6,115.7 104.8,115.7 104.3,122.8 103.3,122.8 99.9,117.9 99.5,122.8 98.3,122.8 98.9,115.7 
		99.8,115.7 103.2,120.6 	"/>
	<path class="st1" d="M110.5,119h2.7l-0.3,3.4c-0.3,0.2-0.7,0.3-1.2,0.4c-0.5,0.1-0.9,0.1-1.4,0.1c-0.7,0-1.3-0.1-1.8-0.4
		c-0.5-0.3-0.9-0.7-1.1-1.2s-0.4-1.1-0.4-1.8c0-0.8,0.1-1.5,0.4-2.1c0.3-0.6,0.7-1,1.3-1.4c0.5-0.3,1.2-0.5,1.9-0.5
		c1,0,1.9,0.3,2.5,0.8l-0.5,0.9c-0.3-0.3-0.6-0.5-0.9-0.6s-0.7-0.2-1.1-0.2c-0.8,0-1.3,0.3-1.8,0.8c-0.4,0.5-0.6,1.2-0.6,2.1
		c0,0.7,0.2,1.3,0.5,1.7c0.4,0.4,0.9,0.6,1.6,0.6c0.4,0,0.9-0.1,1.3-0.2l0.1-1.8h-1.5L110.5,119z"/>
	<path class="st1" d="M120,120.1c0.1,0.1,0.2,0.3,0.3,0.5l1,2.2H120l-1.1-2.3c-0.1-0.2-0.2-0.4-0.4-0.4s-0.4-0.1-0.6-0.1h-1
		l-0.2,2.8h-1.3l0.6-7h3.1c0.7,0,1.3,0.2,1.7,0.5c0.4,0.3,0.6,0.8,0.6,1.4c0,1.2-0.6,2-1.9,2.1C119.8,119.9,119.9,120,120,120.1z
		 M118.9,118.9c0.9,0,1.4-0.4,1.4-1.2c0-0.4-0.1-0.6-0.3-0.8c-0.2-0.2-0.5-0.3-0.9-0.3h-1.8l-0.2,2.2H118.9z"/>
	<polygon class="st1" points="123.6,122.8 124.2,115.7 125.5,115.7 124.9,122.8 	"/>
	<path class="st1" d="M133,122.8l-0.6-1.7H129l-0.8,1.7h-1.3l3.7-7h1.1l2.6,7H133z M129.5,120.1h2.6l-1.1-3L129.5,120.1z"/>
	<path class="st2" d="M66.5,95.8H54.9c0,0-15-19-15.3-22.3s9.7-36.3,9.7-36.3h17.3"/>
	<path class="st2" d="M39.5,73.5c0.4,4.3,14.6,21.4,15.3,22.3"/>
	<path class="st2" d="M66.5,37.1h17.3c0,0,10,33,9.7,36.3S78,95.8,78,95.8H66.5"/>
	<path class="st2" d="M78,95.8c0.8-1,14.9-18,15.3-22.3"/>
	<path class="st1" d="M52.4,25.1c0.9,0,1.6,0.7,1.6,1.6c0,0.9-0.7,1.6-1.6,1.6s-1.6-0.7-1.6-1.6C50.9,25.8,51.6,25.1,52.4,25.1z"/>
	<circle class="st1" cx="61.2" cy="19.1" r="2"/>
	<circle class="st1" cx="63.2" cy="46.3" r="2.3"/>
	
		<rect x="50.5" y="61.5" transform="matrix(0.9269 -0.3752 0.3752 0.9269 -20.6096 25.2926)" class="st3" width="8.2" height="8.2"/>
	
		<rect x="60.3" y="75.1" transform="matrix(0.4198 -0.9076 0.9076 0.4198 -34.3045 103.1176)" class="st4" width="6.5" height="6.5"/>
	<path class="st2" d="M44.2,57.3c0,0,9-3,12.7-2.2s6.4,5,10.9,2.2c6-3.7,21.4-1.5,21.4-1.5"/>
	<path class="st1" d="M75.6,26.7c1.4,0,2.5,1.1,2.5,2.5s-1.1,2.5-2.5,2.5c-1.4,0-2.5-1.1-2.5-2.5S74.2,26.7,75.6,26.7z"/>
	<path class="st4" d="M68.5,70.8L79.9,56c0,0,7.6,6.6,8.1,12.7c0.5,6-1.2,8.3-1.2,8.3L68.5,70.8z"/>
	<path class="st4" d="M78,59.3c0,0,2,0.7,3.6,5.5s3.2,1.5,2.2,11.2"/>
	<path class="st4" d="M68.5,70.8l12.6-7.5L68.5,70.8z"/>
	<line class="st4" x1="84.1" y1="70.3" x2="68.5" y2="70.8"/>
</g>
</svg>
