<svg xmlns="http://www.w3.org/2000/svg" viewBox="0 0 137.26 137.26"><defs><style>.cls-1{fill:#6644af;}.cls-2{font-size:11.96px;font-family:NunitoSans-BoldItalic, Nunito Sans;font-weight:700;font-style:italic;letter-spacing:0.1em;}.cls-2,.cls-5{fill:#fff;}.cls-3{letter-spacing:0.12em;}.cls-4{letter-spacing:0.11em;}</style></defs><title>Asset 39</title><g id="Layer_2" data-name="Layer 2"><g id="Stressed_Icon"><rect id="Box" class="cls-1" width="137.26" height="137.26" rx="10" ry="10"/><g id="Text"><text class="cls-2" transform="translate(32.94 122.77)">S<tspan class="cls-3" x="8.88" y="0">TR</tspan><tspan class="cls-4" x="27.39" y="0">E</tspan><tspan class="cls-3" x="35.75" y="0">SSED</tspan></text></g><g id="Stressed_Img"><path class="cls-5" d="M69.26,91.71a30,30,0,1,1,30-30A30.06,30.06,0,0,1,69.26,91.71Zm0-55.65A25.63,25.63,0,1,0,94.89,61.69,25.66,25.66,0,0,0,69.26,36.06Z"/><circle class="cls-5" cx="62.47" cy="58.79" r="2.9"/><circle class="cls-5" cx="76.05" cy="58.79" r="2.9"/><path class="cls-5" d="M84.14,73.37H54.38a2.2,2.2,0,0,1,0-4.39H84.14a2.2,2.2,0,0,1,0,4.39Z"/></g></g></g></svg>