<svg xmlns="http://www.w3.org/2000/svg" viewBox="0 0 58.23 58.23"><defs><style>.cls-1{fill:#fff;}</style></defs><title>stressed</title><g id="Layer_2" data-name="Layer 2"><g id="Mockup"><path class="cls-1" d="M29.11,0A29.12,29.12,0,1,0,58.23,29.11,29.14,29.14,0,0,0,29.11,0Zm0,55.08a25.9,25.9,0,0,1-18.3-7.56,26.38,26.38,0,0,1-4.7-6.38A26,26,0,0,1,46.73,10.05a26.13,26.13,0,0,1,5.81,7.87A26,26,0,0,1,29.11,55.08Z"/><path class="cls-1" d="M16.83,28l2.45-2.44L21.72,28a1.56,1.56,0,0,0,2.22,0h0a1.56,1.56,0,0,0,0-2.22l-2.41-2.42,2.41-2.42a1.56,1.56,0,0,0,0-2.22h0a1.56,1.56,0,0,0-2.22,0l-2.44,2.44-2.45-2.44a1.56,1.56,0,0,0-2.22,0h0a1.56,1.56,0,0,0,0,2.22L17,23.35l-2.41,2.42a1.56,1.56,0,0,0,0,2.22h0A1.56,1.56,0,0,0,16.83,28Z"/><path class="cls-1" d="M36.51,28,39,25.55,41.39,28a1.57,1.57,0,0,0,2.23,0h0a1.58,1.58,0,0,0,0-2.22L41.2,23.35l2.42-2.42a1.58,1.58,0,0,0,0-2.22h0a1.57,1.57,0,0,0-2.23,0L39,21.15l-2.44-2.44a1.57,1.57,0,0,0-2.23,0h0a1.58,1.58,0,0,0,0,2.22l2.42,2.42-2.42,2.42a1.58,1.58,0,0,0,0,2.22h0A1.57,1.57,0,0,0,36.51,28Z"/><path class="cls-1" d="M43.12,36.64H14.89a1.57,1.57,0,0,0-1.58,1.57h0a1.58,1.58,0,0,0,1.58,1.58H31.8v2.36a6.5,6.5,0,1,0,13,0V38.31A1.67,1.67,0,0,0,43.12,36.64ZM35,39.79h6.69v2.36a3.35,3.35,0,0,1-6.69,0Z"/></g></g></svg>