<svg xmlns="http://www.w3.org/2000/svg" xmlns:xlink="http://www.w3.org/1999/xlink" viewBox="0 0 137.26 137.26"><defs><style>.cls-1{fill:url(#linear-gradient);}.cls-2{font-size:11.96px;fill:#fff;font-family:NunitoSans-BoldItalic, Nunito Sans;font-weight:700;font-style:italic;letter-spacing:0.12em;}.cls-3{letter-spacing:0.11em;}.cls-4{letter-spacing:0.1em;}.cls-5{letter-spacing:0.11em;}.cls-6,.cls-7{fill:none;stroke:#fff;stroke-miterlimit:10;}.cls-6{stroke-width:2.33px;}.cls-7{stroke-width:2.42px;}</style><linearGradient id="linear-gradient" x1="-2612.66" y1="98.32" x2="-2613.66" y2="97.52" gradientTransform="matrix(137.26, 0, 0, -137.26, 358757.52, 13503.98)" gradientUnits="userSpaceOnUse"><stop offset="0" stop-color="#1ec4dc"/><stop offset="0.25" stop-color="#369acd"/><stop offset="0.65" stop-color="#4d6fbe"/><stop offset="1" stop-color="#6644af"/></linearGradient></defs><title>Asset 99</title><g id="Layer_2" data-name="Layer 2"><g id="texas-tiki"><rect id="Box" class="cls-1" width="137.26" height="137.26" rx="10" ry="10"/><g id="Text"><text class="cls-2" transform="translate(30.35 122.77)">T<tspan class="cls-3" x="8.76" y="0">E</tspan><tspan class="cls-4" x="17.16" y="0">X</tspan><tspan class="cls-5" x="26.35" y="0">A</tspan><tspan x="36.57" y="0">S TIKI</tspan></text></g><g id="Icon"><path class="cls-6" d="M99.88,43.23A29,29,0,0,1,102,54.15c0,17.12-15,31-33.5,31S35,71.27,35,54.15a29,29,0,0,1,2.14-10.92Z"/><ellipse class="cls-7" cx="68.52" cy="101.48" rx="16.83" ry="3"/><polygon class="cls-6" points="61.65 86.82 64.98 96.48 72.64 96.48 75.48 86.82 61.65 86.82"/><path class="cls-7" d="M35.06,52.64a13.47,13.47,0,0,1,12.38-2.16c7.17,2.34,8,6,15.5,6.34s13.34-5.17,19.17-5.5,9.42-1.17,14.67.83l5.24,2"/><path class="cls-7" d="M38.61,56.83s5.33-2.49,10.5,0,9.5,6.65,15.17,6.49,13.16-6,19.5-6.49,11,.15,14,1.15"/><path class="cls-7" d="M74.61,48.65l6.67-24s1.33-5.83,7.33-5.17,8,3.67,7.67,6.67S74.61,48.65,74.61,48.65Z"/><path class="cls-7" d="M79.11,48.65s16.5-17.5,18.67-18.17,5,3.84,5.16,6S79.11,48.65,79.11,48.65Z"/><path class="cls-7" d="M73.44,39.53c0-.05,3-10.5,0-13.77s-14.26-1.61-11.8,2.06,9.47,20.83,9.47,20.83Z"/></g></g></g></svg>