<svg xmlns="http://www.w3.org/2000/svg" xmlns:xlink="http://www.w3.org/1999/xlink" viewBox="0 0 137.26 137.26"><defs><style>.cls-1{fill:url(#linear-gradient);}.cls-2{font-size:11.96px;font-family:NunitoSans-BoldItalic, Nunito Sans;font-weight:700;font-style:italic;letter-spacing:0.12em;}.cls-2,.cls-4{fill:#fff;}.cls-3,.cls-5{fill:none;stroke:#fff;stroke-miterlimit:10;}.cls-3{stroke-width:2.33px;}</style><linearGradient id="linear-gradient" x1="-2456.54" y1="98.32" x2="-2457.54" y2="97.52" gradientTransform="matrix(137.26, 0, 0, -137.26, 337329.15, 13503.98)" gradientUnits="userSpaceOnUse"><stop offset="0" stop-color="#1ec4dc"/><stop offset="0.25" stop-color="#369acd"/><stop offset="0.65" stop-color="#4d6fbe"/><stop offset="1" stop-color="#6644af"/></linearGradient></defs><title>Asset 98</title><g id="Layer_2" data-name="Layer 2"><g id="tia-mia"><rect id="Box" class="cls-1" width="137.26" height="137.26" rx="10" ry="10"/><g id="Text"><text class="cls-2" transform="translate(41.78 122.77)">TIA MIA</text></g><g id="Icon"><rect class="cls-3" x="43.68" y="44.6" width="49.69" height="51.69"/><line class="cls-3" x1="43.68" y1="88.23" x2="93.37" y2="88.23"/><rect class="cls-4" x="46.37" y="49.23" width="44.25" height="34.5"/><rect class="cls-5" x="52.12" y="38.23" width="12.5" height="12.5" transform="translate(26.15 -21.45) rotate(26.65)"/><rect class="cls-5" x="72.62" y="38.73" width="11.5" height="14"/><path class="cls-4" d="M90.62,36s2.75-12,9.5-10,13.75,10.5,12,12.75-4.73,5-10.61,3.5S90.62,36,90.62,36Z"/><path class="cls-4" d="M90.62,36s-8-6-9.75-3.25-.75,13.5,3.25,15,9,7,11.5,6.5S90.62,36,90.62,36Z"/><path class="cls-4" d="M90.62,36s1.75-13-1.25-13S79.22,21.48,80,24,90.62,36,90.62,36Z"/><polyline class="cls-5" points="40.62 28.23 48.87 25.76 63.12 73.48"/></g></g></g></svg>