<svg xmlns="http://www.w3.org/2000/svg" xmlns:xlink="http://www.w3.org/1999/xlink" viewBox="0 0 139.16 137.26"><defs><style>.cls-1{fill:url(#linear-gradient);}.cls-2{font-size:10px;fill:#fff;font-family:NunitoSans-BoldItalic, Nunito Sans;font-weight:700;font-style:italic;letter-spacing:0.12em;}.cls-3{letter-spacing:0.11em;}.cls-4{letter-spacing:0.1em;}.cls-5{letter-spacing:0.05em;}.cls-6{letter-spacing:0.03em;}.cls-7{letter-spacing:0.08em;}.cls-8{letter-spacing:0.12em;}.cls-9{letter-spacing:0.12em;}.cls-10,.cls-11{fill:none;stroke:#fff;stroke-miterlimit:10;}.cls-10{stroke-width:4.02px;}.cls-11{stroke-width:3.55px;}</style><linearGradient id="linear-gradient" x1="-2456.54" y1="444.05" x2="-2457.54" y2="443.25" gradientTransform="matrix(137.26, 0, 0, -137.26, 337329.15, 60958.79)" gradientUnits="userSpaceOnUse"><stop offset="0" stop-color="#1ec4dc"/><stop offset="0.25" stop-color="#369acd"/><stop offset="0.65" stop-color="#4d6fbe"/><stop offset="1" stop-color="#6644af"/></linearGradient></defs><title>Asset 88</title><g id="Layer_2" data-name="Layer 2"><g id="watermelon-margarita"><rect id="Box" class="cls-1" width="137.26" height="137.26" rx="10" ry="10"/><g id="Text"><text class="cls-2" transform="translate(1.88 115.11)">F<tspan class="cls-3" x="6.86" y="0">R</tspan><tspan class="cls-4" x="14.96" y="0">O</tspan><tspan x="23.8" y="0">ZEN </tspan><tspan class="cls-5" x="50.69" y="0">W</tspan><tspan class="cls-6" x="62.32" y="0">A</tspan><tspan x="70.07" y="0">TERME</tspan><tspan class="cls-7" x="109.34" y="0">L</tspan><tspan x="115.71" y="0">ON </tspan><tspan x="33.28" y="12">MA</tspan><tspan class="cls-8" x="51.51" y="12">R</tspan><tspan class="cls-9" x="59.61" y="12">GARI</tspan><tspan class="cls-6" x="88.92" y="12">T</tspan><tspan x="95.38" y="12">A</tspan></text></g><g id="Icon"><polygon class="cls-10" points="34.7 42.71 103.37 42.71 97.7 57.38 40.7 57.38 34.7 42.71"/><path class="cls-11" d="M44.88,57.38c.1,10,12.64,18.08,24,18.08S94,67.38,94.12,57.38"/><polyline class="cls-10" points="68.92 96.46 75.62 101.21 62.12 101.21 68.92 96.46 68.92 75.46"/><line class="cls-10" x1="44.88" y1="18.96" x2="55.62" y2="37.96"/></g></g></g></svg>