<?xml version="1.0" encoding="utf-8"?>
<!-- Generator: Adobe Illustrator 22.1.0, SVG Export Plug-In . SVG Version: 6.00 Build 0)  -->
<svg version="1.1" id="Layer_1" xmlns="http://www.w3.org/2000/svg" xmlns:xlink="http://www.w3.org/1999/xlink" x="0px" y="0px"
	 viewBox="0 0 139.2 137.3" style="enable-background:new 0 0 139.2 137.3;" xml:space="preserve">
<style type="text/css">
	.st0{fill:url(#SVGID_1_);}
	.st1{fill:#FFFFFF;}
	.st2{fill:none;stroke:#FFFFFF;stroke-width:4.02;stroke-miterlimit:10;}
	.st3{fill:none;stroke:#FFFFFF;stroke-width:3.55;stroke-miterlimit:10;}
</style>
<g>
	
		<linearGradient id="SVGID_1_" gradientUnits="userSpaceOnUse" x1="0" y1="137.26" x2="1" y2="137.26" gradientTransform="matrix(-137.26 109.8063 109.8063 137.26 -14927.7949 -18832.1484)">
		<stop  offset="0" style="stop-color:#1EC4DC"/>
		<stop  offset="0.25" style="stop-color:#369ACD"/>
		<stop  offset="0.65" style="stop-color:#4D6FBE"/>
		<stop  offset="1" style="stop-color:#6644AF"/>
	</linearGradient>
	<path class="st0" d="M10,0h117.3c5.5,0,10,4.5,10,10v117.3c0,5.5-4.5,10-10,10H10c-5.5,0-10-4.5-10-10V10C0,4.5,4.5,0,10,0z"/>
	<polygon class="st1" points="7.5,109.1 4.2,109.1 4,111 7.2,111 7.1,112 4,112 3.7,115.1 2.4,115.1 3,108.1 7.6,108.1 	"/>
	<path class="st1" d="M13.9,112.4c0.1,0.1,0.2,0.3,0.3,0.5l1,2.2h-1.4l-1.1-2.3c-0.1-0.2-0.2-0.4-0.4-0.5c-0.2-0.1-0.4-0.1-0.6-0.1
		h-1l-0.2,2.8H9.3l0.6-7H13c0.7,0,1.3,0.2,1.7,0.5c0.4,0.3,0.6,0.8,0.6,1.5c0,1.2-0.6,2-1.9,2.1C13.6,112.2,13.7,112.3,13.9,112.4z
		 M12.7,111.3c0.9,0,1.4-0.4,1.4-1.2c0-0.4-0.1-0.6-0.3-0.8c-0.2-0.2-0.5-0.3-0.9-0.3H11l-0.2,2.2H12.7z"/>
	<path class="st1" d="M19,114.8c-0.5-0.3-0.9-0.7-1.1-1.2c-0.3-0.5-0.4-1.1-0.4-1.8c0-0.8,0.1-1.5,0.4-2c0.3-0.6,0.7-1,1.2-1.4
		c0.5-0.3,1.1-0.5,1.8-0.5c0.7,0,1.3,0.1,1.8,0.4c0.5,0.3,0.9,0.7,1.1,1.2c0.3,0.5,0.4,1.1,0.4,1.8c0,0.8-0.1,1.5-0.4,2
		c-0.3,0.6-0.7,1-1.2,1.4c-0.5,0.3-1.1,0.5-1.8,0.5C20.1,115.2,19.5,115.1,19,114.8z M22.3,113.4c0.4-0.5,0.6-1.2,0.6-2.1
		c0-0.7-0.2-1.3-0.5-1.7s-0.8-0.6-1.5-0.6c-0.7,0-1.2,0.3-1.6,0.8c-0.4,0.5-0.6,1.2-0.6,2.1c0,0.7,0.2,1.3,0.5,1.7
		c0.3,0.4,0.8,0.6,1.5,0.6C21.4,114.2,21.9,113.9,22.3,113.4z"/>
	<polygon class="st1" points="31.6,108.1 31.5,109 27.5,114.1 31.2,114.1 31.2,115.1 26,115.1 26,114.2 30,109.1 26.4,109.1 
		26.5,108.1 	"/>
	<polygon class="st1" points="38.6,109.1 35.2,109.1 35.1,111 38.3,111 38.2,112 35,112 34.8,114.1 38.3,114.1 38.2,115.1 
		33.5,115.1 34,108.1 38.7,108.1 	"/>
	<polygon class="st1" points="45.8,108.1 47,108.1 46.5,115.1 45.5,115.1 42.1,110.2 41.7,115.1 40.5,115.1 41.1,108.1 42.1,108.1 
		45.4,113 	"/>
	<polygon class="st1" points="62.5,108.1 63.8,108.1 60.8,115.1 59.7,115.1 58.3,110 56.1,115.1 55.1,115.1 53.2,108.1 54.5,108.1 
		55.8,113.3 58,108.1 59,108.1 60.3,113.3 	"/>
	<path class="st1" d="M70.2,115.1l-0.6-1.7h-3.4l-0.8,1.7H64l3.7-7h1.1l2.6,7H70.2z M66.7,112.5h2.6l-1.1-3L66.7,112.5z"/>
	<polygon class="st1" points="74.2,115.1 74.7,109.1 72.3,109.1 72.4,108.1 78.3,108.1 78.2,109.1 75.9,109.1 75.5,115.1 	"/>
	<polygon class="st1" points="85,109.1 81.6,109.1 81.4,111 84.7,111 84.6,112 81.3,112 81.2,114.1 84.6,114.1 84.6,115.1 
		79.8,115.1 80.4,108.1 85.1,108.1 	"/>
	<path class="st1" d="M91.5,112.4c0.1,0.1,0.2,0.3,0.3,0.5l1,2.2h-1.4l-1.1-2.3c-0.1-0.2-0.2-0.4-0.4-0.5c-0.2-0.1-0.4-0.1-0.6-0.1
		h-1l-0.2,2.8h-1.3l0.5-7h3.1c0.7,0,1.3,0.2,1.7,0.5s0.6,0.8,0.6,1.5c0,1.2-0.6,2-1.9,2.1C91.2,112.2,91.3,112.3,91.5,112.4z
		 M90.3,111.3c0.9,0,1.4-0.4,1.4-1.2c0-0.4-0.1-0.6-0.3-0.8s-0.5-0.3-0.9-0.3h-1.8l-0.2,2.2H90.3z"/>
	<polygon class="st1" points="101.5,108.1 102.5,108.1 101.9,115.1 100.8,115.1 101.1,110.5 99,114 98.2,114 96.6,110.5 96.2,115.1 
		95.1,115.1 95.6,108.1 96.7,108.1 98.7,112.6 	"/>
	<polygon class="st1" points="109.8,109.1 106.4,109.1 106.3,111 109.5,111 109.4,112 106.2,112 106,114.1 109.5,114.1 109.4,115.1 
		104.7,115.1 105.2,108.1 109.9,108.1 	"/>
	<polygon class="st1" points="111.8,115.1 112.3,108.1 113.6,108.1 113.2,114.1 116.5,114.1 116.4,115.1 	"/>
	<path class="st1" d="M119.8,114.8c-0.5-0.3-0.9-0.7-1.1-1.2c-0.3-0.5-0.4-1.1-0.4-1.8c0-0.8,0.1-1.5,0.4-2c0.3-0.6,0.7-1,1.2-1.4
		s1.1-0.5,1.8-0.5c0.7,0,1.3,0.1,1.8,0.4c0.5,0.3,0.9,0.7,1.1,1.2c0.3,0.5,0.4,1.1,0.4,1.8c0,0.8-0.1,1.5-0.4,2
		c-0.3,0.6-0.7,1-1.2,1.4c-0.5,0.3-1.1,0.5-1.8,0.5C120.8,115.2,120.3,115.1,119.8,114.8z M123.1,113.4c0.4-0.5,0.6-1.2,0.6-2.1
		c0-0.7-0.2-1.3-0.5-1.7s-0.8-0.6-1.5-0.6c-0.7,0-1.2,0.3-1.6,0.8c-0.4,0.5-0.6,1.2-0.6,2.1c0,0.7,0.2,1.3,0.5,1.7
		c0.3,0.4,0.8,0.6,1.5,0.6C122.2,114.2,122.7,113.9,123.1,113.4z"/>
	<polygon class="st1" points="132.4,108.1 133.6,108.1 133.1,115.1 132.1,115.1 128.7,110.2 128.3,115.1 127.1,115.1 127.7,108.1 
		128.7,108.1 132,113 	"/>
	<polygon class="st1" points="42.2,120.1 43.2,120.1 42.6,127.1 41.5,127.1 41.8,122.5 39.7,126 38.8,126 37.3,122.5 36.9,127.1 
		35.8,127.1 36.3,120.1 37.3,120.1 39.4,124.6 	"/>
	<path class="st1" d="M50.7,127.1l-0.6-1.7h-3.4l-0.8,1.7h-1.3l3.7-7h1.1l2.6,7H50.7z M47.2,124.5h2.6l-1.1-3L47.2,124.5z"/>
	<path class="st1" d="M58.5,124.4c0.1,0.1,0.2,0.3,0.3,0.5l1,2.2h-1.4l-1.1-2.3c-0.1-0.2-0.2-0.4-0.4-0.5c-0.2-0.1-0.4-0.1-0.6-0.1
		h-1l-0.2,2.8H54l0.6-7h3.1c0.7,0,1.3,0.2,1.7,0.5c0.4,0.3,0.6,0.8,0.6,1.5c0,1.2-0.6,2-1.9,2.1C58.2,124.2,58.4,124.3,58.5,124.4z
		 M57.3,123.3c0.9,0,1.4-0.4,1.4-1.2c0-0.4-0.1-0.6-0.3-0.8c-0.2-0.2-0.5-0.3-0.9-0.3h-1.8l-0.2,2.2H57.3z"/>
	<path class="st1" d="M65.6,123.3h2.7l-0.3,3.4c-0.3,0.2-0.7,0.3-1.2,0.4c-0.5,0.1-0.9,0.1-1.4,0.1c-0.7,0-1.3-0.1-1.8-0.4
		c-0.5-0.3-0.9-0.7-1.1-1.2s-0.4-1.1-0.4-1.8c0-0.8,0.1-1.5,0.4-2.1c0.3-0.6,0.7-1,1.3-1.4c0.5-0.3,1.2-0.5,1.9-0.5
		c1,0,1.9,0.3,2.5,0.8l-0.5,0.9c-0.3-0.3-0.6-0.5-0.9-0.6s-0.7-0.2-1.1-0.2c-0.8,0-1.3,0.3-1.8,0.8c-0.4,0.5-0.6,1.2-0.6,2.1
		c0,0.7,0.2,1.3,0.5,1.7c0.4,0.4,0.9,0.6,1.6,0.6c0.4,0,0.9-0.1,1.3-0.2l0.1-1.8h-1.5L65.6,123.3z"/>
	<path class="st1" d="M76,127.1l-0.6-1.7H72l-0.8,1.7h-1.3l3.7-7h1.1l2.6,7H76z M72.5,124.5h2.6l-1.1-3L72.5,124.5z"/>
	<path class="st1" d="M83.7,124.4c0.1,0.1,0.2,0.3,0.3,0.5l1,2.2h-1.4l-1.1-2.3c-0.1-0.2-0.2-0.4-0.4-0.5c-0.2-0.1-0.4-0.1-0.6-0.1
		h-1l-0.2,2.8h-1.3l0.6-7h3.1c0.7,0,1.3,0.2,1.7,0.5c0.4,0.3,0.6,0.8,0.6,1.5c0,1.2-0.6,2-1.9,2.1C83.5,124.2,83.6,124.3,83.7,124.4
		z M82.6,123.3c0.9,0,1.4-0.4,1.4-1.2c0-0.4-0.1-0.6-0.3-0.8c-0.2-0.2-0.5-0.3-0.9-0.3h-1.8l-0.2,2.2H82.6z"/>
	<polygon class="st1" points="87.3,127.1 87.9,120.1 89.2,120.1 88.6,127.1 	"/>
	<polygon class="st1" points="93,127.1 93.5,121.1 91.2,121.1 91.3,120.1 97.2,120.1 97.1,121.1 94.8,121.1 94.3,127.1 	"/>
	<path class="st1" d="M103.2,127.1l-0.6-1.7h-3.4l-0.8,1.7h-1.3l3.7-7h1.1l2.6,7H103.2z M99.7,124.5h2.6l-1.1-3L99.7,124.5z"/>
	<polygon class="st2" points="34.7,42.7 103.4,42.7 97.7,57.4 40.7,57.4 	"/>
	<path class="st3" d="M44.9,57.4c0.1,10,12.6,18.1,24,18.1c11.4,0,25.1-8.1,25.2-18.1"/>
	<polyline class="st2" points="68.9,96.5 75.6,101.2 62.1,101.2 68.9,96.5 68.9,75.5 	"/>
	<line class="st2" x1="44.9" y1="19" x2="55.6" y2="38"/>
</g>
</svg>
