<?xml version="1.0" encoding="utf-8"?>
<!-- Generator: Adobe Illustrator 22.1.0, SVG Export Plug-In . SVG Version: 6.00 Build 0)  -->
<svg version="1.1" id="Layer_1" xmlns="http://www.w3.org/2000/svg" xmlns:xlink="http://www.w3.org/1999/xlink" x="0px" y="0px"
	 viewBox="0 0 137.3 137.3" style="enable-background:new 0 0 137.3 137.3;" xml:space="preserve">
<style type="text/css">
	.st0{fill:url(#SVGID_1_);}
	.st1{fill:#FFFFFF;}
	.st2{fill:none;stroke:#FFFFFF;stroke-width:4.02;stroke-miterlimit:10;}
</style>
<g>
	
		<linearGradient id="SVGID_1_" gradientUnits="userSpaceOnUse" x1="0" y1="137.26" x2="1" y2="137.26" gradientTransform="matrix(-137.26 109.8063 109.8063 137.26 -14927.8145 -18832.1328)">
		<stop  offset="0" style="stop-color:#1EC4DC"/>
		<stop  offset="0.25" style="stop-color:#369ACD"/>
		<stop  offset="0.65" style="stop-color:#4D6FBE"/>
		<stop  offset="1" style="stop-color:#6644AF"/>
	</linearGradient>
	<path class="st0" d="M10,0h117.3c5.5,0,10,4.5,10,10v117.3c0,5.5-4.5,10-10,10H10c-5.5,0-10-4.5-10-10V10C0,4.5,4.5,0,10,0z"/>
	<polygon class="st1" points="20.1,114.3 21.6,114.3 18,122.8 16.7,122.8 15,116.7 12.5,122.8 11.2,122.8 8.9,114.3 10.4,114.3 
		12,120.6 14.7,114.3 15.8,114.3 17.5,120.7 	"/>
	<polygon class="st1" points="30,114.3 31.6,114.3 30.9,122.8 29.4,122.8 29.7,119.1 25.4,119.1 25.1,122.8 23.6,122.8 24.2,114.3 
		25.7,114.3 25.5,117.9 29.8,117.9 	"/>
	<polygon class="st1" points="34.1,122.8 34.8,114.3 36.3,114.3 35.7,122.8 	"/>
	<path class="st1" d="M40.1,122.6c-0.6-0.2-1.1-0.4-1.5-0.7l0.6-1.1c0.4,0.3,0.9,0.5,1.3,0.7c0.5,0.1,0.9,0.2,1.5,0.2
		c0.6,0,1-0.1,1.3-0.3c0.3-0.2,0.5-0.5,0.5-0.8c0-0.2-0.1-0.4-0.2-0.6c-0.2-0.2-0.4-0.3-0.6-0.4s-0.6-0.2-1-0.3
		c-0.6-0.2-1.1-0.3-1.4-0.5c-0.4-0.2-0.7-0.4-1-0.7c-0.3-0.3-0.4-0.7-0.4-1.3c0-0.5,0.1-1,0.4-1.3s0.7-0.7,1.2-0.9s1.1-0.3,1.8-0.3
		c0.6,0,1.2,0.1,1.7,0.3c0.5,0.2,1,0.4,1.3,0.7l-0.6,1.1c-0.4-0.3-0.7-0.5-1.2-0.7s-0.8-0.2-1.3-0.2c-0.6,0-1,0.1-1.3,0.3
		s-0.5,0.5-0.5,0.9c0,0.2,0.1,0.5,0.3,0.6c0.2,0.2,0.4,0.3,0.6,0.4c0.2,0.1,0.6,0.2,1.1,0.3c0.6,0.2,1.1,0.3,1.4,0.5
		c0.4,0.2,0.7,0.4,0.9,0.7c0.3,0.3,0.4,0.7,0.4,1.2c0,0.8-0.3,1.4-0.9,1.8c-0.6,0.4-1.4,0.7-2.5,0.7
		C41.3,122.9,40.7,122.8,40.1,122.6z"/>
	<polygon class="st1" points="55.8,114.3 51.4,118.4 55.3,122.8 53.5,122.8 49.8,118.8 49.5,122.8 48,122.8 48.6,114.3 50.2,114.3 
		49.9,118.1 53.9,114.3 	"/>
	<polygon class="st1" points="63.5,115.6 59.4,115.6 59.2,117.9 63.1,117.9 63,119.1 59.1,119.1 58.9,121.6 63.1,121.6 63,122.8 
		57.3,122.8 58,114.3 63.6,114.3 	"/>
	<polygon class="st1" points="73.4,114.3 69.7,118.9 69.4,122.8 67.8,122.8 68.1,118.9 65.1,114.3 66.8,114.3 69,117.6 71.7,114.3 	
		"/>
	<path class="st1" d="M80.5,122.6c-0.6-0.2-1.1-0.4-1.5-0.7l0.6-1.1c0.4,0.3,0.9,0.5,1.3,0.7c0.5,0.1,0.9,0.2,1.5,0.2
		c0.6,0,1-0.1,1.3-0.3c0.3-0.2,0.5-0.5,0.5-0.8c0-0.2-0.1-0.4-0.2-0.6c-0.2-0.2-0.4-0.3-0.6-0.4s-0.6-0.2-1-0.3
		c-0.6-0.2-1.1-0.3-1.4-0.5c-0.4-0.2-0.7-0.4-1-0.7c-0.3-0.3-0.4-0.7-0.4-1.3c0-0.5,0.1-1,0.4-1.3c0.3-0.4,0.7-0.7,1.2-0.9
		c0.5-0.2,1.1-0.3,1.8-0.3c0.6,0,1.2,0.1,1.7,0.3s1,0.4,1.3,0.7l-0.6,1.1c-0.4-0.3-0.7-0.5-1.2-0.7c-0.4-0.2-0.8-0.2-1.3-0.2
		c-0.6,0-1,0.1-1.3,0.3c-0.3,0.2-0.5,0.5-0.5,0.9c0,0.2,0.1,0.5,0.3,0.6c0.2,0.2,0.4,0.3,0.6,0.4c0.2,0.1,0.6,0.2,1.1,0.3
		c0.6,0.2,1.1,0.3,1.4,0.5s0.7,0.4,0.9,0.7s0.4,0.7,0.4,1.2c0,0.8-0.3,1.4-0.9,1.8c-0.6,0.4-1.4,0.7-2.5,0.7
		C81.7,122.9,81.1,122.8,80.5,122.6z"/>
	<polygon class="st1" points="96.1,114.3 97.3,114.3 96.6,122.8 95.2,122.8 95.7,117.2 93.1,121.4 92.1,121.4 90.2,117.3 
		89.8,122.8 88.4,122.8 89.1,114.3 90.3,114.3 92.7,119.8 	"/>
	<path class="st1" d="M106.4,122.8l-0.7-2h-4.1l-1,2H99l4.5-8.4h1.3l3.2,8.4H106.4z M102.2,119.6h3.1L104,116L102.2,119.6z"/>
	<path class="st1" d="M111.3,122.6c-0.6-0.2-1.1-0.4-1.5-0.7l0.6-1.1c0.4,0.3,0.9,0.5,1.3,0.7c0.5,0.1,0.9,0.2,1.5,0.2
		c0.6,0,1-0.1,1.3-0.3s0.5-0.5,0.5-0.8c0-0.2-0.1-0.4-0.2-0.6c-0.2-0.2-0.4-0.3-0.6-0.4s-0.6-0.2-1-0.3c-0.6-0.2-1.1-0.3-1.4-0.5
		c-0.4-0.2-0.7-0.4-1-0.7c-0.3-0.3-0.4-0.7-0.4-1.3c0-0.5,0.1-1,0.4-1.3c0.3-0.4,0.7-0.7,1.2-0.9c0.5-0.2,1.1-0.3,1.8-0.3
		c0.6,0,1.2,0.1,1.7,0.3c0.5,0.2,1,0.4,1.3,0.7l-0.6,1.1c-0.4-0.3-0.7-0.5-1.2-0.7c-0.4-0.2-0.8-0.2-1.3-0.2c-0.6,0-1,0.1-1.3,0.3
		c-0.3,0.2-0.5,0.5-0.5,0.9c0,0.2,0.1,0.5,0.3,0.6c0.2,0.2,0.4,0.3,0.6,0.4c0.2,0.1,0.6,0.2,1.1,0.3c0.6,0.2,1.1,0.3,1.4,0.5
		c0.4,0.2,0.7,0.4,0.9,0.7c0.3,0.3,0.4,0.7,0.4,1.2c0,0.8-0.3,1.4-0.9,1.8c-0.6,0.4-1.4,0.7-2.5,0.7
		C112.5,122.9,111.9,122.8,111.3,122.6z"/>
	<polygon class="st1" points="125.6,114.3 127.2,114.3 126.5,122.8 125,122.8 125.3,119.1 121,119.1 120.7,122.8 119.2,122.8 
		119.8,114.3 121.3,114.3 121.1,117.9 125.4,117.9 	"/>
	<path class="st2" d="M46.7,49.4H92c3,0,5.5,2.5,5.5,5.5v32.3c0,3-2.5,5.5-5.5,5.5H46.7c-3,0-5.5-2.5-5.5-5.5V54.9
		C41.2,51.8,43.7,49.4,46.7,49.4z"/>
	<line class="st2" x1="41.2" y1="86.7" x2="97.6" y2="86.7"/>
	<path class="st2" d="M41.2,64c0,0,9.7-5,19.7-3c10,2,11.7,5.3,21.7,5s15-5.5,15-5.5"/>
	
		<rect x="54.6" y="64.2" transform="matrix(0.3167 -0.9485 0.9485 0.3167 -24.1478 99.3051)" class="st1" width="4.4" height="4.4"/>
	
		<rect x="85.8" y="68.1" transform="matrix(0.3166 -0.9486 0.9486 0.3166 -6.5675 131.5657)" class="st1" width="4.4" height="4.4"/>
	
		<rect x="66.3" y="70.4" transform="matrix(0.996 -8.904154e-02 8.904154e-02 0.996 -6.1921 6.3889)" class="st1" width="4.4" height="4.4"/>
	<path class="st2" d="M74.6,63.3L88,40c0,0,8.9-5.3,13.2-5.7l4.3-0.3l-21,12.1"/>
</g>
</svg>
