<svg xmlns="http://www.w3.org/2000/svg" xmlns:xlink="http://www.w3.org/1999/xlink" viewBox="0 0 137.26 137.26"><defs><style>.cls-1{fill:url(#linear-gradient);}.cls-2{font-size:11.96px;font-family:NunitoSans-BoldItalic, Nunito Sans;font-weight:700;font-style:italic;letter-spacing:0.12em;}.cls-2,.cls-6{fill:#fff;}.cls-3{letter-spacing:0.12em;}.cls-4{letter-spacing:0.11em;}.cls-5{fill:none;stroke:#fff;stroke-miterlimit:10;stroke-width:4.02px;}</style><linearGradient id="linear-gradient" x1="-2144.31" y1="444.05" x2="-2145.31" y2="443.25" gradientTransform="matrix(137.26, 0, 0, -137.26, 294472.43, 60958.79)" gradientUnits="userSpaceOnUse"><stop offset="0" stop-color="#1ec4dc"/><stop offset="0.25" stop-color="#369acd"/><stop offset="0.65" stop-color="#4d6fbe"/><stop offset="1" stop-color="#6644af"/></linearGradient></defs><title>Asset 86</title><g id="Layer_2" data-name="Layer 2"><g id="whiskey-smash"><rect id="Box" class="cls-1" width="137.26" height="137.26" rx="10" ry="10"/><g id="Text"><text class="cls-2" transform="translate(8.17 122.77)">WHISK<tspan class="cls-3" x="48.49" y="0">E</tspan><tspan x="56.93" y="0">Y SM</tspan><tspan class="cls-4" x="91.04" y="0">A</tspan><tspan x="101.25" y="0">SH</tspan></text></g><g id="Icon"><rect class="cls-5" x="41.23" y="49.38" width="56.33" height="43.33" rx="5.51" ry="5.51"/><line class="cls-5" x1="41.23" y1="86.71" x2="97.56" y2="86.71"/><path class="cls-5" d="M41.23,64s9.66-5,19.66-3,11.67,5.34,21.67,5,15-5.47,15-5.47"/><rect class="cls-6" x="54.64" y="64.21" width="4.42" height="4.42" transform="translate(23.96 -14.59) rotate(18.46)"/><rect class="cls-6" x="85.81" y="68.14" width="4.42" height="4.42" transform="translate(26.81 -24.26) rotate(18.46)"/><rect class="cls-6" x="66.31" y="70.38" width="4.42" height="4.42" transform="translate(-6.2 6.4) rotate(-5.11)"/><path class="cls-5" d="M74.56,63.32,88,40s8.87-5.33,13.21-5.66l4.33-.34-21,12.07"/></g></g></g></svg>