<?xml version="1.0" encoding="utf-8"?>
<!-- Generator: Adobe Illustrator 22.1.0, SVG Export Plug-In . SVG Version: 6.00 Build 0)  -->
<svg version="1.1" id="Layer_1" xmlns="http://www.w3.org/2000/svg" xmlns:xlink="http://www.w3.org/1999/xlink" x="0px" y="0px"
	 viewBox="0 0 137.3 137.3" style="enable-background:new 0 0 137.3 137.3;" xml:space="preserve">
<style type="text/css">
	.st0{fill:url(#SVGID_1_);}
	.st1{fill:#FFFFFF;}
	.st2{fill:none;stroke:#FFFFFF;stroke-width:2.33;stroke-miterlimit:10;}
	.st3{fill:none;stroke:#FFFFFF;stroke-width:1.78;stroke-miterlimit:10;}
	.st4{fill:none;stroke:#FFFFFF;stroke-width:2.57;stroke-miterlimit:10;}
</style>
<g>
	
		<linearGradient id="SVGID_1_" gradientUnits="userSpaceOnUse" x1="0" y1="137.26" x2="1" y2="137.26" gradientTransform="matrix(-137.26 109.8063 109.8063 137.26 -14927.6465 -18832.2676)">
		<stop  offset="0" style="stop-color:#1EC4DC"/>
		<stop  offset="0.25" style="stop-color:#369ACD"/>
		<stop  offset="0.65" style="stop-color:#4D6FBE"/>
		<stop  offset="1" style="stop-color:#6644AF"/>
	</linearGradient>
	<path class="st0" d="M10,0h117.3c5.5,0,10,4.5,10,10v117.3c0,5.5-4.5,10-10,10H10c-5.5,0-10-4.5-10-10V10C0,4.5,4.5,0,10,0z"/>
	<polygon class="st1" points="23.5,114.3 25,114.3 21.4,122.8 20.1,122.8 18.4,116.7 15.9,122.8 14.6,122.8 12.3,114.3 13.8,114.3 
		15.4,120.6 18.1,114.3 19.2,114.3 20.9,120.7 	"/>
	<polygon class="st1" points="33.4,114.3 35,114.3 34.3,122.8 32.8,122.8 33.1,119.1 28.8,119.1 28.5,122.8 27,122.8 27.6,114.3 
		29.1,114.3 28.9,117.9 33.2,117.9 	"/>
	<polygon class="st1" points="37.5,122.8 38.2,114.3 39.7,114.3 39.1,122.8 	"/>
	<polygon class="st1" points="44.3,122.8 44.9,115.6 42.1,115.6 42.2,114.3 49.3,114.3 49.2,115.6 46.4,115.6 45.8,122.8 	"/>
	<polygon class="st1" points="57.3,115.6 53.2,115.6 53,117.9 56.9,117.9 56.8,119.1 52.9,119.1 52.7,121.6 56.8,121.6 56.7,122.8 
		51.1,122.8 51.7,114.3 57.4,114.3 	"/>
	<path class="st1" d="M69.6,119.6c0.2,0.2,0.3,0.4,0.4,0.6l1.2,2.6h-1.7l-1.3-2.7c-0.1-0.3-0.3-0.4-0.5-0.5
		c-0.2-0.1-0.4-0.2-0.7-0.2H66l-0.3,3.4h-1.5l0.7-8.4h3.8c0.9,0,1.5,0.2,2,0.6c0.5,0.4,0.7,1,0.7,1.7c0,1.5-0.8,2.3-2.2,2.6
		C69.3,119.3,69.5,119.4,69.6,119.6z M68.2,118.2c1.1,0,1.7-0.5,1.7-1.4c0-0.4-0.1-0.7-0.4-0.9c-0.2-0.2-0.6-0.3-1.1-0.3h-2.2
		l-0.2,2.7H68.2z"/>
	<path class="st1" d="M75,122.1c-0.6-0.5-0.9-1.3-0.9-2.3c0-0.1,0-0.3,0-0.5l0.4-4.9h1.5l-0.4,5c0,0.1,0,0.2,0,0.4
		c0,0.7,0.2,1.2,0.5,1.5c0.3,0.3,0.8,0.5,1.5,0.5c0.6,0,1.1-0.2,1.5-0.5c0.4-0.3,0.6-0.9,0.6-1.6l0.4-5.2h1.5l-0.4,5
		c-0.1,1.2-0.4,2-1.1,2.6c-0.6,0.6-1.5,0.9-2.6,0.9C76.4,122.9,75.6,122.6,75,122.1z"/>
	<path class="st1" d="M85.3,122.6c-0.6-0.2-1.1-0.4-1.5-0.7l0.6-1.1c0.4,0.3,0.9,0.5,1.3,0.7c0.5,0.1,0.9,0.2,1.5,0.2
		c0.6,0,1-0.1,1.3-0.3s0.5-0.5,0.5-0.8c0-0.2-0.1-0.4-0.2-0.6c-0.2-0.2-0.4-0.3-0.6-0.4s-0.6-0.2-1-0.3c-0.6-0.2-1.1-0.3-1.4-0.5
		c-0.4-0.2-0.7-0.4-1-0.7c-0.3-0.3-0.4-0.7-0.4-1.3c0-0.5,0.1-1,0.4-1.3c0.3-0.4,0.7-0.7,1.2-0.9c0.5-0.2,1.1-0.3,1.8-0.3
		c0.6,0,1.2,0.1,1.7,0.3c0.5,0.2,1,0.4,1.3,0.7l-0.6,1.1c-0.4-0.3-0.7-0.5-1.2-0.7c-0.4-0.2-0.8-0.2-1.3-0.2c-0.6,0-1,0.1-1.3,0.3
		c-0.3,0.2-0.5,0.5-0.5,0.9c0,0.2,0.1,0.5,0.3,0.6c0.2,0.2,0.4,0.3,0.6,0.4c0.2,0.1,0.6,0.2,1.1,0.3c0.6,0.2,1.1,0.3,1.4,0.5
		c0.4,0.2,0.7,0.4,0.9,0.7c0.3,0.3,0.4,0.7,0.4,1.2c0,0.8-0.3,1.4-0.9,1.8c-0.6,0.4-1.4,0.7-2.5,0.7
		C86.5,122.9,85.9,122.8,85.3,122.6z"/>
	<path class="st1" d="M94.4,122.6c-0.6-0.2-1.1-0.4-1.5-0.7l0.6-1.1c0.4,0.3,0.9,0.5,1.3,0.7c0.5,0.1,0.9,0.2,1.5,0.2
		c0.6,0,1-0.1,1.3-0.3s0.5-0.5,0.5-0.8c0-0.2-0.1-0.4-0.2-0.6c-0.2-0.2-0.4-0.3-0.6-0.4s-0.6-0.2-1-0.3c-0.6-0.2-1.1-0.3-1.4-0.5
		c-0.4-0.2-0.7-0.4-1-0.7c-0.3-0.3-0.4-0.7-0.4-1.3c0-0.5,0.1-1,0.4-1.3c0.3-0.4,0.7-0.7,1.2-0.9c0.5-0.2,1.1-0.3,1.8-0.3
		c0.6,0,1.2,0.1,1.7,0.3c0.5,0.2,1,0.4,1.3,0.7l-0.6,1.1c-0.4-0.3-0.7-0.5-1.2-0.7c-0.4-0.2-0.8-0.2-1.3-0.2c-0.6,0-1,0.1-1.3,0.3
		c-0.3,0.2-0.5,0.5-0.5,0.9c0,0.2,0.1,0.5,0.3,0.6c0.2,0.2,0.4,0.3,0.6,0.4c0.2,0.1,0.6,0.2,1.1,0.3c0.6,0.2,1.1,0.3,1.4,0.5
		c0.4,0.2,0.7,0.4,0.9,0.7c0.3,0.3,0.4,0.7,0.4,1.2c0,0.8-0.3,1.4-0.9,1.8c-0.6,0.4-1.4,0.7-2.5,0.7
		C95.5,122.9,94.9,122.8,94.4,122.6z"/>
	<polygon class="st1" points="102.2,122.8 102.9,114.3 104.4,114.3 103.8,122.8 	"/>
	<path class="st1" d="M113.5,122.8l-0.7-2h-4.1l-1,2h-1.6l4.5-8.4h1.3l3.2,8.4H113.5z M109.3,119.6h3.1l-1.3-3.6L109.3,119.6z"/>
	<polygon class="st1" points="123.6,114.3 125.1,114.3 124.4,122.8 123.3,122.8 119.2,116.9 118.8,122.8 117.3,122.8 118,114.3 
		119.1,114.3 123.2,120.2 	"/>
	<rect x="42.4" y="47.5" class="st2" width="55" height="55"/>
	<line class="st2" x1="42.4" y1="91.5" x2="97.4" y2="91.5"/>
	
		<rect x="49.4" y="40.5" transform="matrix(0.3754 -0.9269 0.9269 0.3754 -8.5653 80.7362)" class="st2" width="12.5" height="12.5"/>
	<rect x="64.5" y="43.6" transform="matrix(0.4653 -0.8851 0.8851 0.4653 -5.8003 87.2274)" class="st3" width="9.5" height="9.5"/>
	<rect x="78" y="43" transform="matrix(0.2084 -0.978 0.978 0.2084 18.4063 122.4424)" class="st4" width="13.8" height="13.8"/>
	<path class="st4" d="M42.4,54.1c5.5,1.4,11.1,1.6,16.7,0.7c9.4-1.5,8.9,1.3,17.6,0.3c8.7-1,20.7,0.2,20.7,0.2"/>
	<rect x="45.5" y="59.1" class="st1" width="48.5" height="28.7"/>
</g>
</svg>
