<svg xmlns="http://www.w3.org/2000/svg" xmlns:xlink="http://www.w3.org/1999/xlink" viewBox="0 0 137.26 137.26"><defs><style>.cls-1{fill:url(#linear-gradient);}.cls-2{font-size:11.96px;font-family:NunitoSans-BoldItalic, Nunito Sans;font-weight:700;font-style:italic;letter-spacing:0.12em;}.cls-2,.cls-6{fill:#fff;}.cls-3,.cls-4,.cls-5{fill:none;stroke:#fff;stroke-miterlimit:10;}.cls-3{stroke-width:2.33px;}.cls-4{stroke-width:1.78px;}.cls-5{stroke-width:2.57px;}</style><linearGradient id="linear-gradient" x1="-2456.54" y1="270.56" x2="-2457.54" y2="269.76" gradientTransform="matrix(137.26, 0, 0, -137.26, 337329.15, 37145.25)" gradientUnits="userSpaceOnUse"><stop offset="0" stop-color="#1ec4dc"/><stop offset="0.25" stop-color="#369acd"/><stop offset="0.65" stop-color="#4d6fbe"/><stop offset="1" stop-color="#6644af"/></linearGradient></defs><title>Asset 93</title><g id="Layer_2" data-name="Layer 2"><g id="white-russian"><rect id="Box" class="cls-1" width="137.26" height="137.26" rx="10" ry="10"/><g id="Text"><text class="cls-2" transform="translate(11.57 122.77)">WHITE RUSSIAN</text></g><g id="Icon"><rect class="cls-3" x="42.37" y="47.47" width="55" height="55"/><line class="cls-3" x1="42.37" y1="91.47" x2="97.37" y2="91.47"/><rect class="cls-3" x="49.37" y="40.47" width="12.5" height="12.5" transform="translate(21.61 -17.46) rotate(22.05)"/><rect class="cls-4" x="64.53" y="43.65" width="9.54" height="9.54" transform="translate(30.49 -26.69) rotate(27.73)"/><rect class="cls-5" x="77.97" y="42.97" width="13.76" height="13.76" transform="translate(12.25 -16.59) rotate(12.03)"/><path class="cls-5" d="M42.37,54.14a40.71,40.71,0,0,0,16.7.72c9.38-1.5,8.94,1.29,17.62.29s20.68.23,20.68.23"/><rect class="cls-6" x="45.54" y="59.14" width="48.5" height="28.67"/></g></g></g></svg>